<?xml version="1.0" encoding="UTF-8"?>
<svg id="Layer_1" data-name="Layer 1" xmlns="http://www.w3.org/2000/svg" viewBox="0 0 409.68 409.68">
  <path d="M220.08639,37.62962c53.03576,0,103.09491,24.50958,135.61999,66.40123,32.52508,41.89167,43.86516,96.4631,30.72246,147.84464l-166.34245-42.54806V37.62962Z" fill="#2a2e34"/>
  <path d="M386.42884,251.8755c-13.82489,54.04873-53.04777,98.01103-105.1765,117.88536l-61.16595-160.43342,166.34245,42.54806Z" fill="#3a1d03"/>
  <path d="M151.68179,51.84424c21.58635-9.37627,44.86985-14.21462,68.4046-14.21462V209.32744L151.68179,51.84424Z" fill="#a7a9ac"/>
  <path d="M144.58488,55.12086c2.34047-1.14592,4.70672-2.23839,7.09691-3.27662l68.4046,157.48319L144.58488,55.12086Z" fill="#5b51aa"/>
  <path d="M49.49965,189.82597c6.65093-58.17827,42.49341-108.95549,95.08524-134.7051l75.50151,154.20657-170.58675-19.50147Z" fill="#fbe44b"/>
  <path d="M61.0869,274.1295c-10.87524-26.6837-14.86005-55.67525-11.58725-84.30353l170.58675,19.50147L61.0869,274.1295Z" fill="#b26700"/>
  <path d="M281.25234,369.76086c-87.18196,33.23849-184.95103-9.22862-220.16544-95.63135l158.99949-64.80206,61.16595,160.43342Z" fill="#fb9626"/>
  <text transform="translate(176.5625 81.07551)" fill="#231f20" font-family="FuturaPT-Book, Futura PT, Futura,Trebuchet MS,Arial,sans-serif" font-size="14"><tspan x="0" y="0">Other</tspan></text>
  <text transform="translate(179.48535 98.91731)" fill="#231f20" font-family="FuturaPT-Book, Futura PT, Futura,Trebuchet MS,Arial,sans-serif" font-size="14"><tspan x="0" y="0">6.5%</tspan></text>
  <text transform="translate(12.11817 90.26106)" fill="#1a1a1a" font-family="FuturaPT-Book, Futura PT, Futura,Trebuchet MS,Arial,sans-serif" font-size="14"><tspan x="0" y="0">Compilation</tspan></text>
  <text transform="translate(12.11817 111.56477)" fill="#231f20" font-family="FuturaPT-Book, Futura PT, Futura,Trebuchet MS,Arial,sans-serif" font-size="14"><tspan x="0" y="0">0.7%</tspan></text>
  <polyline points="12.86857 95.89952 97.58339 95.89952 151.71328 61.23642" fill="none" stroke="#757575" stroke-miterlimit="10"/>
  <path d="M154.21952,61.23642c0-1.38413-1.12208-2.50623-2.50623-2.50623s-2.50623,1.1221-2.50623,2.50623,1.12206,2.50623,2.50623,2.50623,2.50623-1.12206,2.50623-2.50623" fill="#9e9e9e"/>
  <text transform="translate(112.46875 139.75959)" fill="#231f20" font-family="FuturaPT-Book, Futura PT, Futura,Trebuchet MS,Arial,sans-serif" font-size="14"><tspan x="0" y="0">R&amp;B</tspan></text>
  <text transform="translate(105.14453 161.06184)" fill="#231f20" font-family="FuturaPT-Book, Futura PT, Futura,Trebuchet MS,Arial,sans-serif" font-size="14"><tspan x="0" y="0">15.9%</tspan></text>
  <text transform="translate(78.52442 217.75324)" fill="#fff" font-family="FuturaPT-Book, Futura PT, Futura,Trebuchet MS,Arial,sans-serif" font-size="14"><tspan x="0" y="0">Country</tspan></text>
  <text transform="translate(86.05762 239.05696)" fill="#fff" font-family="FuturaPT-Book, Futura PT, Futura,Trebuchet MS,Arial,sans-serif" font-size="14"><tspan x="0" y="0">8.0%</tspan></text>
  <text transform="translate(165.38672 295.82405)" fill="#231f20" font-family="FuturaPT-Book, Futura PT, Futura,Trebuchet MS,Arial,sans-serif" font-size="14"><tspan x="0" y="0">Rock</tspan></text>
  <text transform="translate(159.70215 317.12727)" fill="#231f20" font-family="FuturaPT-Book, Futura PT, Futura,Trebuchet MS,Arial,sans-serif" font-size="14"><tspan x="0" y="0">24.6%</tspan></text>
  <text transform="translate(290.52442 150.80207)" fill="#fff" font-family="FuturaPT-Book, Futura PT, Futura,Trebuchet MS,Arial,sans-serif" font-size="18"><tspan x="0" y="0">Pop</tspan></text>
  <text transform="translate(281.71387 172.1053)" fill="#fff" font-family="FuturaPT-Book, Futura PT, Futura,Trebuchet MS,Arial,sans-serif" font-size="18"><tspan x="0" y="0">29.0%</tspan></text>
  <text transform="translate(285.34278 274.12922)" fill="#fff" font-family="FuturaPT-Book, Futura PT, Futura,Trebuchet MS,Arial,sans-serif" font-size="14"><tspan x="0" y="0">Rap</tspan></text>
  <text transform="translate(277.16211 295.43244)" fill="#fff" font-family="FuturaPT-Book, Futura PT, Futura,Trebuchet MS,Arial,sans-serif" font-size="14"><tspan x="0" y="0">15.2%</tspan></text>
</svg>