<?xml version="1.0" encoding="UTF-8"?>
<svg id="Layer_1" data-name="Layer 1" xmlns="http://www.w3.org/2000/svg" viewBox="0 0 409.68 409.99">
  <path d="M210.99,25.84c42.42,0,83.49,14.91,116.02,42.13l-116.02,138.69V25.84Z" fill="#b26700"/>
  <path d="M327.01,67.97c61.36,51.34,81.7,136.9,49.99,210.35l-166.02-71.66,116.02-138.69Z" fill="#fb9626"/>
  <path d="M377,278.32c-12.88,29.83-33.56,55.65-59.86,74.72l-106.15-146.38,166.02,71.66Z" fill="#fbe44b"/>
  <path d="M210.18,25.84c-.27,0-.54,0-.81,0-1.61,.01-3.23,.05-4.84,.11-3.23,.12-6.45,.32-9.67,.61-.54,.05-1.07,.1-1.61,.15-.27,.03-.54,.05-.8,.08-1.61,.17-3.21,.35-4.81,.56-.27,.03-.53,.07-.8,.11-2.67,.36-5.33,.78-7.98,1.26l32.13,177.94V25.84c-.27,0-.54,0-.81,0Z" fill="#a7a9ac"/>
  <path d="M30.29,213.32C26.97,123.38,90.3,44.7,178.86,28.71l32.13,177.94-180.7,6.66Z" fill="#2a2e34"/>
  <path d="M61.7,308.68c-19.26-28.19-30.15-61.25-31.41-95.37l180.7-6.66L61.7,308.68Z" fill="#5b51aa"/>
  <path d="M317.14,353.04c-39.53,28.67-88.98,40.13-137.09,31.77-48.11-8.35-90.8-35.81-118.35-76.13l149.29-102.03,106.15,146.38Z" fill="#3a1d03"/>
  <text transform="translate(45.16 40.35)" fill="#1a1a1a" font-family="FuturaPT-Book, Futura PT, Futura,Trebuchet MS,Arial,sans-serif" font-size="14"><tspan x="0" y="0">Other</tspan></text>
  <text transform="translate(45.16 62.79)" fill="#231f20" font-family="FuturaPT-Book, Futura PT, Futura,Trebuchet MS,Arial,sans-serif" font-size="14"><tspan x="0" y="0">2.6%</tspan></text>
  <polyline points="45.16 46.29 123.71 46.29 200.26 35.21" fill="none" stroke="#757575" stroke-miterlimit="10"/>
  <path d="M202.89,35.21c0-1.46-1.18-2.64-2.64-2.64s-2.64,1.18-2.64,2.64,1.18,2.64,2.64,2.64,2.64-1.18,2.64-2.64" fill="#9e9e9e"/>
  <text transform="translate(111.72 138.44)" fill="#fff" font-family="FuturaPT-Book, Futura PT, Futura,Trebuchet MS,Arial,sans-serif" font-size="14"><tspan x="0" y="0">Pop</tspan></text>
  <text transform="translate(101.23 160.88)" fill="#fff" font-family="FuturaPT-Book, Futura PT, Futura,Trebuchet MS,Arial,sans-serif" font-size="14"><tspan x="0" y="0">22.7%</tspan></text>
  <text transform="translate(61.7 242.93)" fill="#fff" font-family="FuturaPT-Book, Futura PT, Futura,Trebuchet MS,Arial,sans-serif" font-size="14"><tspan x="-15" y="0">Compilation</tspan></text>
  <text transform="translate(61.7 265.36)" fill="#fff" font-family="FuturaPT-Book, Futura PT, Futura,Trebuchet MS,Arial,sans-serif" font-size="14"><tspan x="0" y="0">9.0%</tspan></text>
  <text transform="translate(184.12 305.48)" fill="#fff" font-family="FuturaPT-Bold, Futura PT, Futura,Trebuchet MS,Arial,sans-serif" font-size="14"><tspan x="0" y="0">Rap</tspan></text>
  <text transform="translate(173.6 327.92)" fill="#fff" font-family="FuturaPT-Bold, Futura PT, Futura,Trebuchet MS,Arial,sans-serif" font-size="14"><tspan x="0" y="0">25.4%</tspan></text>
  <text transform="translate(223.24 85.12)" fill="#fff" font-family="FuturaPT-Book, Futura PT, Futura,Trebuchet MS,Arial,sans-serif" font-size="14"><tspan x="0" y="0">Country</tspan></text>
  <text transform="translate(227.25 107.56)" fill="#fff" font-family="FuturaPT-Book, Futura PT, Futura,Trebuchet MS,Arial,sans-serif" font-size="14"><tspan x="0" y="0">11.1%</tspan></text>
  <text transform="translate(297.49 172.63)" fill="#231f20" font-family="FuturaPT-Book, Futura PT, Futura,Trebuchet MS,Arial,sans-serif" font-size="14"><tspan x="0" y="0">Rock</tspan></text>
  <text transform="translate(290.5 195.06)" fill="#231f20" font-family="FuturaPT-Book, Futura PT, Futura,Trebuchet MS,Arial,sans-serif" font-size="14"><tspan x="0" y="0">20.4%</tspan></text>
  <text transform="translate(300.75 282.92)" fill="#231f20" font-family="FuturaPT-Book, Futura PT, Futura,Trebuchet MS,Arial,sans-serif" font-size="14"><tspan x="0" y="0">R&amp;B</tspan></text>
  <text transform="translate(298.98 305.36)" fill="#231f20" font-family="FuturaPT-Book, Futura PT, Futura,Trebuchet MS,Arial,sans-serif" font-size="14"><tspan x="0" y="0">8.5%</tspan></text>
</svg>