<?xml version="1.0" encoding="UTF-8"?>
<svg id="Layer_1" data-name="Layer 1" xmlns="http://www.w3.org/2000/svg" viewBox="0 0 612 482.57061">
  <path d="M389.70943,398.99852v.86051h-1.17319v-100.67989c0-.47525-.52525-.86051-1.17319-.86051h-109.10672c-.64794,0-1.17319,.38526-1.17319,.86051v100.67989h-1.17319v-.86051h113.79948Zm0,1.72102h-114.97267v-101.5404h0c0-1.42575,1.57576-2.58154,3.51957-2.58154v0h109.10672v0c1.94381,0,3.51957,1.15579,3.51957,2.58154h0v101.5404h-1.17319" opacity="0"/>
  <path d="M316.11929,401.3398h-113.79948v-101.89956c0-.96201,1.05051-1.74187,2.34638-1.74187h109.10672c1.29587,0,2.34638,.77986,2.34638,1.74187v101.89956Z" fill="#4285f4"/>
  <path d="M389.70931,214.60872v.86051h-1.17319V20.13304c0-.47524-.52526-.86051-1.17319-.86051h-109.10672c-.64793,0-1.17319,.38527-1.17319,.86051V215.46924h-1.17319v-.86051h113.79948Zm0,1.72102h-114.97267V20.13304h0c0-1.42575,1.57576-2.58154,3.51957-2.58154v0h109.10672v0c1.94381,0,3.51957,1.15579,3.51957,2.58154h0V216.32975h-1.17319" opacity="0"/>
  <path d="M316.11929,297.69838h-113.79948V20.8512c0-1.3471,1.05049-2.43918,2.34638-2.43918h109.10672c1.29589,0,2.34638,1.09208,2.34638,2.43918V297.69838Z" fill="#262262"/>
  <path d="M316.11929,429.42588h-113.79948v-28.7989c0-.25246,1.05049-.45713,2.34638-.45713h109.10672c1.29585,0,2.34638,.20466,2.34638,.45713v28.7989Z" fill="#a7a9ac"/>
  <text transform="translate(205.11886 449.17206)" font-family="FuturaPT-Book, Futura PT, Futura,Trebuchet MS,Arial,sans-serif" font-size="14"><tspan x="0" y="0">Academy Members</tspan><tspan x="33.56445" y="16.7998">(2020)</tspan></text>
  <text transform="translate(239.51437 345.21595)" font-family="FuturaPT-Book, Futura PT, Futura,Trebuchet MS,Arial,sans-serif" font-size="14"><tspan x="0" y="0">Female</tspan></text>
  <text transform="translate(244.67355 100.16029)" fill="#fff" font-family="FuturaPT-Book, Futura PT, Futura,Trebuchet MS,Arial,sans-serif" font-size="14"><tspan x="0" y="0">Male</tspan></text>
  <text transform="translate(233.43136 425.48646)" font-family="FuturaPT-Book, Futura PT, Futura,Trebuchet MS,Arial,sans-serif" font-size="14"><tspan x="-15" y="-5">6% Unknown</tspan></text>
  <text transform="translate(246.55636 330.15833)" font-family="FuturaPT-Book, Futura PT, Futura,Trebuchet MS,Arial,sans-serif" font-size="14"><tspan x="0" y="0" letter-spacing="-.03704em">2</tspan><tspan x="7.43359" y="0">6%</tspan></text>
  <text transform="translate(246.29757 85.53138)" fill="#fff" font-family="FuturaPT-Book, Futura PT, Futura,Trebuchet MS,Arial,sans-serif" font-size="14"><tspan x="0" y="0">69%</tspan></text>
  <text transform="translate(40.59542 28.38392)" font-family="FuturaPT-Book, Futura PT, Futura,Trebuchet MS,Arial,sans-serif" font-size="14"><tspan x="0" y="0" letter-spacing="-.06299em">1</tspan><tspan x="7.07031" y="0" letter-spacing="-.00007em">00%</tspan></text>
  <text transform="translate(59.58175 429.42495)" font-family="FuturaPT-Book, Futura PT, Futura,Trebuchet MS,Arial,sans-serif" font-size="14"><tspan x="0" y="0">0%</tspan></text>
  <path d="M540.31712,398.99852v.86051h-1.17319v-100.67989c0-.47525-.52525-.86051-1.17319-.86051h-109.10672c-.64794,0-1.17319,.38526-1.17319,.86051v100.67989h-1.17319v-.86051h113.79948Zm0,1.72102h-114.97267v-101.5404h0c0-1.42575,1.57576-2.58154,3.51957-2.58154v0h109.10672v0c1.94381,0,3.51957,1.15579,3.51957,2.58154h0v101.5404h-1.17319" opacity="0"/>
  <path d="M505.74497,301.1404h-109.10669c-1.2959,0-2.34619,.77986-2.34619,1.74188v126.54358h113.79932v-126.54358c0-.96202-1.05054-1.74188-2.34644-1.74188Z" fill="#4285f4"/>
  <path d="M540.31712,214.60872v.86051h-1.17319V20.13304c0-.47524-.52526-.86051-1.17319-.86051h-109.10672c-.64793,0-1.17319,.38527-1.17319,.86051V215.46924h-1.17319v-.86051h113.79948Zm0,1.72102h-114.97267V20.13304h0c0-1.42575,1.57576-2.58154,3.51957-2.58154v0h109.10672v0c1.94381,0,3.51957,1.15579,3.51957,2.58154h0V216.32975h-1.17319" opacity="0"/>
  <path d="M508.09148,349.17017h-113.79948V20.44773c0-1.59952,1.05049-2.89623,2.34638-2.89623h109.10672c1.29589,0,2.34638,1.29671,2.34638,2.89623V349.17017Z" fill="#262262"/>
  <text transform="translate(397.22408 449.17205)" font-family="FuturaPT-Book, Futura PT, Futura,Trebuchet MS,Arial,sans-serif" font-size="14"><tspan x="0" y="0">Grammy Nominees </tspan><tspan x="16.73633" y="16.7998">(2013-2021)</tspan></text>
  <text transform="translate(436.6462 100.16029)" fill="#fff" font-family="FuturaPT-Book, Futura PT, Futura,Trebuchet MS,Arial,sans-serif" font-size="14"><tspan x="0" y="0">Male</tspan></text>
  <text transform="translate(431.48702 387.79212)" font-family="FuturaPT-Book, Futura PT, Futura,Trebuchet MS,Arial,sans-serif" font-size="14"><tspan x="0" y="0">Female</tspan></text>
  <text transform="translate(432.69796 85.53138)" fill="#fff" font-family="FuturaPT-Book, Futura PT, Futura,Trebuchet MS,Arial,sans-serif" font-size="14"><tspan x="0" y="0">86.6%</tspan></text>
  <text transform="translate(433.79659 375.67005)" font-family="FuturaPT-Book, Futura PT, Futura,Trebuchet MS,Arial,sans-serif" font-size="14"><tspan x="0" y="0" letter-spacing="-.137em">1</tspan><tspan x="6.03418" y="0" letter-spacing="-.02002em">3</tspan><tspan x="13.70605" y="0">.4%</tspan></text>
  <line x1="119.2593" y1="428.40907" x2="558.28662" y2="428.40907" fill="none" stroke="#231f20" stroke-miterlimit="10"/>
</svg>