<?xml version="1.0" encoding="UTF-8"?>
<svg id="Layer_1" data-name="Layer 1" xmlns="http://www.w3.org/2000/svg" viewBox="100 0 524.52866 305.79657">
  <g>
    <line x1="360.97284" y1="121.37576" x2="360.97284" y2="291.44412" fill="none" stroke="#231f20" stroke-miterlimit="10" stroke-width="2"/>
    <polygon points="351.00018 288.52615 360.97284 305.79666 370.9455 288.52615 351.00018 288.52615" fill="#231f20"/>
  </g>
  <circle cx="360.97285" cy="105.82809" r="90" fill="#0b0c0c"/>
  <g>
    <path d="M352.6053,223.05529c8.78286,0,17.56683,.07398,26.34772-.05745,1.94209-.02906,2.31459,.59617,2.18881,2.30479-.13538,1.83896-.00959,3.69595-.03731,5.54447-.01875,1.25016,.40324,2.20337,1.76475,2.20086,1.41043-.0026,1.70135-1.05829,1.69886-2.25354-.00546-2.61906-.04365-5.23946,.02768-7.8567,.0392-1.43814-.29347-2.6586-1.0707-3.90142-2.4869-3.9767-5.03948-7.93314-7.19136-12.09162-1.58579-3.06454-3.46516-4.92131-7.12403-4.19477-.50268,.09983-1.20636,.27898-1.49147-.61333-.67659-2.11749,.10531-3.94334,2.16217-4.7054,1.73422-.64254,3.49857-1.2294,5.36579-1.29658,6.75529-.24305,11.62586-3.598,15.09858-9.18387,2.53144-4.07178,5.03535-8.17189,9.30909-10.67333,1.5201-.88973,1.90421-2.00173,1.71795-3.6187-1.01705-8.8292-5.38711-15.379-13.181-19.66722-1.45444-.80025-2.60628-.72027-3.98947,.32999-4.39219,3.33505-9.28007,5.65951-14.64808,7.08495-5.56813,1.47858-11.09564,3.12066-16.42222,5.38887-2.8295,1.20488-4.60096,3.13183-5.5583,6.04019-1.32842,4.03569-2.22608,8.16339-2.91248,12.33757-.18959,1.15294-.55853,1.67101-1.73614,1.95339-3.68858,.88447-5.46544,3.13495-5.56921,6.89908-.06579,2.38648-.16447,4.78782,.0241,7.16085,.16872,2.12324-.54574,2.97189-2.6369,2.59072-2.47406-.45097-3.90097,.61998-5.10476,2.80363-2.59785,4.71251-5.48365,9.26652-8.2631,13.87846-.43778,.72641-.85631,1.41353-.84355,2.33045,.04179,3.00395,.029,6.00892,.01045,9.01332-.00755,1.22313,.34681,2.22114,1.72123,2.247,1.39553,.02625,1.7711-.99688,1.77524-2.20205,.00663-1.92597,.10807-3.85955-.02963-5.77561-.11526-1.60383,.36597-2.07853,2.01774-2.06267,8.85915,.08503,17.71955,.04016,26.57953,.04569Z" fill="#fefefe"/>
    <path d="M352.60529,223.05253c-8.85997-.00277-17.72037,.0421-26.57952-.04293-1.65177-.01586-2.133,.45884-2.01774,2.06267,.1377,1.91606,.03626,3.84964,.02963,5.77561-.00415,1.20517-.37971,2.2283-1.77524,2.20205-1.37442-.02586-1.72877-1.02387-1.72123-2.247,.01854-3.0044,.03134-6.00937-.01045-9.01332-.01275-.91692,.40577-1.60404,.84355-2.33045,2.77945-4.61195,5.66525-9.16596,8.2631-13.87846,1.20378-2.18365,2.6307-3.2546,5.10476-2.80363,2.09116,.38117,2.80562-.46749,2.6369-2.59072-.18858-2.37303-.08989-4.77437-.0241-7.16085,.10377-3.76413,1.88064-6.01461,5.56921-6.89908,1.1776-.28237,1.54654-.80044,1.73614-1.95339,.6864-4.17418,1.58406-8.30188,2.91248-12.33757,.95734-2.90837,2.7288-4.83531,5.5583-6.04019,5.32658-2.2682,10.85409-3.91029,16.42222-5.38887,5.36802-1.42543,10.2559-3.7499,14.64808-7.08495,1.38319-1.05026,2.53503-1.13024,3.98947-.32999,7.79389,4.28823,12.16395,10.83802,13.181,19.66722,.18626,1.61698-.19785,2.72898-1.71795,3.6187-4.27374,2.50144-6.77765,6.60155-9.30909,10.67333-3.47272,5.58587-8.34329,8.94082-15.09858,9.18387-1.86723,.06718-3.63158,.65404-5.36579,1.29658-2.05687,.76206-2.83876,2.58792-2.16217,4.7054,.28511,.89231,.98879,.71315,1.49147,.61333,3.65887-.72654,5.53824,1.13023,7.12403,4.19477,2.15187,4.15848,4.70446,8.11492,7.19136,12.09162,.77723,1.24283,1.1099,2.46329,1.0707,3.90142-.07133,2.61723-.03314,5.23764-.02768,7.8567,.00249,1.19525-.28843,2.25095-1.69886,2.25354-1.36152,.00251-1.7835-.95071-1.76475-2.20086,.02772-1.84852-.09807-3.70551,.03731-5.54447,.12578-1.70862-.24672-2.33385-2.18881-2.30479-8.78089,.13143-17.56486,.05745-26.34773,.0547Zm-1.17675-37.1644c4.18629-.12453,2.93973,.67529,4.5694-3.03315,.52521-1.19513,1.00025-2.41394,1.45266-3.63874,.24955-.67557,.54593-1.32513,1.25021-1.56499,3.13797-1.06869,6.12987-2.41173,9.50332-.14292,3.21567,2.1627,3.70472,3.71085,1.03844,6.55441-2.90302,3.09607-6.61048,4.97541-10.42957,6.64219-3.09852,1.3523-5.72436,3.30866-7.76251,5.99213-1.79824,2.36757-.9949,4.05225,2.00941,4.34549,1.07616,.10504,2.13032-.02059,3.18702-.34161,2.16607-.65805,4.08324-1.76143,5.92702-3.03435,3.65668-2.52449,7.64595-4.70651,12.05186-4.86299,6.35769-.22579,10.52249-3.15294,13.45887-8.49831,2.13009-3.8776,4.75613-7.41926,8.52763-9.84821,1.52242-.98046,1.76899-2.07799,1.46464-3.64692-1.16121-5.98609-4.26265-10.61426-9.45404-13.86038-1.17732-.73617-2.03312-.80222-3.26226,.06959-4.29279,3.04481-8.99298,5.24446-14.11856,6.60805-5.3422,1.42123-10.66182,2.9464-15.80753,5.02413-2.40877,.97262-3.85042,2.58129-4.56095,5.07881-.80075,2.81464-1.44106,5.65749-2.00916,8.52155q-.72253,3.64253,2.96411,3.63622Zm12.9045,14.58714c-.91916,.55427-1.54649,.96123-2.19957,1.32148-3.00713,1.65882-6.14157,2.84968-9.66671,2.54265-5.1108-.44513-7.10057-4.28696-4.47685-8.64262,1.4332-2.37927,3.49019-4.19481,5.98343-6.28855-3.61004,0-6.73036-.04812-9.84835,.01675-2.11134,.04393-3.28425,1.32383-3.29686,3.59422-.03378,6.08183,.03893,12.16453-.03505,18.24562-.01697,1.3957,.49944,1.63711,1.73345,1.62793,6.69816-.04979,13.3974-.07019,20.09499,.00791,1.49793,.01747,1.77936-.51152,1.74212-1.86832-.09288-3.38433-.03061-6.77292-.03061-10.55706Zm15.41463,18.99823c-2.60394-4.31695-5.05355-8.30988-7.42783-12.3471-.97645-1.66035-2.47903-.70292-3.74052-.91188-.72476-.12006-.86779,.42524-.86539,1.03718,.00444,1.13088-.19342,2.14766,1.37764,2.70229,1.43731,.50742,2.29633,1.89705,1.87185,3.56041-.44654,1.74985-1.69327,2.76316-3.51881,2.76833-9.9356,.02813-19.87137,.02398-29.80699-.00124-1.85958-.00472-3.06414-1.11469-3.50527-2.81172-.42627-1.63992,.49697-2.97891,1.93423-3.52674,1.42809-.54432,1.28047-1.51044,1.27629-2.56378-.00212-.53504,.01272-1.2424-.74969-1.15608-1.22063,.13821-2.7378-.73088-3.61463,.6853-2.53158,4.08878-4.97452,8.23243-7.57879,12.56502h54.34791Zm-20.97756-33.60559c3.7464,.17723,5.92052-2.33005,8.39282-4.45821-4.3502-3.21042-6.93051-1.82355-8.39282,4.45821Z" fill="#1a1b1c"/>
    <path d="M351.42854,185.88812q-3.68065,.0075-2.96411-3.63622c.5681-2.86406,1.20842-5.70691,2.00916-8.52155,.71054-2.49751,2.15218-4.10619,4.56095-5.07881,5.14571-2.07773,10.46533-3.6029,15.80753-5.02413,5.12557-1.36359,9.82577-3.56324,14.11856-6.60805,1.22914-.87181,2.08494-.80576,3.26226-.06959,5.19139,3.24612,8.29283,7.87429,9.45404,13.86038,.30435,1.56893,.05777,2.66646-1.46464,3.64692-3.7715,2.42894-6.39754,5.9706-8.52763,9.84821-2.93638,5.34537-7.10118,8.27252-13.45887,8.49831-4.40591,.15648-8.39517,2.3385-12.05186,4.86299-1.84378,1.27292-3.76095,2.3763-5.92702,3.03435-1.05669,.32102-2.11086,.44665-3.18702,.34161-3.00432-.29324-3.80765-1.97792-2.00941-4.34549,2.03815-2.68347,4.66399-4.63984,7.76251-5.99213,3.81909-1.66678,7.52655-3.54612,10.42957-6.64219,2.66628-2.84356,2.17723-4.39171-1.03844-6.55441-3.37345-2.26881-6.36535-.92577-9.50332,.14292-.70429,.23986-1.00067,.88942-1.25021,1.56499-.45241,1.22481-.92745,2.44361-1.45266,3.63874-1.62967,3.70844-.38311,2.90862-4.5694,3.03315Z" fill="#fbfbfb"/>
    <path d="M364.33305,200.47526c0,3.78415-.06228,7.17273,.03061,10.55706,.03724,1.3568-.24418,1.88579-1.74212,1.86832-6.6976-.07811-13.39683-.0577-20.09499-.00791-1.23401,.00918-1.75042-.23223-1.73345-1.62793,.07398-6.08109,.00126-12.16379,.03505-18.24562,.01261-2.27039,1.18552-3.55029,3.29686-3.59422,3.11798-.06487,6.23831-.01675,9.84835-.01675-2.49325,2.09374-4.55023,3.90928-5.98343,6.28855-2.62372,4.35566-.63395,8.19749,4.47685,8.64262,3.52514,.30703,6.65958-.88384,9.66671-2.54265,.65308-.36025,1.28041-.76721,2.19957-1.32148Z" fill="#fbfbfb"/>
    <path d="M379.74768,219.47349h-54.34791c2.60427-4.33259,5.04721-8.47624,7.57879-12.56502,.87684-1.41618,2.394-.54709,3.61463-.6853,.76241-.08633,.74757,.62104,.74969,1.15608,.00418,1.05335,.1518,2.01947-1.27629,2.56378-1.43727,.54782-2.3605,1.88682-1.93423,3.52674,.44113,1.69703,1.64569,2.807,3.50527,2.81172,9.93562,.02522,19.87139,.02937,29.80699,.00124,1.82554-.00517,3.07226-1.01848,3.51881-2.76833,.42448-1.66336-.43454-3.05299-1.87185-3.56041-1.57106-.55463-1.37321-1.57141-1.37764-2.70229-.0024-.61194,.14063-1.15724,.86539-1.03718,1.26149,.20896,2.76407-.74847,3.74052,.91188,2.37428,4.03722,4.82389,8.03015,7.42783,12.3471Z" fill="#fbfbfb"/>
    <path d="M358.77012,185.8679c1.46231-6.28176,4.04262-7.66863,8.39282-4.45821-2.4723,2.12816-4.64642,4.63543-8.39282,4.45821Z" fill="#fbfbfb"/>
  </g>
  <g>
    <path d="M301.91895,65.70779l2.63379,7.12988,2.63281-7.12988h1.14844l-3.78125,9.90332-3.78223-9.90332h1.14844Z" fill="#fff"/>
    <path d="M308.59668,72.16482c0-1.76465,1.30273-3.06738,3.08203-3.06738s3.08203,1.30273,3.08203,3.06738-1.31738,3.05371-3.08203,3.05371-3.08203-1.28906-3.08203-3.05371Zm1.03711,0c0,1.42871,1.00879,2.15723,2.04492,2.15723,1.05078,0,2.04492-.74219,2.04492-2.15723,0-1.42871-.98047-2.1709-2.04492-2.1709s-2.04492,.75586-2.04492,2.1709Z" fill="#fff"/>
    <path d="M317.33398,70.16189v4.88867h-1.00879v-4.88867h-.61621v-.9248h.61621v-2.10059h1.00879v2.10059h1.00879v.9248h-1.00879Z" fill="#fff"/>
    <path d="M319.79785,66.324c.3916,0,.71387,.32227,.71387,.71387,0,.39258-.32227,.71484-.71387,.71484-.39258,0-.71484-.32227-.71484-.71484,0-.3916,.32227-.71387,.71484-.71387Zm.50391,2.91309v5.81348h-1.00879v-5.81348h1.00879Z" fill="#fff"/>
    <path d="M322.20508,69.23709h1.00879v.67285c.18262-.23828,.7002-.8125,1.66699-.8125,.68652,0,1.31641,.28027,1.66699,.79883,.29395,.43359,.33594,.91016,.33594,1.55469v3.59961h-1.00879v-3.57227c0-.34961-.02734-.75586-.26562-1.06445-.19629-.25195-.50391-.41992-.95215-.41992-.35059,0-.72852,.09766-1.02344,.44824-.3916,.46191-.41992,1.14844-.41992,1.56836v3.04004h-1.00879v-5.81348Z" fill="#fff"/>
    <path d="M333.24023,69.23709h1.00781v5.67383c0,.62988,0,1.52637-.55957,2.2832-.43457,.58789-1.2334,1.07812-2.3252,1.07812-.99512,0-1.68164-.39258-2.07324-.78418-.39258-.39258-.75684-1.02246-.75684-1.87695h.99512c0,.49023,.19531,.92383,.44824,1.2041,.41992,.46289,.95215,.56055,1.40039,.56055,.71387,0,1.20508-.25195,1.54102-.8125,.29395-.47656,.32227-.99414,.32227-1.48438v-.84082c-.33691,.43457-.9668,.98047-1.98926,.98047-.85449,0-1.54102-.33594-1.98926-.78418-.39258-.39258-.84082-1.12109-.84082-2.29785,0-1.13379,.4209-1.83496,.84082-2.25488,.49023-.47656,1.20508-.78418,1.98926-.78418,.85449,0,1.52637,.36426,1.98926,.9668v-.82715Zm-3.19434,1.30273c-.49023,.50488-.58789,1.12109-.58789,1.59668,0,.50488,.09766,1.19141,.6582,1.70898,.32227,.29492,.71484,.47656,1.24707,.47656s.95215-.16797,1.27441-.49023c.39258-.37793,.6582-.99414,.6582-1.68066s-.25195-1.28906-.61621-1.63867c-.32227-.32227-.79883-.51855-1.31641-.51855-.61621,0-1.03711,.26562-1.31738,.5459Z" fill="#fff"/>
    <path d="M339.41113,69.23709h1.00879v.61621c.32227-.47559,.82617-.75586,1.44336-.75586,1.0498,0,1.4707,.74219,1.58203,.93848,.56055-.88281,1.35938-.93848,1.75098-.93848,1.72363,0,1.8916,1.44238,1.8916,2.26953v3.68359h-1.00879v-3.53027c0-.6582-.08398-1.52637-1.03613-1.52637-1.16309,0-1.28906,1.12012-1.28906,1.82129v3.23535h-1.00879v-3.44629c0-.40625,.01465-1.61035-1.05078-1.61035-1.14844,0-1.27441,1.19043-1.27441,1.89062v3.16602h-1.00879v-5.81348Z" fill="#fff"/>
    <path d="M354.15625,73.56619c-.16797,.32129-.41992,.67188-.71484,.93848-.53223,.47559-1.19043,.71387-1.93262,.71387-1.40039,0-2.87207-.88281-2.87207-3.03906,0-1.7373,1.06543-3.08203,2.81641-3.08203,1.13379,0,1.84863,.56055,2.19824,1.06445,.36426,.51855,.5752,1.41504,.54688,2.18555h-4.52441c.01367,1.2041,.84082,1.97461,1.84863,1.97461,.47656,0,.85449-.13965,1.19043-.41992,.2666-.22461,.47656-.51855,.60254-.79883l.84082,.46289Zm-.99512-2.05957c-.16797-.91016-.85352-1.5127-1.70801-1.5127s-1.55566,.64453-1.70898,1.5127h3.41699Z" fill="#fff"/>
    <path d="M355.73438,69.23709h1.00879v.61621c.32227-.47559,.82617-.75586,1.44336-.75586,1.0498,0,1.4707,.74219,1.58203,.93848,.56055-.88281,1.35938-.93848,1.75098-.93848,1.72363,0,1.8916,1.44238,1.8916,2.26953v3.68359h-1.00879v-3.53027c0-.6582-.08398-1.52637-1.03613-1.52637-1.16309,0-1.28906,1.12012-1.28906,1.82129v3.23535h-1.00879v-3.44629c0-.40625,.01465-1.61035-1.05078-1.61035-1.14844,0-1.27441,1.19043-1.27441,1.89062v3.16602h-1.00879v-5.81348Z" fill="#fff"/>
    <path d="M366.33301,75.05056h-1.00879v-10.21191h1.00879v5.21094c.68652-.85449,1.56934-.95215,1.98926-.95215,1.82129,0,2.8291,1.5127,2.8291,3.08203,0,1.59668-1.02246,3.03906-2.78711,3.03906-.93848,0-1.59668-.41992-2.03125-.98047v.8125Zm3.78223-2.87109c0-1.42969-.9668-2.18555-1.90527-2.18555s-1.93262,.77051-1.93262,2.1709c0,1.19043,.75586,2.15723,1.94727,2.15723,1.17578,0,1.89062-.98047,1.89062-2.14258Z" fill="#fff"/>
    <path d="M377.84375,73.56619c-.16797,.32129-.41992,.67188-.71484,.93848-.53223,.47559-1.19043,.71387-1.93262,.71387-1.40039,0-2.87207-.88281-2.87207-3.03906,0-1.7373,1.06543-3.08203,2.81641-3.08203,1.13379,0,1.84863,.56055,2.19824,1.06445,.36426,.51855,.5752,1.41504,.54688,2.18555h-4.52441c.01367,1.2041,.84082,1.97461,1.84863,1.97461,.47656,0,.85449-.13965,1.19043-.41992,.2666-.22461,.47656-.51855,.60254-.79883l.84082,.46289Zm-.99512-2.05957c-.16797-.91016-.85352-1.5127-1.70801-1.5127s-1.55566,.64453-1.70898,1.5127h3.41699Z" fill="#fff"/>
    <path d="M379.42188,69.23709h1.00879v.63086c.09863-.1543,.53223-.77051,1.31641-.77051,.30859,0,.64453,.1123,.89648,.23828l-.47559,.91016c-.22461-.1543-.43457-.19629-.58887-.19629-.40625,0-.6582,.16797-.8125,.36426-.16797,.22461-.33594,.61621-.33594,1.56934v3.06738h-1.00879v-5.81348Z" fill="#fff"/>
    <path d="M385.80664,70.58181c-.13965-.33594-.43457-.58789-.8125-.58789-.36426,0-.7002,.20996-.7002,.6582,0,.41992,.28027,.5459,.93848,.82617,.84082,.35059,1.23242,.61621,1.45703,.89648,.25195,.30859,.30762,.61621,.30762,.93848,0,1.21875-.88184,1.90527-2.00293,1.90527-.23828,0-1.54102-.02832-2.03125-1.48438l.86914-.36426c.11133,.30762,.44824,.95215,1.17676,.95215,.6582,0,.95215-.49023,.95215-.9248,0-.5459-.39258-.72754-.93848-.96582-.7002-.30859-1.14844-.53223-1.41504-.85449-.22363-.28027-.26562-.56055-.26562-.85449,0-1.02246,.71387-1.625,1.69434-1.625,.30859,0,1.13477,.05566,1.59668,1.05078l-.82617,.43359Z" fill="#fff"/>
    <path d="M302.61914,95.07205h-1.00879v-9.03516h1.00879v.8125c.68652-.85449,1.56934-.95215,1.98926-.95215,1.82129,0,2.8291,1.5127,2.8291,3.08203,0,1.59668-1.02246,3.03906-2.78711,3.03906-.93848,0-1.59668-.41992-2.03125-.98047v4.03418Zm3.78223-6.09277c0-1.42969-.9668-2.18555-1.90527-2.18555s-1.93262,.77051-1.93262,2.1709c0,1.19043,.75586,2.15723,1.94727,2.15723,1.17578,0,1.89062-.98047,1.89062-2.14258Z" fill="#fff"/>
    <path d="M313.42969,86.03689h1.00781v5.81348h-1.00781v-.8125c-.33691,.43457-.9668,.98047-1.98926,.98047-1.4707,0-2.83008-1.03613-2.83008-3.08105,0-2.00391,1.34473-3.04004,2.83008-3.04004,1.12012,0,1.72266,.61621,1.98926,.9668v-.82715Zm-3.78223,2.90039c0,1.24609,.7002,2.18457,1.90527,2.18457,1.23242,0,1.93262-1.02246,1.93262-2.1709,0-1.49902-1.03613-2.15723-1.93262-2.15723-.99512,0-1.90527,.72852-1.90527,2.14355Z" fill="#fff"/>
    <path d="M316.33887,86.03689h1.00879v.63086c.09863-.1543,.53223-.77051,1.31641-.77051,.30859,0,.64453,.1123,.89648,.23828l-.47559,.91016c-.22461-.1543-.43457-.19629-.58887-.19629-.40625,0-.6582,.16797-.8125,.36426-.16797,.22461-.33594,.61621-.33594,1.56934v3.06738h-1.00879v-5.81348Z" fill="#fff"/>
    <path d="M321.7998,86.9617v4.88867h-1.00879v-4.88867h-.61621v-.9248h.61621v-2.10059h1.00879v2.10059h1.00879v.9248h-1.00879Z" fill="#fff"/>
    <path d="M324.26367,83.12381c.3916,0,.71387,.32227,.71387,.71387,0,.39258-.32227,.71484-.71387,.71484-.39258,0-.71484-.32227-.71484-.71484,0-.3916,.32227-.71387,.71484-.71387Zm.50391,2.91309v5.81348h-1.00879v-5.81348h1.00879Z" fill="#fff"/>
    <path d="M331.22363,87.66189c-.53223-.67188-1.30273-.86816-1.82129-.86816-1.07812,0-2.05859,.75586-2.05859,2.1709s1.00879,2.15723,2.04492,2.15723c.60254,0,1.34473-.26562,1.87695-.91016v1.2041c-.62988,.46289-1.30273,.60254-1.84863,.60254-1.80762,0-3.11035-1.28809-3.11035-3.03906,0-1.7793,1.31738-3.08203,3.11035-3.08203,.92383,0,1.52637,.36426,1.80664,.56055v1.2041Z" fill="#fff"/>
    <path d="M333.30762,83.12381c.3916,0,.71387,.32227,.71387,.71387,0,.39258-.32227,.71484-.71387,.71484-.39258,0-.71484-.32227-.71484-.71484,0-.3916,.32227-.71387,.71484-.71387Zm.50391,2.91309v5.81348h-1.00879v-5.81348h1.00879Z" fill="#fff"/>
    <path d="M336.72363,95.07205h-1.00879v-9.03516h1.00879v.8125c.68652-.85449,1.56934-.95215,1.98926-.95215,1.82129,0,2.8291,1.5127,2.8291,3.08203,0,1.59668-1.02246,3.03906-2.78711,3.03906-.93848,0-1.59668-.41992-2.03125-.98047v4.03418Zm3.78223-6.09277c0-1.42969-.9668-2.18555-1.90527-2.18555s-1.93262,.77051-1.93262,2.1709c0,1.19043,.75586,2.15723,1.94727,2.15723,1.17578,0,1.89062-.98047,1.89062-2.14258Z" fill="#fff"/>
    <path d="M347.53418,86.03689h1.00781v5.81348h-1.00781v-.8125c-.33691,.43457-.9668,.98047-1.98926,.98047-1.4707,0-2.83008-1.03613-2.83008-3.08105,0-2.00391,1.34473-3.04004,2.83008-3.04004,1.12012,0,1.72266,.61621,1.98926,.9668v-.82715Zm-3.78223,2.90039c0,1.24609,.7002,2.18457,1.90527,2.18457,1.23242,0,1.93262-1.02246,1.93262-2.1709,0-1.49902-1.03613-2.15723-1.93262-2.15723-.99512,0-1.90527,.72852-1.90527,2.14355Z" fill="#fff"/>
    <path d="M351.48047,86.9617v4.88867h-1.00879v-4.88867h-.61621v-.9248h.61621v-2.10059h1.00879v2.10059h1.00879v.9248h-1.00879Z" fill="#fff"/>
    <path d="M358.59473,90.36599c-.16797,.32129-.41992,.67188-.71484,.93848-.53223,.47559-1.19043,.71387-1.93262,.71387-1.40039,0-2.87207-.88281-2.87207-3.03906,0-1.7373,1.06543-3.08203,2.81641-3.08203,1.13379,0,1.84863,.56055,2.19922,1.06445,.36328,.51855,.57422,1.41504,.5459,2.18555h-4.52441c.01367,1.2041,.83984,1.97461,1.84863,1.97461,.47656,0,.85449-.13965,1.19043-.41992,.2666-.22461,.47656-.51855,.60254-.79883l.84082,.46289Zm-.99512-2.05957c-.16797-.91016-.85449-1.5127-1.70801-1.5127-.85449,0-1.55566,.64453-1.70898,1.5127h3.41699Z" fill="#fff"/>
    <path d="M363.93945,83.12381c.3916,0,.71387,.32227,.71387,.71387,0,.39258-.32227,.71484-.71387,.71484-.39258,0-.71484-.32227-.71484-.71484,0-.3916,.32227-.71387,.71484-.71387Zm.50391,2.91309v5.81348h-1.00879v-5.81348h1.00879Z" fill="#fff"/>
    <path d="M366.34668,86.03689h1.00879v.67285c.18262-.23828,.7002-.8125,1.66699-.8125,.68652,0,1.31641,.28027,1.66699,.79785,.29395,.43457,.33594,.91113,.33594,1.55566v3.59961h-1.00879v-3.57227c0-.34961-.02734-.75586-.26562-1.06445-.19629-.25195-.50391-.41992-.95215-.41992-.35059,0-.72852,.09766-1.02344,.44824-.3916,.46191-.41992,1.14844-.41992,1.56836v3.04004h-1.00879v-5.81348Z" fill="#fff"/>
    <path d="M377.22559,86.9617v4.88867h-1.00879v-4.88867h-.61621v-.9248h.61621v-2.10059h1.00879v2.10059h1.00879v.9248h-1.00879Z" fill="#fff"/>
    <path d="M379.18457,81.63845h1.00879v5.07129c.18262-.23828,.7002-.8125,1.66699-.8125,.68652,0,1.31641,.28027,1.66699,.79785,.29395,.43457,.33594,.91113,.33594,1.55566v3.59961h-1.00879v-3.57227c0-.34961-.02734-.75586-.26562-1.06445-.19629-.25195-.50391-.41992-.95215-.41992-.35059,0-.72852,.09766-1.02344,.44824-.3916,.46191-.41992,1.14844-.41992,1.56836v3.04004h-1.00879v-10.21191Z" fill="#fff"/>
    <path d="M385.76465,86.03689h1.00879v.63086c.09863-.1543,.53223-.77051,1.31641-.77051,.30859,0,.64453,.1123,.89648,.23828l-.47559,.91016c-.22461-.1543-.43457-.19629-.58887-.19629-.40625,0-.6582,.16797-.8125,.36426-.16797,.22461-.33594,.61621-.33594,1.56934v3.06738h-1.00879v-5.81348Z" fill="#fff"/>
    <path d="M394.72754,90.36599c-.16797,.32129-.41992,.67188-.71484,.93848-.53223,.47559-1.19043,.71387-1.93262,.71387-1.40039,0-2.87207-.88281-2.87207-3.03906,0-1.7373,1.06543-3.08203,2.81641-3.08203,1.13379,0,1.84863,.56055,2.19922,1.06445,.36328,.51855,.57422,1.41504,.5459,2.18555h-4.52441c.01367,1.2041,.83984,1.97461,1.84863,1.97461,.47656,0,.85449-.13965,1.19043-.41992,.2666-.22461,.47656-.51855,.60254-.79883l.84082,.46289Zm-.99512-2.05957c-.16797-.91016-.85449-1.5127-1.70801-1.5127-.85449,0-1.55566,.64453-1.70898,1.5127h3.41699Z" fill="#fff"/>
    <path d="M401.46094,90.36599c-.16797,.32129-.41992,.67188-.71484,.93848-.53223,.47559-1.19043,.71387-1.93262,.71387-1.40039,0-2.87207-.88281-2.87207-3.03906,0-1.7373,1.06543-3.08203,2.81641-3.08203,1.13379,0,1.84863,.56055,2.19824,1.06445,.36426,.51855,.5752,1.41504,.54688,2.18555h-4.52441c.01367,1.2041,.84082,1.97461,1.84863,1.97461,.47656,0,.85449-.13965,1.19043-.41992,.2666-.22461,.47656-.51855,.60254-.79883l.84082,.46289Zm-.99512-2.05957c-.16797-.91016-.85352-1.5127-1.70801-1.5127s-1.55566,.64453-1.70898,1.5127h3.41699Z" fill="#fff"/>
    <path d="M408.57031,81.89138c-.25195,.6582-.51855,1.4707-.71387,2.42285-.25293,1.21875-.35059,2.31152-.35059,3.53027,0,1.14844,.07031,2.15723,.33594,3.41797,.18262,.91016,.43457,1.75098,.72852,2.5625l-.88281,.40625c-.61621-1.61035-.88184-2.94141-.92383-3.16504-.19629-1.03711-.29395-2.21387-.29395-3.25,0-.93848,.06934-2.24121,.3916-3.6416,.20996-.89648,.54688-1.94727,.82617-2.68945l.88281,.40625Z" fill="#fff"/>
    <path d="M410.66992,84.81814c.02734-.51758,.19531-.99414,.43359-1.37207,.61621-.9668,1.61133-1.09277,2.1709-1.09277,1.76562,0,2.63379,1.23242,2.63379,2.52148,0,.67188-.25195,1.59668-1.2041,2.07324,.32129,.12598,1.34473,.64355,1.34473,2.25488,0,1.75098-1.27539,2.81543-2.87207,2.81543-.9668,0-2.10059-.40625-2.60547-1.61035-.13965-.33691-.19629-.64453-.20996-.98047h1.03613c.04199,.33594,.1543,.68555,.33691,.93848,.30762,.44824,.85449,.7002,1.44238,.7002,1.03711,0,1.83496-.85449,1.83496-1.8916,0-.53223-.20996-1.24609-.9248-1.56836-.29395-.14062-.7002-.20996-1.06445-.19629v-.9248c.36426,.02832,.77051-.04199,1.06445-.19531,.29492-.1543,.78516-.54688,.78516-1.3877,0-.82617-.44824-1.59668-1.59766-1.59668-.37793,0-.83984,.07031-1.2041,.53223-.18262,.23828-.33594,.58887-.36426,.98047h-1.03613Z" fill="#fff"/>
    <path d="M419.19629,81.48513c.28027,.74219,.61621,1.79297,.82617,2.68945,.32227,1.40039,.39258,2.70312,.39258,3.6416,0,1.03613-.09863,2.21289-.29492,3.25-.04199,.22363-.30762,1.55469-.92383,3.16504l-.88281-.40625c.29395-.81152,.5459-1.65234,.72852-2.5625,.26562-1.26074,.33594-2.26953,.33594-3.41797,0-1.21875-.09766-2.31152-.34961-3.53027-.19629-.95215-.46289-1.76465-.71484-2.42285l.88281-.40625Z" fill="#fff"/>
    <path d="M301.61035,102.8367h1.00879v.63086c.09863-.1543,.53223-.77051,1.31641-.77051,.30859,0,.64453,.1123,.89648,.23828l-.47559,.91016c-.22461-.1543-.43457-.19629-.58887-.19629-.40625,0-.6582,.16797-.8125,.36426-.16797,.22461-.33594,.61621-.33594,1.56934v3.06738h-1.00879v-5.81348Z" fill="#fff"/>
    <path d="M305.05371,105.76443c0-1.76465,1.30273-3.06738,3.08203-3.06738s3.08203,1.30273,3.08203,3.06738-1.31738,3.05371-3.08203,3.05371-3.08203-1.28906-3.08203-3.05371Zm1.03711,0c0,1.42871,1.00879,2.15723,2.04492,2.15723,1.05078,0,2.04492-.74219,2.04492-2.15723,0-1.42871-.98047-2.1709-2.04492-2.1709s-2.04492,.75586-2.04492,2.1709Z" fill="#fff"/>
    <path d="M313.7627,106.22732c0,.40527,0,.88184,.28027,1.24609,.1543,.19629,.46191,.44824,1.02246,.44824s.86816-.25195,1.02246-.44824c.28027-.36426,.28027-.84082,.28027-1.24609v-3.39062h1.00879v3.50195c0,.71484-.07031,1.24707-.53223,1.75098-.51855,.54688-1.20508,.72852-1.7793,.72852s-1.26074-.18164-1.7793-.72852c-.46191-.50391-.53223-1.03613-.53223-1.75098v-3.50195h1.00879v3.39062Z" fill="#fff"/>
    <path d="M319.27734,102.8367h1.00879v.67285c.18262-.23828,.7002-.8125,1.66699-.8125,.68652,0,1.31641,.28027,1.66699,.79883,.29395,.43359,.33594,.91016,.33594,1.55469v3.59961h-1.00879v-3.57227c0-.34961-.02734-.75586-.26562-1.06445-.19629-.25195-.50391-.41992-.95215-.41992-.35059,0-.72852,.09766-1.02344,.44824-.3916,.46191-.41992,1.14844-.41992,1.56836v3.04004h-1.00879v-5.81348Z" fill="#fff"/>
    <path d="M330.3125,98.43826h1.00781v10.21191h-1.00781v-.8125c-.33691,.43457-.9668,.98047-1.98926,.98047-1.4707,0-2.83008-1.03613-2.83008-3.08203,0-2.00293,1.34473-3.03906,2.83008-3.03906,1.12012,0,1.72266,.61621,1.98926,.9668v-5.22559Zm-3.78223,7.29785c0,1.24707,.7002,2.18555,1.90527,2.18555,1.23242,0,1.93262-1.02246,1.93262-2.1709,0-1.49902-1.03613-2.15723-1.93262-2.15723-.99512,0-1.90527,.72852-1.90527,2.14258Z" fill="#fff"/>
    <path d="M335.61719,104.18142c-.13965-.33594-.43457-.58789-.8125-.58789-.36426,0-.7002,.20996-.7002,.6582,0,.41992,.28027,.5459,.93848,.82617,.84082,.35059,1.23242,.61621,1.45703,.89648,.25195,.30859,.30762,.61621,.30762,.93848,0,1.21875-.88184,1.90527-2.00293,1.90527-.23828,0-1.54102-.02832-2.03125-1.48438l.86914-.36426c.11133,.30762,.44824,.95215,1.17676,.95215,.6582,0,.95215-.49023,.95215-.9248,0-.5459-.39258-.72754-.93848-.96582-.7002-.30859-1.14844-.53223-1.41504-.85449-.22363-.28027-.26562-.56055-.26562-.85449,0-1.02246,.71387-1.625,1.69434-1.625,.30859,0,1.13477,.05566,1.59668,1.05078l-.82617,.43359Z" fill="#fff"/>
    <path d="M341.04688,105.76443c0-1.76465,1.30273-3.06738,3.08203-3.06738s3.08203,1.30273,3.08203,3.06738-1.31738,3.05371-3.08203,3.05371-3.08203-1.28906-3.08203-3.05371Zm1.03711,0c0,1.42871,1.00879,2.15723,2.04492,2.15723,1.05078,0,2.04492-.74219,2.04492-2.15723,0-1.42871-.98047-2.1709-2.04492-2.1709s-2.04492,.75586-2.04492,2.1709Z" fill="#fff"/>
    <path d="M349.78418,103.7615v4.88867h-1.00879v-4.88867h-.56055v-.9248h.56055v-2.53516c0-.53223,.04199-1.2041,.56055-1.63867,.28027-.23828,.7002-.37793,1.16211-.37793,.36426,0,.60254,.08398,.71484,.12598v.98047c-.20996-.08398-.44824-.12598-.6582-.12598-.22461,0-.49023,.05566-.64453,.30762-.12598,.20996-.12598,.53223-.12598,.84082v2.42285h1.42871v.9248h-1.42871Z" fill="#fff"/>
    <path d="M355.64941,102.8367l1.7373,3.92285,1.7373-3.92285h1.12012l-2.85742,6.19141-2.85742-6.19141h1.12012Z" fill="#fff"/>
    <path d="M360.94043,105.76443c0-1.76465,1.30273-3.06738,3.08203-3.06738s3.08203,1.30273,3.08203,3.06738-1.31738,3.05371-3.08203,3.05371-3.08203-1.28906-3.08203-3.05371Zm1.03711,0c0,1.42871,1.00879,2.15723,2.04492,2.15723,1.05078,0,2.04492-.74219,2.04492-2.15723,0-1.42871-.98047-2.1709-2.04492-2.1709s-2.04492,.75586-2.04492,2.1709Z" fill="#fff"/>
    <path d="M369.67773,103.7615v4.88867h-1.00879v-4.88867h-.61621v-.9248h.61621v-2.10059h1.00879v2.10059h1.00879v.9248h-1.00879Z" fill="#fff"/>
    <path d="M372.1416,99.92361c.3916,0,.71387,.32227,.71387,.71387,0,.39258-.32227,.71484-.71387,.71484-.39258,0-.71484-.32227-.71484-.71484,0-.3916,.32227-.71387,.71484-.71387Zm.50391,2.91309v5.81348h-1.00879v-5.81348h1.00879Z" fill="#fff"/>
    <path d="M374.54883,102.8367h1.00879v.67285c.18262-.23828,.7002-.8125,1.66699-.8125,.68652,0,1.31641,.28027,1.66699,.79883,.29395,.43359,.33594,.91016,.33594,1.55469v3.59961h-1.00879v-3.57227c0-.34961-.02734-.75586-.26562-1.06445-.19629-.25195-.50391-.41992-.95215-.41992-.35059,0-.72852,.09766-1.02344,.44824-.3916,.46191-.41992,1.14844-.41992,1.56836v3.04004h-1.00879v-5.81348Z" fill="#fff"/>
    <path d="M385.58398,102.8367h1.00781v5.67383c0,.62988,0,1.52637-.55957,2.2832-.43457,.58789-1.2334,1.07812-2.3252,1.07812-.99512,0-1.68164-.39258-2.07324-.78418-.39258-.39258-.75684-1.02246-.75684-1.87695h.99512c0,.49023,.19531,.92383,.44824,1.2041,.41992,.46289,.95215,.56055,1.40039,.56055,.71387,0,1.20508-.25195,1.54102-.8125,.29395-.47656,.32227-.99414,.32227-1.48438v-.84082c-.33691,.43457-.9668,.98047-1.98926,.98047-.85449,0-1.54102-.33594-1.98926-.78418-.39258-.39258-.84082-1.12109-.84082-2.29785,0-1.13379,.4209-1.83496,.84082-2.25488,.49023-.47656,1.20508-.78418,1.98926-.78418,.85449,0,1.52637,.36426,1.98926,.9668v-.82715Zm-3.19434,1.30273c-.49023,.50488-.58789,1.12109-.58789,1.59668,0,.50488,.09766,1.19141,.6582,1.70898,.32227,.29492,.71484,.47656,1.24707,.47656s.95215-.16797,1.27441-.49023c.39258-.37793,.6582-.99414,.6582-1.68066s-.25195-1.28906-.61621-1.63867c-.32227-.32227-.79883-.51855-1.31641-.51855-.61621,0-1.03711,.26562-1.31738,.5459Z" fill="#fff"/>
    <path d="M392.76367,108.65017h-1.00879v-10.21191h1.00879v5.21094c.68652-.85449,1.56934-.95215,1.98926-.95215,1.82129,0,2.8291,1.5127,2.8291,3.08203,0,1.59668-1.02246,3.03906-2.78711,3.03906-.93848,0-1.59668-.41992-2.03125-.98047v.8125Zm3.78223-2.87109c0-1.42969-.9668-2.18555-1.90527-2.18555s-1.93262,.77051-1.93262,2.1709c0,1.19043,.75586,2.15723,1.94727,2.15723,1.17578,0,1.89062-.98047,1.89062-2.14258Z" fill="#fff"/>
    <path d="M404.27441,107.1658c-.16797,.32129-.41992,.67188-.71484,.93848-.53223,.47559-1.19043,.71387-1.93262,.71387-1.40039,0-2.87207-.88281-2.87207-3.03906,0-1.7373,1.06543-3.08203,2.81641-3.08203,1.13379,0,1.84863,.56055,2.19922,1.06445,.36328,.51855,.57422,1.41504,.5459,2.18555h-4.52441c.01367,1.2041,.83984,1.97461,1.84863,1.97461,.47656,0,.85449-.13965,1.19043-.41992,.2666-.22461,.47656-.51855,.60254-.79883l.84082,.46289Zm-.99512-2.05957c-.16797-.91016-.85449-1.5127-1.70801-1.5127-.85449,0-1.55566,.64453-1.70898,1.5127h3.41699Z" fill="#fff"/>
    <path d="M406.88965,103.7615v4.88867h-1.00879v-4.88867h-.56055v-.9248h.56055v-2.53516c0-.53223,.04199-1.2041,.56055-1.63867,.28027-.23828,.7002-.37793,1.16211-.37793,.36426,0,.60254,.08398,.71484,.12598v.98047c-.20996-.08398-.44824-.12598-.6582-.12598-.22461,0-.49023,.05566-.64453,.30762-.12598,.20996-.12598,.53223-.12598,.84082v2.42285h1.42871v.9248h-1.42871Z" fill="#fff"/>
    <path d="M408.84863,105.76443c0-1.76465,1.30273-3.06738,3.08203-3.06738s3.08203,1.30273,3.08203,3.06738-1.31738,3.05371-3.08203,3.05371-3.08203-1.28906-3.08203-3.05371Zm1.03711,0c0,1.42871,1.00879,2.15723,2.04492,2.15723,1.05078,0,2.04492-.74219,2.04492-2.15723,0-1.42871-.98047-2.1709-2.04492-2.1709s-2.04492,.75586-2.04492,2.1709Z" fill="#fff"/>
    <path d="M416.54883,102.8367h1.00879v.63086c.09863-.1543,.53223-.77051,1.31641-.77051,.30859,0,.64453,.1123,.89648,.23828l-.47559,.91016c-.22461-.1543-.43457-.19629-.58887-.19629-.40625,0-.6582,.16797-.8125,.36426-.16797,.22461-.33594,.61621-.33594,1.56934v3.06738h-1.00879v-5.81348Z" fill="#fff"/>
    <path d="M425.51172,107.1658c-.16797,.32129-.41992,.67188-.71484,.93848-.53223,.47559-1.19043,.71387-1.93262,.71387-1.40039,0-2.87207-.88281-2.87207-3.03906,0-1.7373,1.06543-3.08203,2.81641-3.08203,1.13379,0,1.84863,.56055,2.19824,1.06445,.36426,.51855,.5752,1.41504,.54688,2.18555h-4.52441c.01367,1.2041,.84082,1.97461,1.84863,1.97461,.47656,0,.85449-.13965,1.19043-.41992,.2666-.22461,.47656-.51855,.60254-.79883l.84082,.46289Zm-.99512-2.05957c-.16797-.91016-.85352-1.5127-1.70801-1.5127s-1.55566,.64453-1.70898,1.5127h3.41699Z" fill="#fff"/>
    <path d="M302.64746,120.56228v4.88867h-1.00879v-4.88867h-.61621v-.9248h.61621v-2.10059h1.00879v2.10059h1.00879v.9248h-1.00879Z" fill="#fff"/>
    <path d="M304.60645,115.23904h1.00879v5.07129c.18262-.23828,.7002-.8125,1.66699-.8125,.68652,0,1.31641,.28027,1.66699,.79883,.29395,.43359,.33594,.91016,.33594,1.55469v3.59961h-1.00879v-3.57227c0-.34961-.02734-.75586-.26562-1.06445-.19629-.25195-.50391-.41992-.95215-.41992-.35059,0-.72852,.09766-1.02344,.44824-.3916,.46191-.41992,1.14844-.41992,1.56836v3.04004h-1.00879v-10.21191Z" fill="#fff"/>
    <path d="M316.20215,123.96658c-.16797,.32129-.41992,.67188-.71484,.93848-.53223,.47559-1.19043,.71387-1.93262,.71387-1.40039,0-2.87207-.88281-2.87207-3.03906,0-1.7373,1.06543-3.08203,2.81641-3.08203,1.13379,0,1.84863,.56055,2.19922,1.06445,.36328,.51855,.57422,1.41504,.5459,2.18555h-4.52441c.01367,1.2041,.83984,1.97461,1.84863,1.97461,.47656,0,.85449-.13965,1.19043-.41992,.2666-.22461,.47656-.51855,.60254-.79883l.84082,.46289Zm-.99512-2.05957c-.16797-.91016-.85449-1.5127-1.70801-1.5127-.85449,0-1.55566,.64453-1.70898,1.5127h3.41699Z" fill="#fff"/>
    <path d="M320.67773,122.56521c0-1.76465,1.30273-3.06738,3.08203-3.06738s3.08203,1.30273,3.08203,3.06738-1.31738,3.05371-3.08203,3.05371-3.08203-1.28906-3.08203-3.05371Zm1.03711,0c0,1.42871,1.00879,2.15723,2.04492,2.15723,1.05078,0,2.04492-.74219,2.04492-2.15723,0-1.42871-.98047-2.1709-2.04492-2.1709s-2.04492,.75586-2.04492,2.1709Z" fill="#fff"/>
    <path d="M329.41504,120.56228v4.88867h-1.00879v-4.88867h-.56055v-.9248h.56055v-2.53516c0-.53223,.04199-1.2041,.56055-1.63867,.28027-.23828,.7002-.37793,1.16211-.37793,.36426,0,.60254,.08398,.71484,.12598v.98047c-.20996-.08398-.44824-.12598-.6582-.12598-.22461,0-.49023,.05566-.64453,.30762-.12598,.20996-.12598,.53223-.12598,.84082v2.42285h1.42871v.9248h-1.42871Z" fill="#fff"/>
    <path d="M332.77441,120.56228v4.88867h-1.00879v-4.88867h-.56055v-.9248h.56055v-2.18457c0-.63086,.04199-1.10645,.33594-1.52734,.2666-.3916,.82715-.85449,1.91895-.85449,.49023,0,1.42871,.08398,1.91992,.85449,.32129,.51855,.33594,1.0791,.33594,1.52734v.23828h-1.00879v-.23828c0-.22461-.01367-.63086-.19629-.91113-.16797-.25195-.49023-.44824-1.05078-.44824-.55957,0-.88184,.19629-1.0498,.44824-.18262,.2666-.19629,.61621-.19629,.91113v2.18457h1.42871v.9248h-1.42871Zm3.50195-.9248v5.81348h-1.00879v-5.81348h1.00879Z" fill="#fff"/>
    <path d="M342.72949,121.26248c-.53223-.67188-1.30273-.86816-1.82129-.86816-1.07812,0-2.05859,.75586-2.05859,2.1709s1.00879,2.15723,2.04492,2.15723c.60254,0,1.34473-.26562,1.87695-.91016v1.2041c-.62988,.46289-1.30273,.60254-1.84863,.60254-1.80762,0-3.11035-1.28906-3.11035-3.03906,0-1.7793,1.31738-3.08203,3.11035-3.08203,.92383,0,1.52637,.36426,1.80664,.56055v1.2041Z" fill="#fff"/>
    <path d="M344.81348,116.72439c.3916,0,.71387,.32227,.71387,.71387,0,.39258-.32227,.71484-.71387,.71484-.39258,0-.71484-.32227-.71484-.71484,0-.3916,.32227-.71387,.71484-.71387Zm.50391,2.91309v5.81348h-1.00879v-5.81348h1.00879Z" fill="#fff"/>
    <path d="M351.67578,119.63748h1.00781v5.81348h-1.00781v-.8125c-.33691,.43457-.9668,.98047-1.98926,.98047-1.4707,0-2.83008-1.03613-2.83008-3.08203,0-2.00293,1.34473-3.03906,2.83008-3.03906,1.12012,0,1.72266,.61621,1.98926,.9668v-.82715Zm-3.78223,2.89941c0,1.24707,.7002,2.18555,1.90527,2.18555,1.23242,0,1.93262-1.02246,1.93262-2.1709,0-1.49902-1.03613-2.15723-1.93262-2.15723-.99512,0-1.90527,.72852-1.90527,2.14258Z" fill="#fff"/>
    <path d="M355.59375,115.23904v10.21191h-1.00879v-10.21191h1.00879Z" fill="#fff"/>
    <path d="M361.76758,115.23904v10.21191h-1.00879v-10.21191h1.00879Z" fill="#fff"/>
    <path d="M364.17578,116.72439c.3916,0,.71387,.32227,.71387,.71387,0,.39258-.32227,.71484-.71387,.71484-.39258,0-.71484-.32227-.71484-.71484,0-.3916,.32227-.71387,.71484-.71387Zm.50391,2.91309v5.81348h-1.00879v-5.81348h1.00879Z" fill="#fff"/>
    <path d="M368.97852,120.9822c-.13965-.33594-.43457-.58789-.8125-.58789-.36426,0-.7002,.20996-.7002,.6582,0,.41992,.28027,.5459,.93848,.82617,.84082,.35059,1.23242,.61621,1.45703,.89648,.25195,.30859,.30762,.61621,.30762,.93848,0,1.21875-.88184,1.90527-2.00293,1.90527-.23828,0-1.54102-.02832-2.03125-1.48438l.86914-.36426c.11133,.30762,.44824,.95215,1.17676,.95215,.6582,0,.95215-.49023,.95215-.9248,0-.5459-.39258-.72754-.93848-.96582-.7002-.30859-1.14844-.53223-1.41504-.85449-.22363-.28027-.26562-.56055-.26562-.85449,0-1.02246,.71387-1.625,1.69434-1.625,.30859,0,1.13477,.05566,1.59668,1.05078l-.82617,.43359Z" fill="#fff"/>
    <path d="M372.54785,120.56228v4.88867h-1.00879v-4.88867h-.61621v-.9248h.61621v-2.10059h1.00879v2.10059h1.00879v.9248h-1.00879Z" fill="#fff"/>
    <path d="M377.4043,122.56521c0-1.76465,1.30273-3.06738,3.08203-3.06738s3.08203,1.30273,3.08203,3.06738-1.31738,3.05371-3.08203,3.05371-3.08203-1.28906-3.08203-3.05371Zm1.03711,0c0,1.42871,1.00879,2.15723,2.04492,2.15723,1.05078,0,2.04492-.74219,2.04492-2.15723,0-1.42871-.98047-2.1709-2.04492-2.1709s-2.04492,.75586-2.04492,2.1709Z" fill="#fff"/>
    <path d="M386.1416,120.56228v4.88867h-1.00879v-4.88867h-.56055v-.9248h.56055v-2.53516c0-.53223,.04199-1.2041,.56055-1.63867,.28027-.23828,.7002-.37793,1.16211-.37793,.36426,0,.60254,.08398,.71484,.12598v.98047c-.20996-.08398-.44824-.12598-.6582-.12598-.22461,0-.49023,.05566-.64453,.30762-.12598,.20996-.12598,.53223-.12598,.84082v2.42285h1.42871v.9248h-1.42871Z" fill="#fff"/>
    <path d="M301.61035,136.43728h1.00879v.67285c.18262-.23828,.7002-.8125,1.66699-.8125,.68652,0,1.31641,.28027,1.66699,.79785,.29395,.43457,.33594,.91113,.33594,1.55566v3.59961h-1.00879v-3.57227c0-.34961-.02734-.75586-.26562-1.06445-.19629-.25195-.50391-.41992-.95215-.41992-.35059,0-.72852,.09766-1.02344,.44824-.3916,.46191-.41992,1.14844-.41992,1.56836v3.04004h-1.00879v-5.81348Z" fill="#fff"/>
    <path d="M307.82617,139.36502c0-1.76465,1.30273-3.06738,3.08203-3.06738s3.08203,1.30273,3.08203,3.06738c0,1.76562-1.31738,3.05371-3.08203,3.05371s-3.08203-1.28809-3.08203-3.05371Zm1.03711,0c0,1.42871,1.00879,2.15723,2.04492,2.15723,1.05078,0,2.04492-.74219,2.04492-2.15723,0-1.42871-.98047-2.1709-2.04492-2.1709s-2.04492,.75586-2.04492,2.1709Z" fill="#fff"/>
    <path d="M315.52637,136.43728h1.00879v.61621c.32227-.47559,.82617-.75586,1.44336-.75586,1.0498,0,1.4707,.74219,1.58203,.93848,.56055-.88281,1.35938-.93848,1.75098-.93848,1.72363,0,1.8916,1.44238,1.8916,2.26953v3.68359h-1.00879v-3.53027c0-.6582-.08398-1.52637-1.03613-1.52637-1.16309,0-1.28906,1.12012-1.28906,1.82129v3.23535h-1.00879v-3.44629c0-.40625,.01465-1.61035-1.05078-1.61035-1.14844,0-1.27441,1.19043-1.27441,1.89062v3.16602h-1.00879v-5.81348Z" fill="#fff"/>
    <path d="M325.62109,133.5242c.3916,0,.71387,.32227,.71387,.71387,0,.39258-.32227,.71484-.71387,.71484-.39258,0-.71484-.32227-.71484-.71484,0-.3916,.32227-.71387,.71484-.71387Zm.50391,2.91309v5.81348h-1.00879v-5.81348h1.00879Z" fill="#fff"/>
    <path d="M328.02832,136.43728h1.00879v.67285c.18262-.23828,.7002-.8125,1.66699-.8125,.68652,0,1.31641,.28027,1.66699,.79785,.29395,.43457,.33594,.91113,.33594,1.55566v3.59961h-1.00879v-3.57227c0-.34961-.02734-.75586-.26562-1.06445-.19629-.25195-.50391-.41992-.95215-.41992-.35059,0-.72852,.09766-1.02344,.44824-.3916,.46191-.41992,1.14844-.41992,1.56836v3.04004h-1.00879v-5.81348Z" fill="#fff"/>
    <path d="M339.76367,140.76638c-.16797,.32129-.41992,.67188-.71484,.93848-.53223,.47559-1.19043,.71387-1.93262,.71387-1.40039,0-2.87207-.88281-2.87207-3.03906,0-1.7373,1.06543-3.08203,2.81641-3.08203,1.13379,0,1.84863,.56055,2.19824,1.06445,.36426,.51855,.5752,1.41504,.54688,2.18555h-4.52441c.01367,1.2041,.84082,1.97461,1.84863,1.97461,.47656,0,.85449-.13965,1.19043-.41992,.2666-.22461,.47656-.51855,.60254-.79883l.84082,.46289Zm-.99512-2.05957c-.16797-.91016-.85352-1.5127-1.70801-1.5127s-1.55566,.64453-1.70898,1.5127h3.41699Z" fill="#fff"/>
    <path d="M346.49707,140.76638c-.16797,.32129-.41992,.67188-.71484,.93848-.53223,.47559-1.19043,.71387-1.93262,.71387-1.40039,0-2.87207-.88281-2.87207-3.03906,0-1.7373,1.06543-3.08203,2.81641-3.08203,1.13379,0,1.84863,.56055,2.19922,1.06445,.36328,.51855,.57422,1.41504,.5459,2.18555h-4.52441c.01367,1.2041,.83984,1.97461,1.84863,1.97461,.47656,0,.85449-.13965,1.19043-.41992,.2666-.22461,.47656-.51855,.60254-.79883l.84082,.46289Zm-.99512-2.05957c-.16797-.91016-.85449-1.5127-1.70801-1.5127-.85449,0-1.55566,.64453-1.70898,1.5127h3.41699Z" fill="#fff"/>
    <path d="M350.4707,137.78201c-.13965-.33594-.43457-.58789-.8125-.58789-.36426,0-.7002,.20996-.7002,.6582,0,.41992,.28027,.5459,.93848,.82617,.84082,.35059,1.23242,.61621,1.45703,.89648,.25195,.30859,.30762,.61621,.30762,.93848,0,1.21875-.88184,1.90527-2.00293,1.90527-.23828,0-1.54102-.02832-2.03125-1.48438l.86914-.36426c.11133,.30762,.44824,.95215,1.17676,.95215,.6582,0,.95215-.49023,.95215-.9248,0-.5459-.39258-.72754-.93848-.96582-.7002-.30859-1.14844-.53223-1.41504-.85449-.22363-.28027-.26562-.56055-.26562-.85449,0-1.02246,.71387-1.625,1.69434-1.625,.30859,0,1.13477,.05566,1.59668,1.05078l-.82617,.43359Z" fill="#fff"/>
    <path d="M356.76953,133.5242c.3916,0,.71387,.32227,.71387,.71387,0,.39258-.32227,.71484-.71387,.71484-.39258,0-.71484-.32227-.71484-.71484,0-.3916,.32227-.71387,.71484-.71387Zm.50391,2.91309v5.81348h-1.00879v-5.81348h1.00879Z" fill="#fff"/>
    <path d="M361.57227,137.78201c-.13965-.33594-.43457-.58789-.8125-.58789-.36426,0-.7002,.20996-.7002,.6582,0,.41992,.28027,.5459,.93848,.82617,.84082,.35059,1.23242,.61621,1.45703,.89648,.25195,.30859,.30762,.61621,.30762,.93848,0,1.21875-.88184,1.90527-2.00293,1.90527-.23828,0-1.54102-.02832-2.03125-1.48438l.86914-.36426c.11133,.30762,.44824,.95215,1.17676,.95215,.6582,0,.95215-.49023,.95215-.9248,0-.5459-.39258-.72754-.93848-.96582-.7002-.30859-1.14844-.53223-1.41504-.85449-.22363-.28027-.26562-.56055-.26562-.85449,0-1.02246,.71387-1.625,1.69434-1.625,.30859,0,1.13477,.05566,1.59668,1.05078l-.82617,.43359Z" fill="#fff"/>
    <path d="M367.36621,136.43728h1.00879v.61621c.32227-.47559,.82617-.75586,1.44336-.75586,1.0498,0,1.4707,.74219,1.58203,.93848,.56055-.88281,1.35938-.93848,1.75098-.93848,1.72363,0,1.8916,1.44238,1.8916,2.26953v3.68359h-1.00879v-3.53027c0-.6582-.08398-1.52637-1.03613-1.52637-1.16309,0-1.28906,1.12012-1.28906,1.82129v3.23535h-1.00879v-3.44629c0-.40625,.01465-1.61035-1.05078-1.61035-1.14844,0-1.27441,1.19043-1.27441,1.89062v3.16602h-1.00879v-5.81348Z" fill="#fff"/>
    <path d="M381.41113,136.43728h1.00781v5.81348h-1.00781v-.8125c-.33691,.43457-.9668,.98047-1.98926,.98047-1.4707,0-2.83008-1.03613-2.83008-3.08105,0-2.00391,1.34473-3.04004,2.83008-3.04004,1.12012,0,1.72266,.61621,1.98926,.9668v-.82715Zm-3.78223,2.90039c0,1.24609,.7002,2.18457,1.90527,2.18457,1.23242,0,1.93262-1.02246,1.93262-2.1709,0-1.49902-1.03613-2.15723-1.93262-2.15723-.99512,0-1.90527,.72852-1.90527,2.14355Z" fill="#fff"/>
    <path d="M388.77539,132.03884h1.00781v10.21191h-1.00781v-.8125c-.33691,.43457-.9668,.98047-1.98926,.98047-1.4707,0-2.83008-1.03613-2.83008-3.08105,0-2.00391,1.34473-3.04004,2.83008-3.04004,1.12012,0,1.72266,.61621,1.98926,.9668v-5.22559Zm-3.78223,7.29883c0,1.24609,.7002,2.18457,1.90527,2.18457,1.23242,0,1.93262-1.02246,1.93262-2.1709,0-1.49902-1.03613-2.15723-1.93262-2.15723-.99512,0-1.90527,.72852-1.90527,2.14355Z" fill="#fff"/>
    <path d="M396.83984,140.76638c-.16797,.32129-.41992,.67188-.71484,.93848-.53223,.47559-1.19043,.71387-1.93262,.71387-1.40039,0-2.87207-.88281-2.87207-3.03906,0-1.7373,1.06543-3.08203,2.81641-3.08203,1.13379,0,1.84863,.56055,2.19824,1.06445,.36426,.51855,.5752,1.41504,.54688,2.18555h-4.52441c.01367,1.2041,.84082,1.97461,1.84863,1.97461,.47656,0,.85449-.13965,1.19043-.41992,.2666-.22461,.47656-.51855,.60254-.79883l.84082,.46289Zm-.99512-2.05957c-.16797-.91016-.85352-1.5127-1.70801-1.5127s-1.55566,.64453-1.70898,1.5127h3.41699Z" fill="#fff"/>
    <path d="M399.0625,140.99002c.37793,0,.7002,.32227,.7002,.7002,0,.37891-.32227,.7002-.7002,.7002s-.7002-.32129-.7002-.7002c0-.37793,.32227-.7002,.7002-.7002Z" fill="#fff"/>
  </g>
</svg>