<?xml version="1.0" encoding="UTF-8"?>
<svg id="Layer_1" data-name="Layer 1" xmlns="http://www.w3.org/2000/svg" viewBox="50 0 674.24841 335.61567">
  <g>
    <line x1="362.12421" y1="151.19483" x2="362.12421" y2="321.26319" fill="none" stroke="#231f20" stroke-miterlimit="10" stroke-width="2"/>
    <polygon points="352.15155 318.34522 362.12421 335.61561 372.09686 318.34522 352.15155 318.34522" fill="#231f20"/>
  </g>
  <path d="M373.90823,52.0009c0-.76643-.62131-1.38772-1.38772-1.38772s-1.38772,.62129-1.38772,1.38772,.62129,1.38772,1.38772,1.38772,1.38772-.62131,1.38772-1.38772" fill="#9e9e9e"/>
  <path d="M376.00671,45.75144c0-.76643-.62131-1.38772-1.38772-1.38772s-1.38772,.62129-1.38772,1.38772,.62129,1.38772,1.38772,1.38772,1.38772-.62131,1.38772-1.38772" fill="#9e9e9e"/>
  <path d="M393.23641,29.02749c5.34279,1.30666,10.55525,3.10043,15.57004,5.35921l-36.94599,82.04505,21.37596-87.40425Z" fill="#262262"/>
  <path d="M400.66301,58.98642c43.85119,19.74696,64.42256,70.48545,46.70469,115.19515-17.71787,44.70969-67.46078,67.58285-112.93496,51.93144-45.47416-15.65139-70.60184-64.2944-57.04976-110.43792,13.55283-46.14333,60.99426-73.47284,107.70996-62.04785l-21.37595,87.40424,36.94602-82.04505Z" fill="#4a5977"/>
  <g>
    <path d="M515.40051,45.24283l3.4985-4.04592c.24443-.28738,.89259-1.05111,1.12296-1.39628,.43185-.61927,.53258-1.08001,.53258-1.4689,0-1.08001-.77701-1.87185-1.9148-1.87185-.67627,0-1.23853,.303-1.59775,.84964-.18742,.28816-.303,.64816-.31705,1.13779h-1.06517c.04295-.96521,.34516-1.5548,.71922-1.98743,.40373-.46074,1.08001-.97849,2.27559-.97849,1.69849,0,2.96592,1.20886,2.96592,2.86518,0,.64738-.18742,1.23775-.76373,2.05849-.40295,.56148-.92148,1.15185-1.30959,1.59853l-2.00149,2.26075h4.05998v.97849h-6.20515Z" fill="#231f20"/>
    <path d="M524.49739,43.9473c.38811,0,.72,.33111,.72,.72s-.33189,.72-.72,.72c-.3889,0-.72-.33111-.72-.72s.33111-.72,.72-.72Z" fill="#231f20"/>
    <path d="M528.67138,44.88283l2.20296-3.06665c-.27332,.08668-.54664,.12963-.84964,.12963-1.84296,0-3.1096-1.38222-3.1096-3.16739,0-1.9148,1.38222-3.29702,3.29702-3.29702,2.26075,0,3.32592,1.75628,3.32592,3.26813,0,.36-.07184,1.20964-.79185,2.20296l-3.26813,4.52072-.80669-.59037Zm-.69111-6.13331c0,1.28148,.95037,2.21702,2.26075,2.21702s2.23186-.96443,2.23186-2.21702c0-1.28148-.90742-2.28964-2.24591-2.28964-1.32521,0-2.24669,.9941-2.24669,2.28964Z" fill="#231f20"/>
    <path d="M538.96384,37.64063c0,1.16669-.92148,2.08817-2.08739,2.08817-1.16669,0-2.08817-.92148-2.08817-2.08817,0-1.16591,.92148-2.08739,2.08817-2.08739,1.16591,0,2.08739,.92148,2.08739,2.08739Zm-.86369,0c0-.70517-.51853-1.29554-1.22369-1.29554-.67705,0-1.22447,.57553-1.22447,1.29554s.54742,1.29632,1.22447,1.29632c.70517,0,1.22369-.59037,1.22369-1.29632Zm3.84444-2.18812l.56148,.31627-5.60072,9.66148-.56226-.33111,5.6015-9.64664Zm2.11628,7.80368c0,1.16591-.92148,2.08739-2.08739,2.08739-1.16669,0-2.08817-.92148-2.08817-2.08739,0-1.16669,.92148-2.08817,2.08817-2.08817,1.16591,0,2.08739,.92148,2.08739,2.08817Zm-.86369,0c0-.70595-.51853-1.29554-1.22369-1.29554-.67705,0-1.22447,.57553-1.22447,1.29554s.54742,1.29554,1.22447,1.29554c.70517,0,1.22369-.59037,1.22369-1.29554Z" fill="#231f20"/>
    <path d="M548.491,42.27692c0-1.81407,1.33927-3.15333,3.16739-3.15333,1.8289,0,3.16817,1.33927,3.16817,3.15333s-1.35333,3.13928-3.16817,3.13928c-1.81407,0-3.16739-1.32521-3.16739-3.13928Zm1.06595,0c0,1.4689,1.03627,2.2178,2.10144,2.2178,1.08001,0,2.10222-.76373,2.10222-2.2178,0-1.46812-1.00738-2.23186-2.10222-2.23186-1.09406,0-2.10144,.77779-2.10144,2.23186Z" fill="#231f20"/>
    <path d="M557.47308,40.21843v5.02441h-1.03706v-5.02441h-.57553v-.95037h.57553v-2.60591c0-.54742,.04373-1.23853,.57632-1.68521,.28816-.24443,.72-.38811,1.1948-.38811,.37484,0,.61927,.0859,.73484,.12885v1.00816c-.21631-.08668-.46074-.12963-.67705-.12963-.23037,0-.50369,.05779-.66222,.31705-.12963,.21553-.12963,.54664-.12963,.86369v2.49112h1.4689v.95037h-1.4689Z" fill="#231f20"/>
    <path d="M564.2811,40.21843v5.02441h-1.03706v-5.02441h-.63332v-.95037h.63332v-2.16001h1.03706v2.16001h1.03627v.95037h-1.03627Z" fill="#231f20"/>
    <path d="M566.29586,34.74656h1.03627v5.21261c.18742-.24521,.72-.83558,1.71333-.83558,.70595,0,1.35333,.28816,1.71333,.82074,.30221,.44668,.34595,.93632,.34595,1.59853v3.69998h-1.03706v-3.67108c0-.36-.02889-.77779-.27332-1.09484-.20148-.25848-.51853-.43185-.97927-.43185-.36,0-.7489,.10074-1.05111,.46074-.40295,.47558-.43185,1.18074-.43185,1.61259v3.12444h-1.03627v-10.49628Z" fill="#231f20"/>
    <path d="M578.35944,43.71693c-.17336,.33111-.43263,.69111-.73484,.96443-.54664,.48963-1.22369,.73484-1.98665,.73484-1.44001,0-2.95186-.90742-2.95186-3.12444,0-1.78595,1.09406-3.16817,2.89407-3.16817,1.16669,0,1.90075,.57632,2.26075,1.09484,.37406,.53258,.59037,1.45406,.56148,2.24591h-4.65035c.01406,1.23775,.86369,2.03038,1.89997,2.03038,.48963,0,.87853-.14447,1.22369-.43263,.2741-.23037,.48963-.53258,.61927-.82074l.86447,.47558Zm-1.023-2.11628c-.17258-.93632-.87775-1.55558-1.75628-1.55558s-1.59775,.66222-1.75628,1.55558h3.51256Z" fill="#231f20"/>
    <path d="M583.62515,39.26805l1.78595,4.03108,1.78517-4.03108h1.15185l-2.93702,6.36368-2.9378-6.36368h1.15185Z" fill="#231f20"/>
    <path d="M589.06578,42.27692c0-1.81407,1.33927-3.15333,3.16739-3.15333,1.8289,0,3.16817,1.33927,3.16817,3.15333s-1.35333,3.13928-3.16817,3.13928c-1.81407,0-3.16739-1.32521-3.16739-3.13928Zm1.06595,0c0,1.4689,1.03627,2.2178,2.10144,2.2178,1.08001,0,2.10222-.76373,2.10222-2.2178,0-1.46812-1.00738-2.23186-2.10222-2.23186-1.09406,0-2.10144,.77779-2.10144,2.23186Z" fill="#231f20"/>
    <path d="M598.04786,40.21843v5.02441h-1.03706v-5.02441h-.63332v-.95037h.63332v-2.16001h1.03706v2.16001h1.03627v.95037h-1.03627Z" fill="#231f20"/>
    <path d="M600.58037,36.27324c.40373,0,.73484,.33111,.73484,.73406s-.33111,.73406-.73484,.73406c-.40295,0-.73406-.33111-.73406-.73406s.33111-.73406,.73406-.73406Zm.51853,2.99481v5.97478h-1.03627v-5.97478h1.03627Z" fill="#231f20"/>
    <path d="M603.05587,39.26805h1.03706v.69111c.18664-.24521,.71922-.83558,1.71333-.83558,.70517,0,1.35333,.28816,1.71333,.82074,.30221,.44668,.34516,.93632,.34516,1.59853v3.69998h-1.03627v-3.67108c0-.36-.02889-.77779-.2741-1.09484-.20148-.25848-.51775-.43185-.97849-.43185-.36,0-.7489,.10074-1.05111,.46074-.40373,.47558-.43185,1.18074-.43185,1.61259v3.12444h-1.03706v-5.97478Z" fill="#231f20"/>
    <path d="M614.39944,39.26805h1.03706v5.83109c0,.64816,0,1.56964-.57632,2.34665-.4459,.60521-1.26664,1.1089-2.3896,1.1089-1.023,0-1.72816-.40295-2.13112-.80669-.40295-.40295-.77779-1.05111-.77779-1.92886h1.02222c0,.50369,.20148,.95037,.46074,1.23775,.43185,.47558,.97927,.57632,1.44001,.57632,.73406,0,1.23853-.25926,1.5837-.8348,.30221-.48963,.33111-1.023,.33111-1.52669v-.86369c-.34516,.4459-.99332,1.00816-2.04444,1.00816-.87853,0-1.5837-.34595-2.04444-.80669-.40295-.40295-.86369-1.15185-.86369-2.36149,0-1.16591,.43185-1.88591,.86369-2.31776,.50369-.48963,1.23853-.80669,2.04444-.80669,.87853,0,1.56964,.37484,2.04444,.9941v-.84964Zm-3.28297,1.33849c-.50369,.51853-.60443,1.15185-.60443,1.64148,0,.51853,.10074,1.22369,.67705,1.75706,.33111,.30221,.73406,.48963,1.28148,.48963,.54664,0,.97849-.17336,1.30959-.50447,.40373-.3889,.67705-1.02222,.67705-1.72738,0-.70595-.25926-1.32521-.63332-1.68443-.33111-.33189-.82074-.53336-1.35333-.53336-.6341,0-1.06595,.2741-1.35411,.56148Z" fill="#231f20"/>
    <path d="M515.65977,56.54033h1.03627v.63332c.33111-.48885,.84964-.77701,1.48296-.77701,1.08001,0,1.51185,.76295,1.62743,.96443,.57553-.90664,1.39628-.96443,1.79923-.96443,1.77112,0,1.9437,1.48296,1.9437,2.33259v3.78666h-1.03627v-3.62813c0-.67705-.08668-1.56964-1.06595-1.56964-1.1948,0-1.32443,1.15185-1.32443,1.87185v3.32592h-1.03627v-3.54223c0-.41779,.01406-1.65554-1.08001-1.65554-1.18074,0-1.31038,1.22369-1.31038,1.9437v3.25407h-1.03627v-5.97556Z" fill="#231f20"/>
    <path d="M530.81811,60.9892c-.17336,.33111-.43263,.69111-.73484,.96521-.54664,.48963-1.22369,.73406-1.98665,.73406-1.44001,0-2.95186-.90742-2.95186-3.12444,0-1.78517,1.09406-3.16739,2.89407-3.16739,1.16669,0,1.90075,.57553,2.26075,1.09406,.37406,.53258,.59037,1.45406,.56148,2.24591h-4.65035c.01406,1.23853,.86369,2.03038,1.89997,2.03038,.48963,0,.87853-.14369,1.22369-.43185,.2741-.23037,.48963-.53258,.61927-.82074l.86447,.4748Zm-1.023-2.11628c-.17258-.93554-.87775-1.5548-1.75628-1.5548s-1.59775,.66222-1.75628,1.5548h3.51256Z" fill="#231f20"/>
    <path d="M532.44242,56.54033h1.03706v.63332c.33111-.48885,.84885-.77701,1.48296-.77701,1.07922,0,1.51185,.76295,1.62665,.96443,.57632-.90664,1.39628-.96443,1.80001-.96443,1.77112,0,1.9437,1.48296,1.9437,2.33259v3.78666h-1.03706v-3.62813c0-.67705-.0859-1.56964-1.06517-1.56964-1.1948,0-1.32443,1.15185-1.32443,1.87185v3.32592h-1.03706v-3.54223c0-.41779,.01484-1.65554-1.08001-1.65554-1.18074,0-1.30959,1.22369-1.30959,1.9437v3.25407h-1.03706v-5.97556Z" fill="#231f20"/>
    <path d="M543.3393,62.51589h-1.03706v-10.49628h1.03706v5.3563c.70517-.87853,1.61259-.97927,2.04444-.97927,1.87185,0,2.90813,1.5548,2.90813,3.16739,0,1.64148-1.05111,3.12444-2.86518,3.12444-.96443,0-1.64148-.43185-2.08739-1.00816v.83558Zm3.88739-2.95186c0-1.4689-.9941-2.24591-1.95853-2.24591s-1.98665,.79185-1.98665,2.23186c0,1.22369,.77701,2.21702,2.00149,2.21702,1.20886,0,1.9437-1.00816,1.9437-2.20296Z" fill="#231f20"/>
    <path d="M555.17173,60.9892c-.17258,.33111-.43185,.69111-.73406,.96521-.54742,.48963-1.22369,.73406-1.98743,.73406-1.43923,0-2.95108-.90742-2.95108-3.12444,0-1.78517,1.09406-3.16739,2.89407-3.16739,1.16591,0,1.89997,.57553,2.25997,1.09406,.37484,.53258,.59037,1.45406,.56148,2.24591h-4.65035c.01406,1.23853,.86369,2.03038,1.90075,2.03038,.48963,0,.87775-.14369,1.22369-.43185,.27332-.23037,.48963-.53258,.61927-.82074l.86369,.4748Zm-1.02222-2.11628c-.17258-.93554-.87853-1.5548-1.75628-1.5548-.87853,0-1.59853,.66222-1.75706,1.5548h3.51334Z" fill="#231f20"/>
    <path d="M556.79681,56.54033h1.03627v.64816c.10074-.15853,.54742-.79185,1.35333-.79185,.31705,0,.66222,.11479,.92148,.24443l-.48963,.93632c-.23037-.15853-.4459-.20148-.60443-.20148-.41779,0-.67705,.17258-.8348,.37406-.17336,.23037-.34595,.63332-.34595,1.61259v3.15333h-1.03627v-5.97556Z" fill="#231f20"/>
    <path d="M563.51893,57.92255c-.14447-.34516-.44668-.60443-.83558-.60443-.37406,0-.71922,.21553-.71922,.67627,0,.43263,.28738,.56148,.96443,.84964,.86369,.36,1.26664,.63332,1.49701,.92148,.25926,.31705,.31705,.63332,.31705,.96521,0,1.25259-.90742,1.95775-2.05927,1.95775-.24443,0-1.5837-.02889-2.08739-1.52591l.89259-.37484c.11558,.31705,.46074,.97927,1.20964,.97927,.67627,0,.97927-.50369,.97927-.95037,0-.56148-.40373-.7489-.96521-.99332-.72-.31705-1.18074-.54742-1.45406-.87853-.23037-.28738-.27332-.57553-.27332-.87775,0-1.05111,.73406-1.67038,1.74222-1.67038,.31627,0,1.16591,.05779,1.64148,1.08001l-.84964,.4459Z" fill="#231f20"/>
    <path d="M574.05581,56.54033h1.03627v5.97556h-1.03627v-.83558c-.34595,.44668-.9941,1.00816-2.04444,1.00816-1.51185,0-2.90891-1.06517-2.90891-3.16739,0-2.05927,1.38222-3.12444,2.90891-3.12444,1.15185,0,1.77033,.63332,2.04444,.99332v-.84964Zm-3.88739,2.98075c0,1.28148,.71922,2.24591,1.95775,2.24591,1.26743,0,1.98665-1.05111,1.98665-2.23186,0-1.54075-1.06517-2.21702-1.98665-2.21702-1.02222,0-1.95775,.7489-1.95775,2.20296Z" fill="#231f20"/>
    <path d="M577.04828,56.54033h1.03627v.64816c.10074-.15853,.54742-.79185,1.35333-.79185,.31705,0,.66222,.11479,.92148,.24443l-.48963,.93632c-.23037-.15853-.4459-.20148-.60443-.20148-.41779,0-.67705,.17258-.8348,.37406-.17336,.23037-.34595,.63332-.34595,1.61259v3.15333h-1.03627v-5.97556Z" fill="#231f20"/>
    <path d="M586.60668,60.9892c-.17258,.33111-.43185,.69111-.73406,.96521-.54742,.48963-1.22369,.73406-1.98743,.73406-1.43923,0-2.95108-.90742-2.95108-3.12444,0-1.78517,1.09406-3.16739,2.89407-3.16739,1.16591,0,1.89997,.57553,2.25997,1.09406,.37484,.53258,.59037,1.45406,.56148,2.24591h-4.65035c.01406,1.23853,.86369,2.03038,1.90075,2.03038,.48963,0,.87775-.14369,1.22369-.43185,.27332-.23037,.48963-.53258,.61927-.82074l.86369,.4748Zm-1.02222-2.11628c-.17258-.93554-.87853-1.5548-1.75628-1.5548-.87853,0-1.59853,.66222-1.75706,1.5548h3.51334Z" fill="#231f20"/>
    <path d="M592.10354,53.54552c.40295,0,.73406,.33111,.73406,.73484,0,.40295-.33111,.73406-.73406,.73406s-.73484-.33111-.73484-.73406c0-.40373,.33189-.73484,.73484-.73484Zm.51853,2.99481v5.97556h-1.03706v-5.97556h1.03706Z" fill="#231f20"/>
    <path d="M594.57904,56.54033h1.03627v.69111c.18742-.24443,.72-.8348,1.71333-.8348,.70595,0,1.35333,.28816,1.71333,.82074,.30221,.4459,.34595,.93554,.34595,1.59775v3.70076h-1.03706v-3.67186c0-.36-.02889-.77701-.27332-1.09406-.20148-.25926-.51853-.43185-.97927-.43185-.36,0-.7489,.10074-1.05111,.46074-.40295,.4748-.43185,1.18074-.43185,1.61259v3.12444h-1.03627v-5.97556Z" fill="#231f20"/>
    <path d="M605.76252,57.4907v5.02519h-1.03627v-5.02519h-.63332v-.95037h.63332v-2.15923h1.03627v2.15923h1.03706v.95037h-1.03706Z" fill="#231f20"/>
    <path d="M607.77807,52.01961h1.03627v5.21183c.18742-.24443,.72-.8348,1.71333-.8348,.70595,0,1.35333,.28816,1.71333,.82074,.30221,.4459,.34595,.93554,.34595,1.59775v3.70076h-1.03706v-3.67186c0-.36-.02889-.77701-.27332-1.09406-.20148-.25926-.51853-.43185-.97927-.43185-.36,0-.7489,.10074-1.05111,.46074-.40295,.4748-.43185,1.18074-.43185,1.61259v3.12444h-1.03627v-10.49628Z" fill="#231f20"/>
    <path d="M619.84164,60.9892c-.17336,.33111-.43263,.69111-.73484,.96521-.54664,.48963-1.22369,.73406-1.98665,.73406-1.44001,0-2.95186-.90742-2.95186-3.12444,0-1.78517,1.09406-3.16739,2.89407-3.16739,1.16669,0,1.90075,.57553,2.26075,1.09406,.37406,.53258,.59037,1.45406,.56148,2.24591h-4.65035c.01406,1.23853,.86369,2.03038,1.89997,2.03038,.48963,0,.87853-.14369,1.22369-.43185,.2741-.23037,.48963-.53258,.61927-.82074l.86447,.4748Zm-1.023-2.11628c-.17258-.93554-.87775-1.5548-1.75628-1.5548s-1.59775,.66222-1.75628,1.5548h3.51256Z" fill="#231f20"/>
    <path d="M518.12122,75.19561c-.14369-.34595-.4459-.60521-.8348-.60521-.37406,0-.72,.21631-.72,.67705,0,.43185,.28816,.56148,.96443,.84964,.86447,.36,1.26743,.63332,1.49779,.92148,.25926,.31627,.31705,.63332,.31705,.96443,0,1.25259-.90742,1.95853-2.05927,1.95853-.24443,0-1.5837-.02889-2.08739-1.52669l.89259-.37406c.11479,.31627,.46074,.97927,1.20886,.97927,.67705,0,.97927-.50447,.97927-.95037,0-.56148-.40295-.7489-.96443-.9941-.72-.31627-1.18074-.54664-1.45406-.87775-.23037-.28816-.2741-.57632-.2741-.87853,0-1.05111,.73484-1.67038,1.74222-1.67038,.31705,0,1.16669,.05779,1.64148,1.08001l-.84964,.44668Z" fill="#231f20"/>
    <path d="M525.40559,75.48299c-.54742-.69111-1.33927-.89259-1.87185-.89259-1.1089,0-2.11628,.77779-2.11628,2.23186s1.03627,2.2178,2.10144,2.2178c.61927,0,1.38222-.2741,1.92964-.93632v1.23853c-.64816,.4748-1.33927,.61927-1.90075,.61927-1.85702,0-3.19629-1.32521-3.19629-3.12444,0-1.8289,1.35333-3.16817,3.19629-3.16817,.95037,0,1.56964,.37484,1.8578,.57632v1.23775Z" fill="#231f20"/>
    <path d="M527.03067,73.81339h1.03627v.64738c.10074-.15774,.54742-.79185,1.35333-.79185,.31705,0,.66222,.11558,.92148,.24521l-.48963,.93554c-.23037-.15853-.4459-.20148-.60443-.20148-.41779,0-.67705,.17258-.8348,.37406-.17336,.23037-.34595,.6341-.34595,1.61259v3.15333h-1.03627v-5.97478Z" fill="#231f20"/>
    <path d="M536.58907,78.26226c-.17258,.33111-.43185,.69111-.73406,.96443-.54742,.48963-1.22369,.73484-1.98743,.73484-1.43923,0-2.95108-.90742-2.95108-3.12444,0-1.78595,1.09406-3.16817,2.89407-3.16817,1.16591,0,1.89997,.57632,2.25997,1.09484,.37484,.53258,.59037,1.45406,.56148,2.24591h-4.65035c.01406,1.23775,.86369,2.03038,1.90075,2.03038,.48963,0,.87775-.14447,1.22369-.43263,.27332-.23037,.48963-.53258,.61927-.82074l.86369,.47558Zm-1.02222-2.11628c-.17258-.93632-.87853-1.55558-1.75628-1.55558-.87853,0-1.59853,.66222-1.75706,1.55558h3.51334Z" fill="#231f20"/>
    <path d="M543.51267,78.26226c-.17336,.33111-.43263,.69111-.73484,.96443-.54664,.48963-1.22369,.73484-1.98665,.73484-1.44001,0-2.95186-.90742-2.95186-3.12444,0-1.78595,1.09406-3.16817,2.89407-3.16817,1.16669,0,1.90075,.57632,2.26075,1.09484,.37406,.53258,.59037,1.45406,.56148,2.24591h-4.65035c.01406,1.23775,.86369,2.03038,1.89997,2.03038,.48963,0,.87853-.14447,1.22369-.43263,.2741-.23037,.48963-.53258,.61927-.82074l.86447,.47558Zm-1.023-2.11628c-.17258-.93632-.87775-1.55558-1.75628-1.55558s-1.59775,.66222-1.75628,1.55558h3.51256Z" fill="#231f20"/>
    <path d="M545.13697,73.81339h1.03706v.69111c.18664-.24521,.71922-.83558,1.71333-.83558,.70517,0,1.35333,.28816,1.71333,.82074,.30221,.44668,.34516,.93632,.34516,1.59853v3.69998h-1.03627v-3.67108c0-.36-.02889-.77779-.2741-1.09484-.20148-.25848-.51775-.43185-.97849-.43185-.36,0-.7489,.10074-1.05111,.46074-.40373,.47558-.43185,1.18074-.43185,1.61259v3.12444h-1.03706v-5.97478Z" fill="#231f20"/>
    <path d="M552.42056,70.81858c.40295,0,.73406,.33111,.73406,.73406s-.33111,.73406-.73406,.73406-.73484-.33111-.73484-.73406,.33189-.73406,.73484-.73406Zm.51853,2.99481v5.97478h-1.03706v-5.97478h1.03706Z" fill="#231f20"/>
    <path d="M554.89606,73.81339h1.03627v.69111c.18742-.24521,.72-.83558,1.71333-.83558,.70595,0,1.35333,.28816,1.71333,.82074,.30221,.44668,.34595,.93632,.34595,1.59853v3.69998h-1.03706v-3.67108c0-.36-.02889-.77779-.27332-1.09484-.20148-.25848-.51853-.43185-.97927-.43185-.36,0-.7489,.10074-1.05111,.46074-.40295,.47558-.43185,1.18074-.43185,1.61259v3.12444h-1.03627v-5.97478Z" fill="#231f20"/>
    <path d="M566.23964,73.81339h1.03627v5.83109c0,.64816,0,1.56964-.57553,2.34665-.44668,.60521-1.26743,1.1089-2.39038,1.1089-1.02222,0-1.72738-.40295-2.13112-.80669-.40295-.40295-.77701-1.05111-.77701-1.92886h1.02222c0,.50369,.20148,.95037,.46074,1.23775,.43185,.47558,.97849,.57632,1.43923,.57632,.73484,0,1.23853-.25926,1.58448-.8348,.30221-.48963,.33111-1.023,.33111-1.52669v-.86369c-.34595,.4459-.9941,1.00816-2.04444,1.00816-.87853,0-1.58448-.34595-2.04522-.80669-.40295-.40295-.86369-1.15185-.86369-2.36149,0-1.16591,.43185-1.88591,.86369-2.31776,.50447-.48963,1.23853-.80669,2.04522-.80669,.87775,0,1.56886,.37484,2.04444,.9941v-.84964Zm-3.28297,1.33849c-.50369,.51853-.60443,1.15185-.60443,1.64148,0,.51853,.10074,1.22369,.67627,1.75706,.33111,.30221,.73406,.48963,1.28148,.48963s.97927-.17336,1.31038-.50447c.40295-.3889,.67627-1.02222,.67627-1.72738,0-.70595-.25848-1.32521-.63332-1.68443-.33111-.33189-.82074-.53336-1.35333-.53336-.63332,0-1.06517,.2741-1.35333,.56148Z" fill="#231f20"/>
    <path d="M577.26459,75.48299c-.54664-.69111-1.33849-.89259-1.87185-.89259-1.10812,0-2.11628,.77779-2.11628,2.23186s1.03706,2.2178,2.10222,2.2178c.61927,0,1.38222-.2741,1.92964-.93632v1.23853c-.64816,.4748-1.33927,.61927-1.90075,.61927-1.8578,0-3.19629-1.32521-3.19629-3.12444,0-1.8289,1.35333-3.16817,3.19629-3.16817,.95037,0,1.56886,.37484,1.85702,.57632v1.23775Z" fill="#231f20"/>
    <path d="M578.51562,76.82225c0-1.81407,1.33849-3.15333,3.16739-3.15333,1.82812,0,3.16739,1.33927,3.16739,3.15333s-1.35333,3.13928-3.16739,3.13928-3.16739-1.32521-3.16739-3.13928Zm1.06517,0c0,1.4689,1.03706,2.2178,2.10222,2.2178,1.08001,0,2.10222-.76373,2.10222-2.2178,0-1.46812-1.00816-2.23186-2.10222-2.23186s-2.10222,.77779-2.10222,2.23186Z" fill="#231f20"/>
    <path d="M586.43175,73.81339h1.03706v.63332c.33111-.48963,.84885-.77779,1.48296-.77779,1.07922,0,1.51185,.76373,1.62665,.96521,.57632-.90742,1.39628-.96521,1.80001-.96521,1.77112,0,1.9437,1.48296,1.9437,2.33259v3.78666h-1.03706v-3.62813c0-.67705-.0859-1.56964-1.06517-1.56964-1.1948,0-1.32443,1.15185-1.32443,1.87185v3.32592h-1.03706v-3.54145c0-.41779,.01484-1.65632-1.08001-1.65632-1.18074,0-1.30959,1.22447-1.30959,1.9437v3.25407h-1.03706v-5.97478Z" fill="#231f20"/>
    <path d="M596.29159,73.81339h1.03706v.63332c.33111-.48963,.84885-.77779,1.48296-.77779,1.07922,0,1.51185,.76373,1.62665,.96521,.57632-.90742,1.39628-.96521,1.80001-.96521,1.77112,0,1.9437,1.48296,1.9437,2.33259v3.78666h-1.03706v-3.62813c0-.67705-.0859-1.56964-1.06517-1.56964-1.1948,0-1.32443,1.15185-1.32443,1.87185v3.32592h-1.03706v-3.54145c0-.41779,.01484-1.65632-1.08001-1.65632-1.18074,0-1.30959,1.22447-1.30959,1.9437v3.25407h-1.03706v-5.97478Z" fill="#231f20"/>
    <path d="M606.66995,70.81858c.40295,0,.73406,.33111,.73406,.73406s-.33111,.73406-.73406,.73406-.73484-.33111-.73484-.73406,.33189-.73406,.73484-.73406Zm.51853,2.99481v5.97478h-1.03706v-5.97478h1.03706Z" fill="#231f20"/>
    <path d="M610.21062,74.76376v5.02441h-1.03706v-5.02441h-.63332v-.95037h.63332v-2.16001h1.03706v2.16001h1.03627v.95037h-1.03627Z" fill="#231f20"/>
    <path d="M613.29054,74.76376v5.02441h-1.03706v-5.02441h-.63332v-.95037h.63332v-2.16001h1.03706v2.16001h1.03627v.95037h-1.03627Z" fill="#231f20"/>
    <path d="M620.60381,78.26226c-.17336,.33111-.43263,.69111-.73484,.96443-.54664,.48963-1.22369,.73484-1.98665,.73484-1.44001,0-2.95186-.90742-2.95186-3.12444,0-1.78595,1.09406-3.16817,2.89407-3.16817,1.16669,0,1.90075,.57632,2.26075,1.09484,.37406,.53258,.59037,1.45406,.56148,2.24591h-4.65035c.01406,1.23775,.86369,2.03038,1.89997,2.03038,.48963,0,.87853-.14447,1.22369-.43263,.2741-.23037,.48963-.53258,.61927-.82074l.86447,.47558Zm-1.023-2.11628c-.17258-.93632-.87775-1.55558-1.75628-1.55558s-1.59775,.66222-1.75628,1.55558h3.51256Z" fill="#231f20"/>
    <path d="M627.52662,78.26226c-.17258,.33111-.43185,.69111-.73406,.96443-.54742,.48963-1.22369,.73484-1.98743,.73484-1.43923,0-2.95108-.90742-2.95108-3.12444,0-1.78595,1.09406-3.16817,2.89407-3.16817,1.16591,0,1.89997,.57632,2.25997,1.09484,.37484,.53258,.59037,1.45406,.56226,2.24591h-4.65113c.01406,1.23775,.86369,2.03038,1.90075,2.03038,.48963,0,.87775-.14447,1.22369-.43263,.27332-.23037,.48963-.53258,.61927-.82074l.86369,.47558Zm-1.02222-2.11628c-.17258-.93632-.87853-1.55558-1.75628-1.55558-.87853,0-1.59853,.66222-1.75706,1.55558h3.51334Z" fill="#231f20"/>
    <path d="M515.94715,91.08567l1.77112,4.05998,1.87185-4.52072,1.85702,4.52072,1.78595-4.05998h1.15185l-2.96592,6.39257-1.84296-4.46371-1.84296,4.46371-2.9378-6.39257h1.15185Z" fill="#231f20"/>
    <path d="M525.47587,86.56417h1.03706v5.21261c.18664-.24521,.71922-.83558,1.71333-.83558,.70517,0,1.35333,.28816,1.71333,.82074,.30221,.44668,.34516,.93632,.34516,1.59853v3.69998h-1.03627v-3.67108c0-.36-.02889-.77779-.2741-1.09484-.20148-.25848-.51775-.43185-.97849-.43185-.36,0-.7489,.10074-1.05111,.46074-.40373,.47558-.43185,1.18074-.43185,1.61259v3.12444h-1.03706v-10.49628Z" fill="#231f20"/>
    <path d="M531.86688,94.09453c0-1.81407,1.33849-3.15333,3.16739-3.15333,1.82812,0,3.16739,1.33927,3.16739,3.15333s-1.35333,3.13928-3.16739,3.13928-3.16739-1.32521-3.16739-3.13928Zm1.06517,0c0,1.4689,1.03706,2.2178,2.10222,2.2178,1.08001,0,2.10222-.76373,2.10222-2.2178,0-1.46812-1.00816-2.23186-2.10222-2.23186s-2.10222,.77779-2.10222,2.23186Z" fill="#231f20"/>
    <path d="M545.59849,92.46789c-.14369-.34595-.4459-.60521-.8348-.60521-.37406,0-.72,.21631-.72,.67705,0,.43185,.28816,.56148,.96443,.84964,.86447,.36,1.26743,.63332,1.49779,.92148,.25926,.31627,.31705,.63332,.31705,.96443,0,1.25259-.90742,1.95853-2.05927,1.95853-.24443,0-1.5837-.02889-2.08739-1.52669l.89259-.37406c.11479,.31627,.46074,.97927,1.20886,.97927,.67705,0,.97927-.50447,.97927-.95037,0-.56148-.40295-.7489-.96443-.9941-.72-.31627-1.18074-.54664-1.45406-.87775-.23037-.28816-.2741-.57632-.2741-.87853,0-1.05111,.73484-1.67038,1.74222-1.67038,.31705,0,1.16669,.05779,1.64148,1.08001l-.84964,.44668Z" fill="#231f20"/>
    <path d="M547.82878,94.09453c0-1.81407,1.33927-3.15333,3.16739-3.15333,1.8289,0,3.16817,1.33927,3.16817,3.15333s-1.35333,3.13928-3.16817,3.13928c-1.81407,0-3.16739-1.32521-3.16739-3.13928Zm1.06595,0c0,1.4689,1.03627,2.2178,2.10144,2.2178,1.08001,0,2.10222-.76373,2.10222-2.2178,0-1.46812-1.00738-2.23186-2.10222-2.23186-1.09406,0-2.10144,.77779-2.10144,2.23186Z" fill="#231f20"/>
    <path d="M555.7457,91.08567h1.03627v.64738c.10074-.15774,.54742-.79185,1.35333-.79185,.31705,0,.66222,.11558,.92148,.24521l-.48963,.93554c-.23037-.15853-.4459-.20148-.60443-.20148-.41779,0-.67705,.17258-.8348,.37406-.17336,.23037-.34595,.6341-.34595,1.61259v3.15333h-1.03627v-5.97478Z" fill="#231f20"/>
    <path d="M561.07076,92.03604v5.02441h-1.03627v-5.02441h-.63332v-.95037h.63332v-2.16001h1.03627v2.16001h1.03706v.95037h-1.03706Z" fill="#231f20"/>
    <path d="M568.90177,92.46789c-.14447-.34595-.44668-.60521-.83558-.60521-.37406,0-.71922,.21631-.71922,.67705,0,.43185,.28738,.56148,.96443,.84964,.86369,.36,1.26664,.63332,1.49701,.92148,.25926,.31627,.31705,.63332,.31705,.96443,0,1.25259-.90742,1.95853-2.05927,1.95853-.24443,0-1.5837-.02889-2.08739-1.52669l.89259-.37406c.11558,.31627,.46074,.97927,1.20964,.97927,.67627,0,.97927-.50447,.97927-.95037,0-.56148-.40373-.7489-.96521-.9941-.72-.31627-1.18074-.54664-1.45406-.87775-.23037-.28816-.27332-.57632-.27332-.87853,0-1.05111,.73406-1.67038,1.74222-1.67038,.31627,0,1.16591,.05779,1.64148,1.08001l-.84964,.44668Z" fill="#231f20"/>
    <path d="M572.54318,94.57011c0,.41701,0,.90664,.28738,1.28148,.15853,.20148,.47558,.46074,1.05111,.46074,.57632,0,.89259-.25926,1.05111-.46074,.28816-.37484,.28816-.86447,.28816-1.28148v-3.48444h1.03627v3.59924c0,.73406-.07184,1.28148-.54664,1.80001-.53258,.56148-1.23853,.7489-1.8289,.7489s-1.29554-.18742-1.82812-.7489c-.47558-.51853-.54742-1.06595-.54742-1.80001v-3.59924h1.03706v3.48444Z" fill="#231f20"/>
    <path d="M579.25046,97.06045h-1.03706v-10.49628h1.03706v5.3563c.70517-.87853,1.61259-.97927,2.04444-.97927,1.87185,0,2.90813,1.55558,2.90813,3.16817,0,1.6407-1.05111,3.12444-2.86518,3.12444-.96443,0-1.64148-.43263-2.08739-1.00816v.8348Zm3.88739-2.95108c0-1.4689-.9941-2.24669-1.95853-2.24669s-1.98665,.79185-1.98665,2.23186c0,1.22369,.77701,2.2178,2.00149,2.2178,1.20886,0,1.9437-1.00816,1.9437-2.20296Z" fill="#231f20"/>
    <path d="M585.78438,91.08567h1.03706v.63332c.33111-.48963,.84885-.77779,1.48296-.77779,1.07922,0,1.51185,.76373,1.62665,.96521,.57632-.90742,1.39628-.96521,1.80001-.96521,1.77112,0,1.9437,1.48296,1.9437,2.33259v3.78666h-1.03706v-3.62813c0-.67705-.0859-1.56964-1.06517-1.56964-1.1948,0-1.32443,1.15185-1.32443,1.87185v3.32592h-1.03706v-3.54145c0-.41779,.01484-1.65632-1.08001-1.65632-1.18074,0-1.30959,1.22447-1.30959,1.9437v3.25407h-1.03706v-5.97478Z" fill="#231f20"/>
    <path d="M596.16274,88.09086c.40295,0,.73406,.33111,.73406,.73406s-.33111,.73406-.73406,.73406-.73484-.33111-.73484-.73406,.33189-.73406,.73484-.73406Zm.51853,2.99481v5.97478h-1.03706v-5.97478h1.03706Z" fill="#231f20"/>
    <path d="M601.09968,92.46789c-.14369-.34595-.4459-.60521-.8348-.60521-.37406,0-.72,.21631-.72,.67705,0,.43185,.28816,.56148,.96443,.84964,.86447,.36,1.26743,.63332,1.49779,.92148,.25926,.31627,.31705,.63332,.31705,.96443,0,1.25259-.90742,1.95853-2.05927,1.95853-.24443,0-1.5837-.02889-2.08739-1.52669l.89259-.37406c.11479,.31627,.46074,.97927,1.20886,.97927,.67705,0,.97927-.50447,.97927-.95037,0-.56148-.40295-.7489-.96443-.9941-.72-.31627-1.18074-.54664-1.45406-.87775-.23037-.28816-.2741-.57632-.2741-.87853,0-1.05111,.73484-1.67038,1.74222-1.67038,.31705,0,1.16669,.05779,1.64148,1.08001l-.84964,.44668Z" fill="#231f20"/>
    <path d="M606.16626,92.46789c-.14369-.34595-.4459-.60521-.8348-.60521-.37406,0-.72,.21631-.72,.67705,0,.43185,.28816,.56148,.96443,.84964,.86447,.36,1.26743,.63332,1.49779,.92148,.25926,.31627,.31705,.63332,.31705,.96443,0,1.25259-.90742,1.95853-2.05927,1.95853-.24443,0-1.5837-.02889-2.08739-1.52669l.89259-.37406c.11479,.31627,.46074,.97927,1.20886,.97927,.67705,0,.97927-.50447,.97927-.95037,0-.56148-.40295-.7489-.96443-.9941-.72-.31627-1.18074-.54664-1.45406-.87775-.23037-.28816-.2741-.57632-.2741-.87853,0-1.05111,.73484-1.67038,1.74222-1.67038,.31705,0,1.16669,.05779,1.64148,1.08001l-.84964,.44668Z" fill="#231f20"/>
    <path d="M609.28914,88.09086c.40373,0,.73484,.33111,.73484,.73406s-.33111,.73406-.73484,.73406c-.40295,0-.73406-.33111-.73406-.73406s.33111-.73406,.73406-.73406Zm.51853,2.99481v5.97478h-1.03627v-5.97478h1.03627Z" fill="#231f20"/>
    <path d="M611.39058,94.09453c0-1.81407,1.33849-3.15333,3.16739-3.15333,1.82812,0,3.16739,1.33927,3.16739,3.15333s-1.35333,3.13928-3.16739,3.13928-3.16739-1.32521-3.16739-3.13928Zm1.06517,0c0,1.4689,1.03706,2.2178,2.10222,2.2178,1.08001,0,2.10222-.76373,2.10222-2.2178,0-1.46812-1.00816-2.23186-2.10222-2.23186s-2.10222,.77779-2.10222,2.23186Z" fill="#231f20"/>
    <path d="M619.30671,91.08567h1.03706v.69111c.18664-.24521,.71922-.83558,1.71333-.83558,.70517,0,1.35333,.28816,1.71333,.82074,.30221,.44668,.34516,.93632,.34516,1.59853v3.69998h-1.03627v-3.67108c0-.36-.02889-.77779-.2741-1.09484-.20148-.25848-.51775-.43185-.97849-.43185-.36,0-.7489,.10074-1.05111,.46074-.40373,.47558-.43185,1.18074-.43185,1.61259v3.12444h-1.03706v-5.97478Z" fill="#231f20"/>
    <path d="M628.534,92.46789c-.14369-.34595-.44668-.60521-.8348-.60521-.37484,0-.72,.21631-.72,.67705,0,.43185,.28816,.56148,.96443,.84964,.86369,.36,1.26743,.63332,1.49779,.92148,.25926,.31627,.31627,.63332,.31627,.96443,0,1.25259-.90664,1.95853-2.05849,1.95853-.24521,0-1.58448-.02889-2.08817-1.52669l.89259-.37406c.11558,.31627,.46074,.97927,1.20964,.97927,.67705,0,.97927-.50447,.97927-.95037,0-.56148-.40295-.7489-.96443-.9941-.72-.31627-1.18152-.54664-1.45484-.87775-.23037-.28816-.27332-.57632-.27332-.87853,0-1.05111,.73406-1.67038,1.74222-1.67038,.31705,0,1.16591,.05779,1.64148,1.08001l-.84964,.44668Z" fill="#231f20"/>
    <path d="M516.69605,114.33351h-1.03627v-10.49628h1.03627v5.3563c.70517-.87853,1.61259-.97927,2.04444-.97927,1.87185,0,2.90891,1.5548,2.90891,3.16739,0,1.64148-1.05111,3.12444-2.86596,3.12444-.96443,0-1.6407-.43185-2.08739-1.00816v.83558Zm3.88739-2.95186c0-1.4689-.99332-2.24591-1.95775-2.24591-.96521,0-1.98743,.79185-1.98743,2.23186,0,1.22369,.77779,2.21702,2.00149,2.21702,1.20964,0,1.9437-1.00816,1.9437-2.20296Z" fill="#231f20"/>
    <path d="M525.11665,113.77203l-2.75038-5.41408h1.18074l2.11628,4.27629,1.94448-4.27629h1.15185l-4.39187,9.28664h-1.15185l1.90075-3.87256Z" fill="#231f20"/>
    <path d="M537.88461,110.02832c-.54742-.69111-1.33927-.89259-1.87185-.89259-1.1089,0-2.11628,.77701-2.11628,2.23186,0,1.45406,1.03627,2.21702,2.10144,2.21702,.61927,0,1.38222-.27332,1.92964-.93554v1.23775c-.64816,.47558-1.33927,.61927-1.90075,.61927-1.85702,0-3.19629-1.32443-3.19629-3.12444,0-1.82812,1.35333-3.16739,3.19629-3.16739,.95037,0,1.56964,.37406,1.8578,.57553v1.23853Z" fill="#231f20"/>
    <path d="M544.0882,108.35794h1.03627v5.97556h-1.03627v-.83558c-.34595,.44668-.9941,1.00816-2.04444,1.00816-1.51185,0-2.90891-1.06517-2.90891-3.16739,0-2.05927,1.38222-3.12444,2.90891-3.12444,1.15185,0,1.77033,.63332,2.04444,.99332v-.84964Zm-3.88739,2.98075c0,1.28148,.71922,2.24591,1.95775,2.24591,1.26743,0,1.98665-1.05111,1.98665-2.23186,0-1.54075-1.06517-2.21702-1.98665-2.21702-1.02222,0-1.95775,.7489-1.95775,2.20296Z" fill="#231f20"/>
    <path d="M548.14583,109.30832v5.02519h-1.03706v-5.02519h-.63332v-.95037h.63332v-2.15923h1.03706v2.15923h1.03627v.95037h-1.03627Z" fill="#231f20"/>
    <path d="M555.4591,112.80682c-.17336,.33111-.43263,.69111-.73484,.96521-.54664,.48963-1.22369,.73406-1.98665,.73406-1.44001,0-2.95186-.90742-2.95186-3.12444,0-1.78517,1.09406-3.16739,2.89407-3.16739,1.16669,0,1.90075,.57553,2.26075,1.09406,.37406,.53258,.59037,1.45406,.56148,2.24591h-4.65035c.01406,1.23853,.86369,2.03038,1.89997,2.03038,.48963,0,.87853-.14369,1.22369-.43185,.2741-.23037,.48963-.53258,.61927-.82074l.86447,.4748Zm-1.023-2.11628c-.17258-.93554-.87775-1.5548-1.75628-1.5548s-1.59775,.66222-1.75628,1.5548h3.51256Z" fill="#231f20"/>
    <path d="M561.66191,108.35794h1.03706v5.83109c0,.64816,0,1.56964-.57632,2.34743-.4459,.60443-1.26664,1.10812-2.3896,1.10812-1.023,0-1.72816-.40295-2.13112-.8059s-.77779-1.05111-.77779-1.92964h1.02222c0,.50447,.20148,.95037,.46074,1.23853,.43185,.4748,.97927,.57553,1.44001,.57553,.73406,0,1.23853-.25848,1.5837-.8348,.30221-.48963,.33111-1.02222,.33111-1.52591v-.86447c-.34516,.44668-.99332,1.00816-2.04444,1.00816-.87853,0-1.5837-.34516-2.04444-.8059-.40295-.40373-.86369-1.15185-.86369-2.36149,0-1.16669,.43185-1.88669,.86369-2.31854,.50369-.48963,1.23853-.8059,2.04444-.8059,.87853,0,1.56964,.37406,2.04444,.99332v-.84964Zm-3.28297,1.33927c-.50369,.51853-.60443,1.15185-.60443,1.64148,0,.51853,.10074,1.22369,.67705,1.75628,.33111,.30221,.73406,.48963,1.28148,.48963,.54664,0,.97849-.17258,1.30959-.50369,.40373-.3889,.67705-1.02222,.67705-1.72816,0-.70517-.25926-1.32443-.63332-1.68443-.33111-.33111-.82074-.53258-1.35333-.53258-.6341,0-1.06595,.27332-1.35411,.56148Z" fill="#231f20"/>
    <path d="M564.28032,111.36759c0-1.81407,1.33849-3.15333,3.16739-3.15333,1.82812,0,3.16739,1.33927,3.16739,3.15333s-1.35333,3.1385-3.16739,3.1385-3.16739-1.32443-3.16739-3.1385Zm1.06517,0c0,1.46812,1.03706,2.21702,2.10222,2.21702,1.08001,0,2.10222-.76295,2.10222-2.21702,0-1.4689-1.00816-2.23186-2.10222-2.23186s-2.10222,.77701-2.10222,2.23186Z" fill="#231f20"/>
    <path d="M572.19645,108.35794h1.03706v.64816c.10074-.15853,.54664-.79185,1.35333-.79185,.31627,0,.66222,.11479,.92148,.24443l-.48963,.93632c-.23037-.15853-.44668-.20148-.60521-.20148-.41701,0-.67627,.17258-.8348,.37406-.17258,.23037-.34516,.63332-.34516,1.61259v3.15333h-1.03706v-5.97556Z" fill="#231f20"/>
    <path d="M578.34304,113.77203l-2.75038-5.41408h1.18074l2.11628,4.27629,1.94448-4.27629h1.15185l-4.39187,9.28664h-1.15185l1.90075-3.87256Z" fill="#231f20"/>
    <path d="M583.73994,113.03719c.3889,0,.72,.33111,.72,.72s-.33111,.72-.72,.72-.72-.33111-.72-.72,.33111-.72,.72-.72Z" fill="#231f20"/>
  </g>
  <polyline points="510.2282 43.58069 465.54418 43.58068 400.29418 39.0797" fill="none" stroke="#757575" stroke-miterlimit="10" stroke-width=".522"/>
  <path d="M484.90423,315.85534c0-.76599-.621-1.38797-1.388-1.38797-.76602,0-1.38702,.62198-1.38702,1.38797s.621,1.388,1.38702,1.388c.767,0,1.388-.62198,1.388-1.388" fill="#9e9e9e"/>
  <g>
    <circle cx="362.1242" cy="229.77633" r="40.44109" fill="#fff" stroke="#231f20" stroke-miterlimit="10" stroke-width=".75"/>
    <g>
      <path d="M379.76397,214.58829c-1.31402,1.30813-2.4189,2.41019-3.52672,3.50928-.24758,.24563-.48278,.51231-.76312,.71465-.68808,.49661-1.39532,.49231-1.97658-.1474-.55006-.60539-.5055-1.30011,.02785-1.89606,.67498-.75421,1.40454-1.45958,2.11123-2.18536,1.34107-1.37729,2.67813-2.75852,4.0254-4.12972,1.05651-1.07527,1.71107-1.09155,2.74142-.04138,1.98287,2.02103,3.95508,4.0526,5.9218,6.08935,.74984,.77654,.81744,1.60674,.21911,2.21407-.62621,.63563-1.50797,.56951-2.30534-.21247-1.24455-1.22052-2.47015-2.46037-3.73317-3.72136-.36396,.35683-.20467,.75872-.2052,1.10344-.01169,7.48388-.00884,14.96778-.0093,22.45167-.00002,.31471,.01627,.6313-.0117,.94374-.06731,.75196-.42988,1.27313-1.23651,1.28442-.80581,.01128-1.18998-.49145-1.26659-1.24832-.03156-.31178-.0122-.62893-.01222-.94364-.00043-7.44892-.00034-14.89784-.00035-22.34676v-1.43815Z" fill="#231f20"/>
      <path d="M343.07776,243.90058c.30606-.38017,.16916-.77792,.16963-1.14066,.00956-7.51415,.00707-15.02831,.00781-22.54247,.00003-.31445-.02889-.63484,.02022-.94216,.11179-.6996,.48992-1.14992,1.25448-1.14299,.76676,.00695,1.12798,.47244,1.23219,1.16925,.04609,.30821,.01952,.62785,.01955,.9423,.00075,7.47921,.00062,14.95842,.00065,22.43763,0,.37296,0,.74592,0,1.11888l.25472,.145c.95382-.98071,1.90675-1.96229,2.86197-2.94165,.31691-.32491,.63258-.65157,.9613-.96429,.65336-.62156,1.36805-.68908,2.05985-.10395,.65244,.55184,.64448,1.40838-.03865,2.12422-1.56685,1.64186-3.16618,3.25272-4.75236,4.87612-.53677,.54937-1.05872,1.11429-1.61429,1.64394-.6648,.63379-1.39777,.66119-2.04342,.00927-2.16233-2.18336-4.30832-4.38327-6.43444-6.60189-.61927-.64622-.59218-1.5331,.01931-2.05002,.69459-.58717,1.4234-.52906,2.06364,.09528,1.17466,1.14549,2.32178,2.31918,3.48447,3.477,.14023,.13965,.30576,.25389,.47334,.39119Z" fill="#231f20"/>
      <path d="M362.70582,224.49147c-3.56236-.00002-7.12473,.00304-10.68709-.00168-1.24509-.00165-1.87526-.54983-1.86652-1.59605,.0087-1.04192,.62626-1.55445,1.90392-1.55492,7.15965-.00265,14.3193-.00284,21.47896,.00029,1.25401,.00055,1.8767,.54131,1.86586,1.59145-.01074,1.04153-.63205,1.55821-1.90326,1.55958-3.59729,.00387-7.19458,.00136-10.79187,.00134Z" fill="#231f20"/>
      <path d="M362.77628,230.78604c-3.66714-.00018-7.33431-.00778-11.0014,.00568-.81683,.003-1.34908-.37643-1.56367-1.12047-.19712-.68348-.02409-1.30563,.57849-1.77255,.33419-.25895,.70489-.2665,1.09119-.26645,7.26443,.00095,14.52886-.00208,21.79329,.00367,1.0997,.00087,1.702,.55047,1.72591,1.51928,.02531,1.02549-.58997,1.62479-1.72717,1.62764-3.6322,.00908-7.26442,.00337-10.89664,.00319Z" fill="#231f20"/>
      <path d="M362.88269,233.92782c3.56237,0,7.12474-.00326,10.6871,.00183,1.19847,.00171,1.80571,.51667,1.83031,1.52102,.02598,1.06035-.59861,1.6282-1.83232,1.62889-7.19458,.00401-14.38916,.00404-21.58374-.00001-1.2392-.0007-1.85812-.5645-1.83103-1.63034,.02544-1.00101,.6361-1.51783,1.83305-1.51953,3.63221-.00515,7.26443-.00187,10.89664-.00186Z" fill="#231f20"/>
    </g>
  </g>
</svg>