<?xml version="1.0" encoding="UTF-8"?>
<svg id="Layer_1" data-name="Layer 1" xmlns="http://www.w3.org/2000/svg" viewBox="0 0 724.24841 937.3758">
  <g>
    <path d="M284.97656,28.14727h-1.40723c-.08887-.2666-.14062-.80078-.16699-1.60742-.57324,.89648-1.67773,1.78418-3.84082,1.78418-3.61035,0-5.54688-2.73828-5.54688-6.29688,0-3.74707,2.0791-6.56543,5.88477-6.56543,2.96387,0,4.80566,1.61914,5.15234,3.83496h-1.85547c-.39355-1.29102-1.33301-2.3125-3.33301-2.3125-2.83984,0-3.91211,2.28516-3.91211,4.95605,0,2.49609,1.09961,4.8457,3.85938,4.8457,2.70898,0,3.35449-1.81543,3.35449-3.73926v-.12793h-3.37402v-1.57129h5.18555v6.7998Z" fill="#0b0c0c"/>
    <path d="M289.7959,22.73419v5.41309h-1.83301V15.64141h5.00195c2.59961,0,3.9873,1.41406,3.9873,3.3623,0,1.63574-.92969,2.60547-2.07227,2.94434,.94434,.26562,1.8418,1.00586,1.8418,3.18945v.55078c0,.8584-.03125,1.92383,.16992,2.45898h-1.79199c-.22559-.54004-.2207-1.50781-.2207-2.71094v-.25c0-1.70215-.47363-2.45215-2.67285-2.45215h-2.41016Zm0-1.53906h2.63379c1.83008,0,2.61914-.68848,2.61914-2.02637,0-1.26953-.82812-1.98828-2.45508-1.98828h-2.79785v4.01465Z" fill="#0b0c0c"/>
    <path d="M301.68945,24.55938l-1.27539,3.58789h-1.84082l4.41406-12.50586h2.29883l4.60449,12.50586h-1.9707l-1.31934-3.58789h-4.91113Zm4.45605-1.57129c-1.13477-3.16406-1.77344-4.89941-2.0498-5.88477h-.01758c-.30664,1.09375-1.01855,3.17871-1.93164,5.88477h3.99902Z" fill="#0b0c0c"/>
    <path d="M322.44434,22.93829c0-2.28613,.02637-4.65332,.08008-5.9873h-.07031c-.54492,2.12598-2.42285,7.2666-3.8125,11.19629h-1.6416c-1.05078-3.24219-2.99414-9.01953-3.55371-11.22266h-.06055c.09863,1.44922,.14258,4.1875,.14258,6.33203v4.89062h-1.7334V15.64141h2.76758c1.33594,3.76562,2.9502,8.60059,3.36914,10.24414h.02734c.29688-1.28711,2.21973-6.57227,3.6084-10.24414h2.68359v12.50586h-1.80664v-5.20898Z" fill="#0b0c0c"/>
    <path d="M338.21191,22.93829c0-2.28613,.02637-4.65332,.08008-5.9873h-.07031c-.54492,2.12598-2.42285,7.2666-3.8125,11.19629h-1.6416c-1.05078-3.24219-2.99414-9.01953-3.55371-11.22266h-.06055c.09863,1.44922,.14258,4.1875,.14258,6.33203v4.89062h-1.7334V15.64141h2.76758c1.33594,3.76562,2.9502,8.60059,3.36914,10.24414h.02734c.29688-1.28711,2.21973-6.57227,3.6084-10.24414h2.68359v12.50586h-1.80664v-5.20898Z" fill="#0b0c0c"/>
    <path d="M346.07031,28.14727v-4.55566c0-.12402-.02734-.25-.08789-.34473l-4.38672-7.60547h2.11621c1.10449,2.00391,2.81055,5.09277,3.3916,6.24121,.54004-1.12402,2.3125-4.25879,3.4502-6.24121h1.97266l-4.51172,7.62012c-.04395,.08008-.07812,.14355-.07812,.33496v4.55078h-1.86621Z" fill="#0b0c0c"/>
    <path d="M358.55762,28.14727V15.64141h2.41406c1.75,2.90234,5.45898,8.90332,6.13672,10.26367h.02637c-.12402-1.54883-.11426-3.55859-.11426-5.60352v-4.66016h1.73438v12.50586h-2.27344c-1.59375-2.66309-5.49805-9.18945-6.25098-10.60059h-.02637c.08984,1.3623,.09668,3.56641,.09668,5.82031v4.78027h-1.74316Z" fill="#0b0c0c"/>
    <path d="M383.00586,21.82891c0,3.44727-1.95898,6.49805-5.92188,6.49805-3.72656,0-5.78125-2.8457-5.78125-6.43262,0-3.58984,2.12988-6.43262,5.93164-6.43262,3.54785,0,5.77148,2.62891,5.77148,6.36719Zm-9.7666,.01172c0,2.65332,1.32422,4.92383,3.92383,4.92383,2.80859,0,3.90723-2.32129,3.90723-4.90918,0-2.63184-1.24609-4.83008-3.91211-4.83008-2.72559,0-3.91895,2.19141-3.91895,4.81543Z" fill="#0b0c0c"/>
    <path d="M396.20703,22.93829c0-2.28613,.02637-4.65332,.08008-5.9873h-.07031c-.54492,2.12598-2.42285,7.2666-3.8125,11.19629h-1.6416c-1.05078-3.24219-2.99414-9.01953-3.55371-11.22266h-.06055c.09863,1.44922,.14258,4.1875,.14258,6.33203v4.89062h-1.7334V15.64141h2.76758c1.33594,3.76562,2.9502,8.60059,3.36914,10.24414h.02734c.29688-1.28711,2.21973-6.57227,3.6084-10.24414h2.68359v12.50586h-1.80664v-5.20898Z" fill="#0b0c0c"/>
    <path d="M403.18164,15.64141v12.50586h-1.85645V15.64141h1.85645Z" fill="#0b0c0c"/>
    <path d="M406.50879,28.14727V15.64141h2.41406c1.75,2.90234,5.45898,8.90332,6.13672,10.26367h.02637c-.12402-1.54883-.11426-3.55859-.11426-5.60352v-4.66016h1.73438v12.50586h-2.27344c-1.59375-2.66309-5.49805-9.18945-6.25098-10.60059h-.02637c.08984,1.3623,.09668,3.56641,.09668,5.82031v4.78027h-1.74316Z" fill="#0b0c0c"/>
    <path d="M428.01562,22.38751h-6.17383v4.18848h6.78613l-.23438,1.57129h-8.36719V15.64141h8.28125v1.57129h-6.46582v3.60352h6.17383v1.57129Z" fill="#0b0c0c"/>
    <path d="M438.81543,22.38751h-6.17383v4.18848h6.78613l-.23438,1.57129h-8.36719V15.64141h8.28125v1.57129h-6.46582v3.60352h6.17383v1.57129Z" fill="#0b0c0c"/>
    <path d="M442.75293,24.63165c.32812,1.45312,1.33008,2.21484,3.07324,2.21484,1.85547,0,2.59863-.84961,2.59863-1.98145,0-1.20898-.61426-1.8623-3.05176-2.44824-3.0332-.73145-4.02148-1.78418-4.02148-3.5293,0-1.91797,1.41895-3.42578,4.24219-3.42578,3.04297,0,4.28711,1.7334,4.45801,3.41113h-1.88477c-.20605-1.04785-.85059-1.94629-2.63477-1.94629-1.44238,0-2.26074,.6416-2.26074,1.77637,0,1.11621,.67285,1.55762,2.83203,2.07715,3.5791,.86523,4.24121,2.24707,4.24121,3.88281,0,2.06641-1.53906,3.64453-4.64453,3.64453-3.15039,0-4.56445-1.68945-4.83203-3.67578h1.88477Z" fill="#0b0c0c"/>
  </g>
  <g>
    <line x1="364.17468" y1="44.09967" x2="364.17468" y2="142.16803" fill="none" stroke="#231f20" stroke-miterlimit="10" stroke-width="2"/>
    <polygon points="354.20203 139.25006 364.17468 156.52057 374.14734 139.25006 354.20203 139.25006" fill="#231f20"/>
  </g>
  <g>
    <line x1="364.17468" y1="273.19806" x2="364.17468" y2="443.26641" fill="none" stroke="#231f20" stroke-miterlimit="10" stroke-width="2"/>
    <polygon points="354.20203 440.34845 364.17468 457.61895 374.14734 440.34845 354.20203 440.34845" fill="#231f20"/>
  </g>
  <circle cx="364.17468" cy="255.3391" r="90" fill="#b26700"/>
  <g>
    <path d="M305.50293,240.48321l2.63379,7.12988,2.63281-7.12988h1.14844l-3.78125,9.90332-3.78223-9.90332h1.14844Z" fill="#fff"/>
    <path d="M312.18066,246.94024c0-1.76465,1.30273-3.06738,3.08203-3.06738s3.08203,1.30273,3.08203,3.06738-1.31738,3.05371-3.08203,3.05371-3.08203-1.28906-3.08203-3.05371Zm1.03711,0c0,1.42871,1.00879,2.15723,2.04492,2.15723,1.05078,0,2.04492-.74219,2.04492-2.15723,0-1.42871-.98047-2.1709-2.04492-2.1709s-2.04492,.75586-2.04492,2.1709Z" fill="#fff"/>
    <path d="M320.91797,244.93731v4.88867h-1.00879v-4.88867h-.61621v-.9248h.61621v-2.10059h1.00879v2.10059h1.00879v.9248h-1.00879Z" fill="#fff"/>
    <path d="M323.38184,241.09942c.3916,0,.71387,.32227,.71387,.71387,0,.39258-.32227,.71484-.71387,.71484-.39258,0-.71484-.32227-.71484-.71484,0-.3916,.32227-.71387,.71484-.71387Zm.50391,2.91309v5.81348h-1.00879v-5.81348h1.00879Z" fill="#fff"/>
    <path d="M325.78906,244.01251h1.00879v.67285c.18262-.23828,.7002-.8125,1.66699-.8125,.68652,0,1.31641,.28027,1.66699,.79883,.29395,.43359,.33594,.91016,.33594,1.55469v3.59961h-1.00879v-3.57227c0-.34961-.02734-.75586-.26562-1.06445-.19629-.25195-.50391-.41992-.95215-.41992-.35059,0-.72852,.09766-1.02344,.44824-.3916,.46191-.41992,1.14844-.41992,1.56836v3.04004h-1.00879v-5.81348Z" fill="#fff"/>
    <path d="M336.82422,244.01251h1.00781v5.67383c0,.62988,0,1.52637-.55957,2.2832-.43457,.58789-1.2334,1.07812-2.3252,1.07812-.99512,0-1.68164-.39258-2.07324-.78418-.39258-.39258-.75684-1.02246-.75684-1.87695h.99512c0,.49023,.19531,.92383,.44824,1.2041,.41992,.46289,.95215,.56055,1.40039,.56055,.71387,0,1.20508-.25195,1.54102-.8125,.29395-.47656,.32227-.99414,.32227-1.48438v-.84082c-.33691,.43457-.9668,.98047-1.98926,.98047-.85449,0-1.54102-.33594-1.98926-.78418-.39258-.39258-.84082-1.12109-.84082-2.29785,0-1.13379,.4209-1.83496,.84082-2.25488,.49023-.47656,1.20508-.78418,1.98926-.78418,.85449,0,1.52637,.36426,1.98926,.9668v-.82715Zm-3.19434,1.30273c-.49023,.50488-.58789,1.12109-.58789,1.59668,0,.50488,.09766,1.19141,.6582,1.70898,.32227,.29492,.71484,.47656,1.24707,.47656s.95215-.16797,1.27441-.49023c.39258-.37793,.6582-.99414,.6582-1.68066s-.25195-1.28906-.61621-1.63867c-.32227-.32227-.79883-.51855-1.31641-.51855-.61621,0-1.03711,.26562-1.31738,.5459Z" fill="#fff"/>
    <path d="M342.99512,244.01251h1.00879v.61621c.32227-.47559,.82617-.75586,1.44336-.75586,1.0498,0,1.4707,.74219,1.58203,.93848,.56055-.88281,1.35938-.93848,1.75098-.93848,1.72363,0,1.8916,1.44238,1.8916,2.26953v3.68359h-1.00879v-3.53027c0-.6582-.08398-1.52637-1.03613-1.52637-1.16309,0-1.28906,1.12012-1.28906,1.82129v3.23535h-1.00879v-3.44629c0-.40625,.01465-1.61035-1.05078-1.61035-1.14844,0-1.27441,1.19043-1.27441,1.89062v3.16602h-1.00879v-5.81348Z" fill="#fff"/>
    <path d="M357.74023,248.34161c-.16797,.32129-.41992,.67188-.71484,.93848-.53223,.47559-1.19043,.71387-1.93262,.71387-1.40039,0-2.87207-.88281-2.87207-3.03906,0-1.7373,1.06543-3.08203,2.81641-3.08203,1.13379,0,1.84863,.56055,2.19824,1.06445,.36426,.51855,.5752,1.41504,.54688,2.18555h-4.52441c.01367,1.2041,.84082,1.97461,1.84863,1.97461,.47656,0,.85449-.13965,1.19043-.41992,.2666-.22461,.47656-.51855,.60254-.79883l.84082,.46289Zm-.99512-2.05957c-.16797-.91016-.85352-1.5127-1.70801-1.5127s-1.55566,.64453-1.70898,1.5127h3.41699Z" fill="#fff"/>
    <path d="M359.31836,244.01251h1.00879v.61621c.32227-.47559,.82617-.75586,1.44336-.75586,1.0498,0,1.4707,.74219,1.58203,.93848,.56055-.88281,1.35938-.93848,1.75098-.93848,1.72363,0,1.8916,1.44238,1.8916,2.26953v3.68359h-1.00879v-3.53027c0-.6582-.08398-1.52637-1.03613-1.52637-1.16309,0-1.28906,1.12012-1.28906,1.82129v3.23535h-1.00879v-3.44629c0-.40625,.01465-1.61035-1.05078-1.61035-1.14844,0-1.27441,1.19043-1.27441,1.89062v3.16602h-1.00879v-5.81348Z" fill="#fff"/>
    <path d="M369.91699,249.82599h-1.00879v-10.21191h1.00879v5.21094c.68652-.85449,1.56934-.95215,1.98926-.95215,1.82129,0,2.8291,1.5127,2.8291,3.08203,0,1.59668-1.02246,3.03906-2.78711,3.03906-.93848,0-1.59668-.41992-2.03125-.98047v.8125Zm3.78223-2.87109c0-1.42969-.9668-2.18555-1.90527-2.18555s-1.93262,.77051-1.93262,2.1709c0,1.19043,.75586,2.15723,1.94727,2.15723,1.17578,0,1.89062-.98047,1.89062-2.14258Z" fill="#fff"/>
    <path d="M381.42773,248.34161c-.16797,.32129-.41992,.67188-.71484,.93848-.53223,.47559-1.19043,.71387-1.93262,.71387-1.40039,0-2.87207-.88281-2.87207-3.03906,0-1.7373,1.06543-3.08203,2.81641-3.08203,1.13379,0,1.84863,.56055,2.19824,1.06445,.36426,.51855,.5752,1.41504,.54688,2.18555h-4.52441c.01367,1.2041,.84082,1.97461,1.84863,1.97461,.47656,0,.85449-.13965,1.19043-.41992,.2666-.22461,.47656-.51855,.60254-.79883l.84082,.46289Zm-.99512-2.05957c-.16797-.91016-.85352-1.5127-1.70801-1.5127s-1.55566,.64453-1.70898,1.5127h3.41699Z" fill="#fff"/>
    <path d="M383.00586,244.01251h1.00879v.63086c.09863-.1543,.53223-.77051,1.31641-.77051,.30859,0,.64453,.1123,.89648,.23828l-.47559,.91016c-.22461-.1543-.43457-.19629-.58887-.19629-.40625,0-.6582,.16797-.8125,.36426-.16797,.22461-.33594,.61621-.33594,1.56934v3.06738h-1.00879v-5.81348Z" fill="#fff"/>
    <path d="M389.39062,245.35724c-.13965-.33594-.43457-.58789-.8125-.58789-.36426,0-.7002,.20996-.7002,.6582,0,.41992,.28027,.5459,.93848,.82617,.84082,.35059,1.23242,.61621,1.45703,.89648,.25195,.30859,.30762,.61621,.30762,.93848,0,1.21875-.88184,1.90527-2.00293,1.90527-.23828,0-1.54102-.02832-2.03125-1.48438l.86914-.36426c.11133,.30762,.44824,.95215,1.17676,.95215,.6582,0,.95215-.49023,.95215-.9248,0-.5459-.39258-.72754-.93848-.96582-.7002-.30859-1.14844-.53223-1.41504-.85449-.22363-.28027-.26562-.56055-.26562-.85449,0-1.02246,.71387-1.625,1.69434-1.625,.30859,0,1.13477,.05566,1.59668,1.05078l-.82617,.43359Z" fill="#fff"/>
    <path d="M399.7373,245.63751c-.53223-.67188-1.30273-.86816-1.82129-.86816-1.07812,0-2.05859,.75586-2.05859,2.1709s1.00879,2.15723,2.04492,2.15723c.60254,0,1.34473-.26562,1.87695-.91016v1.2041c-.62988,.46289-1.30273,.60254-1.84863,.60254-1.80762,0-3.11035-1.28906-3.11035-3.03906,0-1.7793,1.31738-3.08203,3.11035-3.08203,.92383,0,1.52637,.36426,1.80664,.56055v1.2041Z" fill="#fff"/>
    <path d="M405.77148,244.01251h1.00781v5.81348h-1.00781v-.8125c-.33691,.43457-.9668,.98047-1.98926,.98047-1.4707,0-2.83008-1.03613-2.83008-3.08203,0-2.00293,1.34473-3.03906,2.83008-3.03906,1.12012,0,1.72266,.61621,1.98926,.9668v-.82715Zm-3.78223,2.89941c0,1.24707,.7002,2.18555,1.90527,2.18555,1.23242,0,1.93262-1.02246,1.93262-2.1709,0-1.49902-1.03613-2.15723-1.93262-2.15723-.99512,0-1.90527,.72852-1.90527,2.14258Z" fill="#fff"/>
    <path d="M411.07617,245.35724c-.13965-.33594-.43457-.58789-.8125-.58789-.36426,0-.7002,.20996-.7002,.6582,0,.41992,.28027,.5459,.93848,.82617,.84082,.35059,1.23242,.61621,1.45703,.89648,.25195,.30859,.30762,.61621,.30762,.93848,0,1.21875-.88184,1.90527-2.00293,1.90527-.23828,0-1.54102-.02832-2.03125-1.48438l.86914-.36426c.11133,.30762,.44824,.95215,1.17676,.95215,.6582,0,.95215-.49023,.95215-.9248,0-.5459-.39258-.72754-.93848-.96582-.7002-.30859-1.14844-.53223-1.41504-.85449-.22363-.28027-.26562-.56055-.26562-.85449,0-1.02246,.71387-1.625,1.69434-1.625,.30859,0,1.13477,.05566,1.59668,1.05078l-.82617,.43359Z" fill="#fff"/>
    <path d="M414.64551,244.93731v4.88867h-1.00879v-4.88867h-.61621v-.9248h.61621v-2.10059h1.00879v2.10059h1.00879v.9248h-1.00879Z" fill="#fff"/>
    <path d="M306.23145,261.73712v4.88867h-1.00879v-4.88867h-.56055v-.9248h.56055v-2.18457c0-.63086,.04199-1.10645,.33594-1.52734,.2666-.3916,.82715-.85449,1.91895-.85449,.49023,0,1.42871,.08398,1.91992,.85449,.32129,.51855,.33594,1.0791,.33594,1.52734v.23828h-1.00879v-.23828c0-.22461-.01367-.63086-.19629-.91113-.16797-.25195-.49023-.44824-1.05078-.44824-.55957,0-.88184,.19629-1.0498,.44824-.18262,.2666-.19629,.61719-.19629,.91113v2.18457h1.42871v.9248h-1.42871Zm3.50195-.9248v5.81348h-1.00879v-5.81348h1.00879Z" fill="#fff"/>
    <path d="M311.63379,260.81231h1.00879v.67285c.18262-.23828,.7002-.8125,1.66699-.8125,.68652,0,1.31641,.28027,1.66699,.79785,.29395,.43457,.33594,.91113,.33594,1.55566v3.59961h-1.00879v-3.57227c0-.34961-.02734-.75586-.26562-1.06445-.19629-.25195-.50391-.41992-.95215-.41992-.35059,0-.72852,.09766-1.02344,.44824-.3916,.46191-.41992,1.14844-.41992,1.56836v3.04004h-1.00879v-5.81348Z" fill="#fff"/>
    <path d="M322.66895,260.81231h1.00781v5.81348h-1.00781v-.8125c-.33691,.43457-.9668,.98047-1.98926,.98047-1.4707,0-2.83008-1.03613-2.83008-3.08105,0-2.00391,1.34473-3.04004,2.83008-3.04004,1.12012,0,1.72266,.61621,1.98926,.9668v-.82715Zm-3.78223,2.90039c0,1.24609,.7002,2.18457,1.90527,2.18457,1.23242,0,1.93262-1.02246,1.93262-2.1709,0-1.49902-1.03613-2.15723-1.93262-2.15723-.99512,0-1.90527,.72852-1.90527,2.14355Z" fill="#fff"/>
    <path d="M326.58691,256.41388v10.21191h-1.00879v-10.21191h1.00879Z" fill="#fff"/>
    <path d="M332.76074,266.62579h-1.00879v-10.21191h1.00879v5.21094c.68652-.85449,1.56934-.95215,1.98926-.95215,1.82129,0,2.8291,1.5127,2.8291,3.08203,0,1.59668-1.02246,3.03906-2.78711,3.03906-.93848,0-1.59668-.41992-2.03125-.98047v.8125Zm3.78223-2.87109c0-1.42969-.9668-2.18555-1.90527-2.18555s-1.93262,.77051-1.93262,2.1709c0,1.19043,.75586,2.15723,1.94727,2.15723,1.17578,0,1.89062-.98047,1.89062-2.14258Z" fill="#fff"/>
    <path d="M343.57129,260.81231h1.00781v5.81348h-1.00781v-.8125c-.33691,.43457-.9668,.98047-1.98926,.98047-1.4707,0-2.83008-1.03613-2.83008-3.08105,0-2.00391,1.34473-3.04004,2.83008-3.04004,1.12012,0,1.72266,.61621,1.98926,.9668v-.82715Zm-3.78223,2.90039c0,1.24609,.7002,2.18457,1.90527,2.18457,1.23242,0,1.93262-1.02246,1.93262-2.1709,0-1.49902-1.03613-2.15723-1.93262-2.15723-.99512,0-1.90527,.72852-1.90527,2.14355Z" fill="#fff"/>
    <path d="M347.48926,256.41388v10.21191h-1.00879v-10.21191h1.00879Z" fill="#fff"/>
    <path d="M350.40137,256.41388v10.21191h-1.00879v-10.21191h1.00879Z" fill="#fff"/>
    <path d="M351.94043,263.74005c0-1.76465,1.30273-3.06738,3.08203-3.06738s3.08203,1.30273,3.08203,3.06738c0,1.76562-1.31738,3.05371-3.08203,3.05371s-3.08203-1.28809-3.08203-3.05371Zm1.03711,0c0,1.42871,1.00879,2.15723,2.04492,2.15723,1.05078,0,2.04492-.74219,2.04492-2.15723,0-1.42871-.98047-2.1709-2.04492-2.1709s-2.04492,.75586-2.04492,2.1709Z" fill="#fff"/>
    <path d="M360.67773,261.73712v4.88867h-1.00879v-4.88867h-.61621v-.9248h.61621v-2.10059h1.00879v2.10059h1.00879v.9248h-1.00879Z" fill="#fff"/>
    <path d="M363.28125,265.36505c.37793,0,.7002,.32227,.7002,.7002,0,.37891-.32227,.7002-.7002,.7002s-.7002-.32129-.7002-.7002c0-.37793,.32227-.7002,.7002-.7002Z" fill="#fff"/>
  </g>
  <g>
    <path d="M290.79004,793.23809h-1.40723c-.08887-.2666-.14062-.80078-.16699-1.60742-.57324,.89648-1.67773,1.78418-3.84082,1.78418-3.61035,0-5.54688-2.73828-5.54688-6.29688,0-3.74707,2.0791-6.56543,5.88477-6.56543,2.96387,0,4.80566,1.61914,5.15234,3.83496h-1.85547c-.39355-1.29102-1.33301-2.3125-3.33301-2.3125-2.83984,0-3.91211,2.28516-3.91211,4.95605,0,2.49609,1.09961,4.8457,3.85938,4.8457,2.70898,0,3.35449-1.81543,3.35449-3.73926v-.12793h-3.37402v-1.57129h5.18555v6.7998Z" fill="#b26700"/>
    <path d="M295.60938,787.82501v5.41309h-1.83301v-12.50586h5.00195c2.59961,0,3.9873,1.41406,3.9873,3.3623,0,1.63574-.92969,2.60547-2.07227,2.94434,.94434,.26562,1.8418,1.00586,1.8418,3.18945v.55078c0,.8584-.03125,1.92383,.16992,2.45898h-1.79199c-.22559-.54004-.2207-1.50781-.2207-2.71094v-.25c0-1.70215-.47363-2.45215-2.67285-2.45215h-2.41016Zm0-1.53906h2.63379c1.83008,0,2.61914-.68848,2.61914-2.02637,0-1.26953-.82812-1.98828-2.45508-1.98828h-2.79785v4.01465Z" fill="#b26700"/>
    <path d="M307.50293,789.6502l-1.27539,3.58789h-1.84082l4.41406-12.50586h2.29883l4.60449,12.50586h-1.9707l-1.31934-3.58789h-4.91113Zm4.45605-1.57129c-1.13477-3.16406-1.77344-4.89941-2.0498-5.88477h-.01758c-.30664,1.09375-1.01855,3.17871-1.93164,5.88477h3.99902Z" fill="#b26700"/>
    <path d="M328.25781,788.02911c0-2.28613,.02637-4.65332,.08008-5.9873h-.07031c-.54492,2.12598-2.42285,7.2666-3.8125,11.19629h-1.6416c-1.05078-3.24219-2.99414-9.01953-3.55371-11.22266h-.06055c.09863,1.44922,.14258,4.1875,.14258,6.33203v4.89062h-1.7334v-12.50586h2.76758c1.33594,3.76562,2.9502,8.60059,3.36914,10.24414h.02734c.29688-1.28711,2.21973-6.57227,3.6084-10.24414h2.68359v12.50586h-1.80664v-5.20898Z" fill="#b26700"/>
    <path d="M344.02539,788.02911c0-2.28613,.02637-4.65332,.08008-5.9873h-.07031c-.54492,2.12598-2.42285,7.2666-3.8125,11.19629h-1.6416c-1.05078-3.24219-2.99414-9.01953-3.55371-11.22266h-.06055c.09863,1.44922,.14258,4.1875,.14258,6.33203v4.89062h-1.7334v-12.50586h2.76758c1.33594,3.76562,2.9502,8.60059,3.36914,10.24414h.02734c.29688-1.28711,2.21973-6.57227,3.6084-10.24414h2.68359v12.50586h-1.80664v-5.20898Z" fill="#b26700"/>
    <path d="M351.88379,793.23809v-4.55566c0-.12402-.02734-.25-.08789-.34473l-4.38672-7.60547h2.11621c1.10449,2.00391,2.81055,5.09277,3.3916,6.24121,.54004-1.12402,2.3125-4.25879,3.4502-6.24121h1.97266l-4.51172,7.62012c-.04395,.08008-.07812,.14355-.07812,.33496v4.55078h-1.86621Z" fill="#b26700"/>
    <path d="M366.46094,793.23809l-3.32031-12.50586h1.96484c1.01074,4.4082,2.20703,9.08496,2.42188,10.50391h.01758c.35645-1.74316,1.97754-7.34473,2.77734-10.50391h1.76855c.72949,2.71875,2.35352,8.78516,2.6582,10.42871h.01758c.4043-2.27344,2.05273-7.97754,2.69629-10.42871h1.8252l-3.59961,12.50586h-1.97559c-.73828-2.85645-2.25098-8.45508-2.58203-10.0752h-.01758c-.38965,1.93359-1.9082,7.26953-2.68652,10.0752h-1.96582Z" fill="#b26700"/>
    <path d="M383.07617,780.73224v12.50586h-1.85645v-12.50586h1.85645Z" fill="#b26700"/>
    <path d="M386.40332,793.23809v-12.50586h2.41406c1.75,2.90234,5.45898,8.90332,6.13672,10.26367h.02637c-.12402-1.54883-.11426-3.55859-.11426-5.60352v-4.66016h1.73438v12.50586h-2.27344c-1.59375-2.66309-5.49805-9.18945-6.25098-10.60059h-.02637c.08984,1.3623,.09668,3.56641,.09668,5.82031v4.78027h-1.74316Z" fill="#b26700"/>
    <path d="M399.9209,793.23809v-12.50586h2.41406c1.75,2.90234,5.45898,8.90332,6.13672,10.26367h.02637c-.12402-1.54883-.11426-3.55859-.11426-5.60352v-4.66016h1.73438v12.50586h-2.27344c-1.59375-2.66309-5.49805-9.18945-6.25098-10.60059h-.02637c.08984,1.3623,.09668,3.56641,.09668,5.82031v4.78027h-1.74316Z" fill="#b26700"/>
    <path d="M421.42773,787.47833h-6.17383v4.18848h6.78613l-.23438,1.57129h-8.36719v-12.50586h8.28125v1.57129h-6.46582v3.60352h6.17383v1.57129Z" fill="#b26700"/>
    <path d="M426.07129,787.82501v5.41309h-1.83301v-12.50586h5.00195c2.59961,0,3.9873,1.41406,3.9873,3.3623,0,1.63574-.92969,2.60547-2.07227,2.94434,.94434,.26562,1.8418,1.00586,1.8418,3.18945v.55078c0,.8584-.03125,1.92383,.16992,2.45898h-1.79199c-.22559-.54004-.2207-1.50781-.2207-2.71094v-.25c0-1.70215-.47363-2.45215-2.67285-2.45215h-2.41016Zm0-1.53906h2.63379c1.83008,0,2.61914-.68848,2.61914-2.02637,0-1.26953-.82812-1.98828-2.45508-1.98828h-2.79785v4.01465Z" fill="#b26700"/>
    <path d="M436.93848,789.72247c.32812,1.45312,1.33008,2.21484,3.07324,2.21484,1.85547,0,2.59863-.84961,2.59863-1.98145,0-1.20898-.61426-1.8623-3.05176-2.44824-3.0332-.73145-4.02148-1.78418-4.02148-3.5293,0-1.91797,1.41895-3.42578,4.24219-3.42578,3.04297,0,4.28711,1.7334,4.45801,3.41113h-1.88477c-.20605-1.04785-.85059-1.94629-2.63477-1.94629-1.44238,0-2.26074,.6416-2.26074,1.77637,0,1.11621,.67285,1.55762,2.83203,2.07715,3.5791,.86523,4.24121,2.24707,4.24121,3.88281,0,2.06641-1.53906,3.64453-4.64453,3.64453-3.15039,0-4.56445-1.68945-4.83105-3.67578h1.88379Z" fill="#b26700"/>
  </g>
  <g>
    <line x1="364.17468" y1="575.14361" x2="364.17468" y2="745.21197" fill="none" stroke="#231f20" stroke-miterlimit="10" stroke-width="2"/>
    <polygon points="354.20203 742.29376 364.17468 759.56427 374.14734 742.29376 354.20203 742.29376" fill="#231f20"/>
  </g>
  <circle cx="364.17468" cy="550.05662" r="90" fill="#b26700"/>
  <g>
    <path d="M307.875,542.05938c.51855,0,1.45703,.04199,2.14258,.58789,.29492,.22461,.84082,.79883,.84082,1.93359,0,.46191-.09766,1.27441-.9248,1.83496,1.30273,.32227,1.7793,1.45605,1.7793,2.35254s-.44824,1.625-.95215,2.01758c-.74316,.58789-1.59766,.61621-2.24121,.61621h-2.3252v-9.34277h1.68066Zm-.64453,4.10352h.78418c.54688,0,1.83496-.11133,1.83496-1.55469,0-1.54102-1.5127-1.56836-1.80664-1.56836h-.8125v3.12305Zm0,4.25879h1.19043c.60254,0,1.19043-.04199,1.63867-.39258,.36426-.26562,.61719-.72852,.61719-1.28809,0-.74316-.43457-1.17676-.79883-1.37305-.35059-.19629-.84082-.28027-1.58301-.28027h-1.06445v3.33398Z" fill="#fff"/>
    <path d="M317.81641,545.58868h1.00781v5.81348h-1.00781v-.8125c-.33691,.43457-.9668,.98047-1.98926,.98047-1.4707,0-2.83008-1.03613-2.83008-3.08203,0-2.00293,1.34473-3.03906,2.83008-3.03906,1.12012,0,1.72266,.61621,1.98926,.9668v-.82715Zm-3.78223,2.89941c0,1.24707,.7002,2.18555,1.90527,2.18555,1.23242,0,1.93262-1.02246,1.93262-2.1709,0-1.49902-1.03613-2.15723-1.93262-2.15723-.99512,0-1.90527,.72852-1.90527,2.14258Z" fill="#fff"/>
    <path d="M321.73438,541.19024v10.21191h-1.00879v-10.21191h1.00879Z" fill="#fff"/>
    <path d="M324.64648,541.19024v10.21191h-1.00879v-10.21191h1.00879Z" fill="#fff"/>
    <path d="M326.18555,548.51641c0-1.76465,1.30273-3.06738,3.08203-3.06738s3.08203,1.30273,3.08203,3.06738-1.31738,3.05371-3.08203,3.05371-3.08203-1.28906-3.08203-3.05371Zm1.03711,0c0,1.42871,1.00879,2.15723,2.04492,2.15723,1.05078,0,2.04492-.74219,2.04492-2.15723,0-1.42871-.98047-2.1709-2.04492-2.1709s-2.04492,.75586-2.04492,2.1709Z" fill="#fff"/>
    <path d="M334.92285,546.51349v4.88867h-1.00879v-4.88867h-.61621v-.9248h.61621v-2.10059h1.00879v2.10059h1.00879v.9248h-1.00879Z" fill="#fff"/>
    <path d="M339.27734,546.93341c-.13965-.33594-.43457-.58789-.8125-.58789-.36426,0-.7002,.20996-.7002,.6582,0,.41992,.28027,.5459,.93848,.82617,.84082,.35059,1.23242,.61621,1.45703,.89648,.25195,.30859,.30762,.61621,.30762,.93848,0,1.21875-.88184,1.90527-2.00293,1.90527-.23828,0-1.54102-.02832-2.03125-1.48438l.86914-.36426c.11133,.30762,.44824,.95215,1.17676,.95215,.6582,0,.95215-.49023,.95215-.9248,0-.5459-.39258-.72754-.93848-.96582-.7002-.30859-1.14844-.53223-1.41504-.85449-.22363-.28027-.26562-.56055-.26562-.85449,0-1.02246,.71387-1.625,1.69434-1.625,.30859,0,1.13477,.05566,1.59668,1.05078l-.82617,.43359Z" fill="#fff"/>
    <path d="M349.52637,545.58868h1.00781v5.81348h-1.00781v-.8125c-.33691,.43457-.9668,.98047-1.98926,.98047-1.4707,0-2.83008-1.03613-2.83008-3.08203,0-2.00293,1.34473-3.03906,2.83008-3.03906,1.12012,0,1.72266,.61621,1.98926,.9668v-.82715Zm-3.78223,2.89941c0,1.24707,.7002,2.18555,1.90527,2.18555,1.23242,0,1.93262-1.02246,1.93262-2.1709,0-1.49902-1.03613-2.15723-1.93262-2.15723-.99512,0-1.90527,.72852-1.90527,2.14258Z" fill="#fff"/>
    <path d="M352.43555,545.58868h1.00879v.63086c.09863-.1543,.53223-.77051,1.31641-.77051,.30859,0,.64453,.1123,.89648,.23828l-.47559,.91016c-.22461-.1543-.43457-.19629-.58887-.19629-.40625,0-.6582,.16797-.8125,.36426-.16797,.22461-.33594,.61621-.33594,1.56934v3.06738h-1.00879v-5.81348Z" fill="#fff"/>
    <path d="M361.39844,549.91778c-.16797,.32129-.41992,.67188-.71484,.93848-.53223,.47559-1.19043,.71387-1.93262,.71387-1.40039,0-2.87207-.88281-2.87207-3.03906,0-1.7373,1.06543-3.08203,2.81641-3.08203,1.13379,0,1.84863,.56055,2.19824,1.06445,.36426,.51855,.5752,1.41504,.54688,2.18555h-4.52441c.01367,1.2041,.84082,1.97461,1.84863,1.97461,.47656,0,.85449-.13965,1.19043-.41992,.2666-.22461,.47656-.51855,.60254-.79883l.84082,.46289Zm-.99512-2.05957c-.16797-.91016-.85352-1.5127-1.70801-1.5127s-1.55566,.64453-1.70898,1.5127h3.41699Z" fill="#fff"/>
    <path d="M370.79102,547.21368c-.53223-.67188-1.30273-.86816-1.82129-.86816-1.07812,0-2.05859,.75586-2.05859,2.1709s1.00879,2.15723,2.04492,2.15723c.60254,0,1.34473-.26562,1.87695-.91016v1.2041c-.62988,.46289-1.30273,.60254-1.84863,.60254-1.80762,0-3.11035-1.28906-3.11035-3.03906,0-1.7793,1.31738-3.08203,3.11035-3.08203,.92383,0,1.52637,.36426,1.80664,.56055v1.2041Z" fill="#fff"/>
    <path d="M376.8252,545.58868h1.00781v5.81348h-1.00781v-.8125c-.33691,.43457-.9668,.98047-1.98926,.98047-1.4707,0-2.83008-1.03613-2.83008-3.08203,0-2.00293,1.34473-3.03906,2.83008-3.03906,1.12012,0,1.72266,.61621,1.98926,.9668v-.82715Zm-3.78223,2.89941c0,1.24707,.7002,2.18555,1.90527,2.18555,1.23242,0,1.93262-1.02246,1.93262-2.1709,0-1.49902-1.03613-2.15723-1.93262-2.15723-.99512,0-1.90527,.72852-1.90527,2.14258Z" fill="#fff"/>
    <path d="M380.74316,541.19024v10.21191h-1.00879v-10.21191h1.00879Z" fill="#fff"/>
    <path d="M387.19922,547.21368c-.53223-.67188-1.30273-.86816-1.82129-.86816-1.07812,0-2.05859,.75586-2.05859,2.1709s1.00879,2.15723,2.04492,2.15723c.60254,0,1.34473-.26562,1.87695-.91016v1.2041c-.62988,.46289-1.30273,.60254-1.84863,.60254-1.80762,0-3.11035-1.28906-3.11035-3.03906,0-1.7793,1.31738-3.08203,3.11035-3.08203,.92383,0,1.52637,.36426,1.80664,.56055v1.2041Z" fill="#fff"/>
    <path d="M389.78711,548.97931c0,.40527,0,.88184,.28027,1.24609,.1543,.19629,.46191,.44824,1.02246,.44824s.86816-.25195,1.02246-.44824c.28027-.36426,.28027-.84082,.28027-1.24609v-3.39062h1.00879v3.50195c0,.71484-.07031,1.24707-.53223,1.75098-.51855,.54688-1.20508,.72852-1.7793,.72852s-1.26074-.18164-1.7793-.72852c-.46191-.50391-.53223-1.03613-.53223-1.75098v-3.50195h1.00879v3.39062Z" fill="#fff"/>
    <path d="M396.31055,541.19024v10.21191h-1.00879v-10.21191h1.00879Z" fill="#fff"/>
    <path d="M402.66895,545.58868h1.00781v5.81348h-1.00781v-.8125c-.33691,.43457-.9668,.98047-1.98926,.98047-1.4707,0-2.83008-1.03613-2.83008-3.08203,0-2.00293,1.34473-3.03906,2.83008-3.03906,1.12012,0,1.72266,.61621,1.98926,.9668v-.82715Zm-3.78223,2.89941c0,1.24707,.7002,2.18555,1.90527,2.18555,1.23242,0,1.93262-1.02246,1.93262-2.1709,0-1.49902-1.03613-2.15723-1.93262-2.15723-.99512,0-1.90527,.72852-1.90527,2.14258Z" fill="#fff"/>
    <path d="M406.61523,546.51349v4.88867h-1.00879v-4.88867h-.61621v-.9248h.61621v-2.10059h1.00879v2.10059h1.00879v.9248h-1.00879Z" fill="#fff"/>
    <path d="M413.72949,549.91778c-.16797,.32129-.41992,.67188-.71484,.93848-.53223,.47559-1.19043,.71387-1.93262,.71387-1.40039,0-2.87207-.88281-2.87207-3.03906,0-1.7373,1.06543-3.08203,2.81641-3.08203,1.13379,0,1.84863,.56055,2.19922,1.06445,.36328,.51855,.57422,1.41504,.5459,2.18555h-4.52441c.01367,1.2041,.83984,1.97461,1.84863,1.97461,.47656,0,.85449-.13965,1.19043-.41992,.2666-.22461,.47656-.51855,.60254-.79883l.84082,.46289Zm-.99512-2.05957c-.16797-.91016-.85449-1.5127-1.70801-1.5127-.85449,0-1.55566,.64453-1.70898,1.5127h3.41699Z" fill="#fff"/>
    <path d="M419.7627,541.19024h1.00781v10.21191h-1.00781v-.8125c-.33691,.43457-.9668,.98047-1.98926,.98047-1.4707,0-2.83008-1.03613-2.83008-3.08203,0-2.00293,1.34473-3.03906,2.83008-3.03906,1.12012,0,1.72266,.61621,1.98926,.9668v-5.22559Zm-3.78223,7.29785c0,1.24707,.7002,2.18555,1.90527,2.18555,1.23242,0,1.93262-1.02246,1.93262-2.1709,0-1.49902-1.03613-2.15723-1.93262-2.15723-.99512,0-1.90527,.72852-1.90527,2.14258Z" fill="#fff"/>
    <path d="M306.9502,568.20196h-1.00879v-10.21191h1.00879v5.21094c.68652-.85449,1.56934-.95215,1.98926-.95215,1.82129,0,2.8291,1.5127,2.8291,3.08203,0,1.59668-1.02246,3.03906-2.78711,3.03906-.93848,0-1.59668-.41992-2.03125-.98047v.8125Zm3.78223-2.87109c0-1.42969-.9668-2.18555-1.90527-2.18555s-1.93262,.77051-1.93262,2.1709c0,1.19043,.75586,2.15723,1.94727,2.15723,1.17578,0,1.89062-.98047,1.89062-2.14258Z" fill="#fff"/>
    <path d="M315.14062,567.65606l-2.6748-5.26758h1.14844l2.05859,4.16016,1.8916-4.16016h1.12012l-4.27148,9.03516h-1.12109l1.84863-3.76758Z" fill="#fff"/>
    <path d="M323.25977,558.85919h1.9043c.93848,0,2.26953,.09766,3.44629,1.09277,.85449,.71387,1.59668,1.9043,1.59668,3.58594,0,1.96094-.9668,3.01074-1.63867,3.58594-.85449,.72754-1.75098,1.07812-3.41797,1.07812h-1.89062v-9.34277Zm1.03613,8.3623h.91016c.74316,0,1.76562-.08398,2.67578-.84082,.7002-.58789,1.26074-1.5127,1.26074-2.84277,0-2.24121-1.56934-3.69824-3.93652-3.69824h-.91016v7.38184Z" fill="#fff"/>
    <path d="M337.00977,566.71759c-.16797,.32129-.41992,.67188-.71484,.93848-.53223,.47559-1.19043,.71387-1.93262,.71387-1.40039,0-2.87207-.88281-2.87207-3.03906,0-1.7373,1.06543-3.08203,2.81641-3.08203,1.13379,0,1.84863,.56055,2.19824,1.06445,.36426,.51855,.5752,1.41504,.54688,2.18555h-4.52441c.01367,1.2041,.84082,1.97461,1.84863,1.97461,.47656,0,.85449-.13965,1.19043-.41992,.2666-.22461,.47656-.51855,.60254-.79883l.84082,.46289Zm-.99512-2.05957c-.16797-.91016-.85352-1.5127-1.70801-1.5127s-1.55566,.64453-1.70898,1.5127h3.41699Z" fill="#fff"/>
    <path d="M339.59668,557.99005v10.21191h-1.00879v-10.21191h1.00879Z" fill="#fff"/>
    <path d="M341.13574,565.31622c0-1.76465,1.30273-3.06738,3.08203-3.06738s3.08203,1.30273,3.08203,3.06738c0,1.76562-1.31738,3.05371-3.08203,3.05371s-3.08203-1.28809-3.08203-3.05371Zm1.03711,0c0,1.42871,1.00879,2.15723,2.04492,2.15723,1.05078,0,2.04492-.74219,2.04492-2.15723,0-1.42871-.98047-2.1709-2.04492-2.1709s-2.04492,.75586-2.04492,2.1709Z" fill="#fff"/>
    <path d="M349.34082,559.4754c.3916,0,.71387,.32227,.71387,.71387,0,.39258-.32227,.71484-.71387,.71484-.39258,0-.71484-.32227-.71484-.71484,0-.3916,.32227-.71387,.71484-.71387Zm.50391,2.91309v5.81348h-1.00879v-5.81348h1.00879Z" fill="#fff"/>
    <path d="M352.78516,563.31329v4.88867h-1.00879v-4.88867h-.61621v-.9248h.61621v-2.10059h1.00879v2.10059h1.00879v.9248h-1.00879Z" fill="#fff"/>
    <path d="M356.06152,563.31329v4.88867h-1.00879v-4.88867h-.61621v-.9248h.61621v-2.10059h1.00879v2.10059h1.00879v.9248h-1.00879Z" fill="#fff"/>
    <path d="M363.17578,566.71759c-.16797,.32129-.41992,.67188-.71484,.93848-.53223,.47559-1.19043,.71387-1.93262,.71387-1.40039,0-2.87207-.88281-2.87207-3.03906,0-1.7373,1.06543-3.08203,2.81641-3.08203,1.13379,0,1.84863,.56055,2.19824,1.06445,.36426,.51855,.5752,1.41504,.54688,2.18555h-4.52441c.01367,1.2041,.84082,1.97461,1.84863,1.97461,.47656,0,.85449-.13965,1.19043-.41992,.2666-.22461,.47656-.51855,.60254-.79883l.84082,.46289Zm-.99512-2.05957c-.16797-.91016-.85352-1.5127-1.70801-1.5127s-1.55566,.64453-1.70898,1.5127h3.41699Z" fill="#fff"/>
    <path d="M365.39844,566.94122c.37793,0,.7002,.32227,.7002,.7002,0,.37891-.32227,.7002-.7002,.7002s-.7002-.32129-.7002-.7002c0-.37793,.32227-.7002,.7002-.7002Z" fill="#fff"/>
  </g>
  <g>
    <path d="M355.80713,372.08546c8.78286,0,17.56683,.07398,26.34772-.05745,1.94209-.02906,2.31459,.59617,2.18881,2.30479-.13538,1.83896-.00959,3.69595-.03731,5.54447-.01875,1.25016,.40324,2.20337,1.76475,2.20086,1.41043-.0026,1.70135-1.05829,1.69886-2.25354-.00546-2.61906-.04365-5.23946,.02768-7.8567,.0392-1.43814-.29347-2.6586-1.0707-3.90142-2.4869-3.9767-5.03948-7.93314-7.19136-12.09162-1.58579-3.06454-3.46516-4.92131-7.12403-4.19477-.50268,.09983-1.20636,.27898-1.49147-.61333-.67659-2.11749,.10531-3.94334,2.16217-4.7054,1.73422-.64254,3.49857-1.2294,5.36579-1.29658,6.75529-.24305,11.62586-3.598,15.09858-9.18387,2.53144-4.07178,5.03535-8.17189,9.30909-10.67333,1.5201-.88973,1.90421-2.00173,1.71795-3.6187-1.01705-8.8292-5.38711-15.379-13.181-19.66722-1.45444-.80025-2.60628-.72027-3.98947,.32999-4.39219,3.33505-9.28007,5.65951-14.64808,7.08495-5.56813,1.47858-11.09564,3.12066-16.42222,5.38887-2.8295,1.20488-4.60096,3.13183-5.5583,6.04019-1.32842,4.03569-2.22608,8.16339-2.91248,12.33757-.18959,1.15294-.55853,1.67101-1.73614,1.95339-3.68858,.88447-5.46544,3.13495-5.56921,6.89908-.06579,2.38648-.16447,4.78782,.0241,7.16085,.16872,2.12324-.54574,2.97189-2.6369,2.59072-2.47406-.45097-3.90097,.61998-5.10476,2.80363-2.59785,4.71251-5.48365,9.26652-8.2631,13.87846-.43778,.72641-.85631,1.41353-.84355,2.33045,.04179,3.00395,.029,6.00892,.01045,9.01332-.00755,1.22313,.34681,2.22114,1.72123,2.247,1.39553,.02625,1.7711-.99688,1.77524-2.20205,.00663-1.92597,.10807-3.85955-.02963-5.77561-.11526-1.60383,.36597-2.07853,2.01774-2.06267,8.85915,.08503,17.71955,.04016,26.57953,.04569Z" fill="#fefefe"/>
    <path d="M355.80712,372.08271c-8.85997-.00277-17.72037,.0421-26.57952-.04293-1.65177-.01586-2.133,.45884-2.01774,2.06267,.1377,1.91606,.03626,3.84964,.02963,5.77561-.00415,1.20517-.37971,2.2283-1.77524,2.20205-1.37442-.02586-1.72877-1.02387-1.72123-2.247,.01854-3.0044,.03134-6.00937-.01045-9.01332-.01275-.91692,.40577-1.60404,.84355-2.33045,2.77945-4.61195,5.66525-9.16596,8.2631-13.87846,1.20378-2.18365,2.6307-3.2546,5.10476-2.80363,2.09116,.38117,2.80562-.46749,2.6369-2.59072-.18858-2.37303-.08989-4.77437-.0241-7.16085,.10377-3.76413,1.88064-6.01461,5.56921-6.89908,1.1776-.28237,1.54654-.80044,1.73614-1.95339,.6864-4.17418,1.58406-8.30188,2.91248-12.33757,.95734-2.90837,2.7288-4.83531,5.5583-6.04019,5.32658-2.2682,10.85409-3.91029,16.42222-5.38887,5.36802-1.42543,10.2559-3.7499,14.64808-7.08495,1.38319-1.05026,2.53503-1.13024,3.98947-.32999,7.79389,4.28823,12.16395,10.83802,13.181,19.66722,.18626,1.61698-.19785,2.72898-1.71795,3.6187-4.27374,2.50144-6.77765,6.60155-9.30909,10.67333-3.47272,5.58587-8.34329,8.94082-15.09858,9.18387-1.86723,.06718-3.63158,.65404-5.36579,1.29658-2.05687,.76206-2.83876,2.58792-2.16217,4.7054,.28511,.89231,.98879,.71315,1.49147,.61333,3.65887-.72654,5.53824,1.13023,7.12403,4.19477,2.15187,4.15848,4.70446,8.11492,7.19136,12.09162,.77723,1.24283,1.1099,2.46329,1.0707,3.90142-.07133,2.61723-.03314,5.23764-.02768,7.8567,.00249,1.19525-.28843,2.25095-1.69886,2.25354-1.36152,.00251-1.7835-.95071-1.76475-2.20086,.02772-1.84852-.09807-3.70551,.03731-5.54447,.12578-1.70862-.24672-2.33385-2.18881-2.30479-8.78089,.13143-17.56486,.05745-26.34773,.0547Zm-1.17675-37.1644c4.18629-.12453,2.93973,.67529,4.5694-3.03315,.52521-1.19513,1.00025-2.41394,1.45266-3.63874,.24955-.67557,.54593-1.32513,1.25021-1.56499,3.13797-1.06869,6.12987-2.41173,9.50332-.14292,3.21567,2.1627,3.70472,3.71085,1.03844,6.55441-2.90302,3.09607-6.61048,4.97541-10.42957,6.64219-3.09852,1.3523-5.72436,3.30866-7.76251,5.99213-1.79824,2.36757-.9949,4.05225,2.00941,4.34549,1.07616,.10504,2.13032-.02059,3.18702-.34161,2.16607-.65805,4.08324-1.76143,5.92702-3.03435,3.65668-2.52449,7.64595-4.70651,12.05186-4.86299,6.35769-.22579,10.52249-3.15294,13.45887-8.49831,2.13009-3.8776,4.75613-7.41926,8.52763-9.84821,1.52242-.98046,1.76899-2.07799,1.46464-3.64692-1.16121-5.98609-4.26265-10.61426-9.45404-13.86038-1.17732-.73617-2.03312-.80222-3.26226,.06959-4.29279,3.04481-8.99298,5.24446-14.11856,6.60805-5.3422,1.42123-10.66182,2.9464-15.80753,5.02413-2.40877,.97262-3.85042,2.58129-4.56095,5.07881-.80075,2.81464-1.44106,5.65749-2.00916,8.52155q-.72253,3.64253,2.96411,3.63622Zm12.9045,14.58714c-.91916,.55427-1.54649,.96123-2.19957,1.32148-3.00713,1.65882-6.14157,2.84968-9.66671,2.54265-5.1108-.44513-7.10057-4.28696-4.47685-8.64262,1.4332-2.37927,3.49019-4.19481,5.98343-6.28855-3.61004,0-6.73036-.04812-9.84835,.01675-2.11134,.04393-3.28425,1.32383-3.29686,3.59422-.03378,6.08183,.03893,12.16453-.03505,18.24562-.01697,1.3957,.49944,1.63711,1.73345,1.62793,6.69816-.04979,13.3974-.07019,20.09499,.00791,1.49793,.01747,1.77936-.51152,1.74212-1.86832-.09288-3.38433-.03061-6.77292-.03061-10.55706Zm15.41463,18.99823c-2.60394-4.31695-5.05355-8.30988-7.42783-12.3471-.97645-1.66035-2.47903-.70292-3.74052-.91188-.72476-.12006-.86779,.42524-.86539,1.03718,.00444,1.13088-.19342,2.14766,1.37764,2.70229,1.43731,.50742,2.29633,1.89705,1.87185,3.56041-.44654,1.74985-1.69327,2.76316-3.51881,2.76833-9.9356,.02813-19.87137,.02398-29.80699-.00124-1.85958-.00472-3.06414-1.11469-3.50527-2.81172-.42627-1.63992,.49697-2.97891,1.93423-3.52674,1.42809-.54432,1.28047-1.51044,1.27629-2.56378-.00212-.53504,.01272-1.2424-.74969-1.15608-1.22063,.13821-2.7378-.73088-3.61463,.6853-2.53158,4.08878-4.97452,8.23243-7.57879,12.56502h54.34791Zm-20.97756-33.60559c3.7464,.17723,5.92052-2.33005,8.39282-4.45821-4.3502-3.21042-6.93051-1.82355-8.39282,4.45821Z" fill="#1a1b1c"/>
    <path d="M354.63037,334.9183q-3.68065,.0075-2.96411-3.63622c.5681-2.86406,1.20842-5.70691,2.00916-8.52155,.71054-2.49751,2.15218-4.10619,4.56095-5.07881,5.14571-2.07773,10.46533-3.6029,15.80753-5.02413,5.12557-1.36359,9.82577-3.56324,14.11856-6.60805,1.22914-.87181,2.08494-.80576,3.26226-.06959,5.19139,3.24612,8.29283,7.87429,9.45404,13.86038,.30435,1.56893,.05777,2.66646-1.46464,3.64692-3.7715,2.42894-6.39754,5.9706-8.52763,9.84821-2.93638,5.34537-7.10118,8.27252-13.45887,8.49831-4.40591,.15648-8.39517,2.3385-12.05186,4.86299-1.84378,1.27292-3.76095,2.3763-5.92702,3.03435-1.05669,.32102-2.11086,.44665-3.18702,.34161-3.00432-.29324-3.80765-1.97792-2.00941-4.34549,2.03815-2.68347,4.66399-4.63984,7.76251-5.99213,3.81909-1.66678,7.52655-3.54612,10.42957-6.64219,2.66628-2.84356,2.17723-4.39171-1.03844-6.55441-3.37345-2.26881-6.36535-.92577-9.50332,.14292-.70429,.23986-1.00067,.88942-1.25021,1.56499-.45241,1.22481-.92745,2.44361-1.45266,3.63874-1.62967,3.70844-.38311,2.90862-4.5694,3.03315Z" fill="#fbfbfb"/>
    <path d="M367.53488,349.50544c0,3.78415-.06228,7.17273,.03061,10.55706,.03724,1.3568-.24418,1.88579-1.74212,1.86832-6.6976-.07811-13.39683-.0577-20.09499-.00791-1.23401,.00918-1.75042-.23223-1.73345-1.62793,.07398-6.08109,.00126-12.16379,.03505-18.24562,.01261-2.27039,1.18552-3.55029,3.29686-3.59422,3.11798-.06487,6.23831-.01675,9.84835-.01675-2.49325,2.09374-4.55023,3.90928-5.98343,6.28855-2.62372,4.35566-.63395,8.19749,4.47685,8.64262,3.52514,.30703,6.65958-.88384,9.66671-2.54265,.65308-.36025,1.28041-.76721,2.19957-1.32148Z" fill="#fbfbfb"/>
    <path d="M382.94951,368.50366h-54.34791c2.60427-4.33259,5.04721-8.47624,7.57879-12.56502,.87684-1.41618,2.394-.54709,3.61463-.6853,.76241-.08633,.74757,.62104,.74969,1.15608,.00418,1.05335,.1518,2.01947-1.27629,2.56378-1.43727,.54782-2.3605,1.88682-1.93423,3.52674,.44113,1.69703,1.64569,2.807,3.50527,2.81172,9.93562,.02522,19.87139,.02937,29.80699,.00124,1.82554-.00517,3.07226-1.01848,3.51881-2.76833,.42448-1.66336-.43454-3.05299-1.87185-3.56041-1.57106-.55463-1.37321-1.57141-1.37764-2.70229-.0024-.61194,.14063-1.15724,.86539-1.03718,1.26149,.20896,2.76407-.74847,3.74052,.91188,2.37428,4.03722,4.82389,8.03015,7.42783,12.3471Z" fill="#fbfbfb"/>
    <path d="M361.97195,334.89808c1.46231-6.28176,4.04262-7.66863,8.39282-4.45821-2.4723,2.12816-4.64642,4.63543-8.39282,4.45821Z" fill="#fbfbfb"/>
  </g>
  <g>
    <path d="M364.2007,602.59227c-6.455,0-12.91004,.01236-19.36499-.00722-2.046-.0062-4.08307,.06557-6.10347,.39148-5.25316,.84738-9.3709,3.45204-12.22039,7.97726-2.13409,3.3891-2.75703,7.17691-2.76359,11.08796-.02292,13.66307-.00285,27.32621-.01596,40.9893-.00178,1.85805,.09213,3.70547,.39631,5.53547,.86069,5.1781,3.46646,9.2304,7.90937,12.05849,3.41144,2.17152,7.24445,2.79505,11.18388,2.8061,13.31923,.03734,26.63865,.0133,39.958,.01546,1.57174,.00025,3.14055-.01573,4.70919-.15756,5.44334-.4922,9.96639-2.69013,13.25193-7.15077,2.67123-3.6266,3.45692-7.82087,3.46405-12.20068,.02203-13.53714,.00521-27.07435,.01203-40.61153,.00076-1.5094-.04468-3.01342-.20401-4.5153-.5279-4.97658-2.57988-9.13808-6.52578-12.30318-3.69491-2.96376-8.04277-3.86624-12.62133-3.90121-7.02138-.05363-14.04347-.01409-21.06525-.01408Z" fill="#f7f7f7"/>
    <path d="M364.2007,602.59227c7.02178,0,14.04388-.03954,21.06525,.01409,4.57855,.03497,8.92642,.93745,12.62133,3.90121,3.9459,3.1651,5.99788,7.3266,6.52578,12.30318,.15933,1.50188,.20477,3.00589,.20401,4.5153-.00682,13.53718,.01,27.07439-.01203,40.61153-.00713,4.37981-.79282,8.57408-3.46405,12.20068-3.28554,4.46063-7.80859,6.65857-13.25193,7.15077-1.56864,.14183-3.13745,.15781-4.70919,.15756-13.31935-.00217-26.63877,.02187-39.958-.01546-3.93943-.01105-7.77244-.63457-11.18388-2.8061-4.44291-2.82809-7.04868-6.88039-7.90937-12.05849-.30418-1.83001-.3981-3.67742-.39631-5.53547,.01311-13.66309-.00695-27.32623,.01596-40.9893,.00656-3.91105,.6295-7.69885,2.76359-11.08796,2.84949-4.52522,6.96723-7.12988,12.22039-7.97726,2.0204-.3259,4.05746-.39768,6.10347-.39148,6.45495,.01957,12.90999,.00722,19.36499,.00722Zm-24.9564,40.03697c0,7.17633,.0133,14.35273-.02016,21.52891-.00343,.73439,.203,.87544,.88737,.87075,4.40716-.03018,8.81462-.01272,13.22198-.01694,1.92247-.00184,3.83838-.10848,5.73243-.46052,7.93365-1.4746,13.49426-5.79808,15.95366-13.61721,1.70653-5.42557,1.81475-10.98495,.43817-16.49606-1.61048-6.44762-5.67624-10.7232-11.99747-12.82178-2.77285-.92056-5.63504-1.28829-8.54676-1.29369-4.94251-.00916-9.88519,.01458-14.82742-.02362-.73801-.0057-.85971,.21967-.85734,.89564,.02508,7.14477,.01553,14.28966,.01555,21.43452Zm43.5125,23.08309c3.59145,.00922,6.50909-2.87662,6.51156-6.4406,.00244-3.53196-2.87562-6.43395-6.40253-6.45576-3.60108-.02227-6.53575,2.8352-6.56234,6.38975-.02669,3.56564,2.88109,6.49743,6.45331,6.50661Z" fill="#fff" stroke="#231f20" stroke-miterlimit="10" stroke-width=".75"/>
    <path d="M339.2443,642.62924c-.00001-7.14486,.00954-14.28975-.01554-21.43452-.00237-.67597,.11933-.90134,.85734-.89564,4.94223,.0382,9.88491,.01445,14.82742,.02362,2.91171,.0054,5.7739,.37313,8.54676,1.29369,6.32123,2.09857,10.38699,6.37416,11.99747,12.82178,1.37658,5.51111,1.26835,11.07049-.43817,16.49606-2.4594,7.81913-8.02001,12.14262-15.95366,13.61721-1.89405,.35204-3.80996,.45868-5.73243,.46052-4.40736,.00421-8.81482-.01324-13.22198,.01694-.68436,.00468-.8908-.13636-.88737-.87075,.03346-7.17618,.02016-14.35257,.02015-21.52891Zm11.82208,.01478c0,3.8715,.02143,7.74323-.01902,11.61431-.00761,.72806,.20069,.91754,.89366,.86542,.87693-.06595,1.76291-.00058,2.6429-.03924,4.59947-.2021,7.55676-2.44395,8.74615-6.80306,1.06316-3.89643,1.06123-7.8522,.05791-11.76025-.90483-3.5245-3.14754-5.73199-6.82456-6.30398-1.53021-.23804-3.08047-.10418-4.62006-.16708-.70632-.02886-.90115,.16966-.89442,.88511,.03669,3.90264,.01745,7.80579,.01744,11.70878Z" fill="#231f20"/>
    <path d="M382.7568,665.71234c-3.57222-.00917-6.48-2.94096-6.45331-6.50661,.0266-3.55455,2.96126-6.41201,6.56234-6.38975,3.5269,.0218,6.40497,2.9238,6.40253,6.45576-.00247,3.56398-2.92011,6.44982-6.51156,6.4406Z" fill="#84ba22"/>
    <path d="M351.06639,642.64402c0-3.90298,.01924-7.80614-.01745-11.70878-.00674-.71545,.1881-.91397,.89442-.88511,1.53959,.06291,3.08985-.07095,4.62006,.16708,3.67702,.572,5.91972,2.77949,6.82456,6.30398,1.00332,3.90804,1.00525,7.86382-.05791,11.76025-1.18939,4.35911-4.14668,6.60096-8.74615,6.80306-.87999,.03866-1.76597-.02671-2.6429,.03924-.69297,.05212-.90127-.13736-.89366-.86542,.04045-3.87108,.01902-7.74281,.01903-11.61431Z" fill="#fff"/>
  </g>
  <path d="M390.22272,857.2572c-.98967-1.20984-2.03689-2.12414-3.186-2.9291-3.47152-2.4318-7.35795-3.94972-11.39735-5.0983-8.59972-2.44531-17.3699-3.37399-26.28845-2.74582-3.48377,.24537-6.91999,.80895-10.16479,2.20534-.76681,.33-1.50115,.72129-2.18203,1.20272-1.24992,.88378-2.22375,1.98159-2.60234,3.53546-.65355-.46646-.85802-1.03515-.66283-1.79461,.25372-.98722,.712-1.88156,1.163-2.78006,7.23833-14.42064,14.48103-28.83909,21.72211-43.25835,.22744-.4529,.46584-.89827,.88303-1.20963,.2764-.20629,.59383-.33745,.91827-.15839,.327,.18048,.37496,.52356,.34364,.86448-.04475,.48714-.19949,.95048-.45928,1.35796-1.82846,2.86797-1.72745,5.89127-.72335,8.97875,1.09391,3.36364,3.0031,6.27237,5.1648,9.02252,4.6269,5.88641,10.14882,10.85122,16.03341,15.43178,3.08006,2.39752,6.27277,4.62131,9.69998,6.51846,3.91949,2.16966,7.18659,5.08001,9.43964,9.02111,.20626,.36081,.46001,.71803,.5613,1.11058,.23965,.92874,.80359,1.26475,1.71314,1.10732,.58418-.10111,.67264,.1922,.66246,.70444-.03096,1.55739-.02979,3.11613-.00066,4.67359,.00958,.51241-.06258,.81314-.6637,.66014-.30247-.07699-.42372,.05794-.46453,.36712-.45083,3.41543-2.12202,6.22837-4.38413,8.72931-3.01044,3.32827-6.69119,5.76993-10.59332,7.90892-.46051,.25242-.91967,.51251-1.39999,.72196-.37776,.16471-.45015,.4109-.49436,.80297-.08044,.71338,.14865,.98786,.86062,1.16869,1.12726,.2863,2.00169,1.06536,2.81383,1.87571,2.11575,2.11109,3.70964,4.60518,5.16676,7.18722,4.17147,7.39192,7.27238,15.24148,9.86656,23.30206,1.18146,3.67099,2.22808,7.37915,2.82567,11.19876,.11186,.71496,.19773,1.43236,.22208,2.15802,.01092,.32526-.04765,.50748-.41753,.45735-.12926-.01752-.26291-.00264-.39455-.00264-26.41595,0-52.83189,.00075-79.24784-.00304-.93205-.00013-.85662,.16853-.78437-.84582,.19549-2.74465,.8379-5.41054,1.57401-8.04948,2.73862-9.81772,6.34014-19.29323,11.311-28.21606,1.19643-2.14762,2.51883-4.21887,4.13767-6.07822,1.22992-1.41264,2.51885-2.77184,4.47632-3.16075,.27437-.05451,.20548-.23839,.20564-.39538,.00332-3.22572-.00164-6.45146,.00867-9.67715,.00108-.33804-.09237-.46564-.44424-.45396-.70131,.02331-1.40417-.00383-2.10593,.01135-.31549,.00681-.48609-.04932-.45983-.42761,.19752-2.84511,.71068-5.6075,2.117-8.13455,.71274-1.28074,1.68915-1.96436,3.28887-1.92456,3.96873,.09873,7.94162,.02372,11.91271,.04333,.50468,.00249,.68522-.1107,.668-.64795-.03651-1.13945-.02663-2.28236,.01676-3.42185,.04467-1.17335,.60568-1.83307,1.77138-1.87947,1.44267-.05742,2.89234,.03164,4.338,.08419,5.48053,.19921,10.96065,.40967,16.44096,.61502,2.34333,.08781,4.68674,.17342,7.19411,.26609Zm-4.31068,15.49943c.95675-.79244,1.79833-1.54728,2.5673-2.38001,1.74559-1.89035,3.21295-3.93804,3.67155-6.5525,.1508-.85967,.16047-.85802-.6719-.94282-.32709-.03332-.65394-.069-.98131-.09922-4.05967-.37465-8.11909-.75213-12.17926-1.12138-3.3179-.30175-6.63668-.59373-9.95523-.88834-.12637-.01121-.31349-.08973-.36866,.03376-.17495,.39164-.10575,.82073-.05283,1.22288,.04668,.35471,.39301,.1951,.60178,.19559,4.12317,.00974,8.24653,.02667,12.36945-.00674,.99893-.0081,1.7257,.38119,2.32453,1.11829,.3752,.46184,.67492,.973,.92307,1.51049,1.13766,2.46413,1.61189,5.07931,1.7515,7.90999Zm-2.93984,2.22251c.9921-.70935,1.98254-1.35943,2.98238-2.30083-.46789,0-.74617-.01416-1.02254,.00281-.66997,.04114-1.61074-.30218-1.93833,.14232-.33671,.45688-.09039,1.34375-.09746,2.04246-.00016,.0159,.02049,.03202,.07596,.11324Z" fill="#b26700"/>
</svg>