<?xml version="1.0" encoding="UTF-8"?>
<svg id="Layer_1" data-name="Layer 1" xmlns="http://www.w3.org/2000/svg" viewBox="100 0 524.52866 335.61567">
  <g>
    <line x1="362.12421" y1="151.19483" x2="362.12421" y2="321.26319" fill="none" stroke="#231f20" stroke-miterlimit="10" stroke-width="2"/>
    <polygon points="352.15155 318.34522 362.12421 335.61561 372.09686 318.34522 352.15155 318.34522" fill="#231f20"/>
  </g>

  <path d="M393.23641,29.02749c5.34279,1.30666,10.55525,3.10043,15.57004,5.35921l-36.94599,82.04505,21.37596-87.40425Z" fill="#262262"/>
  <path d="M400.66301,58.98642c43.85119,19.74696,64.42256,70.48545,46.70469,115.19515-17.71787,44.70969-67.46078,67.58285-112.93496,51.93144-45.47416-15.65139-70.60184-64.2944-57.04976-110.43792,13.55283-46.14333,60.99426-73.47284,107.70996-62.04785l-21.37595,87.40424,36.94602-82.04505Z" fill="#4a5977"/>
  <polyline points="510.2282 43.58069 465.54418 43.58068 400.29418 39.0797" fill="none" stroke="#757575" stroke-miterlimit="10" stroke-width=".522"/>

  <g>
    <circle cx="362.1242" cy="229.77633" r="40.44109" fill="#fff" stroke="#231f20" stroke-miterlimit="10" stroke-width=".75"/>
    <g>
      <path d="M379.76397,214.58829c-1.31402,1.30813-2.4189,2.41019-3.52672,3.50928-.24758,.24563-.48278,.51231-.76312,.71465-.68808,.49661-1.39532,.49231-1.97658-.1474-.55006-.60539-.5055-1.30011,.02785-1.89606,.67498-.75421,1.40454-1.45958,2.11123-2.18536,1.34107-1.37729,2.67813-2.75852,4.0254-4.12972,1.05651-1.07527,1.71107-1.09155,2.74142-.04138,1.98287,2.02103,3.95508,4.0526,5.9218,6.08935,.74984,.77654,.81744,1.60674,.21911,2.21407-.62621,.63563-1.50797,.56951-2.30534-.21247-1.24455-1.22052-2.47015-2.46037-3.73317-3.72136-.36396,.35683-.20467,.75872-.2052,1.10344-.01169,7.48388-.00884,14.96778-.0093,22.45167-.00002,.31471,.01627,.6313-.0117,.94374-.06731,.75196-.42988,1.27313-1.23651,1.28442-.80581,.01128-1.18998-.49145-1.26659-1.24832-.03156-.31178-.0122-.62893-.01222-.94364-.00043-7.44892-.00034-14.89784-.00035-22.34676v-1.43815Z" fill="#231f20"/>
      <path d="M343.07776,243.90058c.30606-.38017,.16916-.77792,.16963-1.14066,.00956-7.51415,.00707-15.02831,.00781-22.54247,.00003-.31445-.02889-.63484,.02022-.94216,.11179-.6996,.48992-1.14992,1.25448-1.14299,.76676,.00695,1.12798,.47244,1.23219,1.16925,.04609,.30821,.01952,.62785,.01955,.9423,.00075,7.47921,.00062,14.95842,.00065,22.43763,0,.37296,0,.74592,0,1.11888l.25472,.145c.95382-.98071,1.90675-1.96229,2.86197-2.94165,.31691-.32491,.63258-.65157,.9613-.96429,.65336-.62156,1.36805-.68908,2.05985-.10395,.65244,.55184,.64448,1.40838-.03865,2.12422-1.56685,1.64186-3.16618,3.25272-4.75236,4.87612-.53677,.54937-1.05872,1.11429-1.61429,1.64394-.6648,.63379-1.39777,.66119-2.04342,.00927-2.16233-2.18336-4.30832-4.38327-6.43444-6.60189-.61927-.64622-.59218-1.5331,.01931-2.05002,.69459-.58717,1.4234-.52906,2.06364,.09528,1.17466,1.14549,2.32178,2.31918,3.48447,3.477,.14023,.13965,.30576,.25389,.47334,.39119Z" fill="#231f20"/>
      <path d="M362.70582,224.49147c-3.56236-.00002-7.12473,.00304-10.68709-.00168-1.24509-.00165-1.87526-.54983-1.86652-1.59605,.0087-1.04192,.62626-1.55445,1.90392-1.55492,7.15965-.00265,14.3193-.00284,21.47896,.00029,1.25401,.00055,1.8767,.54131,1.86586,1.59145-.01074,1.04153-.63205,1.55821-1.90326,1.55958-3.59729,.00387-7.19458,.00136-10.79187,.00134Z" fill="#231f20"/>
      <path d="M362.77628,230.78604c-3.66714-.00018-7.33431-.00778-11.0014,.00568-.81683,.003-1.34908-.37643-1.56367-1.12047-.19712-.68348-.02409-1.30563,.57849-1.77255,.33419-.25895,.70489-.2665,1.09119-.26645,7.26443,.00095,14.52886-.00208,21.79329,.00367,1.0997,.00087,1.702,.55047,1.72591,1.51928,.02531,1.02549-.58997,1.62479-1.72717,1.62764-3.6322,.00908-7.26442,.00337-10.89664,.00319Z" fill="#231f20"/>
      <path d="M362.88269,233.92782c3.56237,0,7.12474-.00326,10.6871,.00183,1.19847,.00171,1.80571,.51667,1.83031,1.52102,.02598,1.06035-.59861,1.6282-1.83232,1.62889-7.19458,.00401-14.38916,.00404-21.58374-.00001-1.2392-.0007-1.85812-.5645-1.83103-1.63034,.02544-1.00101,.6361-1.51783,1.83305-1.51953,3.63221-.00515,7.26443-.00187,10.89664-.00186Z" fill="#231f20"/>
    </g>
  </g>
  <g>
    <path d="M515.90506,48.74904l3.4043-3.93652c.23828-.2793,.86816-1.02246,1.09277-1.3584,.41992-.60254,.51758-1.05078,.51758-1.42871,0-1.05078-.75586-1.82129-1.8623-1.82129-.65918,0-1.20508,.29492-1.55566,.82715-.18164,.2793-.29395,.62988-.30762,1.10645h-1.03711c.04199-.93848,.33691-1.5127,.70117-1.93359,.3916-.44824,1.0498-.95215,2.21289-.95215,1.65234,0,2.88574,1.17676,2.88574,2.78711,0,.63086-.18262,1.20508-.74316,2.00391-.3916,.5459-.89648,1.12012-1.27441,1.55469l-1.94727,2.19922h3.9502v.95215h-6.03711Z"/>
    <path d="M524.75369,47.48829c.37793,0,.7002,.32227,.7002,.7002,0,.37891-.32227,.7002-.7002,.7002s-.7002-.32129-.7002-.7002c0-.37793,.32227-.7002,.7002-.7002Z"/>
    <path d="M528.25564,48.39845l2.14258-2.9834c-.26562,.08398-.53223,.12598-.82617,.12598-1.79297,0-3.02539-1.34473-3.02539-3.08105,0-1.86328,1.34473-3.20801,3.20703-3.20801,2.19922,0,3.23633,1.70898,3.23633,3.17969,0,.35059-.07031,1.17676-.77051,2.14355l-3.17969,4.39746-.78418-.57422Zm-.67285-5.9668c0,1.24707,.9248,2.15723,2.19922,2.15723s2.1709-.93848,2.1709-2.15723c0-1.24707-.88184-2.22754-2.18457-2.22754-1.28906,0-2.18555,.9668-2.18555,2.22754Z"/>
    <path d="M538.26638,41.35353c0,1.13379-.89648,2.03027-2.03125,2.03027s-2.03125-.89648-2.03125-2.03027c0-1.13477,.89648-2.03125,2.03125-2.03125s2.03125,.89648,2.03125,2.03125Zm-.84082,0c0-.68652-.50391-1.26074-1.19043-1.26074-.6582,0-1.19043,.55957-1.19043,1.26074,0,.7002,.53223,1.25977,1.19043,1.25977,.68652,0,1.19043-.57422,1.19043-1.25977Zm3.74023-2.12988l.54688,.30859-5.44922,9.39844-.54688-.32129,5.44922-9.38574Zm2.05957,7.59277c0,1.13379-.89648,2.03027-2.03125,2.03027s-2.03125-.89648-2.03125-2.03027c0-1.13477,.89648-2.03125,2.03125-2.03125s2.03125,.89648,2.03125,2.03125Zm-.84082,0c0-.68652-.50391-1.26074-1.19043-1.26074-.6582,0-1.19043,.55957-1.19043,1.26074,0,.7002,.53223,1.25977,1.19043,1.25977,.68652,0,1.19043-.57422,1.19043-1.25977Z"/>
    <path d="M547.53103,45.86329c0-1.76465,1.30273-3.06738,3.08203-3.06738s3.08203,1.30273,3.08203,3.06738c0,1.76562-1.31738,3.05371-3.08203,3.05371s-3.08203-1.28809-3.08203-3.05371Zm1.03711,0c0,1.42871,1.00879,2.15723,2.04492,2.15723,1.05078,0,2.04492-.74219,2.04492-2.15723,0-1.42871-.98047-2.1709-2.04492-2.1709s-2.04492,.75586-2.04492,2.1709Z"/>
    <path d="M556.26834,43.86036v4.88867h-1.00879v-4.88867h-.56055v-.9248h.56055v-2.53516c0-.53223,.04199-1.2041,.56055-1.63867,.28027-.23828,.7002-.37793,1.16211-.37793,.36426,0,.60254,.08398,.71484,.12598v.98047c-.20996-.08398-.44824-.12598-.6582-.12598-.22461,0-.49023,.05566-.64453,.30762-.12598,.20996-.12598,.53223-.12598,.84082v2.42285h1.42871v.9248h-1.42871Z"/>
    <path d="M562.89041,43.86036v4.88867h-1.00879v-4.88867h-.61621v-.9248h.61621v-2.10059h1.00879v2.10059h1.00879v.9248h-1.00879Z"/>
    <path d="M564.84939,38.53712h1.00879v5.07129c.18262-.23828,.7002-.8125,1.66699-.8125,.68652,0,1.31641,.28027,1.66699,.79785,.29395,.43457,.33594,.91113,.33594,1.55566v3.59961h-1.00879v-3.57227c0-.34961-.02734-.75586-.26562-1.06445-.19629-.25195-.50391-.41992-.95215-.41992-.35059,0-.72852,.09766-1.02344,.44824-.3916,.46191-.41992,1.14844-.41992,1.56836v3.04004h-1.00879v-10.21191Z"/>
    <path d="M576.44412,47.26466c-.16797,.32129-.41992,.67188-.71484,.93848-.53223,.47559-1.19043,.71387-1.93262,.71387-1.40039,0-2.87207-.88281-2.87207-3.03906,0-1.7373,1.06543-3.08203,2.81641-3.08203,1.13379,0,1.84863,.56055,2.19824,1.06445,.36426,.51855,.5752,1.41504,.54688,2.18555h-4.52441c.01367,1.2041,.84082,1.97461,1.84863,1.97461,.47656,0,.85449-.13965,1.19043-.41992,.2666-.22461,.47656-.51855,.60254-.79883l.84082,.46289Zm-.99512-2.05957c-.16797-.91016-.85352-1.5127-1.70801-1.5127s-1.55566,.64453-1.70898,1.5127h3.41699Z"/>
    <path d="M581.56424,42.93556l1.7373,3.92285,1.7373-3.92285h1.12012l-2.85742,6.19141-2.85742-6.19141h1.12012Z"/>
    <path d="M586.85525,45.86329c0-1.76465,1.30273-3.06738,3.08203-3.06738s3.08203,1.30273,3.08203,3.06738c0,1.76562-1.31738,3.05371-3.08203,3.05371s-3.08203-1.28809-3.08203-3.05371Zm1.03711,0c0,1.42871,1.00879,2.15723,2.04492,2.15723,1.05078,0,2.04492-.74219,2.04492-2.15723,0-1.42871-.98047-2.1709-2.04492-2.1709s-2.04492,.75586-2.04492,2.1709Z"/>
    <path d="M595.59256,43.86036v4.88867h-1.00879v-4.88867h-.61621v-.9248h.61621v-2.10059h1.00879v2.10059h1.00879v.9248h-1.00879Z"/>
    <path d="M598.05642,40.02247c.3916,0,.71387,.32227,.71387,.71387,0,.39258-.32227,.71484-.71387,.71484-.39258,0-.71484-.32227-.71484-.71484,0-.3916,.32227-.71387,.71484-.71387Zm.50391,2.91309v5.81348h-1.00879v-5.81348h1.00879Z"/>
    <path d="M600.46365,42.93556h1.00879v.67285c.18262-.23828,.7002-.8125,1.66699-.8125,.68652,0,1.31641,.28027,1.66699,.79785,.29395,.43457,.33594,.91113,.33594,1.55566v3.59961h-1.00879v-3.57227c0-.34961-.02734-.75586-.26562-1.06445-.19629-.25195-.50391-.41992-.95215-.41992-.35059,0-.72852,.09766-1.02344,.44824-.3916,.46191-.41992,1.14844-.41992,1.56836v3.04004h-1.00879v-5.81348Z"/>
    <path d="M611.49881,42.93556h1.00781v5.67383c0,.62988,0,1.52637-.55957,2.2832-.43457,.58789-1.2334,1.07812-2.3252,1.07812-.99512,0-1.68164-.39258-2.07324-.78418-.39258-.39258-.75684-1.02246-.75684-1.87695h.99512c0,.49023,.19531,.92383,.44824,1.2041,.41992,.46289,.95215,.56055,1.40039,.56055,.71387,0,1.20508-.25195,1.54102-.8125,.29395-.47656,.32227-.99414,.32227-1.48438v-.84082c-.33691,.43457-.9668,.98047-1.98926,.98047-.85449,0-1.54102-.33594-1.98926-.78418-.39258-.39258-.84082-1.12109-.84082-2.29688,0-1.13477,.4209-1.83594,.84082-2.25586,.49023-.47656,1.20508-.78418,1.98926-.78418,.85449,0,1.52637,.36426,1.98926,.9668v-.82715Zm-3.19434,1.30273c-.49023,.50488-.58789,1.12109-.58789,1.59766,0,.50391,.09766,1.19043,.6582,1.70801,.32227,.29492,.71484,.47656,1.24707,.47656s.95215-.16797,1.27441-.49023c.39258-.37793,.6582-.99414,.6582-1.68066s-.25195-1.28906-.61621-1.63867c-.32227-.32227-.79883-.51855-1.31641-.51855-.61621,0-1.03711,.26562-1.31738,.5459Z"/>
    <path d="M516.15701,59.73536h1.00879v.61621c.32227-.47559,.82617-.75586,1.44336-.75586,1.0498,0,1.4707,.74219,1.58203,.93848,.56055-.88281,1.35938-.93848,1.75098-.93848,1.72363,0,1.8916,1.44238,1.8916,2.26953v3.68359h-1.00879v-3.53027c0-.6582-.08398-1.52637-1.03613-1.52637-1.16309,0-1.28906,1.12012-1.28906,1.82129v3.23535h-1.00879v-3.44629c0-.40625,.01465-1.61035-1.05078-1.61035-1.14844,0-1.27441,1.19043-1.27441,1.89062v3.16602h-1.00879v-5.81348Z"/>
    <path d="M530.90213,64.06447c-.16797,.32129-.41992,.67188-.71484,.93848-.53223,.47559-1.19043,.71387-1.93262,.71387-1.40039,0-2.87207-.88281-2.87207-3.03906,0-1.7373,1.06543-3.08203,2.81641-3.08203,1.13379,0,1.84863,.56055,2.19922,1.06445,.36328,.51855,.57422,1.41504,.5459,2.18555h-4.52441c.01367,1.2041,.83984,1.97461,1.84863,1.97461,.47656,0,.85449-.13965,1.19043-.41992,.2666-.22461,.47656-.51855,.60254-.79883l.84082,.46289Zm-.99512-2.05957c-.16797-.91016-.85449-1.5127-1.70801-1.5127-.85449,0-1.55566,.64453-1.70898,1.5127h3.41699Z"/>
    <path d="M532.48025,59.73536h1.00879v.61621c.32227-.47559,.82617-.75586,1.44336-.75586,1.0498,0,1.4707,.74219,1.58203,.93848,.56055-.88281,1.35938-.93848,1.75098-.93848,1.72363,0,1.8916,1.44238,1.8916,2.26953v3.68359h-1.00879v-3.53027c0-.6582-.08398-1.52637-1.03613-1.52637-1.16309,0-1.28906,1.12012-1.28906,1.82129v3.23535h-1.00879v-3.44629c0-.40625,.01465-1.61035-1.05078-1.61035-1.14844,0-1.27441,1.19043-1.27441,1.89062v3.16602h-1.00879v-5.81348Z"/>
    <path d="M543.07888,65.54884h-1.00879v-10.21191h1.00879v5.21094c.68652-.85449,1.56934-.95215,1.98926-.95215,1.82129,0,2.8291,1.5127,2.8291,3.08203,0,1.59668-1.02246,3.03906-2.78711,3.03906-.93848,0-1.59668-.41992-2.03125-.98047v.8125Zm3.78223-2.87109c0-1.42969-.9668-2.18555-1.90527-2.18555s-1.93262,.77051-1.93262,2.1709c0,1.19043,.75586,2.15723,1.94727,2.15723,1.17578,0,1.89062-.98047,1.89062-2.14258Z"/>
    <path d="M554.58963,64.06447c-.16797,.32129-.41992,.67188-.71484,.93848-.53223,.47559-1.19043,.71387-1.93262,.71387-1.40039,0-2.87207-.88281-2.87207-3.03906,0-1.7373,1.06543-3.08203,2.81641-3.08203,1.13379,0,1.84863,.56055,2.19922,1.06445,.36328,.51855,.57422,1.41504,.5459,2.18555h-4.52441c.01367,1.2041,.83984,1.97461,1.84863,1.97461,.47656,0,.85449-.13965,1.19043-.41992,.2666-.22461,.47656-.51855,.60254-.79883l.84082,.46289Zm-.99512-2.05957c-.16797-.91016-.85449-1.5127-1.70801-1.5127-.85449,0-1.55566,.64453-1.70898,1.5127h3.41699Z"/>
    <path d="M556.16775,59.73536h1.00879v.63086c.09863-.1543,.53223-.77051,1.31641-.77051,.30859,0,.64453,.1123,.89648,.23828l-.47559,.91016c-.22461-.1543-.43457-.19629-.58887-.19629-.40625,0-.6582,.16797-.8125,.36426-.16797,.22461-.33594,.61621-.33594,1.56934v3.06738h-1.00879v-5.81348Z"/>
    <path d="M562.55252,61.08009c-.13965-.33594-.43359-.58789-.8125-.58789-.36426,0-.7002,.20996-.7002,.6582,0,.41992,.28027,.5459,.93848,.82617,.84082,.35059,1.23242,.61621,1.45703,.89648,.25195,.30859,.30762,.61621,.30762,.93848,0,1.21875-.88184,1.90527-2.00293,1.90527-.23828,0-1.54102-.02832-2.03125-1.48438l.86914-.36426c.11133,.30762,.44824,.95215,1.17676,.95215,.6582,0,.95215-.49023,.95215-.9248,0-.5459-.39258-.72754-.93848-.96582-.7002-.30859-1.14844-.53223-1.41504-.85449-.22363-.28027-.26562-.56055-.26562-.85449,0-1.02246,.71387-1.625,1.69434-1.625,.30859,0,1.13477,.05566,1.59668,1.05078l-.82617,.43359Z"/>
    <path d="M568.34646,59.73536h1.00879v.61621c.32227-.47559,.82617-.75586,1.44336-.75586,1.0498,0,1.4707,.74219,1.58203,.93848,.56055-.88281,1.35938-.93848,1.75098-.93848,1.72363,0,1.8916,1.44238,1.8916,2.26953v3.68359h-1.00879v-3.53027c0-.6582-.08398-1.52637-1.03613-1.52637-1.16309,0-1.28906,1.12012-1.28906,1.82129v3.23535h-1.00879v-3.44629c0-.40625,.01465-1.61035-1.05078-1.61035-1.14844,0-1.27441,1.19043-1.27441,1.89062v3.16602h-1.00879v-5.81348Z"/>
    <path d="M582.39138,59.73536h1.00781v5.81348h-1.00781v-.8125c-.33691,.43457-.9668,.98047-1.98926,.98047-1.4707,0-2.83008-1.03613-2.83008-3.08203,0-2.00293,1.34473-3.03906,2.83008-3.03906,1.12012,0,1.72266,.61621,1.98926,.9668v-.82715Zm-3.78223,2.89941c0,1.24707,.7002,2.18555,1.90527,2.18555,1.23242,0,1.93262-1.02246,1.93262-2.1709,0-1.49902-1.03613-2.15723-1.93262-2.15723-.99512,0-1.90527,.72852-1.90527,2.14258Z"/>
    <path d="M586.31033,55.33693v6.55566l2.12891-2.15723h1.31738l-2.49316,2.49414,2.94141,3.31934h-1.31738l-2.3252-2.64746-.25195,.25195v2.39551h-1.00879v-10.21191h1.00879Z"/>
    <path d="M596.22439,64.06447c-.16797,.32129-.41992,.67188-.71484,.93848-.53223,.47559-1.19043,.71387-1.93262,.71387-1.40039,0-2.87207-.88281-2.87207-3.03906,0-1.7373,1.06543-3.08203,2.81641-3.08203,1.13379,0,1.84863,.56055,2.19922,1.06445,.36328,.51855,.57422,1.41504,.5459,2.18555h-4.52441c.01367,1.2041,.83984,1.97461,1.84863,1.97461,.47656,0,.85449-.13965,1.19043-.41992,.2666-.22461,.47656-.51855,.60254-.79883l.84082,.46289Zm-.99512-2.05957c-.16797-.91016-.85449-1.5127-1.70801-1.5127-.85449,0-1.55566,.64453-1.70898,1.5127h3.41699Z"/>
    <path d="M602.07302,63.12599c0,.40527,0,.88184,.28027,1.24609,.1543,.19629,.46191,.44824,1.02246,.44824s.86816-.25195,1.02246-.44824c.28027-.36426,.28027-.84082,.28027-1.24609v-3.39062h1.00879v3.50195c0,.71484-.07031,1.24707-.53223,1.75098-.51855,.54688-1.20508,.72852-1.7793,.72852s-1.26074-.18164-1.7793-.72852c-.46191-.50391-.53223-1.03613-.53223-1.75098v-3.50195h1.00879v3.39062Z"/>
    <path d="M608.59646,68.77052h-1.00879v-9.03516h1.00879v.8125c.68652-.85449,1.56934-.95215,1.98926-.95215,1.82129,0,2.8291,1.5127,2.8291,3.08203,0,1.59668-1.02246,3.03906-2.78711,3.03906-.93848,0-1.59668-.41992-2.03125-.98047v4.03418Zm3.78223-6.09277c0-1.42969-.9668-2.18555-1.90527-2.18555s-1.93262,.77051-1.93262,2.1709c0,1.19043,.75586,2.15723,1.94727,2.15723,1.17578,0,1.89062-.98047,1.89062-2.14258Z"/>
    <path d="M517.19412,77.45997v4.88867h-1.00879v-4.88867h-.61621v-.9248h.61621v-2.10059h1.00879v2.10059h1.00879v.9248h-1.00879Z"/>
    <path d="M519.1531,72.13673h1.00879v5.07129c.18262-.23828,.7002-.8125,1.66699-.8125,.68652,0,1.31641,.28027,1.66699,.79785,.29395,.43457,.33594,.91113,.33594,1.55566v3.59961h-1.00879v-3.57227c0-.34961-.02734-.75586-.26562-1.06445-.19629-.25195-.50391-.41992-.95215-.41992-.35059,0-.72852,.09766-1.02344,.44824-.3916,.46191-.41992,1.14844-.41992,1.56836v3.04004h-1.00879v-10.21191Z"/>
    <path d="M530.74881,80.86427c-.16797,.32129-.41992,.67188-.71484,.93848-.53223,.47559-1.19043,.71387-1.93262,.71387-1.40039,0-2.87207-.88281-2.87207-3.03906,0-1.7373,1.06543-3.08203,2.81641-3.08203,1.13379,0,1.84863,.56055,2.19824,1.06445,.36426,.51855,.5752,1.41504,.54688,2.18555h-4.52441c.01367,1.2041,.84082,1.97461,1.84863,1.97461,.47656,0,.85449-.13965,1.19043-.41992,.2666-.22461,.47656-.51855,.60254-.79883l.84082,.46289Zm-.99512-2.05957c-.16797-.91016-.85352-1.5127-1.70801-1.5127s-1.55566,.64453-1.70898,1.5127h3.41699Z"/>
    <path d="M537.98416,77.8799c-.13965-.33594-.43359-.58789-.8125-.58789-.36426,0-.7002,.20996-.7002,.6582,0,.41992,.28027,.5459,.93848,.82617,.84082,.35059,1.23242,.61621,1.45703,.89648,.25195,.30859,.30762,.61621,.30762,.93848,0,1.21875-.88184,1.90527-2.00293,1.90527-.23828,0-1.54102-.02832-2.03125-1.48438l.86914-.36426c.11133,.30762,.44824,.95215,1.17676,.95215,.6582,0,.95215-.49023,.95215-.9248,0-.5459-.39258-.72754-.93848-.96582-.7002-.30859-1.14844-.53223-1.41504-.85449-.22363-.28027-.26562-.56055-.26562-.85449,0-1.02246,.71387-1.625,1.69434-1.625,.30859,0,1.13477,.05566,1.59668,1.05078l-.82617,.43359Z"/>
    <path d="M545.06912,78.16017c-.53223-.67188-1.30273-.86816-1.82129-.86816-1.07812,0-2.05859,.75586-2.05859,2.1709s1.00879,2.15723,2.04492,2.15723c.60254,0,1.34473-.26562,1.87695-.91016v1.2041c-.62988,.46289-1.30273,.60254-1.84863,.60254-1.80762,0-3.11035-1.28809-3.11035-3.03906,0-1.7793,1.31738-3.08203,3.11035-3.08203,.92383,0,1.52637,.36426,1.80664,.56055v1.2041Z"/>
    <path d="M546.64822,76.53517h1.00879v.63086c.09863-.1543,.53223-.77051,1.31641-.77051,.30859,0,.64453,.1123,.89648,.23828l-.47559,.91016c-.22461-.1543-.43457-.19629-.58887-.19629-.40625,0-.6582,.16797-.8125,.36426-.16797,.22461-.33594,.61621-.33594,1.56934v3.06738h-1.00879v-5.81348Z"/>
    <path d="M555.61111,80.86427c-.16797,.32129-.41992,.67188-.71484,.93848-.53223,.47559-1.19043,.71387-1.93262,.71387-1.40039,0-2.87207-.88281-2.87207-3.03906,0-1.7373,1.06543-3.08203,2.81641-3.08203,1.13379,0,1.84863,.56055,2.19922,1.06445,.36328,.51855,.57422,1.41504,.5459,2.18555h-4.52441c.01367,1.2041,.83984,1.97461,1.84863,1.97461,.47656,0,.85449-.13965,1.19043-.41992,.2666-.22461,.47656-.51855,.60254-.79883l.84082,.46289Zm-.99512-2.05957c-.16797-.91016-.85449-1.5127-1.70801-1.5127-.85449,0-1.55566,.64453-1.70898,1.5127h3.41699Z"/>
    <path d="M562.34451,80.86427c-.16797,.32129-.41992,.67188-.71484,.93848-.53223,.47559-1.19043,.71387-1.93262,.71387-1.40039,0-2.87207-.88281-2.87207-3.03906,0-1.7373,1.06543-3.08203,2.81641-3.08203,1.13379,0,1.84863,.56055,2.19824,1.06445,.36426,.51855,.5752,1.41504,.54688,2.18555h-4.52441c.01367,1.2041,.84082,1.97461,1.84863,1.97461,.47656,0,.85449-.13965,1.19043-.41992,.2666-.22461,.47656-.51855,.60254-.79883l.84082,.46289Zm-.99512-2.05957c-.16797-.91016-.85352-1.5127-1.70801-1.5127s-1.55566,.64453-1.70898,1.5127h3.41699Z"/>
    <path d="M563.92263,76.53517h1.00879v.67285c.18262-.23828,.7002-.8125,1.66699-.8125,.68652,0,1.31641,.28027,1.66699,.79785,.29395,.43457,.33594,.91113,.33594,1.55566v3.59961h-1.00879v-3.57227c0-.34961-.02734-.75586-.26562-1.06445-.19629-.25195-.50391-.41992-.95215-.41992-.35059,0-.72852,.09766-1.02344,.44824-.3916,.46191-.41992,1.14844-.41992,1.56836v3.04004h-1.00879v-5.81348Z"/>
    <path d="M571.00759,73.62208c.3916,0,.71387,.32227,.71387,.71387,0,.39258-.32227,.71484-.71387,.71484-.39258,0-.71484-.32227-.71484-.71484,0-.3916,.32227-.71387,.71484-.71387Zm.50391,2.91309v5.81348h-1.00879v-5.81348h1.00879Z"/>
    <path d="M573.41482,76.53517h1.00879v.67285c.18262-.23828,.7002-.8125,1.66699-.8125,.68652,0,1.31641,.28027,1.66699,.79785,.29395,.43457,.33594,.91113,.33594,1.55566v3.59961h-1.00879v-3.57227c0-.34961-.02734-.75586-.26562-1.06445-.19629-.25195-.50391-.41992-.95215-.41992-.35059,0-.72852,.09766-1.02344,.44824-.3916,.46191-.41992,1.14844-.41992,1.56836v3.04004h-1.00879v-5.81348Z"/>
    <path d="M584.44998,76.53517h1.00781v5.67383c0,.62988,0,1.52637-.55957,2.2832-.43457,.58789-1.2334,1.07812-2.3252,1.07812-.99512,0-1.68164-.39258-2.07324-.78418-.39258-.39258-.75684-1.02246-.75684-1.87695h.99512c0,.49023,.19531,.92383,.44824,1.2041,.41992,.46289,.95215,.56055,1.40039,.56055,.71387,0,1.20508-.25195,1.54102-.8125,.29395-.47656,.32227-.99414,.32227-1.48438v-.84082c-.33691,.43457-.9668,.98047-1.98926,.98047-.85449,0-1.54102-.33594-1.98926-.78418-.39258-.39258-.84082-1.12109-.84082-2.29688,0-1.13477,.4209-1.83594,.84082-2.25586,.49023-.47656,1.20508-.78418,1.98926-.78418,.85449,0,1.52637,.36426,1.98926,.9668v-.82715Zm-3.19434,1.30273c-.49023,.50488-.58789,1.12109-.58789,1.59766,0,.50391,.09766,1.19043,.6582,1.70801,.32227,.29492,.71484,.47656,1.24707,.47656s.95215-.16797,1.27441-.49023c.39258-.37793,.6582-.99414,.6582-1.68066s-.25195-1.28906-.61621-1.63867c-.32227-.32227-.79883-.51855-1.31641-.51855-.61621,0-1.03711,.26562-1.31738,.5459Z"/>
    <path d="M520.70974,94.96095c-.53223-.67188-1.30273-.86816-1.82129-.86816-1.07812,0-2.05859,.75586-2.05859,2.1709s1.00879,2.15723,2.04492,2.15723c.60254,0,1.34473-.26562,1.87695-.91016v1.2041c-.62988,.46289-1.30273,.60254-1.84863,.60254-1.80762,0-3.11035-1.28809-3.11035-3.03906,0-1.7793,1.31738-3.08203,3.11035-3.08203,.92383,0,1.52637,.36426,1.80664,.56055v1.2041Z"/>
    <path d="M521.92459,96.26368c0-1.76465,1.30273-3.06738,3.08203-3.06738s3.08203,1.30273,3.08203,3.06738c0,1.76562-1.31738,3.05371-3.08203,3.05371s-3.08203-1.28809-3.08203-3.05371Zm1.03711,0c0,1.42871,1.00879,2.15723,2.04492,2.15723,1.05078,0,2.04492-.74219,2.04492-2.15723,0-1.42871-.98047-2.1709-2.04492-2.1709s-2.04492,.75586-2.04492,2.1709Z"/>
    <path d="M529.62478,93.33595h1.00879v.61621c.32227-.47559,.82617-.75586,1.44336-.75586,1.0498,0,1.4707,.74219,1.58203,.93848,.56055-.88281,1.35938-.93848,1.75098-.93848,1.72363,0,1.8916,1.44238,1.8916,2.26953v3.68359h-1.00879v-3.53027c0-.6582-.08398-1.52637-1.03613-1.52637-1.16309,0-1.28906,1.12012-1.28906,1.82129v3.23535h-1.00879v-3.44629c0-.40625,.01465-1.61035-1.05078-1.61035-1.14844,0-1.27441,1.19043-1.27441,1.89062v3.16602h-1.00879v-5.81348Z"/>
    <path d="M539.21463,93.33595h1.00879v.61621c.32227-.47559,.82617-.75586,1.44336-.75586,1.0498,0,1.4707,.74219,1.58203,.93848,.56055-.88281,1.35938-.93848,1.75098-.93848,1.72363,0,1.8916,1.44238,1.8916,2.26953v3.68359h-1.00879v-3.53027c0-.6582-.08398-1.52637-1.03613-1.52637-1.16309,0-1.28906,1.12012-1.28906,1.82129v3.23535h-1.00879v-3.44629c0-.40625,.01465-1.61035-1.05078-1.61035-1.14844,0-1.27441,1.19043-1.27441,1.89062v3.16602h-1.00879v-5.81348Z"/>
    <path d="M549.30935,90.42286c.3916,0,.71387,.32227,.71387,.71387,0,.39258-.32227,.71484-.71387,.71484-.39258,0-.71484-.32227-.71484-.71484,0-.3916,.32227-.71387,.71484-.71387Zm.50391,2.91309v5.81348h-1.00879v-5.81348h1.00879Z"/>
    <path d="M552.75369,94.26075v4.88867h-1.00879v-4.88867h-.61621v-.9248h.61621v-2.10059h1.00879v2.10059h1.00879v.9248h-1.00879Z"/>
    <path d="M556.03006,94.26075v4.88867h-1.00879v-4.88867h-.61621v-.9248h.61621v-2.10059h1.00879v2.10059h1.00879v.9248h-1.00879Z"/>
    <path d="M563.14431,97.66505c-.16797,.32129-.41992,.67188-.71484,.93848-.53223,.47559-1.19043,.71387-1.93262,.71387-1.40039,0-2.87207-.88281-2.87207-3.03906,0-1.7373,1.06543-3.08203,2.81641-3.08203,1.13379,0,1.84863,.56055,2.19922,1.06445,.36328,.51855,.57422,1.41504,.5459,2.18555h-4.52441c.01367,1.2041,.83984,1.97461,1.84863,1.97461,.47656,0,.85449-.13965,1.19043-.41992,.2666-.22461,.47656-.51855,.60254-.79883l.84082,.46289Zm-.99512-2.05957c-.16797-.91016-.85449-1.5127-1.70801-1.5127-.85449,0-1.55566,.64453-1.70898,1.5127h3.41699Z"/>
    <path d="M569.87771,97.66505c-.16797,.32129-.41992,.67188-.71484,.93848-.53223,.47559-1.19043,.71387-1.93262,.71387-1.40039,0-2.87207-.88281-2.87207-3.03906,0-1.7373,1.06543-3.08203,2.81641-3.08203,1.13379,0,1.84863,.56055,2.19824,1.06445,.36426,.51855,.5752,1.41504,.54688,2.18555h-4.52441c.01367,1.2041,.84082,1.97461,1.84863,1.97461,.47656,0,.85449-.13965,1.19043-.41992,.2666-.22461,.47656-.51855,.60254-.79883l.84082,.46289Zm-.99512-2.05957c-.16797-.91016-.85352-1.5127-1.70801-1.5127s-1.55566,.64453-1.70898,1.5127h3.41699Z"/>
    <path d="M574.99783,93.33595l1.72363,3.9502,1.82031-4.39844,1.80762,4.39844,1.73633-3.9502h1.12109l-2.88574,6.21973-1.79297-4.34277-1.79297,4.34277-2.85742-6.21973h1.12012Z"/>
    <path d="M584.26541,88.93751h1.00879v5.07129c.18262-.23828,.7002-.8125,1.66699-.8125,.68652,0,1.31641,.28027,1.66699,.79785,.29395,.43457,.33594,.91113,.33594,1.55566v3.59961h-1.00879v-3.57227c0-.34961-.02734-.75586-.26562-1.06445-.19629-.25195-.50391-.41992-.95215-.41992-.35059,0-.72852,.09766-1.02344,.44824-.3916,.46191-.41992,1.14844-.41992,1.56836v3.04004h-1.00879v-10.21191Z"/>
    <path d="M590.27127,96.26368c0-1.76465,1.30273-3.06738,3.08203-3.06738s3.08203,1.30273,3.08203,3.06738c0,1.76562-1.31738,3.05371-3.08203,3.05371s-3.08203-1.28809-3.08203-3.05371Zm1.03711,0c0,1.42871,1.00879,2.15723,2.04492,2.15723,1.05078,0,2.04492-.74219,2.04492-2.15723,0-1.42871-.98047-2.1709-2.04492-2.1709s-2.04492,.75586-2.04492,2.1709Z"/>
    <path d="M603.62869,94.68068c-.13965-.33594-.43359-.58789-.8125-.58789-.36426,0-.7002,.20996-.7002,.6582,0,.41992,.28027,.5459,.93848,.82617,.84082,.35059,1.23242,.61621,1.45703,.89648,.25195,.30859,.30762,.61621,.30762,.93848,0,1.21875-.88184,1.90527-2.00293,1.90527-.23828,0-1.54102-.02832-2.03125-1.48438l.86914-.36426c.11133,.30762,.44824,.95215,1.17676,.95215,.6582,0,.95215-.49023,.95215-.9248,0-.5459-.39258-.72754-.93848-.96582-.7002-.30859-1.14844-.53223-1.41504-.85449-.22363-.28027-.26562-.56055-.26562-.85449,0-1.02246,.71387-1.625,1.69434-1.625,.30859,0,1.13477,.05566,1.59668,1.05078l-.82617,.43359Z"/>
    <path d="M605.79666,96.26368c0-1.76465,1.30273-3.06738,3.08203-3.06738s3.08203,1.30273,3.08203,3.06738c0,1.76562-1.31738,3.05371-3.08203,3.05371s-3.08203-1.28809-3.08203-3.05371Zm1.03711,0c0,1.42871,1.00879,2.15723,2.04492,2.15723,1.05078,0,2.04492-.74219,2.04492-2.15723,0-1.42871-.98047-2.1709-2.04492-2.1709s-2.04492,.75586-2.04492,2.1709Z"/>
    <path d="M613.49685,93.33595h1.00879v.63086c.09863-.1543,.53223-.77051,1.31641-.77051,.30859,0,.64453,.1123,.89648,.23828l-.47559,.91016c-.22461-.1543-.43457-.19629-.58887-.19629-.40625,0-.6582,.16797-.8125,.36426-.16797,.22461-.33594,.61621-.33594,1.56934v3.06738h-1.00879v-5.81348Z"/>
    <path d="M618.95681,94.26075v4.88867h-1.00879v-4.88867h-.61621v-.9248h.61621v-2.10059h1.00879v2.10059h1.00879v.9248h-1.00879Z"/>
    <path d="M518.55252,111.48048c-.13965-.33594-.43359-.58789-.8125-.58789-.36426,0-.7002,.20996-.7002,.6582,0,.41992,.28027,.5459,.93848,.82617,.84082,.35059,1.23242,.61621,1.45703,.89648,.25195,.30859,.30762,.61621,.30762,.93848,0,1.21875-.88184,1.90527-2.00293,1.90527-.23828,0-1.54102-.02832-2.03125-1.48438l.86914-.36426c.11133,.30762,.44824,.95215,1.17676,.95215,.6582,0,.95215-.49023,.95215-.9248,0-.5459-.39258-.72754-.93848-.96582-.7002-.30859-1.14844-.53223-1.41504-.85449-.22363-.28027-.26562-.56055-.26562-.85449,0-1.02246,.71387-1.625,1.69434-1.625,.30859,0,1.13477,.05566,1.59668,1.05078l-.82617,.43359Z"/>
    <path d="M522.09353,113.52638c0,.40527,0,.88184,.28027,1.24609,.1543,.19629,.46191,.44824,1.02246,.44824s.86816-.25195,1.02246-.44824c.28027-.36426,.28027-.84082,.28027-1.24609v-3.39062h1.00879v3.50195c0,.71484-.07031,1.24707-.53223,1.75098-.51855,.54688-1.20508,.72852-1.7793,.72852s-1.26074-.18164-1.7793-.72852c-.46191-.50391-.53223-1.03613-.53223-1.75098v-3.50195h1.00879v3.39062Z"/>
    <path d="M528.61697,115.94923h-1.00879v-10.21191h1.00879v5.21094c.68652-.85449,1.56934-.95215,1.98926-.95215,1.82129,0,2.8291,1.5127,2.8291,3.08203,0,1.59668-1.02246,3.03906-2.78711,3.03906-.93848,0-1.59668-.41992-2.03125-.98047v.8125Zm3.78223-2.87109c0-1.42969-.9668-2.18555-1.90527-2.18555s-1.93262,.77051-1.93262,2.1709c0,1.19043,.75586,2.15723,1.94727,2.15723,1.17578,0,1.89062-.98047,1.89062-2.14258Z"/>
    <path d="M534.97244,110.13575h1.00879v.61621c.32227-.47559,.82617-.75586,1.44336-.75586,1.0498,0,1.4707,.74219,1.58203,.93848,.56055-.88281,1.35938-.93848,1.75098-.93848,1.72363,0,1.8916,1.44238,1.8916,2.26953v3.68359h-1.00879v-3.53027c0-.6582-.08398-1.52637-1.03613-1.52637-1.16309,0-1.28906,1.12012-1.28906,1.82129v3.23535h-1.00879v-3.44629c0-.40625,.01465-1.61035-1.05078-1.61035-1.14844,0-1.27441,1.19043-1.27441,1.89062v3.16602h-1.00879v-5.81348Z"/>
    <path d="M545.06717,107.22267c.3916,0,.71387,.32227,.71387,.71387,0,.39258-.32227,.71484-.71387,.71484-.39258,0-.71484-.32227-.71484-.71484,0-.3916,.32227-.71387,.71484-.71387Zm.50391,2.91309v5.81348h-1.00879v-5.81348h1.00879Z"/>
    <path d="M549.8699,111.48048c-.13965-.33594-.43457-.58789-.8125-.58789-.36426,0-.7002,.20996-.7002,.6582,0,.41992,.28027,.5459,.93848,.82617,.84082,.35059,1.23242,.61621,1.45703,.89648,.25195,.30859,.30762,.61621,.30762,.93848,0,1.21875-.88184,1.90527-2.00293,1.90527-.23828,0-1.54102-.02832-2.03125-1.48438l.86914-.36426c.11133,.30762,.44824,.95215,1.17676,.95215,.6582,0,.95215-.49023,.95215-.9248,0-.5459-.39258-.72754-.93848-.96582-.7002-.30859-1.14844-.53223-1.41504-.85449-.22363-.28027-.26562-.56055-.26562-.85449,0-1.02246,.71387-1.625,1.69434-1.625,.30859,0,1.13477,.05566,1.59668,1.05078l-.82617,.43359Z"/>
    <path d="M554.79763,111.48048c-.13965-.33594-.43457-.58789-.8125-.58789-.36426,0-.7002,.20996-.7002,.6582,0,.41992,.28027,.5459,.93848,.82617,.84082,.35059,1.23242,.61621,1.45703,.89648,.25195,.30859,.30762,.61621,.30762,.93848,0,1.21875-.88184,1.90527-2.00293,1.90527-.23828,0-1.54102-.02832-2.03125-1.48438l.86914-.36426c.11133,.30762,.44824,.95215,1.17676,.95215,.6582,0,.95215-.49023,.95215-.9248,0-.5459-.39258-.72754-.93848-.96582-.7002-.30859-1.14844-.53223-1.41504-.85449-.22363-.28027-.26562-.56055-.26562-.85449,0-1.02246,.71387-1.625,1.69434-1.625,.30859,0,1.13477,.05566,1.59668,1.05078l-.82617,.43359Z"/>
    <path d="M557.83474,107.22267c.3916,0,.71387,.32227,.71387,.71387,0,.39258-.32227,.71484-.71387,.71484-.39258,0-.71484-.32227-.71484-.71484,0-.3916,.32227-.71387,.71484-.71387Zm.50391,2.91309v5.81348h-1.00879v-5.81348h1.00879Z"/>
    <path d="M559.87771,113.06349c0-1.76465,1.30273-3.06738,3.08203-3.06738s3.08203,1.30273,3.08203,3.06738-1.31738,3.05371-3.08203,3.05371-3.08203-1.28906-3.08203-3.05371Zm1.03711,0c0,1.42871,1.00879,2.15723,2.04492,2.15723,1.05078,0,2.04492-.74219,2.04492-2.15723,0-1.42871-.98047-2.1709-2.04492-2.1709s-2.04492,.75586-2.04492,2.1709Z"/>
    <path d="M567.57791,110.13575h1.00879v.67285c.18262-.23828,.7002-.8125,1.66699-.8125,.68652,0,1.31641,.28027,1.66699,.79883,.29395,.43359,.33594,.91016,.33594,1.55469v3.59961h-1.00879v-3.57227c0-.34961-.02734-.75586-.26562-1.06445-.19629-.25195-.50391-.41992-.95215-.41992-.35059,0-.72852,.09766-1.02344,.44824-.3916,.46191-.41992,1.14844-.41992,1.56836v3.04004h-1.00879v-5.81348Z"/>
    <path d="M576.55349,111.48048c-.13965-.33594-.43457-.58789-.8125-.58789-.36426,0-.7002,.20996-.7002,.6582,0,.41992,.28027,.5459,.93848,.82617,.84082,.35059,1.23242,.61621,1.45703,.89648,.25195,.30859,.30762,.61621,.30762,.93848,0,1.21875-.88184,1.90527-2.00293,1.90527-.23828,0-1.54102-.02832-2.03125-1.48438l.86914-.36426c.11133,.30762,.44824,.95215,1.17676,.95215,.6582,0,.95215-.49023,.95215-.9248,0-.5459-.39258-.72754-.93848-.96582-.7002-.30859-1.14844-.53223-1.41504-.85449-.22363-.28027-.26562-.56055-.26562-.85449,0-1.02246,.71387-1.625,1.69434-1.625,.30859,0,1.13477,.05566,1.59668,1.05078l-.82617,.43359Z"/>
    <path d="M583.35623,115.94923h-1.00879v-10.21191h1.00879v5.21094c.68652-.85449,1.56934-.95215,1.98926-.95215,1.82129,0,2.8291,1.5127,2.8291,3.08203,0,1.59668-1.02246,3.03906-2.78711,3.03906-.93848,0-1.59668-.41992-2.03125-.98047v.8125Zm3.78223-2.87109c0-1.42969-.9668-2.18555-1.90527-2.18555s-1.93262,.77051-1.93262,2.1709c0,1.19043,.75586,2.15723,1.94727,2.15723,1.17578,0,1.89062-.98047,1.89062-2.14258Z"/>
    <path d="M591.54666,115.40333l-2.6748-5.26758h1.14844l2.05859,4.16016,1.8916-4.16016h1.12012l-4.27148,9.03516h-1.12109l1.84863-3.76758Z"/>
    <path d="M520.70974,128.56056c-.53223-.67188-1.30273-.86816-1.82129-.86816-1.07812,0-2.05859,.75586-2.05859,2.1709s1.00879,2.15723,2.04492,2.15723c.60254,0,1.34473-.26562,1.87695-.91016v1.2041c-.62988,.46289-1.30273,.60254-1.84863,.60254-1.80762,0-3.11035-1.28809-3.11035-3.03906,0-1.7793,1.31738-3.08203,3.11035-3.08203,.92383,0,1.52637,.36426,1.80664,.56055v1.2041Z"/>
    <path d="M526.74392,126.93556h1.00781v5.81348h-1.00781v-.8125c-.33691,.43457-.9668,.98047-1.98926,.98047-1.4707,0-2.83008-1.03613-2.83008-3.08105,0-2.00391,1.34473-3.04004,2.83008-3.04004,1.12012,0,1.72266,.61621,1.98926,.9668v-.82715Zm-3.78223,2.90039c0,1.24609,.7002,2.18457,1.90527,2.18457,1.23242,0,1.93262-1.02246,1.93262-2.1709,0-1.49902-1.03613-2.15723-1.93262-2.15723-.99512,0-1.90527,.72852-1.90527,2.14355Z"/>
    <path d="M530.69021,127.86036v4.88867h-1.00879v-4.88867h-.61621v-.9248h.61621v-2.10059h1.00879v2.10059h1.00879v.9248h-1.00879Z"/>
    <path d="M537.80447,131.26466c-.16797,.32129-.41992,.67188-.71484,.93848-.53223,.47559-1.19043,.71387-1.93262,.71387-1.40039,0-2.87207-.88281-2.87207-3.03906,0-1.7373,1.06543-3.08203,2.81641-3.08203,1.13379,0,1.84863,.56055,2.19922,1.06445,.36328,.51855,.57422,1.41504,.5459,2.18555h-4.52441c.01367,1.2041,.83984,1.97461,1.84863,1.97461,.47656,0,.85449-.13965,1.19043-.41992,.2666-.22461,.47656-.51855,.60254-.79883l.84082,.46289Zm-.99512-2.05957c-.16797-.91016-.85449-1.5127-1.70801-1.5127-.85449,0-1.55566,.64453-1.70898,1.5127h3.41699Z"/>
    <path d="M543.83767,126.93556h1.00781v5.67383c0,.62988,0,1.52637-.55957,2.2832-.43457,.58789-1.2334,1.07812-2.3252,1.07812-.99512,0-1.68164-.39258-2.07324-.78418-.39258-.39258-.75684-1.02246-.75684-1.87695h.99512c0,.49023,.19531,.92383,.44824,1.2041,.41992,.46289,.95215,.56055,1.40039,.56055,.71484,0,1.20508-.25195,1.54102-.8125,.29395-.47656,.32227-.99414,.32227-1.48438v-.84082c-.33691,.43457-.9668,.98047-1.98926,.98047-.85449,0-1.54102-.33594-1.98926-.78418-.39258-.39258-.84082-1.12109-.84082-2.29688,0-1.13477,.4209-1.83594,.84082-2.25586,.49023-.47656,1.20508-.78418,1.98926-.78418,.85449,0,1.52637,.36426,1.98926,.9668v-.82715Zm-3.19434,1.30273c-.49023,.50488-.58789,1.12109-.58789,1.59766,0,.50391,.09766,1.19043,.6582,1.70801,.32227,.29492,.71484,.47656,1.24707,.47656s.95215-.16797,1.27441-.49023c.39258-.37793,.6582-.99414,.6582-1.68066s-.25195-1.28906-.61621-1.63867c-.32227-.32227-.79883-.51855-1.31641-.51855-.61719,0-1.03711,.26562-1.31738,.5459Z"/>
    <path d="M546.38259,129.86329c0-1.76465,1.30273-3.06738,3.08203-3.06738s3.08203,1.30273,3.08203,3.06738c0,1.76562-1.31738,3.05371-3.08203,3.05371s-3.08203-1.28809-3.08203-3.05371Zm1.03711,0c0,1.42871,1.00879,2.15723,2.04492,2.15723,1.05078,0,2.04492-.74219,2.04492-2.15723,0-1.42871-.98047-2.1709-2.04492-2.1709s-2.04492,.75586-2.04492,2.1709Z"/>
    <path d="M554.08279,126.93556h1.00879v.63086c.09863-.1543,.53223-.77051,1.31641-.77051,.30859,0,.64453,.1123,.89648,.23828l-.47559,.91016c-.22461-.1543-.43457-.19629-.58887-.19629-.40625,0-.6582,.16797-.8125,.36426-.16797,.22461-.33594,.61621-.33594,1.56934v3.06738h-1.00879v-5.81348Z"/>
    <path d="M560.4949,132.20314l-2.6748-5.26758h1.14844l2.05859,4.16016,1.8916-4.16016h1.12012l-4.27148,9.03516h-1.12109l1.84863-3.76758Z"/>
    <path d="M565.14236,131.48829c.37793,0,.7002,.32227,.7002,.7002,0,.37891-.32227,.7002-.7002,.7002s-.7002-.32129-.7002-.7002c0-.37793,.32227-.7002,.7002-.7002Z"/>
  </g>
</svg>