<?xml version="1.0" encoding="UTF-8"?>
<svg id="Layer_1" data-name="Layer 1" xmlns="http://www.w3.org/2000/svg" viewBox="100 0 524.24841 618.64768">
  <g>
    <line x1="359.73102" y1="109.64672" x2="359.73102" y2="279.71508" fill="none" stroke="#231f20" stroke-miterlimit="10" stroke-width="2"/>
    <polygon points="349.75836 276.79711 359.73102 294.06749 369.70367 276.79711 349.75836 276.79711" fill="#231f20"/>
  </g>
  <circle cx="359.73099" cy="101.74454" r="90" fill="#4a5977"/>
  <g>
    <path d="M296.42871,72.10729c.63086,0,1.56934,.04199,2.26953,.51758,.5459,.36426,1.02246,1.0791,1.02246,2.07324,0,1.42871-.93848,2.47949-2.35352,2.57812l2.96973,4.17383h-1.26074l-2.84277-4.08984h-.2666v4.08984h-1.03613v-9.34277h1.49805Zm-.46191,4.32812h.6582c1.28906,0,2.05957-.61621,2.05957-1.70898,0-.51855-.1543-1.03613-.74316-1.37305-.41992-.23828-.89648-.26562-1.34473-.26562h-.62988v3.34766Z" fill="#fff"/>
    <path d="M306.58105,79.96569c-.16797,.32129-.41992,.67188-.71484,.93848-.53223,.47559-1.19043,.71387-1.93262,.71387-1.40039,0-2.87207-.88281-2.87207-3.03906,0-1.7373,1.06543-3.08203,2.81641-3.08203,1.13379,0,1.84863,.56055,2.19922,1.06445,.36328,.51855,.57422,1.41504,.5459,2.18555h-4.52441c.01367,1.2041,.83984,1.97461,1.84863,1.97461,.47656,0,.85449-.13965,1.19043-.41992,.2666-.22461,.47656-.51855,.60254-.79883l.84082,.46289Zm-.99512-2.05957c-.16797-.91016-.85449-1.5127-1.70801-1.5127-.85449,0-1.55566,.64453-1.70898,1.5127h3.41699Z" fill="#fff"/>
    <path d="M312.71191,77.26158c-.53223-.67188-1.30273-.86816-1.82129-.86816-1.07812,0-2.05859,.75586-2.05859,2.1709s1.00879,2.15723,2.04492,2.15723c.60254,0,1.34473-.26562,1.87695-.91016v1.2041c-.62988,.46289-1.30273,.60254-1.84863,.60254-1.80762,0-3.11035-1.28906-3.11035-3.03906,0-1.7793,1.31738-3.08203,3.11035-3.08203,.92383,0,1.52637,.36426,1.80664,.56055v1.2041Z" fill="#fff"/>
    <path d="M313.92676,78.56432c0-1.76465,1.30273-3.06738,3.08203-3.06738s3.08203,1.30273,3.08203,3.06738-1.31738,3.05371-3.08203,3.05371-3.08203-1.28906-3.08203-3.05371Zm1.03711,0c0,1.42871,1.00879,2.15723,2.04492,2.15723,1.05078,0,2.04492-.74219,2.04492-2.15723,0-1.42871-.98047-2.1709-2.04492-2.1709s-2.04492,.75586-2.04492,2.1709Z" fill="#fff"/>
    <path d="M321.62695,75.63658h1.00879v.63086c.09863-.1543,.53223-.77051,1.31641-.77051,.30859,0,.64453,.1123,.89648,.23828l-.47559,.91016c-.22461-.1543-.43457-.19629-.58887-.19629-.40625,0-.6582,.16797-.8125,.36426-.16797,.22461-.33594,.61621-.33594,1.56934v3.06738h-1.00879v-5.81348Z" fill="#fff"/>
    <path d="M329.89062,71.23815h1.00781v10.21191h-1.00781v-.8125c-.33691,.43457-.9668,.98047-1.98926,.98047-1.4707,0-2.83008-1.03613-2.83008-3.08203,0-2.00293,1.34473-3.03906,2.83008-3.03906,1.12012,0,1.72266,.61621,1.98926,.9668v-5.22559Zm-3.78223,7.29785c0,1.24707,.7002,2.18555,1.90527,2.18555,1.23242,0,1.93262-1.02246,1.93262-2.1709,0-1.49902-1.03613-2.15723-1.93262-2.15723-.99512,0-1.90527,.72852-1.90527,2.14258Z" fill="#fff"/>
    <path d="M333.16406,72.7235c.3916,0,.71387,.32227,.71387,.71387,0,.39258-.32227,.71484-.71387,.71484-.39258,0-.71484-.32227-.71484-.71484,0-.3916,.32227-.71387,.71484-.71387Zm.50391,2.91309v5.81348h-1.00879v-5.81348h1.00879Z" fill="#fff"/>
    <path d="M335.57129,75.63658h1.00879v.67285c.18262-.23828,.7002-.8125,1.66699-.8125,.68652,0,1.31641,.28027,1.66699,.79883,.29395,.43359,.33594,.91016,.33594,1.55469v3.59961h-1.00879v-3.57227c0-.34961-.02734-.75586-.26562-1.06445-.19629-.25195-.50391-.41992-.95215-.41992-.35059,0-.72852,.09766-1.02344,.44824-.3916,.46191-.41992,1.14844-.41992,1.56836v3.04004h-1.00879v-5.81348Z" fill="#fff"/>
    <path d="M346.60645,75.63658h1.00781v5.67383c0,.62988,0,1.52637-.55957,2.2832-.43457,.58789-1.2334,1.07812-2.3252,1.07812-.99512,0-1.68164-.39258-2.07324-.78418-.39258-.39258-.75684-1.02246-.75684-1.87695h.99512c0,.49023,.19531,.92383,.44824,1.2041,.41992,.46289,.95215,.56055,1.40039,.56055,.71484,0,1.20508-.25195,1.54102-.8125,.29395-.47656,.32227-.99414,.32227-1.48438v-.84082c-.33691,.43457-.9668,.98047-1.98926,.98047-.85449,0-1.54102-.33594-1.98926-.78418-.39258-.39258-.84082-1.12109-.84082-2.29785,0-1.13379,.4209-1.83496,.84082-2.25488,.49023-.47656,1.20508-.78418,1.98926-.78418,.85449,0,1.52637,.36426,1.98926,.9668v-.82715Zm-3.19434,1.30273c-.49023,.50488-.58789,1.12109-.58789,1.59668,0,.50488,.09766,1.19141,.6582,1.70898,.32227,.29492,.71484,.47656,1.24707,.47656s.95215-.16797,1.27441-.49023c.39258-.37793,.6582-.99414,.6582-1.68066s-.25195-1.28906-.61621-1.63867c-.32227-.32227-.79883-.51855-1.31641-.51855-.61719,0-1.03711,.26562-1.31738,.5459Z" fill="#fff"/>
    <path d="M351.91113,76.98131c-.13965-.33594-.43359-.58789-.8125-.58789-.36426,0-.7002,.20996-.7002,.6582,0,.41992,.28027,.5459,.93848,.82617,.84082,.35059,1.23242,.61621,1.45703,.89648,.25195,.30859,.30762,.61621,.30762,.93848,0,1.21875-.88184,1.90527-2.00293,1.90527-.23828,0-1.54102-.02832-2.03125-1.48438l.86914-.36426c.11133,.30762,.44824,.95215,1.17676,.95215,.6582,0,.95215-.49023,.95215-.9248,0-.5459-.39258-.72754-.93848-.96582-.7002-.30859-1.14844-.53223-1.41504-.85449-.22363-.28027-.26562-.56055-.26562-.85449,0-1.02246,.71387-1.625,1.69434-1.625,.30859,0,1.13477,.05566,1.59668,1.05078l-.82617,.43359Z" fill="#fff"/>
    <path d="M357.70508,75.63658h1.00879v.61621c.32227-.47559,.82617-.75586,1.44336-.75586,1.0498,0,1.4707,.74219,1.58203,.93848,.56055-.88281,1.35938-.93848,1.75098-.93848,1.72363,0,1.8916,1.44238,1.8916,2.26953v3.68359h-1.00879v-3.53027c0-.6582-.08398-1.52637-1.03613-1.52637-1.16309,0-1.28906,1.12012-1.28906,1.82129v3.23535h-1.00879v-3.44629c0-.40625,.01465-1.61035-1.05078-1.61035-1.14844,0-1.27441,1.19043-1.27441,1.89062v3.16602h-1.00879v-5.81348Z" fill="#fff"/>
    <path d="M371.75,75.63658h1.00781v5.81348h-1.00781v-.8125c-.33691,.43457-.9668,.98047-1.98926,.98047-1.4707,0-2.83008-1.03613-2.83008-3.08203,0-2.00293,1.34473-3.03906,2.83008-3.03906,1.12012,0,1.72266,.61621,1.98926,.9668v-.82715Zm-3.78223,2.89941c0,1.24707,.7002,2.18555,1.90527,2.18555,1.23242,0,1.93262-1.02246,1.93262-2.1709,0-1.49902-1.03613-2.15723-1.93262-2.15723-.99512,0-1.90527,.72852-1.90527,2.14258Z" fill="#fff"/>
    <path d="M379.11426,71.23815h1.00781v10.21191h-1.00781v-.8125c-.33691,.43457-.9668,.98047-1.98926,.98047-1.4707,0-2.83008-1.03613-2.83008-3.08203,0-2.00293,1.34473-3.03906,2.83008-3.03906,1.12012,0,1.72266,.61621,1.98926,.9668v-5.22559Zm-3.78223,7.29785c0,1.24707,.7002,2.18555,1.90527,2.18555,1.23242,0,1.93262-1.02246,1.93262-2.1709,0-1.49902-1.03613-2.15723-1.93262-2.15723-.99512,0-1.90527,.72852-1.90527,2.14258Z" fill="#fff"/>
    <path d="M387.17871,79.96569c-.16797,.32129-.41992,.67188-.71484,.93848-.53223,.47559-1.19043,.71387-1.93262,.71387-1.40039,0-2.87207-.88281-2.87207-3.03906,0-1.7373,1.06543-3.08203,2.81641-3.08203,1.13379,0,1.84863,.56055,2.19922,1.06445,.36328,.51855,.57422,1.41504,.5459,2.18555h-4.52441c.01367,1.2041,.83984,1.97461,1.84863,1.97461,.47656,0,.85449-.13965,1.19043-.41992,.2666-.22461,.47656-.51855,.60254-.79883l.84082,.46289Zm-.99512-2.05957c-.16797-.91016-.85449-1.5127-1.70801-1.5127-.85449,0-1.55566,.64453-1.70898,1.5127h3.41699Z" fill="#fff"/>
    <path d="M391.7666,76.786c0-2.78809,2.1709-4.83301,4.86035-4.83301s4.86133,2.04492,4.86133,4.83301c0,2.77344-2.15723,4.83203-4.86133,4.83203-2.70312,0-4.86035-2.05859-4.86035-4.83203Zm1.06445,0c0,2.14258,1.69531,3.85156,3.7959,3.85156,2.10156,0,3.79688-1.70898,3.79688-3.85156,0-2.14355-1.69531-3.85254-3.79688-3.85254-2.10059,0-3.7959,1.70898-3.7959,3.85254Z" fill="#fff"/>
    <path d="M407.6875,77.26158c-.53223-.67188-1.30273-.86816-1.82129-.86816-1.07812,0-2.05859,.75586-2.05859,2.1709s1.00879,2.15723,2.04492,2.15723c.60254,0,1.34473-.26562,1.87695-.91016v1.2041c-.62988,.46289-1.30273,.60254-1.84863,.60254-1.80762,0-3.11035-1.28906-3.11035-3.03906,0-1.7793,1.31738-3.08203,3.11035-3.08203,.92383,0,1.52637,.36426,1.80664,.56055v1.2041Z" fill="#fff"/>
    <path d="M410.30371,76.56139v4.88867h-1.00879v-4.88867h-.61621v-.9248h.61621v-2.10059h1.00879v2.10059h1.00879v.9248h-1.00879Z" fill="#fff"/>
    <path d="M412.90723,80.18932c.37793,0,.7002,.32227,.7002,.7002,0,.37891-.32227,.7002-.7002,.7002s-.7002-.32129-.7002-.7002c0-.37793,.32227-.7002,.7002-.7002Z" fill="#fff"/>
    <path d="M421.49023,73.08776h-1.56836l.5459-.98047h2.05957v9.34277h-1.03711v-8.3623Z" fill="#fff"/>
    <path d="M294.31348,95.36412c0-1.76465,1.30273-3.06738,3.08203-3.06738s3.08203,1.30273,3.08203,3.06738c0,1.76562-1.31738,3.05371-3.08203,3.05371s-3.08203-1.28809-3.08203-3.05371Zm1.03711,0c0,1.42871,1.00879,2.15723,2.04492,2.15723,1.05078,0,2.04492-.74219,2.04492-2.15723,0-1.42871-.98047-2.1709-2.04492-2.1709s-2.04492,.75586-2.04492,2.1709Z" fill="#fff"/>
    <path d="M303.05078,93.36119v4.88867h-1.00879v-4.88867h-.56055v-.9248h.56055v-2.53516c0-.53223,.04199-1.2041,.56055-1.63867,.28027-.23828,.7002-.37793,1.16211-.37793,.36426,0,.60254,.08398,.71484,.12598v.98047c-.20996-.08398-.44824-.12598-.6582-.12598-.22461,0-.49023,.05566-.64453,.30762-.12598,.20996-.12598,.53223-.12598,.84082v2.42285h1.42871v.9248h-1.42871Z" fill="#fff"/>
    <path d="M309.67188,93.36119v4.88867h-1.00879v-4.88867h-.61621v-.9248h.61621v-2.10059h1.00879v2.10059h1.00879v.9248h-1.00879Z" fill="#fff"/>
    <path d="M311.63086,88.03795h1.00879v5.07129c.18262-.23828,.7002-.8125,1.66699-.8125,.68652,0,1.31641,.28027,1.66699,.79785,.29395,.43457,.33594,.91113,.33594,1.55566v3.59961h-1.00879v-3.57227c0-.34961-.02734-.75586-.26562-1.06445-.19629-.25195-.50391-.41992-.95215-.41992-.35059,0-.72852,.09766-1.02344,.44824-.3916,.46191-.41992,1.14844-.41992,1.56836v3.04004h-1.00879v-10.21191Z" fill="#fff"/>
    <path d="M323.22656,96.76549c-.16797,.32129-.41992,.67188-.71484,.93848-.53223,.47559-1.19043,.71387-1.93262,.71387-1.40039,0-2.87207-.88281-2.87207-3.03906,0-1.7373,1.06543-3.08203,2.81641-3.08203,1.13379,0,1.84863,.56055,2.19824,1.06445,.36426,.51855,.5752,1.41504,.54688,2.18555h-4.52441c.01367,1.2041,.84082,1.97461,1.84863,1.97461,.47656,0,.85449-.13965,1.19043-.41992,.2666-.22461,.47656-.51855,.60254-.79883l.84082,.46289Zm-.99512-2.05957c-.16797-.91016-.85352-1.5127-1.70801-1.5127s-1.55566,.64453-1.70898,1.5127h3.41699Z" fill="#fff"/>
    <path d="M329.0752,101.47155h-1.00879v-9.03516h1.00879v.8125c.68652-.85449,1.56934-.95215,1.98926-.95215,1.82129,0,2.8291,1.5127,2.8291,3.08203,0,1.59668-1.02246,3.03906-2.78711,3.03906-.93848,0-1.59668-.41992-2.03125-.98047v4.03418Zm3.78223-6.09277c0-1.42969-.9668-2.18555-1.90527-2.18555s-1.93262,.77051-1.93262,2.1709c0,1.19043,.75586,2.15723,1.94727,2.15723,1.17578,0,1.89062-.98047,1.89062-2.14258Z" fill="#fff"/>
    <path d="M335.43066,92.43639h1.00879v.63086c.09863-.1543,.53223-.77051,1.31641-.77051,.30859,0,.64453,.1123,.89648,.23828l-.47559,.91016c-.22461-.1543-.43457-.19629-.58887-.19629-.40625,0-.6582,.16797-.8125,.36426-.16797,.22461-.33594,.61621-.33594,1.56934v3.06738h-1.00879v-5.81348Z" fill="#fff"/>
    <path d="M344.39355,96.76549c-.16797,.32129-.41992,.67188-.71484,.93848-.53223,.47559-1.19043,.71387-1.93262,.71387-1.40039,0-2.87207-.88281-2.87207-3.03906,0-1.7373,1.06543-3.08203,2.81641-3.08203,1.13379,0,1.84863,.56055,2.19922,1.06445,.36328,.51855,.57422,1.41504,.5459,2.18555h-4.52441c.01367,1.2041,.83984,1.97461,1.84863,1.97461,.47656,0,.85449-.13965,1.19043-.41992,.2666-.22461,.47656-.51855,.60254-.79883l.84082,.46289Zm-.99512-2.05957c-.16797-.91016-.85449-1.5127-1.70801-1.5127-.85449,0-1.55566,.64453-1.70898,1.5127h3.41699Z" fill="#fff"/>
    <path d="M346.25195,92.43639l1.7373,3.92285,1.73633-3.92285h1.12109l-2.85742,6.19141-2.85742-6.19141h1.12012Z" fill="#fff"/>
    <path d="M352.41211,89.5233c.3916,0,.71387,.32227,.71387,.71387,0,.39258-.32227,.71484-.71387,.71484-.39258,0-.71484-.32227-.71484-.71484,0-.3916,.32227-.71387,.71484-.71387Zm.50391,2.91309v5.81348h-1.00879v-5.81348h1.00879Z" fill="#fff"/>
    <path d="M354.45508,95.36412c0-1.76465,1.30273-3.06738,3.08203-3.06738s3.08203,1.30273,3.08203,3.06738c0,1.76562-1.31738,3.05371-3.08203,3.05371s-3.08203-1.28809-3.08203-3.05371Zm1.03711,0c0,1.42871,1.00879,2.15723,2.04492,2.15723,1.05078,0,2.04492-.74219,2.04492-2.15723,0-1.42871-.98047-2.1709-2.04492-2.1709s-2.04492,.75586-2.04492,2.1709Z" fill="#fff"/>
    <path d="M363.16406,95.82701c0,.40625,0,.88184,.28027,1.24609,.1543,.19629,.46191,.44824,1.02246,.44824s.86816-.25195,1.02246-.44824c.28027-.36426,.28027-.83984,.28027-1.24609v-3.39062h1.00879v3.50195c0,.71484-.07031,1.24707-.53223,1.75098-.51855,.54688-1.20508,.72852-1.7793,.72852s-1.26074-.18164-1.7793-.72852c-.46191-.50391-.53223-1.03613-.53223-1.75098v-3.50195h1.00879v3.39062Z" fill="#fff"/>
    <path d="M371.07422,93.78112c-.13965-.33594-.43457-.58789-.8125-.58789-.36426,0-.7002,.20996-.7002,.6582,0,.41992,.28027,.5459,.93848,.82617,.84082,.35059,1.23242,.61621,1.45703,.89648,.25195,.30859,.30762,.61621,.30762,.93848,0,1.21875-.88184,1.90527-2.00293,1.90527-.23828,0-1.54102-.02832-2.03125-1.48438l.86914-.36426c.11133,.30762,.44824,.95215,1.17676,.95215,.6582,0,.95215-.49023,.95215-.9248,0-.5459-.39258-.72754-.93848-.96582-.7002-.30859-1.14844-.53223-1.41504-.85449-.22363-.28027-.26562-.56055-.26562-.85449,0-1.02246,.71387-1.625,1.69434-1.625,.30859,0,1.13477,.05566,1.59668,1.05078l-.82617,.43359Z" fill="#fff"/>
    <path d="M378.70312,97.70397l-2.6748-5.26758h1.14844l2.05859,4.16016,1.8916-4.16016h1.12012l-4.27148,9.03516h-1.12109l1.84863-3.76758Z" fill="#fff"/>
    <path d="M388.46289,96.76549c-.16797,.32129-.41992,.67188-.71484,.93848-.53223,.47559-1.19043,.71387-1.93262,.71387-1.40039,0-2.87207-.88281-2.87207-3.03906,0-1.7373,1.06543-3.08203,2.81641-3.08203,1.13379,0,1.84863,.56055,2.19824,1.06445,.36426,.51855,.5752,1.41504,.54688,2.18555h-4.52441c.01367,1.2041,.84082,1.97461,1.84863,1.97461,.47656,0,.85449-.13965,1.19043-.41992,.2666-.22461,.47656-.51855,.60254-.79883l.84082,.46289Zm-.99512-2.05957c-.16797-.91016-.85352-1.5127-1.70801-1.5127s-1.55566,.64453-1.70898,1.5127h3.41699Z" fill="#fff"/>
    <path d="M394.49609,92.43639h1.00781v5.81348h-1.00781v-.8125c-.33691,.43457-.9668,.98047-1.98926,.98047-1.4707,0-2.83008-1.03613-2.83008-3.08105,0-2.00391,1.34473-3.04004,2.83008-3.04004,1.12012,0,1.72266,.61621,1.98926,.9668v-.82715Zm-3.78223,2.90039c0,1.24609,.7002,2.18457,1.90527,2.18457,1.23242,0,1.93262-1.02246,1.93262-2.1709,0-1.49902-1.03613-2.15723-1.93262-2.15723-.99512,0-1.90527,.72852-1.90527,2.14355Z" fill="#fff"/>
    <path d="M397.40527,92.43639h1.00879v.63086c.09863-.1543,.53223-.77051,1.31641-.77051,.30859,0,.64453,.1123,.89648,.23828l-.47559,.91016c-.22461-.1543-.43457-.19629-.58887-.19629-.40625,0-.6582,.16797-.8125,.36426-.16797,.22461-.33594,.61621-.33594,1.56934v3.06738h-1.00879v-5.81348Z" fill="#fff"/>
    <path d="M295.71484,110.161v4.88867h-1.00879v-4.88867h-.61621v-.9248h.61621v-2.10059h1.00879v2.10059h1.00879v.9248h-1.00879Z" fill="#fff"/>
    <path d="M297.67383,104.83776h1.00879v5.07129c.18262-.23828,.7002-.8125,1.66699-.8125,.68652,0,1.31641,.28027,1.66699,.79883,.29395,.43359,.33594,.91016,.33594,1.55469v3.59961h-1.00879v-3.57227c0-.34961-.02734-.75586-.26562-1.06445-.19629-.25195-.50391-.41992-.95215-.41992-.35059,0-.72852,.09766-1.02344,.44824-.3916,.46191-.41992,1.14844-.41992,1.56836v3.04004h-1.00879v-10.21191Z" fill="#fff"/>
    <path d="M304.25391,109.23619h1.00879v.63086c.09863-.1543,.53223-.77051,1.31641-.77051,.30859,0,.64453,.1123,.89648,.23828l-.47559,.91016c-.22461-.1543-.43457-.19629-.58887-.19629-.40625,0-.6582,.16797-.8125,.36426-.16797,.22461-.33594,.61621-.33594,1.56934v3.06738h-1.00879v-5.81348Z" fill="#fff"/>
    <path d="M307.69727,112.16393c0-1.76465,1.30273-3.06738,3.08203-3.06738s3.08203,1.30273,3.08203,3.06738-1.31738,3.05371-3.08203,3.05371-3.08203-1.28906-3.08203-3.05371Zm1.03711,0c0,1.42871,1.00879,2.15723,2.04492,2.15723,1.05078,0,2.04492-.74219,2.04492-2.15723,0-1.42871-.98047-2.1709-2.04492-2.1709s-2.04492,.75586-2.04492,2.1709Z" fill="#fff"/>
    <path d="M316.40625,112.62682c0,.40527,0,.88184,.28027,1.24609,.1543,.19629,.46191,.44824,1.02246,.44824s.86816-.25195,1.02246-.44824c.28027-.36426,.28027-.84082,.28027-1.24609v-3.39062h1.00879v3.50195c0,.71484-.07031,1.24707-.53223,1.75098-.51855,.54688-1.20508,.72852-1.7793,.72852s-1.26074-.18164-1.7793-.72852c-.46191-.50391-.53223-1.03613-.53223-1.75098v-3.50195h1.00879v3.39062Z" fill="#fff"/>
    <path d="M326.37598,109.23619h1.00781v5.67383c0,.62988,0,1.52637-.55957,2.2832-.43457,.58789-1.2334,1.07812-2.3252,1.07812-.99512,0-1.68164-.39258-2.07324-.78418-.39258-.39258-.75684-1.02246-.75684-1.87695h.99512c0,.49023,.19531,.92383,.44824,1.2041,.41992,.46289,.95215,.56055,1.40039,.56055,.71484,0,1.20508-.25195,1.54102-.8125,.29395-.47656,.32227-.99414,.32227-1.48438v-.84082c-.33691,.43457-.9668,.98047-1.98926,.98047-.85449,0-1.54102-.33594-1.98926-.78418-.39258-.39258-.84082-1.12109-.84082-2.29785,0-1.13379,.4209-1.83496,.84082-2.25488,.49023-.47656,1.20508-.78418,1.98926-.78418,.85449,0,1.52637,.36426,1.98926,.9668v-.82715Zm-3.19434,1.30273c-.49023,.50488-.58789,1.12109-.58789,1.59668,0,.50488,.09766,1.19141,.6582,1.70898,.32227,.29492,.71484,.47656,1.24707,.47656s.95215-.16797,1.27441-.49023c.39258-.37793,.6582-.99414,.6582-1.68066s-.25195-1.28906-.61621-1.63867c-.32227-.32227-.79883-.51855-1.31641-.51855-.61719,0-1.03711,.26562-1.31738,.5459Z" fill="#fff"/>
    <path d="M329.28516,104.83776h1.00879v5.07129c.18262-.23828,.7002-.8125,1.66699-.8125,.68652,0,1.31641,.28027,1.66699,.79883,.29395,.43359,.33594,.91016,.33594,1.55469v3.59961h-1.00879v-3.57227c0-.34961-.02734-.75586-.26562-1.06445-.19629-.25195-.50391-.41992-.95215-.41992-.35059,0-.72852,.09766-1.02344,.44824-.3916,.46191-.41992,1.14844-.41992,1.56836v3.04004h-1.00879v-10.21191Z" fill="#fff"/>
    <path d="M344.53418,112.41588h-3.97852l-1.12012,2.63379h-1.14844l4.2998-9.79102,4.18848,9.79102h-1.14844l-1.09277-2.63379Zm-.40625-.98047l-1.56836-3.73926-1.59766,3.73926h3.16602Z" fill="#fff"/>
    <path d="M348.84375,112.62682c0,.40527,0,.88184,.28027,1.24609,.1543,.19629,.46191,.44824,1.02246,.44824s.86816-.25195,1.02246-.44824c.28027-.36426,.28027-.84082,.28027-1.24609v-3.39062h1.00879v3.50195c0,.71484-.07031,1.24707-.53223,1.75098-.51855,.54688-1.20508,.72852-1.7793,.72852s-1.26074-.18164-1.7793-.72852c-.46191-.50391-.53223-1.03613-.53223-1.75098v-3.50195h1.00879v3.39062Z" fill="#fff"/>
    <path d="M358.81348,109.23619h1.00781v5.67383c0,.62988,0,1.52637-.55957,2.2832-.43457,.58789-1.2334,1.07812-2.3252,1.07812-.99512,0-1.68164-.39258-2.07324-.78418-.39258-.39258-.75684-1.02246-.75684-1.87695h.99512c0,.49023,.19531,.92383,.44824,1.2041,.41992,.46289,.95215,.56055,1.40039,.56055,.71484,0,1.20508-.25195,1.54102-.8125,.29395-.47656,.32227-.99414,.32227-1.48438v-.84082c-.33691,.43457-.9668,.98047-1.98926,.98047-.85449,0-1.54102-.33594-1.98926-.78418-.39258-.39258-.84082-1.12109-.84082-2.29785,0-1.13379,.4209-1.83496,.84082-2.25488,.49023-.47656,1.20508-.78418,1.98926-.78418,.85449,0,1.52637,.36426,1.98926,.9668v-.82715Zm-3.19434,1.30273c-.49023,.50488-.58789,1.12109-.58789,1.59668,0,.50488,.09766,1.19141,.6582,1.70898,.32227,.29492,.71484,.47656,1.24707,.47656s.95215-.16797,1.27441-.49023c.39258-.37793,.6582-.99414,.6582-1.68066s-.25195-1.28906-.61621-1.63867c-.32227-.32227-.79883-.51855-1.31641-.51855-.61719,0-1.03711,.26562-1.31738,.5459Z" fill="#fff"/>
    <path d="M362.36719,113.78893c.37793,0,.7002,.32227,.7002,.7002,0,.37891-.32227,.7002-.7002,.7002s-.7002-.32129-.7002-.7002c0-.37793,.32227-.7002,.7002-.7002Z" fill="#fff"/>
    <path d="M368.42969,108.01744c.02734-.51758,.19531-.99414,.43359-1.37207,.61621-.9668,1.61133-1.09277,2.1709-1.09277,1.76562,0,2.63379,1.23242,2.63379,2.52148,0,.67188-.25195,1.59668-1.2041,2.07324,.32129,.12598,1.34473,.64453,1.34473,2.25488,0,1.75098-1.27539,2.81543-2.87207,2.81543-.9668,0-2.10059-.40625-2.60547-1.61035-.13965-.33691-.19629-.64453-.20996-.98047h1.03613c.04199,.33594,.1543,.68555,.33691,.93848,.30762,.44824,.85449,.7002,1.44238,.7002,1.03711,0,1.83496-.85449,1.83496-1.8916,0-.53223-.20996-1.24609-.9248-1.56836-.29395-.14062-.7002-.20996-1.06445-.19629v-.9248c.36426,.02832,.77051-.04199,1.06445-.19531,.29492-.1543,.78516-.54688,.78516-1.38672,0-.82715-.44824-1.59766-1.59766-1.59766-.37793,0-.83984,.07031-1.2041,.53223-.18262,.23828-.33594,.58887-.36426,.98047h-1.03613Z" fill="#fff"/>
    <path d="M376.80273,106.68737h-1.56836l.5459-.98047h2.05957v9.34277h-1.03711v-8.3623Z" fill="#fff"/>
    <path d="M384.87891,112.16393c0-1.76465,1.30273-3.06738,3.08203-3.06738s3.08203,1.30273,3.08203,3.06738-1.31738,3.05371-3.08203,3.05371-3.08203-1.28906-3.08203-3.05371Zm1.03711,0c0,1.42871,1.00879,2.15723,2.04492,2.15723,1.05078,0,2.04492-.74219,2.04492-2.15723,0-1.42871-.98047-2.1709-2.04492-2.1709s-2.04492,.75586-2.04492,2.1709Z" fill="#fff"/>
    <path d="M393.61621,110.161v4.88867h-1.00879v-4.88867h-.56055v-.9248h.56055v-2.53516c0-.53223,.04199-1.2041,.56055-1.63867,.28027-.23828,.7002-.37793,1.16211-.37793,.36426,0,.60254,.08398,.71484,.12598v.98047c-.20996-.08398-.44824-.12598-.6582-.12598-.22461,0-.49023,.05566-.64453,.30762-.12598,.20996-.12598,.53223-.12598,.84082v2.42285h1.42871v.9248h-1.42871Z" fill="#fff"/>
    <path d="M400.23828,110.161v4.88867h-1.00879v-4.88867h-.61621v-.9248h.61621v-2.10059h1.00879v2.10059h1.00879v.9248h-1.00879Z" fill="#fff"/>
    <path d="M402.19727,104.83776h1.00879v5.07129c.18262-.23828,.7002-.8125,1.66699-.8125,.68652,0,1.31641,.28027,1.66699,.79883,.29395,.43359,.33594,.91016,.33594,1.55469v3.59961h-1.00879v-3.57227c0-.34961-.02734-.75586-.26562-1.06445-.19629-.25195-.50391-.41992-.95215-.41992-.35059,0-.72852,.09766-1.02344,.44824-.3916,.46191-.41992,1.14844-.41992,1.56836v3.04004h-1.00879v-10.21191Z" fill="#fff"/>
    <path d="M413.79297,113.5653c-.16797,.32129-.41992,.67188-.71484,.93848-.53223,.47559-1.19043,.71387-1.93262,.71387-1.40039,0-2.87207-.88281-2.87207-3.03906,0-1.7373,1.06543-3.08203,2.81641-3.08203,1.13379,0,1.84863,.56055,2.19824,1.06445,.36426,.51855,.5752,1.41504,.54688,2.18555h-4.52441c.01367,1.2041,.84082,1.97461,1.84863,1.97461,.47656,0,.85449-.13965,1.19043-.41992,.2666-.22461,.47656-.51855,.60254-.79883l.84082,.46289Zm-.99512-2.05957c-.16797-.91016-.85352-1.5127-1.70801-1.5127s-1.55566,.64453-1.70898,1.5127h3.41699Z" fill="#fff"/>
    <path d="M299.23047,127.66197c-.53223-.67188-1.30273-.86816-1.82129-.86816-1.07812,0-2.05859,.75586-2.05859,2.1709s1.00879,2.15723,2.04492,2.15723c.60254,0,1.34473-.26562,1.87695-.91016v1.2041c-.62988,.46289-1.30273,.60254-1.84863,.60254-1.80762,0-3.11035-1.28906-3.11035-3.03906,0-1.7793,1.31738-3.08203,3.11035-3.08203,.92383,0,1.52637,.36426,1.80664,.56055v1.2041Z" fill="#fff"/>
    <path d="M301.81836,129.4276c0,.40527,0,.88184,.28027,1.24609,.1543,.19629,.46191,.44824,1.02246,.44824s.86816-.25195,1.02246-.44824c.28027-.36426,.28027-.84082,.28027-1.24609v-3.39062h1.00879v3.50195c0,.71484-.07031,1.24707-.53223,1.75098-.51855,.54688-1.20508,.72852-1.7793,.72852s-1.26074-.18164-1.7793-.72852c-.46191-.50391-.53223-1.03613-.53223-1.75098v-3.50195h1.00879v3.39062Z" fill="#fff"/>
    <path d="M307.33301,126.03697h1.00879v.63086c.09863-.1543,.53223-.77051,1.31641-.77051,.30859,0,.64453,.1123,.89648,.23828l-.47559,.91016c-.22461-.1543-.43457-.19629-.58887-.19629-.40625,0-.6582,.16797-.8125,.36426-.16797,.22461-.33594,.61621-.33594,1.56934v3.06738h-1.00879v-5.81348Z" fill="#fff"/>
    <path d="M311.47656,126.03697h1.00879v.63086c.09863-.1543,.53223-.77051,1.31641-.77051,.30859,0,.64453,.1123,.89648,.23828l-.47559,.91016c-.22461-.1543-.43457-.19629-.58887-.19629-.40625,0-.6582,.16797-.8125,.36426-.16797,.22461-.33594,.61621-.33594,1.56934v3.06738h-1.00879v-5.81348Z" fill="#fff"/>
    <path d="M320.43945,130.36608c-.16797,.32129-.41992,.67188-.71484,.93848-.53223,.47559-1.19043,.71387-1.93262,.71387-1.40039,0-2.87207-.88281-2.87207-3.03906,0-1.7373,1.06543-3.08203,2.81641-3.08203,1.13379,0,1.84863,.56055,2.19824,1.06445,.36426,.51855,.5752,1.41504,.54688,2.18555h-4.52441c.01367,1.2041,.84082,1.97461,1.84863,1.97461,.47656,0,.85449-.13965,1.19043-.41992,.2666-.22461,.47656-.51855,.60254-.79883l.84082,.46289Zm-.99512-2.05957c-.16797-.91016-.85352-1.5127-1.70801-1.5127s-1.55566,.64453-1.70898,1.5127h3.41699Z" fill="#fff"/>
    <path d="M322.01758,126.03697h1.00879v.67285c.18262-.23828,.7002-.8125,1.66699-.8125,.68652,0,1.31641,.28027,1.66699,.79883,.29395,.43359,.33594,.91016,.33594,1.55469v3.59961h-1.00879v-3.57227c0-.34961-.02734-.75586-.26562-1.06445-.19629-.25195-.50391-.41992-.95215-.41992-.35059,0-.72852,.09766-1.02344,.44824-.3916,.46191-.41992,1.14844-.41992,1.56836v3.04004h-1.00879v-5.81348Z" fill="#fff"/>
    <path d="M329.63477,126.96178v4.88867h-1.00879v-4.88867h-.61621v-.9248h.61621v-2.10059h1.00879v2.10059h1.00879v.9248h-1.00879Z" fill="#fff"/>
    <path d="M336.69043,131.30455l-2.6748-5.26758h1.14844l2.05859,4.16016,1.8916-4.16016h1.12012l-4.27148,9.03516h-1.12109l1.84863-3.76758Z" fill="#fff"/>
    <path d="M346.4502,130.36608c-.16797,.32129-.41992,.67188-.71484,.93848-.53223,.47559-1.19043,.71387-1.93262,.71387-1.40039,0-2.87207-.88281-2.87207-3.03906,0-1.7373,1.06543-3.08203,2.81641-3.08203,1.13379,0,1.84863,.56055,2.19922,1.06445,.36328,.51855,.57422,1.41504,.5459,2.18555h-4.52441c.01367,1.2041,.83984,1.97461,1.84863,1.97461,.47656,0,.85449-.13965,1.19043-.41992,.2666-.22461,.47656-.51855,.60254-.79883l.84082,.46289Zm-.99512-2.05957c-.16797-.91016-.85449-1.5127-1.70801-1.5127-.85449,0-1.55566,.64453-1.70898,1.5127h3.41699Z" fill="#fff"/>
    <path d="M352.4834,126.03697h1.00781v5.81348h-1.00781v-.8125c-.33691,.43457-.9668,.98047-1.98926,.98047-1.4707,0-2.83008-1.03613-2.83008-3.08203,0-2.00293,1.34473-3.03906,2.83008-3.03906,1.12012,0,1.72266,.61621,1.98926,.9668v-.82715Zm-3.78223,2.89941c0,1.24707,.7002,2.18555,1.90527,2.18555,1.23242,0,1.93262-1.02246,1.93262-2.1709,0-1.49902-1.03613-2.15723-1.93262-2.15723-.99512,0-1.90527,.72852-1.90527,2.14258Z" fill="#fff"/>
    <path d="M355.39258,126.03697h1.00879v.63086c.09863-.1543,.53223-.77051,1.31641-.77051,.30859,0,.64453,.1123,.89648,.23828l-.47559,.91016c-.22461-.1543-.43457-.19629-.58887-.19629-.40625,0-.6582,.16797-.8125,.36426-.16797,.22461-.33594,.61621-.33594,1.56934v3.06738h-1.00879v-5.81348Z" fill="#fff"/>
    <path d="M367.25293,126.03697h1.00781v5.81348h-1.00781v-.8125c-.33691,.43457-.9668,.98047-1.98926,.98047-1.4707,0-2.83008-1.03613-2.83008-3.08203,0-2.00293,1.34473-3.03906,2.83008-3.03906,1.12012,0,1.72266,.61621,1.98926,.9668v-.82715Zm-3.78223,2.89941c0,1.24707,.7002,2.18555,1.90527,2.18555,1.23242,0,1.93262-1.02246,1.93262-2.1709,0-1.49902-1.03613-2.15723-1.93262-2.15723-.99512,0-1.90527,.72852-1.90527,2.14258Z" fill="#fff"/>
    <path d="M370.16211,126.03697h1.00879v.63086c.09863-.1543,.53223-.77051,1.31641-.77051,.30859,0,.64453,.1123,.89648,.23828l-.47559,.91016c-.22461-.1543-.43457-.19629-.58887-.19629-.40625,0-.6582,.16797-.8125,.36426-.16797,.22461-.33594,.61621-.33594,1.56934v3.06738h-1.00879v-5.81348Z" fill="#fff"/>
    <path d="M379.125,130.36608c-.16797,.32129-.41992,.67188-.71484,.93848-.53223,.47559-1.19043,.71387-1.93262,.71387-1.40039,0-2.87207-.88281-2.87207-3.03906,0-1.7373,1.06543-3.08203,2.81641-3.08203,1.13379,0,1.84863,.56055,2.19824,1.06445,.36426,.51855,.5752,1.41504,.54688,2.18555h-4.52441c.01367,1.2041,.84082,1.97461,1.84863,1.97461,.47656,0,.85449-.13965,1.19043-.41992,.2666-.22461,.47656-.51855,.60254-.79883l.84082,.46289Zm-.99512-2.05957c-.16797-.91016-.85352-1.5127-1.70801-1.5127s-1.55566,.64453-1.70898,1.5127h3.41699Z" fill="#fff"/>
    <path d="M389.12012,130.36608c-.16797,.32129-.41992,.67188-.71484,.93848-.53223,.47559-1.19043,.71387-1.93262,.71387-1.40039,0-2.87207-.88281-2.87207-3.03906,0-1.7373,1.06543-3.08203,2.81641-3.08203,1.13379,0,1.84863,.56055,2.19922,1.06445,.36328,.51855,.57422,1.41504,.5459,2.18555h-4.52441c.01367,1.2041,.83984,1.97461,1.84863,1.97461,.47656,0,.85449-.13965,1.19043-.41992,.2666-.22461,.47656-.51855,.60254-.79883l.84082,.46289Zm-.99512-2.05957c-.16797-.91016-.85449-1.5127-1.70801-1.5127-.85449,0-1.55566,.64453-1.70898,1.5127h3.41699Z" fill="#fff"/>
    <path d="M391.70703,121.63854v10.21191h-1.00879v-10.21191h1.00879Z" fill="#fff"/>
    <path d="M394.11523,123.12389c.3916,0,.71387,.32227,.71387,.71387,0,.39258-.32227,.71484-.71387,.71484-.39258,0-.71484-.32227-.71484-.71484,0-.3916,.32227-.71387,.71484-.71387Zm.50391,2.91309v5.81348h-1.00879v-5.81348h1.00879Z" fill="#fff"/>
    <path d="M400.97754,126.03697h1.00781v5.67383c0,.62988,0,1.52637-.55957,2.2832-.43457,.58789-1.2334,1.07812-2.3252,1.07812-.99512,0-1.68164-.39258-2.07324-.78418-.39258-.39258-.75684-1.02246-.75684-1.87695h.99512c0,.49023,.19531,.92383,.44824,1.2041,.41992,.46289,.95215,.56055,1.40039,.56055,.71484,0,1.20508-.25195,1.54102-.8125,.29395-.47656,.32227-.99414,.32227-1.48438v-.84082c-.33691,.43457-.9668,.98047-1.98926,.98047-.85449,0-1.54102-.33594-1.98926-.78418-.39258-.39258-.84082-1.12109-.84082-2.29785,0-1.13379,.4209-1.83496,.84082-2.25488,.49023-.47656,1.20508-.78418,1.98926-.78418,.85449,0,1.52637,.36426,1.98926,.9668v-.82715Zm-3.19434,1.30273c-.49023,.50488-.58789,1.12109-.58789,1.59668,0,.50488,.09766,1.19141,.6582,1.70898,.32227,.29492,.71484,.47656,1.24707,.47656s.95215-.16797,1.27441-.49023c.39258-.37793,.6582-.99414,.6582-1.68066s-.25195-1.28906-.61621-1.63867c-.32227-.32227-.79883-.51855-1.31641-.51855-.61719,0-1.03711,.26562-1.31738,.5459Z" fill="#fff"/>
    <path d="M404.3916,123.12389c.3916,0,.71387,.32227,.71387,.71387,0,.39258-.32227,.71484-.71387,.71484-.39258,0-.71484-.32227-.71484-.71484,0-.3916,.32227-.71387,.71484-.71387Zm.50391,2.91309v5.81348h-1.00879v-5.81348h1.00879Z" fill="#fff"/>
    <path d="M407.80762,131.85045h-1.00879v-10.21191h1.00879v5.21094c.68652-.85449,1.56934-.95215,1.98926-.95215,1.82129,0,2.8291,1.5127,2.8291,3.08203,0,1.59668-1.02246,3.03906-2.78711,3.03906-.93848,0-1.59668-.41992-2.03125-.98047v.8125Zm3.78223-2.87109c0-1.42969-.9668-2.18555-1.90527-2.18555s-1.93262,.77051-1.93262,2.1709c0,1.19043,.75586,2.15723,1.94727,2.15723,1.17578,0,1.89062-.98047,1.89062-2.14258Z" fill="#fff"/>
    <path d="M415.17188,121.63854v10.21191h-1.00879v-10.21191h1.00879Z" fill="#fff"/>
    <path d="M422.23047,130.36608c-.16797,.32129-.41992,.67188-.71484,.93848-.53223,.47559-1.19043,.71387-1.93262,.71387-1.40039,0-2.87207-.88281-2.87207-3.03906,0-1.7373,1.06543-3.08203,2.81641-3.08203,1.13379,0,1.84863,.56055,2.19824,1.06445,.36426,.51855,.5752,1.41504,.54688,2.18555h-4.52441c.01367,1.2041,.84082,1.97461,1.84863,1.97461,.47656,0,.85449-.13965,1.19043-.41992,.2666-.22461,.47656-.51855,.60254-.79883l.84082,.46289Zm-.99512-2.05957c-.16797-.91016-.85352-1.5127-1.70801-1.5127s-1.55566,.64453-1.70898,1.5127h3.41699Z" fill="#fff"/>
    <path d="M424.45312,130.58971c.37793,0,.7002,.32227,.7002,.7002,0,.37891-.32227,.7002-.7002,.7002s-.7002-.32129-.7002-.7002c0-.37793,.32227-.7002,.7002-.7002Z" fill="#fff"/>
  </g>
  <g>
    <line x1="361.45795" y1="434.22692" x2="361.45795" y2="604.29528" fill="none" stroke="#231f20" stroke-miterlimit="10" stroke-width="2"/>
    <polygon points="351.48529 601.37718 361.45795 618.64769 371.4306 601.37718 351.48529 601.37718" fill="#231f20"/>
  </g>
  <circle cx="361.06055" cy="392.53367" r="90" fill="#4a5977"/>
  <g>
    <path d="M316.30908,494.24498h.01459c0,6.76245,.00061,13.52478-.00098,20.28723-.00012,.58008,.01917,1.15906,.12354,1.72986,.66248,3.62244,3.73407,6.16394,7.46722,6.16431,19.98859,.00171,39.97711-.0011,59.9657-.00171,4.78235-.00012,9.5647,.0033,14.34705,.00208,1.39246-.00037,2.70947-.3147,3.89734-1.05212,2.51819-1.56311,3.67798-3.85999,3.67603-6.8042-.00891-13.45007-.00391-26.90015-.00354-40.35022,0-.2428-.01282-.48706,.00903-.72803,.05835-.64294-.19897-1.09265-.73499-1.45544-5.521-3.73682-11.03198-7.4884-16.55286-11.22546-.28174-.19067-.38342-.39062-.38171-.72656,.01331-2.63391,.00824-5.26794,.0069-7.90198-.00055-1.16406-.4162-1.57605-1.59198-1.57629-4.16583-.00122-8.33173-.00403-12.4975,.00525-.37286,.00085-.67639-.09412-.98547-.30505-3.99463-2.72705-7.99634-5.4436-11.99792-8.16052-.82928-.56299-1.15839-.55762-1.97314,.02136-3.745,2.66089-7.49371,5.31677-11.22687,7.99426-.45013,.32288-.89136,.45728-1.44177,.45435-3.60529-.01965-7.21075-.01062-10.81616-.00989-1.24744,.00037-1.62671,.38513-1.62701,1.64844-.00067,2.39124-.0094,4.78235,.00854,7.17334,.00311,.4126-.10339,.67126-.45728,.92114-5.53735,3.91064-11.06122,7.84033-16.59259,11.75952-.43677,.30945-.63544,.70886-.63531,1.23315,.00171,6.96777,.00116,13.93542,.00116,20.9032Z" fill="#f6f6f6"/>
    <path d="M361.0683,453.04821c-8.0144,0-16.02875,.00513-24.04309-.01221-.49695-.0011-.61243,.12439-.61163,.61426,.01562,9.26587,.0144,18.53174,.00201,27.79761-.00061,.41418,.1366,.62329,.49554,.81641,8.20428,4.41406,16.40314,8.83838,24.59589,13.2738,.37231,.20154,.64282,.20789,1.01666-.00378,7.53802-4.26965,15.08313-8.52698,22.63354-12.77466,.38184-.21484,.55286-.43701,.55206-.90332-.01611-9.39673-.01715-18.79333,.0011-28.18994,.0011-.5354-.16595-.62927-.65515-.62842-7.99567,.01453-15.99133,.01025-23.98694,.01025Z" fill="#314e5a"/>
    <path d="M321.33551,519.27672c.51196,.31763,1.00354,.48926,1.51953,.57617,1.29797,.21851,2.60992,.11267,3.91388,.1134,21.52191,.0127,43.04382,.00964,64.56573,.0083,2.29779-.00012,4.59564-.01331,6.89337-.01489,.75903-.00049,1.48206-.15369,2.17224-.46521q.60681-.27393,.12683-.70117c-3.05103-2.724-6.099-5.45142-9.15289-8.17212-6.41565-5.71545-12.83594-11.42566-19.24652-17.14673-.29797-.26599-.50946-.29492-.8678-.08984-2.7876,1.59546-5.59497,3.15625-8.38458,4.74817-.58209,.33215-1.09222,.32898-1.68054,.00793-3.19611-1.74451-6.40833-3.45923-9.60626-5.20044-.32617-.17761-.52686-.19336-.81805,.07971-.91254,.85583-1.86218,1.67212-2.79706,2.50415-6.75299,6.01062-13.50757,12.01953-20.25793,18.0332-2.1189,1.88757-4.22638,3.78809-6.37994,5.71936Z" fill="#314e5a"/>
    <path d="M318.78778,495.41954c0,6.3877,.00024,12.77527-.00024,19.16296-.00012,.84863,.12415,1.66943,.46362,2.4574,.1731,.40186,.3028,.49927,.6825,.1571,2.12207-1.91211,4.27222-3.79309,6.40631-5.69202,7.36603-6.55432,14.72772-13.11353,22.09918-19.66174,.34204-.30383,.33148-.4259-.07336-.64355-9.66821-5.19775-19.33057-10.40649-28.9942-15.61267-.58099-.31311-.58356-.3114-.58362,.3335-.00037,6.49963-.00024,12.99939-.00018,19.49902Z" fill="#314e5a"/>
    <path d="M403.33594,475.35021c-.25317,.12781-.42004,.2041-.57935,.2937-3.69458,2.0769-7.38977,4.15259-11.08179,6.23401-5.4978,3.09937-10.99237,6.20435-16.4903,9.30347-1.21545,.68518-1.21558,.67444-.17175,1.60217,6.86804,6.10425,13.73431,12.21045,20.60126,18.3158,2.34412,2.08411,4.68848,4.16785,7.05896,6.27502,.5564-.9198,.66235-1.91003,.66248-2.92322,.00085-12.81458,.00049-25.62915,.00049-38.4436v-.65735Z" fill="#314e5a"/>
    <path d="M319.95544,473.0316c4.70306,2.53735,9.32349,5.03015,13.98444,7.5448v-17.50366c-4.67377,3.32837-9.28851,6.61475-13.98444,9.95886Z" fill="#314e5a"/>
    <path d="M402.1604,473.07921c-4.69592-3.20044-9.29919-6.33777-13.96692-9.51904v17.40332c4.65491-2.62769,9.24561-5.21912,13.96692-7.88428Z" fill="#314e5a"/>
    <path d="M351.58362,450.536h17.35541l-.10791-.13232c-2.79108-1.89941-5.58685-3.79211-8.36957-5.70374-.29749-.20435-.48621-.14075-.73853,.04041-1.54547,1.10974-3.09888,2.2085-4.64929,3.31128-1.1347,.80713-2.26886,1.61499-3.49011,2.48438Z" fill="#314e5a"/>
    <path d="M316.30908,494.24498c0-6.96777,.00055-13.93542-.00116-20.9032-.00012-.52429,.19855-.92371,.63531-1.23315,5.53137-3.91919,11.05524-7.84888,16.59259-11.75952,.35388-.24988,.46039-.50854,.45728-.92114-.01794-2.39099-.00922-4.7821-.00854-7.17334,.00031-1.26331,.37958-1.64807,1.62701-1.64844,3.60541-.00073,7.21088-.00977,10.81616,.00989,.55042,.00293,.99164-.13147,1.44177-.45435,3.73315-2.67749,7.48187-5.33337,11.22687-7.99426,.81476-.57898,1.14386-.58435,1.97314-.02136,4.00159,2.71692,8.0033,5.43347,11.99792,8.16052,.30908,.21094,.61261,.30591,.98547,.30505,4.16577-.00928,8.33167-.00647,12.4975-.00525,1.17578,.00024,1.59143,.41223,1.59198,1.57629,.00134,2.63403,.00641,5.26807-.0069,7.90198-.00171,.33594,.09998,.53589,.38171,.72656,5.52087,3.73706,11.03186,7.48865,16.55286,11.22546,.53601,.36279,.79333,.8125,.73499,1.45544-.02185,.24097-.00903,.48523-.00903,.72803-.00037,13.45007-.00537,26.90015,.00354,40.35022,.00195,2.94421-1.15784,5.24109-3.67603,6.8042-1.18787,.73743-2.50488,1.05176-3.89734,1.05212-4.78235,.00122-9.5647-.0022-14.34705-.00208-19.98859,.00061-39.97711,.00342-59.9657,.00171-3.73315-.00037-6.80475-2.54187-7.46722-6.16431-.10437-.5708-.12366-1.14978-.12354-1.72986,.00159-6.76245,.00098-13.52478,.00098-20.28723h-.01459Z" fill="#fff" stroke="#231f20" stroke-miterlimit="10" stroke-width=".5"/>
    <ellipse cx="361.04718" cy="480.41857" rx="19.69775" ry="19.91565" fill="#e6e7e8"/>
    <path d="M380.74493,480.41857h-1.5c-.00067,5.09485-2.03888,9.69214-5.33588,13.02759-3.29974,3.3335-7.83685,5.38708-12.86188,5.38806-5.02509-.00098-9.56226-2.05457-12.862-5.38806-3.297-3.33545-5.33514-7.93274-5.33582-13.02759,.00067-5.09485,2.03882-9.69214,5.33582-13.02771,3.29974-3.3335,7.83685-5.38708,12.862-5.38806,5.02502,.00098,9.56213,2.05457,12.86188,5.38806,3.297,3.33557,5.33521,7.93274,5.33588,13.02771h2.99994c.00067-5.9043-2.37067-11.26477-6.20282-15.13733-3.82947-3.87463-9.14124-6.2793-14.99487-6.27832-5.85376-.00098-11.16547,2.40369-14.99493,6.27832-3.83221,3.87256-6.20349,9.23303-6.20282,15.13733-.00067,5.90417,2.37061,11.26477,6.20282,15.13721,3.82947,3.87463,9.14117,6.2793,14.99493,6.27832,5.85364,.00098,11.16541-2.40369,14.99487-6.27832,3.83215-3.87244,6.20343-9.23303,6.20282-15.13721h-1.49994Z" fill="#231f20"/>
    <polygon points="388.62024 509.79979 335.64478 509.79979 335.64478 482.10717 361.94415 496.63426 388.62024 480.76171 388.62024 509.79979" fill="#fff"/>
    <path d="M319.95544,473.0316c4.69592-3.34412,9.31067-6.63049,13.98444-9.95886v17.50366c-4.66095-2.51465-9.28137-5.00745-13.98444-7.5448Z" fill="#6d6e71"/>
    <path d="M402.1604,473.07921c-4.72131,2.66516-9.31201,5.25659-13.96692,7.88428v-17.40332c4.66772,3.18127,9.271,6.3186,13.96692,9.51904Z" fill="#6d6e71"/>
    <path d="M351.58362,450.536c1.22125-.86938,2.35541-1.67725,3.49011-2.48438,1.55042-1.10278,3.10382-2.20154,4.64929-3.31128,.25232-.18115,.44104-.24475,.73853-.04041,2.78271,1.91162,5.57849,3.80432,8.36957,5.70374l.10791,.13232h-17.35541Z" fill="#6d6e71"/>
    <path d="M368.63556,480.41857c0,4.19092-3.3974,7.58838-7.58838,7.58838s-7.58844-3.39746-7.58844-7.58838,3.39746-7.58826,7.58844-7.58826,7.58838,3.39734,7.58838,7.58826Z" fill="#939598"/>
    <circle cx="361.04718" cy="480.41857" r="3.552" fill="#f6f6f6"/>
  </g>
  <g>
    <path d="M399.40288,192.45987c-.04695,11.51997-3.20592,19.63475-9.12681,26.73528-1.19674,1.43517-1.09876,.91896-.19033,2.48351,1.69374,2.91703,3.32266,5.85819,4.31315,9.10525,.32176,1.05481,.55366,2.12375,.45282,3.23761-.14502,1.60185-1.18629,2.57563-2.7942,2.53149-2.04158-.05605-3.78039-1.0046-5.47397-2.01359-2.7302-1.62658-5.24838-3.56465-7.80604-5.44141-.48571-.3564-.85775-.41549-1.43184-.16507-10.47885,4.57095-20.97735,4.69716-31.45663,.01332-.71484-.31951-1.16173-.20542-1.72419,.21543-3.05914,2.28892-6.10602,4.60108-9.52451,6.34963-.95103,.48646-1.93952,.90068-3.01388,1.03218-2.13951,.26186-3.4197-.82788-3.44266-2.98461-.01859-1.74659,.53615-3.37978,1.20781-4.96068,1.07808-2.53751,2.33747-4.99052,3.86691-7.28432,.49496-.74231,.39753-1.21884-.13419-1.82384-2.12179-2.41427-3.92541-5.04928-5.36596-7.92661-3.25115-6.49379-4.62225-13.36022-3.87352-20.58888,1.13599-10.96752,6.10162-19.8604,14.81342-26.61039,5.29083-4.09938,11.31785-6.50742,17.95557-7.35182,7.0195-.89297,13.80539-.00056,20.2636,2.92482,8.76962,3.97239,15.17779,10.35609,19.17633,19.12785,2.26101,4.96006,3.42668,10.1549,3.30911,13.39486Zm-37.8908-29.2371c-15.56684-.52164-30.96605,12.68562-31.37587,30.49371-.40777,17.71931,13.74974,32.23007,31.41322,32.2442,18.01222,.0144,31.12251-15.01868,31.42513-30.84176,.33033-17.2722-14.32001-32.3849-31.46248-31.89615Z" fill="#fff" stroke="#231f20" stroke-miterlimit="10" stroke-width=".75"/>
    <path d="M387.03071,150.26132c1.48034-.06728,2.82152,.88275,4.14599,1.99987,2.87633,2.42599,5.67648,4.93303,8.45565,7.46902,1.89989,1.73365,2.79111,5.13463,.53491,7.81235-1.13907,1.35189-2.33109,2.65918-3.46871,4.01224-.44737,.53209-.5829,.09675-.76008-.18838-2.15291-3.4647-4.87365-6.44038-7.90282-9.14402-2.50307-2.23407-5.18591-4.21872-8.253-5.62429-.69567-.31881-.71392-.62133-.21689-1.14864,1.2901-1.36867,2.49828-2.81622,3.94614-4.03042,.91841-.77019,1.97031-1.17092,3.51881-1.15773Z" fill="#fff" stroke="#231f20" stroke-miterlimit="10" stroke-width=".75"/>
    <path d="M334.90192,150.25389c1.9105-.00583,3.21639,.55545,4.2835,1.66314,1.1497,1.19341,2.27612,2.4095,3.43799,3.59081,.4873,.49544,.35055,.75927-.2099,1.03429-2.55761,1.25509-4.96143,2.76588-7.13025,4.61043-3.45927,2.94205-6.55035,6.23142-8.98638,10.08592-.42768,.67672-.64297,.61469-1.09779,.06074-1.26077-1.53556-2.72524-2.90236-3.78402-4.60577-1.31752-2.11967-.97177-4.92909,.81784-6.64032,3.08623-2.95106,6.27859-5.78246,9.55301-8.52282,1.01455-.84907,2.17939-1.24134,3.116-1.27642Z" fill="#fff" stroke="#231f20" stroke-miterlimit="10" stroke-width=".75"/>
    <path d="M361.51208,163.22277c17.14248-.48874,31.79281,14.62395,31.46248,31.89615-.30262,15.82308-13.4129,30.85616-31.42513,30.84176-17.66349-.01413-31.82099-14.52489-31.41322-32.2442,.40981-17.80809,15.80902-31.01535,31.37587-30.49371Zm1.55175,17.68831h.00306c0-3.09529,.00032-6.19058-.00043-9.28587-.00009-.35996,.04421-.70746-.28901-1.00257-.54188-.4799-1.09725-.76901-1.83374-.49409-.71946,.26857-.69431,.88669-.69729,1.47504-.03095,6.10558-.06162,12.21119-.06757,18.31682-.00062,.64002-.13743,1.05971-.72145,1.44412-1.74842,1.15084-2.2407,3.3156-1.23576,5.02975,1.08143,1.84462,3.22125,2.54383,5.09106,1.51705,.91433-.5021,1.83467-.63625,2.81761-.65921,1.09681-.02563,2.19394-.03868,3.29097-.05387,3.68466-.05101,7.37133,.04402,11.05406-.16081,.4968-.02763,.92496-.15242,1.3095-.48682,.87938-.76475,1.16534-1.70641,.81198-2.80302-.3479-1.07965-1.13571-1.67828-2.31845-1.75319-4.18731-.26522-8.38244-.11472-12.57238-.23601-1.12405-.03253-2.25367-.04814-3.36834-.17795-1.04065-.12119-1.27353-.4628-1.27367-1.46788-.00042-3.06717-.00015-6.13434-.00015-9.20151Z" fill="#e6e7e8"/>
    <path d="M363.06383,180.91108c0,3.06717-.00027,6.13434,.00015,9.20151,.00013,1.00508,.23302,1.34669,1.27367,1.46788,1.11467,.12981,2.24429,.14542,3.36834,.17795,4.18994,.12129,8.38507-.02921,12.57238,.23601,1.18274,.07491,1.97056,.67354,2.31845,1.75319,.35335,1.09661,.0674,2.03826-.81198,2.80302-.38454,.33441-.81269,.45919-1.3095,.48682-3.68273,.20483-7.3694,.1098-11.05406,.16081-1.09703,.01518-2.19416,.02824-3.29097,.05387-.98294,.02296-1.90328,.1571-2.81761,.65921-1.86981,1.02677-4.00963,.32757-5.09106-1.51705-1.00493-1.71415-.51265-3.87891,1.23576-5.02975,.58402-.38441,.72083-.8041,.72145-1.44412,.00595-6.10563,.03662-12.21124,.06757-18.31682,.00298-.58835-.02217-1.20646,.69729-1.47504,.73648-.27492,1.29186,.01419,1.83374,.49409,.33322,.2951,.28892,.64261,.28901,1.00257,.00075,3.09529,.00043,6.19058,.00043,9.28587h-.00306Z" fill="#050505"/>
  </g>
  <g>
    <path d="M302.75488,355.11119c-.12598-.25195-.33594-.53223-.5459-.7002-.18262-.14062-.51855-.32227-1.05078-.32227-.9248,0-1.56934,.57422-1.56934,1.44238,0,.36426,.09863,.5752,.35059,.8125,.28027,.28027,.62988,.43457,.98047,.58887l.89648,.3916c.5459,.23828,1.05078,.49023,1.44238,.88281,.47656,.47656,.67285,1.02246,.67285,1.69531,0,1.72266-1.27441,2.87109-2.95605,2.87109-.61621,0-1.38672-.12598-2.03125-.75586-.46191-.44824-.74219-1.09277-.86816-1.65332l1.00879-.28027c.07031,.49023,.29395,.91016,.56055,1.19043,.40625,.40625,.86816,.51855,1.34473,.51855,1.27441,0,1.87695-.91016,1.87695-1.84863,0-.4209-.12598-.78516-.46289-1.09277-.26562-.25195-.62988-.41992-1.12012-.64453l-.84082-.39258c-.36426-.16797-.82617-.36426-1.24609-.76953-.40625-.39258-.64453-.82715-.64453-1.52734,0-1.44238,1.10645-2.40918,2.61914-2.40918,.57422,0,1.03711,.1123,1.49902,.41992,.37793,.25195,.7002,.63086,.91016,1.03711l-.82617,.5459Z" fill="#fff"/>
    <path d="M306.58887,360.18248c0,.40625,0,.88184,.28027,1.24609,.1543,.19629,.46191,.44824,1.02246,.44824s.86816-.25195,1.02246-.44824c.28027-.36426,.28027-.83984,.28027-1.24609v-3.39062h1.00879v3.50195c0,.71484-.07031,1.24707-.53223,1.75098-.51855,.54688-1.20508,.72852-1.7793,.72852s-1.26074-.18164-1.7793-.72852c-.46191-.50391-.53223-1.03613-.53223-1.75098v-3.50195h1.00879v3.39062Z" fill="#fff"/>
    <path d="M313.1123,362.60533h-1.00879v-10.21191h1.00879v5.21094c.68652-.85449,1.56934-.95215,1.98926-.95215,1.82129,0,2.8291,1.5127,2.8291,3.08203,0,1.59668-1.02246,3.03906-2.78711,3.03906-.93848,0-1.59668-.41992-2.03125-.98047v.8125Zm3.78223-2.87109c0-1.42969-.9668-2.18555-1.90527-2.18555s-1.93262,.77051-1.93262,2.1709c0,1.19043,.75586,2.15723,1.94727,2.15723,1.17578,0,1.89062-.98047,1.89062-2.14258Z" fill="#fff"/>
    <path d="M319.46777,356.79186h1.00879v.61621c.32227-.47559,.82617-.75586,1.44336-.75586,1.0498,0,1.4707,.74219,1.58203,.93848,.56055-.88281,1.35938-.93848,1.75098-.93848,1.72363,0,1.8916,1.44238,1.8916,2.26953v3.68359h-1.00879v-3.53027c0-.6582-.08398-1.52637-1.03613-1.52637-1.16309,0-1.28906,1.12012-1.28906,1.82129v3.23535h-1.00879v-3.44629c0-.40625,.01465-1.61035-1.05078-1.61035-1.14844,0-1.27441,1.19043-1.27441,1.89062v3.16602h-1.00879v-5.81348Z" fill="#fff"/>
    <path d="M329.5625,353.87877c.3916,0,.71387,.32227,.71387,.71387,0,.39258-.32227,.71484-.71387,.71484-.39258,0-.71484-.32227-.71484-.71484,0-.3916,.32227-.71387,.71484-.71387Zm.50391,2.91309v5.81348h-1.00879v-5.81348h1.00879Z" fill="#fff"/>
    <path d="M334.36523,358.13658c-.13965-.33594-.43457-.58789-.8125-.58789-.36426,0-.7002,.20996-.7002,.6582,0,.41992,.28027,.5459,.93848,.82617,.84082,.35059,1.23242,.61621,1.45703,.89648,.25195,.30859,.30762,.61621,.30762,.93848,0,1.21875-.88184,1.90527-2.00293,1.90527-.23828,0-1.54102-.02832-2.03125-1.48438l.86914-.36426c.11133,.30762,.44824,.95215,1.17676,.95215,.6582,0,.95215-.49023,.95215-.9248,0-.5459-.39258-.72754-.93848-.96582-.7002-.30859-1.14844-.53223-1.41504-.85449-.22363-.28027-.26562-.56055-.26562-.85449,0-1.02246,.71387-1.625,1.69434-1.625,.30859,0,1.13477,.05566,1.59668,1.05078l-.82617,.43359Z" fill="#fff"/>
    <path d="M339.29297,358.13658c-.13965-.33594-.43457-.58789-.8125-.58789-.36426,0-.7002,.20996-.7002,.6582,0,.41992,.28027,.5459,.93848,.82617,.84082,.35059,1.23242,.61621,1.45703,.89648,.25195,.30859,.30762,.61621,.30762,.93848,0,1.21875-.88184,1.90527-2.00293,1.90527-.23828,0-1.54102-.02832-2.03125-1.48438l.86914-.36426c.11133,.30762,.44824,.95215,1.17676,.95215,.6582,0,.95215-.49023,.95215-.9248,0-.5459-.39258-.72754-.93848-.96582-.7002-.30859-1.14844-.53223-1.41504-.85449-.22363-.28027-.26562-.56055-.26562-.85449,0-1.02246,.71387-1.625,1.69434-1.625,.30859,0,1.13477,.05566,1.59668,1.05078l-.82617,.43359Z" fill="#fff"/>
    <path d="M342.33008,353.87877c.3916,0,.71387,.32227,.71387,.71387,0,.39258-.32227,.71484-.71387,.71484-.39258,0-.71484-.32227-.71484-.71484,0-.3916,.32227-.71387,.71484-.71387Zm.50391,2.91309v5.81348h-1.00879v-5.81348h1.00879Z" fill="#fff"/>
    <path d="M344.37305,359.71959c0-1.76465,1.30273-3.06738,3.08203-3.06738s3.08203,1.30273,3.08203,3.06738c0,1.76562-1.31738,3.05371-3.08203,3.05371s-3.08203-1.28809-3.08203-3.05371Zm1.03711,0c0,1.42871,1.00879,2.15723,2.04492,2.15723,1.05078,0,2.04492-.74219,2.04492-2.15723,0-1.42871-.98047-2.1709-2.04492-2.1709s-2.04492,.75586-2.04492,2.1709Z" fill="#fff"/>
    <path d="M352.07324,356.79186h1.00879v.67285c.18262-.23828,.7002-.8125,1.66699-.8125,.68652,0,1.31641,.28027,1.66699,.79785,.29395,.43457,.33594,.91113,.33594,1.55566v3.59961h-1.00879v-3.57227c0-.34961-.02734-.75586-.26562-1.06445-.19629-.25195-.50391-.41992-.95215-.41992-.35059,0-.72852,.09766-1.02344,.44824-.3916,.46191-.41992,1.14844-.41992,1.56836v3.04004h-1.00879v-5.81348Z" fill="#fff"/>
    <path d="M361.04883,358.13658c-.13965-.33594-.43457-.58789-.8125-.58789-.36426,0-.7002,.20996-.7002,.6582,0,.41992,.28027,.5459,.93848,.82617,.84082,.35059,1.23242,.61621,1.45703,.89648,.25195,.30859,.30762,.61621,.30762,.93848,0,1.21875-.88184,1.90527-2.00293,1.90527-.23828,0-1.54102-.02832-2.03125-1.48438l.86914-.36426c.11133,.30762,.44824,.95215,1.17676,.95215,.6582,0,.95215-.49023,.95215-.9248,0-.5459-.39258-.72754-.93848-.96582-.7002-.30859-1.14844-.53223-1.41504-.85449-.22363-.28027-.26562-.56055-.26562-.85449,0-1.02246,.71387-1.625,1.69434-1.625,.30859,0,1.13477,.05566,1.59668,1.05078l-.82617,.43359Z" fill="#fff"/>
    <path d="M371.29785,356.79186h1.00781v5.81348h-1.00781v-.8125c-.33691,.43457-.9668,.98047-1.98926,.98047-1.4707,0-2.83008-1.03613-2.83008-3.08105,0-2.00391,1.34473-3.04004,2.83008-3.04004,1.12012,0,1.72266,.61621,1.98926,.9668v-.82715Zm-3.78223,2.90039c0,1.24609,.7002,2.18457,1.90527,2.18457,1.23242,0,1.93262-1.02246,1.93262-2.1709,0-1.49902-1.03613-2.15723-1.93262-2.15723-.99512,0-1.90527,.72852-1.90527,2.14355Z" fill="#fff"/>
    <path d="M374.20703,356.79186h1.00879v.63086c.09863-.1543,.53223-.77051,1.31641-.77051,.30859,0,.64453,.1123,.89648,.23828l-.47559,.91016c-.22461-.1543-.43457-.19629-.58887-.19629-.40625,0-.6582,.16797-.8125,.36426-.16797,.22461-.33594,.61621-.33594,1.56934v3.06738h-1.00879v-5.81348Z" fill="#fff"/>
    <path d="M383.16992,361.12096c-.16797,.32129-.41992,.67188-.71484,.93848-.53223,.47559-1.19043,.71387-1.93262,.71387-1.40039,0-2.87207-.88281-2.87207-3.03906,0-1.7373,1.06543-3.08203,2.81641-3.08203,1.13379,0,1.84863,.56055,2.19824,1.06445,.36426,.51855,.5752,1.41504,.54688,2.18555h-4.52441c.01367,1.2041,.84082,1.97461,1.84863,1.97461,.47656,0,.85449-.13965,1.19043-.41992,.2666-.22461,.47656-.51855,.60254-.79883l.84082,.46289Zm-.99512-2.05957c-.16797-.91016-.85352-1.5127-1.70801-1.5127s-1.55566,.64453-1.70898,1.5127h3.41699Z" fill="#fff"/>
    <path d="M388.00977,356.79186h1.00879v.61621c.32227-.47559,.82617-.75586,1.44336-.75586,1.0498,0,1.4707,.74219,1.58203,.93848,.56055-.88281,1.35938-.93848,1.75098-.93848,1.72363,0,1.8916,1.44238,1.8916,2.26953v3.68359h-1.00879v-3.53027c0-.6582-.08398-1.52637-1.03613-1.52637-1.16309,0-1.28906,1.12012-1.28906,1.82129v3.23535h-1.00879v-3.44629c0-.40625,.01465-1.61035-1.05078-1.61035-1.14844,0-1.27441,1.19043-1.27441,1.89062v3.16602h-1.00879v-5.81348Z" fill="#fff"/>
    <path d="M402.05469,356.79186h1.00781v5.81348h-1.00781v-.8125c-.33691,.43457-.9668,.98047-1.98926,.98047-1.4707,0-2.83008-1.03613-2.83008-3.08105,0-2.00391,1.34473-3.04004,2.83008-3.04004,1.12012,0,1.72266,.61621,1.98926,.9668v-.82715Zm-3.78223,2.90039c0,1.24609,.7002,2.18457,1.90527,2.18457,1.23242,0,1.93262-1.02246,1.93262-2.1709,0-1.49902-1.03613-2.15723-1.93262-2.15723-.99512,0-1.90527,.72852-1.90527,2.14355Z" fill="#fff"/>
    <path d="M409.41895,352.39342h1.00781v10.21191h-1.00781v-.8125c-.33691,.43457-.9668,.98047-1.98926,.98047-1.4707,0-2.83008-1.03613-2.83008-3.08105,0-2.00391,1.34473-3.04004,2.83008-3.04004,1.12012,0,1.72266,.61621,1.98926,.9668v-5.22559Zm-3.78223,7.29883c0,1.24609,.7002,2.18457,1.90527,2.18457,1.23242,0,1.93262-1.02246,1.93262-2.1709,0-1.49902-1.03613-2.15723-1.93262-2.15723-.99512,0-1.90527,.72852-1.90527,2.14355Z" fill="#fff"/>
    <path d="M417.4834,361.12096c-.16797,.32129-.41992,.67188-.71484,.93848-.53223,.47559-1.19043,.71387-1.93262,.71387-1.40039,0-2.87207-.88281-2.87207-3.03906,0-1.7373,1.06543-3.08203,2.81641-3.08203,1.13379,0,1.84863,.56055,2.19922,1.06445,.36328,.51855,.57422,1.41504,.5459,2.18555h-4.52441c.01367,1.2041,.83984,1.97461,1.84863,1.97461,.47656,0,.85449-.13965,1.19043-.41992,.2666-.22461,.47656-.51855,.60254-.79883l.84082,.46289Zm-.99512-2.05957c-.16797-.91016-.85449-1.5127-1.70801-1.5127-.85449,0-1.55566,.64453-1.70898,1.5127h3.41699Z" fill="#fff"/>
    <path d="M299.33691,379.40514h-1.00879v-10.21191h1.00879v5.21094c.68652-.85449,1.56934-.95215,1.98926-.95215,1.82129,0,2.8291,1.5127,2.8291,3.08203,0,1.59668-1.02246,3.03906-2.78711,3.03906-.93848,0-1.59668-.41992-2.03125-.98047v.8125Zm3.78223-2.87109c0-1.42969-.9668-2.18555-1.90527-2.18555s-1.93262,.77051-1.93262,2.1709c0,1.19043,.75586,2.15723,1.94727,2.15723,1.17578,0,1.89062-.98047,1.89062-2.14258Z" fill="#fff"/>
    <path d="M307.52734,378.85924l-2.6748-5.26758h1.14844l2.05859,4.16016,1.8916-4.16016h1.12012l-4.27148,9.03516h-1.12109l1.84863-3.76758Z" fill="#fff"/>
    <path d="M315.39355,373.59166h1.00879v.61621c.32227-.47559,.82617-.75586,1.44336-.75586,1.0498,0,1.4707,.74219,1.58203,.93848,.56055-.88281,1.35938-.93848,1.75098-.93848,1.72363,0,1.8916,1.44238,1.8916,2.26953v3.68359h-1.00879v-3.53027c0-.6582-.08398-1.52637-1.03613-1.52637-1.16309,0-1.28906,1.12012-1.28906,1.82129v3.23535h-1.00879v-3.44629c0-.40625,.01465-1.61035-1.05078-1.61035-1.14844,0-1.27441,1.19043-1.27441,1.89062v3.16602h-1.00879v-5.81348Z" fill="#fff"/>
    <path d="M330.13867,377.92076c-.16797,.32129-.41992,.67188-.71484,.93848-.53223,.47559-1.19043,.71387-1.93262,.71387-1.40039,0-2.87207-.88281-2.87207-3.03906,0-1.7373,1.06543-3.08203,2.81641-3.08203,1.13379,0,1.84863,.56055,2.19824,1.06445,.36426,.51855,.5752,1.41504,.54688,2.18555h-4.52441c.01367,1.2041,.84082,1.97461,1.84863,1.97461,.47656,0,.85449-.13965,1.19043-.41992,.2666-.22461,.47656-.51855,.60254-.79883l.84082,.46289Zm-.99512-2.05957c-.16797-.91016-.85352-1.5127-1.70801-1.5127s-1.55566,.64453-1.70898,1.5127h3.41699Z" fill="#fff"/>
    <path d="M331.7168,373.59166h1.00879v.61621c.32227-.47559,.82617-.75586,1.44336-.75586,1.0498,0,1.4707,.74219,1.58203,.93848,.56055-.88281,1.35938-.93848,1.75098-.93848,1.72363,0,1.8916,1.44238,1.8916,2.26953v3.68359h-1.00879v-3.53027c0-.6582-.08398-1.52637-1.03613-1.52637-1.16309,0-1.28906,1.12012-1.28906,1.82129v3.23535h-1.00879v-3.44629c0-.40625,.01465-1.61035-1.05078-1.61035-1.14844,0-1.27441,1.19043-1.27441,1.89062v3.16602h-1.00879v-5.81348Z" fill="#fff"/>
    <path d="M342.31543,379.40514h-1.00879v-10.21191h1.00879v5.21094c.68652-.85449,1.56934-.95215,1.98926-.95215,1.82129,0,2.8291,1.5127,2.8291,3.08203,0,1.59668-1.02246,3.03906-2.78711,3.03906-.93848,0-1.59668-.41992-2.03125-.98047v.8125Zm3.78223-2.87109c0-1.42969-.9668-2.18555-1.90527-2.18555s-1.93262,.77051-1.93262,2.1709c0,1.19043,.75586,2.15723,1.94727,2.15723,1.17578,0,1.89062-.98047,1.89062-2.14258Z" fill="#fff"/>
    <path d="M353.82617,377.92076c-.16797,.32129-.41992,.67188-.71484,.93848-.53223,.47559-1.19043,.71387-1.93262,.71387-1.40039,0-2.87207-.88281-2.87207-3.03906,0-1.7373,1.06543-3.08203,2.81641-3.08203,1.13379,0,1.84863,.56055,2.19824,1.06445,.36426,.51855,.5752,1.41504,.54688,2.18555h-4.52441c.01367,1.2041,.84082,1.97461,1.84863,1.97461,.47656,0,.85449-.13965,1.19043-.41992,.2666-.22461,.47656-.51855,.60254-.79883l.84082,.46289Zm-.99512-2.05957c-.16797-.91016-.85352-1.5127-1.70801-1.5127s-1.55566,.64453-1.70898,1.5127h3.41699Z" fill="#fff"/>
    <path d="M355.4043,373.59166h1.00879v.63086c.09863-.1543,.53223-.77051,1.31641-.77051,.30859,0,.64453,.1123,.89648,.23828l-.47559,.91016c-.22461-.1543-.43457-.19629-.58887-.19629-.40625,0-.6582,.16797-.8125,.36426-.16797,.22461-.33594,.61621-.33594,1.56934v3.06738h-1.00879v-5.81348Z" fill="#fff"/>
    <path d="M361.79004,374.93639c-.13965-.33594-.43359-.58789-.8125-.58789-.36426,0-.7002,.20996-.7002,.6582,0,.41992,.28027,.5459,.93848,.82617,.84082,.35059,1.23242,.61621,1.45703,.89648,.25195,.30859,.30762,.61621,.30762,.93848,0,1.21875-.88184,1.90527-2.00293,1.90527-.23828,0-1.54102-.02832-2.03125-1.48438l.86914-.36426c.11133,.30762,.44824,.95215,1.17676,.95215,.6582,0,.95215-.49023,.95215-.9248,0-.5459-.39258-.72754-.93848-.96582-.7002-.30859-1.14844-.53223-1.41504-.85449-.22363-.28027-.26562-.56055-.26562-.85449,0-1.02246,.71387-1.625,1.69434-1.625,.30859,0,1.13477,.05566,1.59668,1.05078l-.82617,.43359Z" fill="#fff"/>
    <path d="M367.21973,376.5194c0-1.76465,1.30273-3.06738,3.08203-3.06738s3.08203,1.30273,3.08203,3.06738-1.31738,3.05371-3.08203,3.05371-3.08203-1.28906-3.08203-3.05371Zm1.03711,0c0,1.42871,1.00879,2.15723,2.04492,2.15723,1.05078,0,2.04492-.74219,2.04492-2.15723,0-1.42871-.98047-2.1709-2.04492-2.1709s-2.04492,.75586-2.04492,2.1709Z" fill="#fff"/>
    <path d="M375.95703,374.51647v4.88867h-1.00879v-4.88867h-.56055v-.9248h.56055v-2.53516c0-.53223,.04199-1.2041,.56055-1.63867,.28027-.23828,.7002-.37793,1.16211-.37793,.36426,0,.60254,.08398,.71484,.12598v.98047c-.20996-.08398-.44824-.12598-.6582-.12598-.22461,0-.49023,.05566-.64453,.30762-.12598,.20996-.12598,.53223-.12598,.84082v2.42285h1.42871v.9248h-1.42871Z" fill="#fff"/>
    <path d="M382.57812,374.51647v4.88867h-1.00879v-4.88867h-.61621v-.9248h.61621v-2.10059h1.00879v2.10059h1.00879v.9248h-1.00879Z" fill="#fff"/>
    <path d="M384.53711,369.19322h1.00879v5.07129c.18262-.23828,.7002-.8125,1.66699-.8125,.68652,0,1.31641,.28027,1.66699,.79883,.29395,.43359,.33594,.91016,.33594,1.55469v3.59961h-1.00879v-3.57227c0-.34961-.02734-.75586-.26562-1.06445-.19629-.25195-.50391-.41992-.95215-.41992-.35059,0-.72852,.09766-1.02344,.44824-.3916,.46191-.41992,1.14844-.41992,1.56836v3.04004h-1.00879v-10.21191Z" fill="#fff"/>
    <path d="M396.13281,377.92076c-.16797,.32129-.41992,.67188-.71484,.93848-.53223,.47559-1.19043,.71387-1.93262,.71387-1.40039,0-2.87207-.88281-2.87207-3.03906,0-1.7373,1.06543-3.08203,2.81641-3.08203,1.13379,0,1.84863,.56055,2.19824,1.06445,.36426,.51855,.5752,1.41504,.54688,2.18555h-4.52441c.01367,1.2041,.84082,1.97461,1.84863,1.97461,.47656,0,.85449-.13965,1.19043-.41992,.2666-.22461,.47656-.51855,.60254-.79883l.84082,.46289Zm-.99512-2.05957c-.16797-.91016-.85352-1.5127-1.70801-1.5127s-1.55566,.64453-1.70898,1.5127h3.41699Z" fill="#fff"/>
    <path d="M300.0791,386.86217c.63086,0,1.56934,.04199,2.26953,.51758,.5459,.36426,1.02246,1.0791,1.02246,2.07324,0,1.42871-.93848,2.47949-2.35352,2.57812l2.96973,4.17383h-1.26074l-2.84277-4.08984h-.2666v4.08984h-1.03613v-9.34277h1.49805Zm-.46191,4.32812h.6582c1.28906,0,2.05957-.61621,2.05957-1.70898,0-.51855-.1543-1.03613-.74316-1.37305-.41992-.23828-.89648-.26562-1.34473-.26562h-.62988v3.34766Z" fill="#fff"/>
    <path d="M310.23145,394.72057c-.16797,.32129-.41992,.67188-.71484,.93848-.53223,.47559-1.19043,.71387-1.93262,.71387-1.40039,0-2.87207-.88281-2.87207-3.03906,0-1.7373,1.06543-3.08203,2.81641-3.08203,1.13379,0,1.84863,.56055,2.19922,1.06445,.36328,.51855,.57422,1.41504,.5459,2.18555h-4.52441c.01367,1.2041,.83984,1.97461,1.84863,1.97461,.47656,0,.85449-.13965,1.19043-.41992,.2666-.22461,.47656-.51855,.60254-.79883l.84082,.46289Zm-.99512-2.05957c-.16797-.91016-.85449-1.5127-1.70801-1.5127-.85449,0-1.55566,.64453-1.70898,1.5127h3.41699Z" fill="#fff"/>
    <path d="M316.3623,392.01647c-.53223-.67188-1.30273-.86816-1.82129-.86816-1.07812,0-2.05859,.75586-2.05859,2.1709s1.00879,2.15723,2.04492,2.15723c.60254,0,1.34473-.26562,1.87695-.91016v1.2041c-.62988,.46289-1.30273,.60254-1.84863,.60254-1.80762,0-3.11035-1.28809-3.11035-3.03906,0-1.7793,1.31738-3.08203,3.11035-3.08203,.92383,0,1.52637,.36426,1.80664,.56055v1.2041Z" fill="#fff"/>
    <path d="M317.57715,393.3192c0-1.76465,1.30273-3.06738,3.08203-3.06738s3.08203,1.30273,3.08203,3.06738c0,1.76562-1.31738,3.05371-3.08203,3.05371s-3.08203-1.28809-3.08203-3.05371Zm1.03711,0c0,1.42871,1.00879,2.15723,2.04492,2.15723,1.05078,0,2.04492-.74219,2.04492-2.15723,0-1.42871-.98047-2.1709-2.04492-2.1709s-2.04492,.75586-2.04492,2.1709Z" fill="#fff"/>
    <path d="M325.27734,390.39147h1.00879v.63086c.09863-.1543,.53223-.77051,1.31641-.77051,.30859,0,.64453,.1123,.89648,.23828l-.47559,.91016c-.22461-.1543-.43457-.19629-.58887-.19629-.40625,0-.6582,.16797-.8125,.36426-.16797,.22461-.33594,.61621-.33594,1.56934v3.06738h-1.00879v-5.81348Z" fill="#fff"/>
    <path d="M333.54102,385.99303h1.00781v10.21191h-1.00781v-.8125c-.33691,.43457-.9668,.98047-1.98926,.98047-1.4707,0-2.83008-1.03613-2.83008-3.08105,0-2.00391,1.34473-3.04004,2.83008-3.04004,1.12012,0,1.72266,.61621,1.98926,.9668v-5.22559Zm-3.78223,7.29883c0,1.24609,.7002,2.18457,1.90527,2.18457,1.23242,0,1.93262-1.02246,1.93262-2.1709,0-1.49902-1.03613-2.15723-1.93262-2.15723-.99512,0-1.90527,.72852-1.90527,2.14355Z" fill="#fff"/>
    <path d="M336.81445,387.47838c.3916,0,.71387,.32227,.71387,.71387,0,.39258-.32227,.71484-.71387,.71484-.39258,0-.71484-.32227-.71484-.71484,0-.3916,.32227-.71387,.71484-.71387Zm.50391,2.91309v5.81348h-1.00879v-5.81348h1.00879Z" fill="#fff"/>
    <path d="M339.22168,390.39147h1.00879v.67285c.18262-.23828,.7002-.8125,1.66699-.8125,.68652,0,1.31641,.28027,1.66699,.79785,.29395,.43457,.33594,.91113,.33594,1.55566v3.59961h-1.00879v-3.57227c0-.34961-.02734-.75586-.26562-1.06445-.19629-.25195-.50391-.41992-.95215-.41992-.35059,0-.72852,.09766-1.02344,.44824-.3916,.46191-.41992,1.14844-.41992,1.56836v3.04004h-1.00879v-5.81348Z" fill="#fff"/>
    <path d="M350.25684,390.39147h1.00781v5.67383c0,.62988,0,1.52637-.55957,2.2832-.43457,.58789-1.2334,1.07812-2.3252,1.07812-.99512,0-1.68164-.39258-2.07324-.78418-.39258-.39258-.75684-1.02246-.75684-1.87695h.99512c0,.49023,.19531,.92383,.44824,1.2041,.41992,.46289,.95215,.56055,1.40039,.56055,.71484,0,1.20508-.25195,1.54102-.8125,.29395-.47656,.32227-.99414,.32227-1.48438v-.84082c-.33691,.43457-.9668,.98047-1.98926,.98047-.85449,0-1.54102-.33594-1.98926-.78418-.39258-.39258-.84082-1.12109-.84082-2.29688,0-1.13477,.4209-1.83594,.84082-2.25586,.49023-.47656,1.20508-.78418,1.98926-.78418,.85449,0,1.52637,.36426,1.98926,.9668v-.82715Zm-3.19434,1.30273c-.49023,.50488-.58789,1.12109-.58789,1.59766,0,.50391,.09766,1.19043,.6582,1.70801,.32227,.29492,.71484,.47656,1.24707,.47656s.95215-.16797,1.27441-.49023c.39258-.37793,.6582-.99414,.6582-1.68066s-.25195-1.28906-.61621-1.63867c-.32227-.32227-.79883-.51855-1.31641-.51855-.61719,0-1.03711,.26562-1.31738,.5459Z" fill="#fff"/>
    <path d="M361.83496,393.57115h-3.97852l-1.12012,2.63379h-1.14844l4.2998-9.79102,4.18848,9.79102h-1.14844l-1.09277-2.63379Zm-.40625-.98047l-1.56836-3.73926-1.59766,3.73926h3.16602Z" fill="#fff"/>
    <path d="M369.68848,392.01647c-.53223-.67188-1.30273-.86816-1.82129-.86816-1.07812,0-2.05859,.75586-2.05859,2.1709s1.00879,2.15723,2.04492,2.15723c.60254,0,1.34473-.26562,1.87695-.91016v1.2041c-.62988,.46289-1.30273,.60254-1.84863,.60254-1.80762,0-3.11035-1.28809-3.11035-3.03906,0-1.7793,1.31738-3.08203,3.11035-3.08203,.92383,0,1.52637,.36426,1.80664,.56055v1.2041Z" fill="#fff"/>
    <path d="M375.72266,390.39147h1.00781v5.81348h-1.00781v-.8125c-.33691,.43457-.9668,.98047-1.98926,.98047-1.4707,0-2.83008-1.03613-2.83008-3.08105,0-2.00391,1.34473-3.04004,2.83008-3.04004,1.12012,0,1.72266,.61621,1.98926,.9668v-.82715Zm-3.78223,2.90039c0,1.24609,.7002,2.18457,1.90527,2.18457,1.23242,0,1.93262-1.02246,1.93262-2.1709,0-1.49902-1.03613-2.15723-1.93262-2.15723-.99512,0-1.90527,.72852-1.90527,2.14355Z" fill="#fff"/>
    <path d="M383.08691,385.99303h1.00781v10.21191h-1.00781v-.8125c-.33691,.43457-.9668,.98047-1.98926,.98047-1.4707,0-2.83008-1.03613-2.83008-3.08105,0-2.00391,1.34473-3.04004,2.83008-3.04004,1.12012,0,1.72266,.61621,1.98926,.9668v-5.22559Zm-3.78223,7.29883c0,1.24609,.7002,2.18457,1.90527,2.18457,1.23242,0,1.93262-1.02246,1.93262-2.1709,0-1.49902-1.03613-2.15723-1.93262-2.15723-.99512,0-1.90527,.72852-1.90527,2.14355Z" fill="#fff"/>
    <path d="M391.15137,394.72057c-.16797,.32129-.41992,.67188-.71484,.93848-.53223,.47559-1.19043,.71387-1.93262,.71387-1.40039,0-2.87207-.88281-2.87207-3.03906,0-1.7373,1.06543-3.08203,2.81641-3.08203,1.13379,0,1.84863,.56055,2.19922,1.06445,.36328,.51855,.57422,1.41504,.5459,2.18555h-4.52441c.01367,1.2041,.83984,1.97461,1.84863,1.97461,.47656,0,.85449-.13965,1.19043-.41992,.2666-.22461,.47656-.51855,.60254-.79883l.84082,.46289Zm-.99512-2.05957c-.16797-.91016-.85449-1.5127-1.70801-1.5127-.85449,0-1.55566,.64453-1.70898,1.5127h3.41699Z" fill="#fff"/>
    <path d="M392.72949,390.39147h1.00879v.61621c.32227-.47559,.82617-.75586,1.44336-.75586,1.0498,0,1.4707,.74219,1.58203,.93848,.56055-.88281,1.35938-.93848,1.75098-.93848,1.72363,0,1.8916,1.44238,1.8916,2.26953v3.68359h-1.00879v-3.53027c0-.6582-.08398-1.52637-1.03613-1.52637-1.16309,0-1.28906,1.12012-1.28906,1.82129v3.23535h-1.00879v-3.44629c0-.40625,.01465-1.61035-1.05078-1.61035-1.14844,0-1.27441,1.19043-1.27441,1.89062v3.16602h-1.00879v-5.81348Z" fill="#fff"/>
    <path d="M404.1543,395.65905l-2.6748-5.26758h1.14844l2.05859,4.16016,1.8916-4.16016h1.12012l-4.27148,9.03516h-1.12109l1.84863-3.76758Z" fill="#fff"/>
    <path d="M302.7832,407.19225h1.00781v5.81348h-1.00781v-.8125c-.33691,.43457-.9668,.98047-1.98926,.98047-1.4707,0-2.83008-1.03613-2.83008-3.08105,0-2.00391,1.34473-3.04004,2.83008-3.04004,1.12012,0,1.72266,.61621,1.98926,.9668v-.82715Zm-3.78223,2.90039c0,1.24609,.7002,2.18457,1.90527,2.18457,1.23242,0,1.93262-1.02246,1.93262-2.1709,0-1.49902-1.03613-2.15723-1.93262-2.15723-.99512,0-1.90527,.72852-1.90527,2.14355Z" fill="#fff"/>
    <path d="M305.69238,407.19225h1.00879v.67285c.18262-.23828,.7002-.8125,1.66699-.8125,.68652,0,1.31641,.28027,1.66699,.79785,.29395,.43457,.33594,.91113,.33594,1.55566v3.59961h-1.00879v-3.57227c0-.34961-.02734-.75586-.26562-1.06445-.19629-.25195-.50391-.41992-.95215-.41992-.35059,0-.72852,.09766-1.02344,.44824-.3916,.46191-.41992,1.14844-.41992,1.56836v3.04004h-1.00879v-5.81348Z" fill="#fff"/>
    <path d="M316.72754,402.79381h1.00781v10.21191h-1.00781v-.8125c-.33691,.43457-.9668,.98047-1.98926,.98047-1.4707,0-2.83008-1.03613-2.83008-3.08105,0-2.00391,1.34473-3.04004,2.83008-3.04004,1.12012,0,1.72266,.61621,1.98926,.9668v-5.22559Zm-3.78223,7.29883c0,1.24609,.7002,2.18457,1.90527,2.18457,1.23242,0,1.93262-1.02246,1.93262-2.1709,0-1.49902-1.03613-2.15723-1.93262-2.15723-.99512,0-1.90527,.72852-1.90527,2.14355Z" fill="#fff"/>
    <path d="M325.88477,402.37389l.8125,.41992-7.2002,12.98535-.8125-.39258,7.2002-13.0127Z" fill="#fff"/>
    <path d="M327.56055,410.11998c0-1.76465,1.30273-3.06738,3.08203-3.06738s3.08203,1.30273,3.08203,3.06738c0,1.76562-1.31738,3.05371-3.08203,3.05371s-3.08203-1.28809-3.08203-3.05371Zm1.03711,0c0,1.42871,1.00879,2.15723,2.04492,2.15723,1.05078,0,2.04492-.74219,2.04492-2.15723,0-1.42871-.98047-2.1709-2.04492-2.1709s-2.04492,.75586-2.04492,2.1709Z" fill="#fff"/>
    <path d="M335.26074,407.19225h1.00879v.63086c.09863-.1543,.53223-.77051,1.31641-.77051,.30859,0,.64453,.1123,.89648,.23828l-.47559,.91016c-.22461-.1543-.43457-.19629-.58887-.19629-.40625,0-.6582,.16797-.8125,.36426-.16797,.22461-.33594,.61621-.33594,1.56934v3.06738h-1.00879v-5.81348Z" fill="#fff"/>
    <path d="M342.66602,407.19225h1.00879v.63086c.09863-.1543,.53223-.77051,1.31641-.77051,.30859,0,.64453,.1123,.89648,.23828l-.47559,.91016c-.22461-.1543-.43457-.19629-.58887-.19629-.40625,0-.6582,.16797-.8125,.36426-.16797,.22461-.33594,.61621-.33594,1.56934v3.06738h-1.00879v-5.81348Z" fill="#fff"/>
    <path d="M351.62891,411.52135c-.16797,.32129-.41992,.67188-.71484,.93848-.53223,.47559-1.19043,.71387-1.93262,.71387-1.40039,0-2.87207-.88281-2.87207-3.03906,0-1.7373,1.06543-3.08203,2.81641-3.08203,1.13379,0,1.84863,.56055,2.19824,1.06445,.36426,.51855,.5752,1.41504,.54688,2.18555h-4.52441c.01367,1.2041,.84082,1.97461,1.84863,1.97461,.47656,0,.85449-.13965,1.19043-.41992,.2666-.22461,.47656-.51855,.60254-.79883l.84082,.46289Zm-.99512-2.05957c-.16797-.91016-.85352-1.5127-1.70801-1.5127s-1.55566,.64453-1.70898,1.5127h3.41699Z" fill="#fff"/>
    <path d="M357.66211,407.19225h1.00781v5.67383c0,.62988,0,1.52637-.55957,2.2832-.43457,.58789-1.2334,1.07812-2.3252,1.07812-.99512,0-1.68164-.39258-2.07324-.78418-.39258-.39258-.75684-1.02246-.75684-1.87695h.99512c0,.49023,.19531,.92383,.44824,1.2041,.41992,.46289,.95215,.56055,1.40039,.56055,.71387,0,1.20508-.25195,1.54102-.8125,.29395-.47656,.32227-.99414,.32227-1.48438v-.84082c-.33691,.43457-.9668,.98047-1.98926,.98047-.85449,0-1.54102-.33594-1.98926-.78418-.39258-.39258-.84082-1.12109-.84082-2.29688,0-1.13477,.4209-1.83594,.84082-2.25586,.49023-.47656,1.20508-.78418,1.98926-.78418,.85449,0,1.52637,.36426,1.98926,.9668v-.82715Zm-3.19434,1.30273c-.49023,.50488-.58789,1.12109-.58789,1.59766,0,.50391,.09766,1.19043,.6582,1.70801,.32227,.29492,.71484,.47656,1.24707,.47656s.95215-.16797,1.27441-.49023c.39258-.37793,.6582-.99414,.6582-1.68066s-.25195-1.28906-.61621-1.63867c-.32227-.32227-.79883-.51855-1.31641-.51855-.61621,0-1.03711,.26562-1.31738,.5459Z" fill="#fff"/>
    <path d="M361.07617,404.27916c.3916,0,.71387,.32227,.71387,.71387,0,.39258-.32227,.71484-.71387,.71484-.39258,0-.71484-.32227-.71484-.71484,0-.3916,.32227-.71387,.71484-.71387Zm.50391,2.91309v5.81348h-1.00879v-5.81348h1.00879Z" fill="#fff"/>
    <path d="M365.87891,408.53697c-.13965-.33594-.43457-.58789-.8125-.58789-.36426,0-.7002,.20996-.7002,.6582,0,.41992,.28027,.5459,.93848,.82617,.84082,.35059,1.23242,.61621,1.45703,.89648,.25195,.30859,.30762,.61621,.30762,.93848,0,1.21875-.88184,1.90527-2.00293,1.90527-.23828,0-1.54102-.02832-2.03125-1.48438l.86914-.36426c.11133,.30762,.44824,.95215,1.17676,.95215,.6582,0,.95215-.49023,.95215-.9248,0-.5459-.39258-.72754-.93848-.96582-.7002-.30859-1.14844-.53223-1.41504-.85449-.22363-.28027-.26562-.56055-.26562-.85449,0-1.02246,.71387-1.625,1.69434-1.625,.30859,0,1.13477,.05566,1.59668,1.05078l-.82617,.43359Z" fill="#fff"/>
    <path d="M369.44824,408.11705v4.88867h-1.00879v-4.88867h-.61621v-.9248h.61621v-2.10059h1.00879v2.10059h1.00879v.9248h-1.00879Z" fill="#fff"/>
    <path d="M376.5625,411.52135c-.16797,.32129-.41992,.67188-.71484,.93848-.53223,.47559-1.19043,.71387-1.93262,.71387-1.40039,0-2.87207-.88281-2.87207-3.03906,0-1.7373,1.06543-3.08203,2.81641-3.08203,1.13379,0,1.84863,.56055,2.19824,1.06445,.36426,.51855,.5752,1.41504,.54688,2.18555h-4.52441c.01367,1.2041,.84082,1.97461,1.84863,1.97461,.47656,0,.85449-.13965,1.19043-.41992,.2666-.22461,.47656-.51855,.60254-.79883l.84082,.46289Zm-.99512-2.05957c-.16797-.91016-.85352-1.5127-1.70801-1.5127s-1.55566,.64453-1.70898,1.5127h3.41699Z" fill="#fff"/>
    <path d="M378.14062,407.19225h1.00879v.63086c.09863-.1543,.53223-.77051,1.31641-.77051,.30859,0,.64453,.1123,.89648,.23828l-.47559,.91016c-.22461-.1543-.43457-.19629-.58887-.19629-.40625,0-.6582,.16797-.8125,.36426-.16797,.22461-.33594,.61621-.33594,1.56934v3.06738h-1.00879v-5.81348Z" fill="#fff"/>
    <path d="M387.10352,411.52135c-.16797,.32129-.41992,.67188-.71484,.93848-.53223,.47559-1.19043,.71387-1.93262,.71387-1.40039,0-2.87207-.88281-2.87207-3.03906,0-1.7373,1.06543-3.08203,2.81641-3.08203,1.13379,0,1.84863,.56055,2.19824,1.06445,.36426,.51855,.5752,1.41504,.54688,2.18555h-4.52441c.01367,1.2041,.84082,1.97461,1.84863,1.97461,.47656,0,.85449-.13965,1.19043-.41992,.2666-.22461,.47656-.51855,.60254-.79883l.84082,.46289Zm-.99512-2.05957c-.16797-.91016-.85352-1.5127-1.70801-1.5127s-1.55566,.64453-1.70898,1.5127h3.41699Z" fill="#fff"/>
    <path d="M393.13672,402.79381h1.00781v10.21191h-1.00781v-.8125c-.33691,.43457-.9668,.98047-1.98926,.98047-1.4707,0-2.83008-1.03613-2.83008-3.08105,0-2.00391,1.34473-3.04004,2.83008-3.04004,1.12012,0,1.72266,.61621,1.98926,.9668v-5.22559Zm-3.78223,7.29883c0,1.24609,.7002,2.18457,1.90527,2.18457,1.23242,0,1.93262-1.02246,1.93262-2.1709,0-1.49902-1.03613-2.15723-1.93262-2.15723-.99512,0-1.90527,.72852-1.90527,2.14355Z" fill="#fff"/>
    <path d="M298.32812,423.99205h1.00879v.61621c.32227-.47559,.82617-.75586,1.44336-.75586,1.0498,0,1.4707,.74219,1.58203,.93848,.56055-.88281,1.35938-.93848,1.75098-.93848,1.72363,0,1.8916,1.44238,1.8916,2.26953v3.68359h-1.00879v-3.53027c0-.6582-.08398-1.52637-1.03613-1.52637-1.16309,0-1.28906,1.12012-1.28906,1.82129v3.23535h-1.00879v-3.44629c0-.40625,.01465-1.61035-1.05078-1.61035-1.14844,0-1.27441,1.19043-1.27441,1.89062v3.16602h-1.00879v-5.81348Z" fill="#fff"/>
    <path d="M313.07324,428.32115c-.16797,.32129-.41992,.67188-.71484,.93848-.53223,.47559-1.19043,.71387-1.93262,.71387-1.40039,0-2.87207-.88281-2.87207-3.03906,0-1.7373,1.06543-3.08203,2.81641-3.08203,1.13379,0,1.84863,.56055,2.19922,1.06445,.36328,.51855,.57422,1.41504,.5459,2.18555h-4.52441c.01367,1.2041,.83984,1.97461,1.84863,1.97461,.47656,0,.85449-.13965,1.19043-.41992,.2666-.22461,.47656-.51855,.60254-.79883l.84082,.46289Zm-.99512-2.05957c-.16797-.91016-.85449-1.5127-1.70801-1.5127-.85449,0-1.55566,.64453-1.70898,1.5127h3.41699Z" fill="#fff"/>
    <path d="M319.10645,419.59362h1.00781v10.21191h-1.00781v-.8125c-.33691,.43457-.9668,.98047-1.98926,.98047-1.4707,0-2.83008-1.03613-2.83008-3.08203,0-2.00293,1.34473-3.03906,2.83008-3.03906,1.12012,0,1.72266,.61621,1.98926,.9668v-5.22559Zm-3.78223,7.29785c0,1.24707,.7002,2.18555,1.90527,2.18555,1.23242,0,1.93262-1.02246,1.93262-2.1709,0-1.49902-1.03613-2.15723-1.93262-2.15723-.99512,0-1.90527,.72852-1.90527,2.14258Z" fill="#fff"/>
    <path d="M322.38086,421.07897c.3916,0,.71387,.32227,.71387,.71387,0,.39258-.32227,.71484-.71387,.71484-.39258,0-.71484-.32227-.71484-.71484,0-.3916,.32227-.71387,.71484-.71387Zm.50391,2.91309v5.81348h-1.00879v-5.81348h1.00879Z" fill="#fff"/>
    <path d="M329.24316,423.99205h1.00781v5.81348h-1.00781v-.8125c-.33691,.43457-.9668,.98047-1.98926,.98047-1.4707,0-2.83008-1.03613-2.83008-3.08203,0-2.00293,1.34473-3.03906,2.83008-3.03906,1.12012,0,1.72266,.61621,1.98926,.9668v-.82715Zm-3.78223,2.89941c0,1.24707,.7002,2.18555,1.90527,2.18555,1.23242,0,1.93262-1.02246,1.93262-2.1709,0-1.49902-1.03613-2.15723-1.93262-2.15723-.99512,0-1.90527,.72852-1.90527,2.14258Z" fill="#fff"/>
    <path d="M339.9668,425.61705c-.53223-.67188-1.30273-.86816-1.82129-.86816-1.07812,0-2.05859,.75586-2.05859,2.1709s1.00879,2.15723,2.04492,2.15723c.60254,0,1.34473-.26562,1.87695-.91016v1.2041c-.62988,.46289-1.30273,.60254-1.84863,.60254-1.80762,0-3.11035-1.28906-3.11035-3.03906,0-1.7793,1.31738-3.08203,3.11035-3.08203,.92383,0,1.52637,.36426,1.80664,.56055v1.2041Z" fill="#fff"/>
    <path d="M341.18164,426.91979c0-1.76465,1.30273-3.06738,3.08203-3.06738s3.08203,1.30273,3.08203,3.06738-1.31738,3.05371-3.08203,3.05371-3.08203-1.28906-3.08203-3.05371Zm1.03711,0c0,1.42871,1.00879,2.15723,2.04492,2.15723,1.05078,0,2.04492-.74219,2.04492-2.15723,0-1.42871-.98047-2.1709-2.04492-2.1709s-2.04492,.75586-2.04492,2.1709Z" fill="#fff"/>
    <path d="M348.88184,423.99205h1.00879v.61621c.32227-.47559,.82617-.75586,1.44336-.75586,1.0498,0,1.4707,.74219,1.58203,.93848,.56055-.88281,1.35938-.93848,1.75098-.93848,1.72363,0,1.8916,1.44238,1.8916,2.26953v3.68359h-1.00879v-3.53027c0-.6582-.08398-1.52637-1.03613-1.52637-1.16309,0-1.28906,1.12012-1.28906,1.82129v3.23535h-1.00879v-3.44629c0-.40625,.01465-1.61035-1.05078-1.61035-1.14844,0-1.27441,1.19043-1.27441,1.89062v3.16602h-1.00879v-5.81348Z" fill="#fff"/>
    <path d="M359.48047,433.02721h-1.00879v-9.03516h1.00879v.8125c.68652-.85449,1.56934-.95215,1.98926-.95215,1.82129,0,2.8291,1.5127,2.8291,3.08203,0,1.59668-1.02246,3.03906-2.78711,3.03906-.93848,0-1.59668-.41992-2.03125-.98047v4.03418Zm3.78223-6.09277c0-1.42969-.9668-2.18555-1.90527-2.18555s-1.93262,.77051-1.93262,2.1709c0,1.19043,.75586,2.15723,1.94727,2.15723,1.17578,0,1.89062-.98047,1.89062-2.14258Z" fill="#fff"/>
    <path d="M370.29102,423.99205h1.00781v5.81348h-1.00781v-.8125c-.33691,.43457-.9668,.98047-1.98926,.98047-1.4707,0-2.83008-1.03613-2.83008-3.08203,0-2.00293,1.34473-3.03906,2.83008-3.03906,1.12012,0,1.72266,.61621,1.98926,.9668v-.82715Zm-3.78223,2.89941c0,1.24707,.7002,2.18555,1.90527,2.18555,1.23242,0,1.93262-1.02246,1.93262-2.1709,0-1.49902-1.03613-2.15723-1.93262-2.15723-.99512,0-1.90527,.72852-1.90527,2.14258Z" fill="#fff"/>
    <path d="M373.2002,423.99205h1.00879v.67285c.18262-.23828,.7002-.8125,1.66699-.8125,.68652,0,1.31641,.28027,1.66699,.79883,.29395,.43359,.33594,.91016,.33594,1.55469v3.59961h-1.00879v-3.57227c0-.34961-.02734-.75586-.26562-1.06445-.19629-.25195-.50391-.41992-.95215-.41992-.35059,0-.72852,.09766-1.02344,.44824-.3916,.46191-.41992,1.14844-.41992,1.56836v3.04004h-1.00879v-5.81348Z" fill="#fff"/>
    <path d="M380.28516,421.07897c.3916,0,.71387,.32227,.71387,.71387,0,.39258-.32227,.71484-.71387,.71484-.39258,0-.71484-.32227-.71484-.71484,0-.3916,.32227-.71387,.71484-.71387Zm.50391,2.91309v5.81348h-1.00879v-5.81348h1.00879Z" fill="#fff"/>
    <path d="M387.84766,428.32115c-.16797,.32129-.41992,.67188-.71484,.93848-.53223,.47559-1.19043,.71387-1.93262,.71387-1.40039,0-2.87207-.88281-2.87207-3.03906,0-1.7373,1.06543-3.08203,2.81641-3.08203,1.13379,0,1.84863,.56055,2.19824,1.06445,.36426,.51855,.5752,1.41504,.54688,2.18555h-4.52441c.01367,1.2041,.84082,1.97461,1.84863,1.97461,.47656,0,.85449-.13965,1.19043-.41992,.2666-.22461,.47656-.51855,.60254-.79883l.84082,.46289Zm-.99512-2.05957c-.16797-.91016-.85352-1.5127-1.70801-1.5127s-1.55566,.64453-1.70898,1.5127h3.41699Z" fill="#fff"/>
    <path d="M391.82129,425.33678c-.13965-.33594-.43359-.58789-.8125-.58789-.36426,0-.7002,.20996-.7002,.6582,0,.41992,.28027,.5459,.93848,.82617,.84082,.35059,1.23242,.61621,1.45703,.89648,.25195,.30859,.30762,.61621,.30762,.93848,0,1.21875-.88184,1.90527-2.00293,1.90527-.23828,0-1.54102-.02832-2.03125-1.48438l.86914-.36426c.11133,.30762,.44824,.95215,1.17676,.95215,.6582,0,.95215-.49023,.95215-.9248,0-.5459-.39258-.72754-.93848-.96582-.7002-.30859-1.14844-.53223-1.41504-.85449-.22363-.28027-.26562-.56055-.26562-.85449,0-1.02246,.71387-1.625,1.69434-1.625,.30859,0,1.13477,.05566,1.59668,1.05078l-.82617,.43359Z" fill="#fff"/>
    <path d="M394.99805,428.54479c.37793,0,.7002,.32227,.7002,.7002,0,.37891-.32227,.7002-.7002,.7002s-.7002-.32129-.7002-.7002c0-.37793,.32227-.7002,.7002-.7002Z" fill="#fff"/>
  </g>
</svg>