<?xml version="1.0" encoding="UTF-8"?>
<svg id="Layer_1" data-name="Layer 1" xmlns="http://www.w3.org/2000/svg" viewBox="0 0 724.53 368.37">
  <g>
    <line x1="362.12" y1="176.02" x2="362.12" y2="346.08" fill="none" stroke="#231f20" stroke-miterlimit="10" stroke-width="2"/>
    <polygon points="352.15 343.17 362.12 360.44 372.1 343.17 352.15 343.17" fill="#231f20"/>
  </g>
  <path d="M373.91,62.82c0-.77-.62-1.39-1.39-1.39s-1.39,.62-1.39,1.39,.62,1.39,1.39,1.39,1.39-.62,1.39-1.39" fill="#9e9e9e"/>
  <path d="M376.01,56.57c0-.77-.62-1.39-1.39-1.39s-1.39,.62-1.39,1.39,.62,1.39,1.39,1.39,1.39-.62,1.39-1.39" fill="#9e9e9e"/>
  <path d="M401.72,10.82c6.88,1.68,13.59,3.99,20.04,6.9l-47.56,105.62,27.52-112.52Z" fill="#262262"/>
  <path d="M411.28,49.39c56.45,25.42,82.94,90.74,60.13,148.3s-86.85,87.01-145.39,66.86c-58.54-20.15-90.89-82.77-73.45-142.18,17.45-59.4,78.52-94.59,138.67-79.88l-27.52,112.52,47.56-105.62Z" fill="#4a5977"/>
  <text transform="translate(517.68 39.85)" fill="#231f20" font-family="FuturaPT-Book, Futura PT" font-size="18"><tspan x="0" y="0">2.9% of the voting </tspan><tspan x="0" y="21.6">members are experts </tspan><tspan x="0" y="43.2">in various fields who </tspan><tspan x="0" y="64.8">screen and sort </tspan><tspan x="0" y="86.4">submissions by </tspan><tspan x="0" y="108">category. </tspan></text>
  <polyline points="510.23 41.4 465.54 41.4 400.29 36.9" fill="none" stroke="#757575" stroke-miterlimit="10" stroke-width=".52"/>
  <g>
    <circle cx="362.12" cy="254.6" r="40.44" fill="#fff" stroke="#231f20" stroke-miterlimit="10" stroke-width=".75"/>
    <g>
      <path d="M379.76,239.41c-1.31,1.31-2.42,2.41-3.53,3.51-.25,.25-.48,.51-.76,.71-.69,.5-1.4,.49-1.98-.15-.55-.61-.51-1.3,.03-1.9,.67-.75,1.4-1.46,2.11-2.19,1.34-1.38,2.68-2.76,4.03-4.13,1.06-1.08,1.71-1.09,2.74-.04,1.98,2.02,3.96,4.05,5.92,6.09,.75,.78,.82,1.61,.22,2.21-.63,.64-1.51,.57-2.31-.21-1.24-1.22-2.47-2.46-3.73-3.72-.36,.36-.2,.76-.21,1.1-.01,7.48,0,14.97,0,22.45,0,.31,.02,.63-.01,.94-.07,.75-.43,1.27-1.24,1.28-.81,.01-1.19-.49-1.27-1.25-.03-.31-.01-.63-.01-.94,0-7.45,0-14.9,0-22.35v-1.44Z" fill="#231f20"/>
      <path d="M343.08,268.72c.31-.38,.17-.78,.17-1.14,0-7.51,0-15.03,0-22.54,0-.31-.03-.63,.02-.94,.11-.7,.49-1.15,1.25-1.14,.77,0,1.13,.47,1.23,1.17,.05,.31,.02,.63,.02,.94,0,7.48,0,14.96,0,22.44,0,.37,0,.75,0,1.12l.25,.15c.95-.98,1.91-1.96,2.86-2.94,.32-.32,.63-.65,.96-.96,.65-.62,1.37-.69,2.06-.1,.65,.55,.64,1.41-.04,2.12-1.57,1.64-3.17,3.25-4.75,4.88-.54,.55-1.06,1.11-1.61,1.64-.66,.63-1.4,.66-2.04,0-2.16-2.18-4.31-4.38-6.43-6.6-.62-.65-.59-1.53,.02-2.05,.69-.59,1.42-.53,2.06,.1,1.17,1.15,2.32,2.32,3.48,3.48,.14,.14,.31,.25,.47,.39Z" fill="#231f20"/>
      <path d="M362.71,249.31c-3.56,0-7.12,0-10.69,0-1.25,0-1.88-.55-1.87-1.6,0-1.04,.63-1.55,1.9-1.55,7.16,0,14.32,0,21.48,0,1.25,0,1.88,.54,1.87,1.59-.01,1.04-.63,1.56-1.9,1.56-3.6,0-7.19,0-10.79,0Z" fill="#231f20"/>
      <path d="M362.78,255.61c-3.67,0-7.33,0-11,0-.82,0-1.35-.38-1.56-1.12-.2-.68-.02-1.31,.58-1.77,.33-.26,.7-.27,1.09-.27,7.26,0,14.53,0,21.79,0,1.1,0,1.7,.55,1.73,1.52,.03,1.03-.59,1.62-1.73,1.63-3.63,0-7.26,0-10.9,0Z" fill="#231f20"/>
      <path d="M362.88,258.75c3.56,0,7.12,0,10.69,0,1.2,0,1.81,.52,1.83,1.52,.03,1.06-.6,1.63-1.83,1.63-7.19,0-14.39,0-21.58,0-1.24,0-1.86-.56-1.83-1.63,.03-1,.64-1.52,1.83-1.52,3.63,0,7.26,0,10.9,0Z" fill="#231f20"/>
    </g>
  </g>
</svg>