<?xml version="1.0" encoding="UTF-8"?>
<svg id="Layer_1" data-name="Layer 1" xmlns="http://www.w3.org/2000/svg" viewBox="0 0 724.25 387.36">
  <g>
    <line x1="361.52" y1="188.94" x2="361.52" y2="359.01" fill="none" stroke="#231f20" stroke-miterlimit="10" stroke-width="2"/>
    <polygon points="351.55 356.09 361.52 373.36 371.5 356.09 351.55 356.09" fill="#231f20"/>
  </g>
  <circle cx="361.52" cy="141.39" r="120.96" fill="#0b0c0c"/>
  <text transform="translate(273.73 118.26)" fill="#fff" font-size="14" font-family="FuturaPT-Book, Futura PT, Futura,Trebuchet MS,Arial,sans-serif"><tspan x="15" y="0" >3 rounds of voting ballets </tspan><tspan x="15" y="21.6">are casted by all voting</tspan><tspan x="15" y="44.8">members before official </tspan><tspan x="15" y="64.8">nominees are selected.</tspan></text>
  <g>
    <path d="M353.16,290.62c8.78,0,17.57,.07,26.35-.06,1.94-.03,2.31,.6,2.19,2.3-.14,1.84,0,3.7-.04,5.54-.02,1.25,.4,2.2,1.76,2.2,1.41,0,1.7-1.06,1.7-2.25,0-2.62-.04-5.24,.03-7.86,.04-1.44-.29-2.66-1.07-3.9-2.49-3.98-5.04-7.93-7.19-12.09-1.59-3.06-3.47-4.92-7.12-4.19-.5,.1-1.21,.28-1.49-.61-.68-2.12,.11-3.94,2.16-4.71,1.73-.64,3.5-1.23,5.37-1.3,6.76-.24,11.63-3.6,15.1-9.18,2.53-4.07,5.04-8.17,9.31-10.67,1.52-.89,1.9-2,1.72-3.62-1.02-8.83-5.39-15.38-13.18-19.67-1.45-.8-2.61-.72-3.99,.33-4.39,3.34-9.28,5.66-14.65,7.08-5.57,1.48-11.1,3.12-16.42,5.39-2.83,1.2-4.6,3.13-5.56,6.04-1.33,4.04-2.23,8.16-2.91,12.34-.19,1.15-.56,1.67-1.74,1.95-3.69,.88-5.47,3.13-5.57,6.9-.07,2.39-.16,4.79,.02,7.16,.17,2.12-.55,2.97-2.64,2.59-2.47-.45-3.9,.62-5.1,2.8-2.6,4.71-5.48,9.27-8.26,13.88-.44,.73-.86,1.41-.84,2.33,.04,3,.03,6.01,.01,9.01,0,1.22,.35,2.22,1.72,2.25,1.4,.03,1.77-1,1.78-2.2,0-1.93,.11-3.86-.03-5.78-.12-1.6,.37-2.08,2.02-2.06,8.86,.09,17.72,.04,26.58,.05Z" fill="#fefefe"/>
    <path d="M353.16,290.62c-8.86,0-17.72,.04-26.58-.04-1.65-.02-2.13,.46-2.02,2.06,.14,1.92,.04,3.85,.03,5.78,0,1.21-.38,2.23-1.78,2.2-1.37-.03-1.73-1.02-1.72-2.25,.02-3,.03-6.01-.01-9.01-.01-.92,.41-1.6,.84-2.33,2.78-4.61,5.67-9.17,8.26-13.88,1.2-2.18,2.63-3.25,5.1-2.8,2.09,.38,2.81-.47,2.64-2.59-.19-2.37-.09-4.77-.02-7.16,.1-3.76,1.88-6.01,5.57-6.9,1.18-.28,1.55-.8,1.74-1.95,.69-4.17,1.58-8.3,2.91-12.34,.96-2.91,2.73-4.84,5.56-6.04,5.33-2.27,10.85-3.91,16.42-5.39,5.37-1.43,10.26-3.75,14.65-7.08,1.38-1.05,2.54-1.13,3.99-.33,7.79,4.29,12.16,10.84,13.18,19.67,.19,1.62-.2,2.73-1.72,3.62-4.27,2.5-6.78,6.6-9.31,10.67-3.47,5.59-8.34,8.94-15.1,9.18-1.87,.07-3.63,.65-5.37,1.3-2.06,.76-2.84,2.59-2.16,4.71,.29,.89,.99,.71,1.49,.61,3.66-.73,5.54,1.13,7.12,4.19,2.15,4.16,4.7,8.11,7.19,12.09,.78,1.24,1.11,2.46,1.07,3.9-.07,2.62-.03,5.24-.03,7.86,0,1.2-.29,2.25-1.7,2.25-1.36,0-1.78-.95-1.76-2.2,.03-1.85-.1-3.71,.04-5.54,.13-1.71-.25-2.33-2.19-2.3-8.78,.13-17.56,.06-26.35,.05Zm-1.18-37.16c4.19-.12,2.94,.68,4.57-3.03,.53-1.2,1-2.41,1.45-3.64,.25-.68,.55-1.33,1.25-1.56,3.14-1.07,6.13-2.41,9.5-.14,3.22,2.16,3.7,3.71,1.04,6.55-2.9,3.1-6.61,4.98-10.43,6.64-3.1,1.35-5.72,3.31-7.76,5.99-1.8,2.37-.99,4.05,2.01,4.35,1.08,.11,2.13-.02,3.19-.34,2.17-.66,4.08-1.76,5.93-3.03,3.66-2.52,7.65-4.71,12.05-4.86,6.36-.23,10.52-3.15,13.46-8.5,2.13-3.88,4.76-7.42,8.53-9.85,1.52-.98,1.77-2.08,1.46-3.65-1.16-5.99-4.26-10.61-9.45-13.86-1.18-.74-2.03-.8-3.26,.07-4.29,3.04-8.99,5.24-14.12,6.61-5.34,1.42-10.66,2.95-15.81,5.02-2.41,.97-3.85,2.58-4.56,5.08-.8,2.81-1.44,5.66-2.01,8.52q-.72,3.64,2.96,3.64Zm12.9,14.59c-.92,.55-1.55,.96-2.2,1.32-3.01,1.66-6.14,2.85-9.67,2.54-5.11-.45-7.1-4.29-4.48-8.64,1.43-2.38,3.49-4.19,5.98-6.29-3.61,0-6.73-.05-9.85,.02-2.11,.04-3.28,1.32-3.3,3.59-.03,6.08,.04,12.16-.04,18.25-.02,1.4,.5,1.64,1.73,1.63,6.7-.05,13.4-.07,20.09,0,1.5,.02,1.78-.51,1.74-1.87-.09-3.38-.03-6.77-.03-10.56Zm15.41,19c-2.6-4.32-5.05-8.31-7.43-12.35-.98-1.66-2.48-.7-3.74-.91-.72-.12-.87,.43-.87,1.04,0,1.13-.19,2.15,1.38,2.7,1.44,.51,2.3,1.9,1.87,3.56-.45,1.75-1.69,2.76-3.52,2.77-9.94,.03-19.87,.02-29.81,0-1.86,0-3.06-1.11-3.51-2.81-.43-1.64,.5-2.98,1.93-3.53,1.43-.54,1.28-1.51,1.28-2.56,0-.54,.01-1.24-.75-1.16-1.22,.14-2.74-.73-3.61,.69-2.53,4.09-4.97,8.23-7.58,12.57h54.35Zm-20.98-33.61c3.75,.18,5.92-2.33,8.39-4.46-4.35-3.21-6.93-1.82-8.39,4.46Z" fill="#1a1b1c"/>
    <path d="M351.98,253.45q-3.68,0-2.96-3.64c.57-2.86,1.21-5.71,2.01-8.52,.71-2.5,2.15-4.11,4.56-5.08,5.15-2.08,10.47-3.6,15.81-5.02,5.13-1.36,9.83-3.56,14.12-6.61,1.23-.87,2.08-.81,3.26-.07,5.19,3.25,8.29,7.87,9.45,13.86,.3,1.57,.06,2.67-1.46,3.65-3.77,2.43-6.4,5.97-8.53,9.85-2.94,5.35-7.1,8.27-13.46,8.5-4.41,.16-8.4,2.34-12.05,4.86-1.84,1.27-3.76,2.38-5.93,3.03-1.06,.32-2.11,.45-3.19,.34-3-.29-3.81-1.98-2.01-4.35,2.04-2.68,4.66-4.64,7.76-5.99,3.82-1.67,7.53-3.55,10.43-6.64,2.67-2.84,2.18-4.39-1.04-6.55-3.37-2.27-6.37-.93-9.5,.14-.7,.24-1,.89-1.25,1.56-.45,1.22-.93,2.44-1.45,3.64-1.63,3.71-.38,2.91-4.57,3.03Z" fill="#fbfbfb"/>
    <path d="M364.88,268.04c0,3.78-.06,7.17,.03,10.56,.04,1.36-.24,1.89-1.74,1.87-6.7-.08-13.4-.06-20.09,0-1.23,0-1.75-.23-1.73-1.63,.07-6.08,0-12.16,.04-18.25,.01-2.27,1.19-3.55,3.3-3.59,3.12-.06,6.24-.02,9.85-.02-2.49,2.09-4.55,3.91-5.98,6.29-2.62,4.36-.63,8.2,4.48,8.64,3.53,.31,6.66-.88,9.67-2.54,.65-.36,1.28-.77,2.2-1.32Z" fill="#fbfbfb"/>
    <path d="M380.3,287.04h-54.35c2.6-4.33,5.05-8.48,7.58-12.57,.88-1.42,2.39-.55,3.61-.69,.76-.09,.75,.62,.75,1.16,0,1.05,.15,2.02-1.28,2.56-1.44,.55-2.36,1.89-1.93,3.53,.44,1.7,1.65,2.81,3.51,2.81,9.94,.03,19.87,.03,29.81,0,1.83,0,3.07-1.02,3.52-2.77,.42-1.66-.43-3.05-1.87-3.56-1.57-.55-1.37-1.57-1.38-2.7,0-.61,.14-1.16,.87-1.04,1.26,.21,2.76-.75,3.74,.91,2.37,4.04,4.82,8.03,7.43,12.35Z" fill="#fbfbfb"/>
    <path d="M359.32,253.43c1.46-6.28,4.04-7.67,8.39-4.46-2.47,2.13-4.65,4.64-8.39,4.46Z" fill="#fbfbfb"/>
  </g>
</svg>