<?xml version="1.0" encoding="UTF-8"?>
<svg id="Layer_1" data-name="Layer 1" xmlns="http://www.w3.org/2000/svg" viewBox="0 0 724.25 753.41">
  <g>
    <line x1="359.73" y1="208.59" x2="359.73" y2="378.66" fill="none" stroke="#231f20" stroke-miterlimit="10" stroke-width="2"/>
    <polygon points="349.76 375.74 359.73 393.01 369.7 375.74 349.76 375.74" fill="#231f20"/>
  </g>
  <circle cx="359.73" cy="169.69" r="120.96" fill="#4a5977"/>
  <text transform="translate(307.65 137.91)" fill="#fff" font-family="FuturaPT-Book, Futura PT, Futura,Trebuchet MS,Arial,sans-serif" font-size="18"><tspan x="0" y="0">Eligibi</tspan><tspan x="42.59" y="0" letter-spacing=".03em">t</tspan><tspan x="46.98" y="0">y </tspan><tspan x="59.45" y="0" letter-spacing="0em">P</tspan><tspan x="67.54" y="0">eriod</tspan><tspan x="-23.03" y="21.6">Oct. 1 of t</tspan><tspan x="47.51" y="21.6" letter-spacing="0em">h</tspan><tspan x="55.79" y="21.6">e p</tspan><tspan x="78.11" y="21.6" letter-spacing="-.02em">r</tspan><tspan x="83" y="21.6">evious </tspan><tspan x="-30.98" y="43.2">year th</tspan><tspan x="17.26" y="43.2" letter-spacing="-.02em">r</tspan><tspan x="22.16" y="43.2">ough Aug. </tspan><tspan x="99.45" y="43.2" letter-spacing="-.15em">3</tspan><tspan x="106.97" y="43.2">1 of </tspan><tspan x="-2.11" y="64.8">t</tspan><tspan x="1.75" y="64.8" letter-spacing="0em">h</tspan><tspan x="10.03" y="64.8">e cur</tspan><tspan x="44.48" y="64.8" letter-spacing="-.02em">r</tspan><tspan x="49.37" y="64.8">ent year</tspan></text>
  <g>
    <line x1="361.46" y1="558.17" x2="361.46" y2="728.24" fill="none" stroke="#231f20" stroke-miterlimit="10" stroke-width="2"/>
    <polygon points="351.49 725.32 361.46 742.59 371.43 725.32 351.49 725.32" fill="#231f20"/>
  </g>
  <circle cx="361.06" cy="516.48" r="120.96" fill="#4a5977"/>
  <text transform="translate(286.88 487)" fill="#fff" font-family="FuturaPT-Book, Futura PT, Futura,Trebuchet MS,Arial,sans-serif" font-size="18"><tspan x="0" y="0">Submission a</tspan><tspan x="91.22" y="0" letter-spacing="-.02em">r</tspan><tspan x="96.12" y="0">e made </tspan><tspan x="-1.6" y="21.6">th</tspan><tspan x="10.71" y="21.6" letter-spacing="-.02em">r</tspan><tspan x="15.61" y="21.6">ough </tspan><tspan x="55.55" y="21.6" letter-spacing="-.02em">r</tspan><tspan x="60.44" y="21.6">eco</tspan><tspan x="86.42" y="21.6" letter-spacing="-.02em">r</tspan><tspan x="91.31" y="21.6">d labels, </tspan><tspan x="-20.24" y="43.2">independent </tspan><tspan x="71.31" y="43.2" letter-spacing="0em">d</tspan><tspan x="80.59" y="43.2">istributo</tspan><tspan x="134.74" y="43.2" letter-spacing="0em">r</tspan><tspan x="140.05" y="43.2">, t</tspan><tspan x="152.2" y="43.2" letter-spacing="-.01em">h</tspan><tspan x="160.48" y="43.2">e </tspan><tspan x="-.31" y="64.8">internet, or mail o</tspan><tspan x="120.86" y="64.8" letter-spacing="-.02em">r</tspan><tspan x="125.75" y="64.8">der</tspan></text>
  <g>
    <path d="M316.31,618.19h.01c0,6.76,0,13.52,0,20.29,0,.58,.02,1.16,.12,1.73,.66,3.62,3.73,6.16,7.47,6.16,19.99,0,39.98,0,59.97,0,4.78,0,9.56,0,14.35,0,1.39,0,2.71-.31,3.9-1.05,2.52-1.56,3.68-3.86,3.68-6.8,0-13.45,0-26.9,0-40.35,0-.24-.01-.49,0-.73,.06-.64-.2-1.09-.73-1.46-5.52-3.74-11.03-7.49-16.55-11.23-.28-.19-.38-.39-.38-.73,.01-2.63,0-5.27,0-7.9,0-1.16-.42-1.58-1.59-1.58-4.17,0-8.33,0-12.5,0-.37,0-.68-.09-.99-.31-3.99-2.73-8-5.44-12-8.16-.83-.56-1.16-.56-1.97,.02-3.74,2.66-7.49,5.32-11.23,7.99-.45,.32-.89,.46-1.44,.45-3.61-.02-7.21-.01-10.82,0-1.25,0-1.63,.39-1.63,1.65,0,2.39,0,4.78,0,7.17,0,.41-.1,.67-.46,.92-5.54,3.91-11.06,7.84-16.59,11.76-.44,.31-.64,.71-.64,1.23,0,6.97,0,13.94,0,20.9Z" fill="#f6f6f6"/>
    <path d="M361.07,576.99c-8.01,0-16.03,0-24.04-.01-.5,0-.61,.12-.61,.61,.02,9.27,.01,18.53,0,27.8,0,.41,.14,.62,.5,.82,8.2,4.41,16.4,8.84,24.6,13.27,.37,.2,.64,.21,1.02,0,7.54-4.27,15.08-8.53,22.63-12.77,.38-.21,.55-.44,.55-.9-.02-9.4-.02-18.79,0-28.19,0-.54-.17-.63-.66-.63-8,.01-15.99,.01-23.99,.01Z" fill="#314e5a"/>
    <path d="M321.34,643.22c.51,.32,1,.49,1.52,.58,1.3,.22,2.61,.11,3.91,.11,21.52,.01,43.04,0,64.57,0,2.3,0,4.6-.01,6.89-.01,.76,0,1.48-.15,2.17-.47q.61-.27,.13-.7c-3.05-2.72-6.1-5.45-9.15-8.17-6.42-5.72-12.84-11.43-19.25-17.15-.3-.27-.51-.29-.87-.09-2.79,1.6-5.59,3.16-8.38,4.75-.58,.33-1.09,.33-1.68,0-3.2-1.74-6.41-3.46-9.61-5.2-.33-.18-.53-.19-.82,.08-.91,.86-1.86,1.67-2.8,2.5-6.75,6.01-13.51,12.02-20.26,18.03-2.12,1.89-4.23,3.79-6.38,5.72Z" fill="#314e5a"/>
    <path d="M318.79,619.36c0,6.39,0,12.78,0,19.16,0,.85,.12,1.67,.46,2.46,.17,.4,.3,.5,.68,.16,2.12-1.91,4.27-3.79,6.41-5.69,7.37-6.55,14.73-13.11,22.1-19.66,.34-.3,.33-.43-.07-.64-9.67-5.2-19.33-10.41-28.99-15.61-.58-.31-.58-.31-.58,.33,0,6.5,0,13,0,19.5Z" fill="#314e5a"/>
    <path d="M403.34,599.29c-.25,.13-.42,.2-.58,.29-3.69,2.08-7.39,4.15-11.08,6.23-5.5,3.1-10.99,6.2-16.49,9.3-1.22,.69-1.22,.67-.17,1.6,6.87,6.1,13.73,12.21,20.6,18.32,2.34,2.08,4.69,4.17,7.06,6.28,.56-.92,.66-1.91,.66-2.92,0-12.81,0-25.63,0-38.44v-.66Z" fill="#314e5a"/>
    <path d="M319.96,596.98c4.7,2.54,9.32,5.03,13.98,7.54v-17.5c-4.67,3.33-9.29,6.61-13.98,9.96Z" fill="#314e5a"/>
    <path d="M402.16,597.02c-4.7-3.2-9.3-6.34-13.97-9.52v17.4c4.65-2.63,9.25-5.22,13.97-7.88Z" fill="#314e5a"/>
    <path d="M351.58,574.48h17.36l-.11-.13c-2.79-1.9-5.59-3.79-8.37-5.7-.3-.2-.49-.14-.74,.04-1.55,1.11-3.1,2.21-4.65,3.31-1.13,.81-2.27,1.61-3.49,2.48Z" fill="#314e5a"/>
    <path d="M316.31,618.19c0-6.97,0-13.94,0-20.9,0-.52,.2-.92,.64-1.23,5.53-3.92,11.06-7.85,16.59-11.76,.35-.25,.46-.51,.46-.92-.02-2.39,0-4.78,0-7.17,0-1.26,.38-1.65,1.63-1.65,3.61,0,7.21,0,10.82,0,.55,0,.99-.13,1.44-.45,3.73-2.68,7.48-5.33,11.23-7.99,.81-.58,1.14-.58,1.97-.02,4,2.72,8,5.43,12,8.16,.31,.21,.61,.31,.99,.31,4.17,0,8.33,0,12.5,0,1.18,0,1.59,.41,1.59,1.58,0,2.63,0,5.27,0,7.9,0,.34,.1,.54,.38,.73,5.52,3.74,11.03,7.49,16.55,11.23,.54,.36,.79,.81,.73,1.46-.02,.24,0,.49,0,.73,0,13.45,0,26.9,0,40.35,0,2.94-1.16,5.24-3.68,6.8-1.19,.74-2.5,1.05-3.9,1.05-4.78,0-9.56,0-14.35,0-19.99,0-39.98,0-59.97,0-3.73,0-6.8-2.54-7.47-6.16-.1-.57-.12-1.15-.12-1.73,0-6.76,0-13.52,0-20.29h-.01Z" fill="#fff" stroke="#231f20" stroke-miterlimit="10" stroke-width=".5"/>
    <ellipse cx="361.05" cy="604.36" rx="19.7" ry="19.92" fill="#e6e7e8"/>
    <path d="M380.74,604.36h-1.5c0,5.09-2.04,9.69-5.34,13.03-3.3,3.33-7.84,5.39-12.86,5.39-5.03,0-9.56-2.05-12.86-5.39-3.3-3.34-5.34-7.93-5.34-13.03,0-5.09,2.04-9.69,5.34-13.03,3.3-3.33,7.84-5.39,12.86-5.39,5.03,0,9.56,2.05,12.86,5.39,3.3,3.34,5.34,7.93,5.34,13.03h3c0-5.9-2.37-11.26-6.2-15.14-3.83-3.87-9.14-6.28-14.99-6.28-5.85,0-11.17,2.4-14.99,6.28-3.83,3.87-6.2,9.23-6.2,15.14,0,5.9,2.37,11.26,6.2,15.14,3.83,3.87,9.14,6.28,14.99,6.28,5.85,0,11.17-2.4,14.99-6.28,3.83-3.87,6.2-9.23,6.2-15.14h-1.5Z" fill="#231f20"/>
    <polygon points="388.62 633.74 335.64 633.74 335.64 606.05 361.94 620.58 388.62 604.71 388.62 633.74" fill="#fff"/>
    <path d="M319.96,596.98c4.7-3.34,9.31-6.63,13.98-9.96v17.5c-4.66-2.51-9.28-5.01-13.98-7.54Z" fill="#6d6e71"/>
    <path d="M402.16,597.02c-4.72,2.67-9.31,5.26-13.97,7.88v-17.4c4.67,3.18,9.27,6.32,13.97,9.52Z" fill="#6d6e71"/>
    <path d="M351.58,574.48c1.22-.87,2.36-1.68,3.49-2.48,1.55-1.1,3.1-2.2,4.65-3.31,.25-.18,.44-.24,.74-.04,2.78,1.91,5.58,3.8,8.37,5.7l.11,.13h-17.36Z" fill="#6d6e71"/>
    <path d="M368.64,604.36c0,4.19-3.4,7.59-7.59,7.59s-7.59-3.4-7.59-7.59,3.4-7.59,7.59-7.59,7.59,3.4,7.59,7.59Z" fill="#939598"/>
    <circle cx="361.05" cy="604.36" r="3.55" fill="#f6f6f6"/>
  </g>
  <g>
    <path d="M399.4,291.4c-.05,11.52-3.21,19.63-9.13,26.74-1.2,1.44-1.1,.92-.19,2.48,1.69,2.92,3.32,5.86,4.31,9.11,.32,1.05,.55,2.12,.45,3.24-.15,1.6-1.19,2.58-2.79,2.53-2.04-.06-3.78-1-5.47-2.01-2.73-1.63-5.25-3.56-7.81-5.44-.49-.36-.86-.42-1.43-.17-10.48,4.57-20.98,4.7-31.46,.01-.71-.32-1.16-.21-1.72,.22-3.06,2.29-6.11,4.6-9.52,6.35-.95,.49-1.94,.9-3.01,1.03-2.14,.26-3.42-.83-3.44-2.98-.02-1.75,.54-3.38,1.21-4.96,1.08-2.54,2.34-4.99,3.87-7.28,.49-.74,.4-1.22-.13-1.82-2.12-2.41-3.93-5.05-5.37-7.93-3.25-6.49-4.62-13.36-3.87-20.59,1.14-10.97,6.1-19.86,14.81-26.61,5.29-4.1,11.32-6.51,17.96-7.35,7.02-.89,13.81,0,20.26,2.92,8.77,3.97,15.18,10.36,19.18,19.13,2.26,4.96,3.43,10.15,3.31,13.39Zm-37.89-29.24c-15.57-.52-30.97,12.69-31.38,30.49-.41,17.72,13.75,32.23,31.41,32.24,18.01,.01,31.12-15.02,31.43-30.84,.33-17.27-14.32-32.38-31.46-31.9Z" fill="#fff" stroke="#231f20" stroke-miterlimit="10" stroke-width=".75"/>
    <path d="M387.03,249.21c1.48-.07,2.82,.88,4.15,2,2.88,2.43,5.68,4.93,8.46,7.47,1.9,1.73,2.79,5.13,.53,7.81-1.14,1.35-2.33,2.66-3.47,4.01-.45,.53-.58,.1-.76-.19-2.15-3.46-4.87-6.44-7.9-9.14-2.5-2.23-5.19-4.22-8.25-5.62-.7-.32-.71-.62-.22-1.15,1.29-1.37,2.5-2.82,3.95-4.03,.92-.77,1.97-1.17,3.52-1.16Z" fill="#fff" stroke="#231f20" stroke-miterlimit="10" stroke-width=".75"/>
    <path d="M334.9,249.2c1.91,0,3.22,.56,4.28,1.66,1.15,1.19,2.28,2.41,3.44,3.59,.49,.5,.35,.76-.21,1.03-2.56,1.26-4.96,2.77-7.13,4.61-3.46,2.94-6.55,6.23-8.99,10.09-.43,.68-.64,.61-1.1,.06-1.26-1.54-2.73-2.9-3.78-4.61-1.32-2.12-.97-4.93,.82-6.64,3.09-2.95,6.28-5.78,9.55-8.52,1.01-.85,2.18-1.24,3.12-1.28Z" fill="#fff" stroke="#231f20" stroke-miterlimit="10" stroke-width=".75"/>
    <path d="M361.51,262.17c17.14-.49,31.79,14.62,31.46,31.9-.3,15.82-13.41,30.86-31.43,30.84-17.66-.01-31.82-14.52-31.41-32.24,.41-17.81,15.81-31.02,31.38-30.49Zm1.55,17.69h0c0-3.1,0-6.19,0-9.29,0-.36,.04-.71-.29-1-.54-.48-1.1-.77-1.83-.49-.72,.27-.69,.89-.7,1.48-.03,6.11-.06,12.21-.07,18.32,0,.64-.14,1.06-.72,1.44-1.75,1.15-2.24,3.32-1.24,5.03,1.08,1.84,3.22,2.54,5.09,1.52,.91-.5,1.83-.64,2.82-.66,1.1-.03,2.19-.04,3.29-.05,3.68-.05,7.37,.04,11.05-.16,.5-.03,.92-.15,1.31-.49,.88-.76,1.17-1.71,.81-2.8-.35-1.08-1.14-1.68-2.32-1.75-4.19-.27-8.38-.11-12.57-.24-1.12-.03-2.25-.05-3.37-.18-1.04-.12-1.27-.46-1.27-1.47,0-3.07,0-6.13,0-9.2Z" fill="#e6e7e8"/>
    <path d="M363.06,279.86c0,3.07,0,6.13,0,9.2,0,1.01,.23,1.35,1.27,1.47,1.11,.13,2.24,.15,3.37,.18,4.19,.12,8.39-.03,12.57,.24,1.18,.07,1.97,.67,2.32,1.75,.35,1.1,.07,2.04-.81,2.8-.38,.33-.81,.46-1.31,.49-3.68,.2-7.37,.11-11.05,.16-1.1,.02-2.19,.03-3.29,.05-.98,.02-1.9,.16-2.82,.66-1.87,1.03-4.01,.33-5.09-1.52-1-1.71-.51-3.88,1.24-5.03,.58-.38,.72-.8,.72-1.44,0-6.11,.04-12.21,.07-18.32,0-.59-.02-1.21,.7-1.48,.74-.27,1.29,.01,1.83,.49,.33,.3,.29,.64,.29,1,0,3.1,0,6.19,0,9.29h0Z" fill="#050505"/>
  </g>
</svg>