<?xml version="1.0" encoding="UTF-8"?>
<svg id="Layer_1" data-name="Layer 1" xmlns="http://www.w3.org/2000/svg" viewBox="100 0 524.25 1161.54">
  <g>
    <path d="M176.93,42.79h-2.81c-.18-.53-.28-1.6-.33-3.21-1.15,1.79-3.35,3.57-7.68,3.57-7.22,0-11.09-5.47-11.09-12.59,0-7.49,4.16-13.12,11.76-13.12,5.93,0,9.61,3.24,10.3,7.67h-3.71c-.79-2.58-2.66-4.62-6.66-4.62-5.68,0-7.82,4.57-7.82,9.91,0,4.99,2.2,9.69,7.72,9.69s6.71-3.63,6.71-7.47v-.26h-6.75v-3.14h10.37v13.59Z" fill="#0b0c0c"/>
    <path d="M186.58,31.96v10.82h-3.66V17.78h10c5.2,0,7.97,2.83,7.97,6.72,0,3.27-1.86,5.21-4.14,5.89,1.89,.53,3.68,2.01,3.68,6.38v1.1c0,1.71-.06,3.84,.34,4.92h-3.58c-.45-1.08-.44-3.01-.44-5.42v-.5c0-3.4-.95-4.9-5.34-4.9h-4.82Zm0-3.08h5.27c3.66,0,5.24-1.38,5.24-4.05s-1.66-3.98-4.91-3.98h-5.59v8.03Z" fill="#0b0c0c"/>
    <path d="M210.36,35.61l-2.55,7.17h-3.68l8.83-25h4.59l9.21,25h-3.94l-2.64-7.17h-9.82Zm8.91-3.14c-2.27-6.33-3.54-9.79-4.1-11.76h-.04c-.61,2.19-2.04,6.35-3.86,11.76h8Z" fill="#0b0c0c"/>
    <path d="M251.87,32.37c0-4.57,.05-9.3,.16-11.97h-.14c-1.09,4.25-4.84,14.53-7.62,22.38h-3.28c-2.1-6.48-5.99-18.03-7.1-22.44h-.12c.2,2.9,.29,8.37,.29,12.66v9.78h-3.46V17.78h5.53c2.67,7.53,5.9,17.19,6.73,20.48h.06c.59-2.57,4.44-13.14,7.21-20.48h5.37v25h-3.61v-10.41Z" fill="#0b0c0c"/>
    <path d="M283.4,32.37c0-4.57,.05-9.3,.16-11.97h-.14c-1.09,4.25-4.84,14.53-7.62,22.38h-3.28c-2.1-6.48-5.99-18.03-7.1-22.44h-.12c.2,2.9,.29,8.37,.29,12.66v9.78h-3.46V17.78h5.53c2.67,7.53,5.9,17.19,6.73,20.48h.06c.59-2.57,4.44-13.14,7.21-20.48h5.37v25h-3.61v-10.41Z" fill="#0b0c0c"/>
    <path d="M299.12,42.79v-9.11c0-.25-.06-.5-.18-.69l-8.77-15.2h4.23c2.21,4.01,5.62,10.18,6.78,12.48,1.08-2.25,4.62-8.51,6.9-12.48h3.94l-9.02,15.23c-.09,.16-.16,.29-.16,.67v9.1h-3.73Z" fill="#0b0c0c"/>
    <path d="M324.1,42.79V17.78h4.83c3.5,5.8,10.91,17.8,12.27,20.52h.05c-.25-3.1-.23-7.11-.23-11.2v-9.32h3.47v25h-4.54c-3.19-5.32-10.99-18.37-12.5-21.19h-.05c.18,2.72,.19,7.13,.19,11.64v9.56h-3.48Z" fill="#0b0c0c"/>
    <path d="M372.99,30.16c0,6.89-3.92,12.99-11.84,12.99-7.45,0-11.56-5.69-11.56-12.86s4.26-12.86,11.86-12.86c7.09,0,11.54,5.25,11.54,12.73Zm-19.53,.02c0,5.3,2.65,9.84,7.84,9.84,5.62,0,7.81-4.64,7.81-9.81s-2.49-9.66-7.82-9.66-7.83,4.38-7.83,9.63Z" fill="#0b0c0c"/>
    <path d="M399.39,32.37c0-4.57,.05-9.3,.16-11.97h-.14c-1.09,4.25-4.84,14.53-7.62,22.38h-3.28c-2.1-6.48-5.99-18.03-7.1-22.44h-.12c.2,2.9,.29,8.37,.29,12.66v9.78h-3.46V17.78h5.53c2.67,7.53,5.9,17.19,6.73,20.48h.06c.59-2.57,4.44-13.14,7.21-20.48h5.37v25h-3.61v-10.41Z" fill="#0b0c0c"/>
    <path d="M413.35,17.78v25h-3.71V17.78h3.71Z" fill="#0b0c0c"/>
    <path d="M420,42.79V17.78h4.83c3.5,5.8,10.91,17.8,12.27,20.52h.05c-.25-3.1-.23-7.11-.23-11.2v-9.32h3.47v25h-4.54c-3.19-5.32-10.99-18.37-12.5-21.19h-.05c.18,2.72,.19,7.13,.19,11.64v9.56h-3.48Z" fill="#0b0c0c"/>
    <path d="M450.59,35.61l-2.55,7.17h-3.68l8.83-25h4.59l9.21,25h-3.94l-2.64-7.17h-9.82Zm8.91-3.14c-2.27-6.33-3.54-9.79-4.1-11.76h-.04c-.61,2.19-2.04,6.35-3.86,11.76h8Z" fill="#0b0c0c"/>
    <path d="M472.93,20.93h-7.98v-3.14h19.7v3.14h-7.99v21.86h-3.73V20.93Z" fill="#0b0c0c"/>
    <path d="M491.9,17.78v25h-3.71V17.78h3.71Z" fill="#0b0c0c"/>
    <path d="M520.41,30.16c0,6.89-3.92,12.99-11.84,12.99-7.45,0-11.56-5.69-11.56-12.86s4.26-12.86,11.86-12.86c7.09,0,11.54,5.25,11.54,12.73Zm-19.53,.02c0,5.3,2.65,9.84,7.84,9.84,5.62,0,7.81-4.64,7.81-9.81s-2.49-9.66-7.82-9.66-7.83,4.38-7.83,9.63Z" fill="#0b0c0c"/>
    <path d="M525.52,42.79V17.78h4.83c3.5,5.8,10.91,17.8,12.27,20.52h.05c-.25-3.1-.23-7.11-.23-11.2v-9.32h3.47v25h-4.54c-3.19-5.32-10.99-18.37-12.5-21.19h-.05c.18,2.72,.19,7.13,.19,11.64v9.56h-3.48Z" fill="#0b0c0c"/>
    <path d="M554.27,35.76c.66,2.91,2.66,4.43,6.15,4.43,3.71,0,5.19-1.7,5.19-3.96,0-2.42-1.23-3.72-6.1-4.9-6.06-1.46-8.04-3.57-8.04-7.05,0-3.83,2.84-6.85,8.48-6.85,6.08,0,8.57,3.46,8.91,6.82h-3.77c-.41-2.09-1.7-3.89-5.27-3.89-2.88,0-4.52,1.28-4.52,3.55s1.34,3.12,5.66,4.15c7.16,1.73,8.48,4.49,8.48,7.76,0,4.13-3.08,7.29-9.28,7.29s-9.13-3.38-9.66-7.35h3.77Z" fill="#0b0c0c"/>
  </g>
  <g>
    <line x1="360.53" y1="67.74" x2="360.53" y2="165.81" fill="none" stroke="#231f20" stroke-miterlimit="10" stroke-width="2"/>
    <polygon points="350.56 162.89 360.53 180.16 370.5 162.89 350.56 162.89" fill="#231f20"/>
  </g>
  <g>
    <line x1="363.19" y1="376.38" x2="363.19" y2="546.45" fill="none" stroke="#231f20" stroke-miterlimit="10" stroke-width="2"/>
    <polygon points="353.22 543.53 363.19 560.8 373.17 543.53 353.22 543.53" fill="#231f20"/>
  </g>
  <circle cx="363.19" cy="323.29" r="120.96" fill="#b26700"/>
  <text transform="translate(307.44 319.88)" fill="#fff" font-family="FuturaPT-Book, Futura PT, Futura,Trebuchet MS,Arial,sans-serif" font-size="14"><tspan x="10" y="0" letter-spacing="-.03em">Voting members </tspan><tspan x="10" y="21.6">cast final ballot.</tspan></text>
  <g>
    <path d="M219.45,1001.16h-2.81c-.18-.53-.28-1.6-.33-3.21-1.15,1.79-3.35,3.57-7.68,3.57-7.22,0-11.09-5.47-11.09-12.59,0-7.49,4.16-13.12,11.76-13.12,5.93,0,9.61,3.24,10.3,7.67h-3.71c-.79-2.58-2.66-4.62-6.66-4.62-5.68,0-7.82,4.57-7.82,9.91,0,4.99,2.2,9.69,7.72,9.69s6.71-3.63,6.71-7.47v-.26h-6.75v-3.14h10.37v13.59Z" fill="#b26700"/>
    <path d="M229.09,990.34v10.82h-3.66v-25h10c5.2,0,7.97,2.83,7.97,6.72,0,3.27-1.86,5.21-4.14,5.89,1.89,.53,3.68,2.01,3.68,6.38v1.1c0,1.71-.06,3.84,.34,4.92h-3.58c-.45-1.08-.44-3.01-.44-5.42v-.5c0-3.4-.95-4.9-5.34-4.9h-4.82Zm0-3.08h5.27c3.66,0,5.24-1.38,5.24-4.05s-1.66-3.98-4.91-3.98h-5.59v8.03Z" fill="#b26700"/>
    <path d="M252.88,993.98l-2.55,7.17h-3.68l8.83-25h4.59l9.21,25h-3.94l-2.64-7.17h-9.82Zm8.91-3.14c-2.27-6.33-3.54-9.79-4.1-11.76h-.04c-.61,2.19-2.04,6.35-3.86,11.76h8Z" fill="#b26700"/>
    <path d="M294.38,990.74c0-4.57,.05-9.3,.16-11.97h-.14c-1.09,4.25-4.84,14.53-7.62,22.38h-3.28c-2.1-6.48-5.99-18.03-7.1-22.44h-.12c.2,2.9,.29,8.37,.29,12.66v9.78h-3.46v-25h5.53c2.67,7.53,5.9,17.19,6.73,20.48h.06c.59-2.57,4.44-13.14,7.21-20.48h5.37v25h-3.61v-10.41Z" fill="#b26700"/>
    <path d="M325.92,990.74c0-4.57,.05-9.3,.16-11.97h-.14c-1.09,4.25-4.84,14.53-7.62,22.38h-3.28c-2.1-6.48-5.99-18.03-7.1-22.44h-.12c.2,2.9,.29,8.37,.29,12.66v9.78h-3.46v-25h5.53c2.67,7.53,5.9,17.19,6.73,20.48h.06c.59-2.57,4.44-13.14,7.21-20.48h5.37v25h-3.61v-10.41Z" fill="#b26700"/>
    <path d="M341.64,1001.16v-9.11c0-.25-.06-.5-.18-.69l-8.77-15.2h4.23c2.21,4.01,5.62,10.18,6.78,12.48,1.08-2.25,4.62-8.51,6.9-12.48h3.94l-9.02,15.23c-.09,.16-.16,.29-.16,.67v9.1h-3.73Z" fill="#b26700"/>
    <path d="M370.79,1001.16l-6.64-25h3.93c2.02,8.81,4.41,18.16,4.84,21h.04c.71-3.48,3.95-14.68,5.55-21h3.53c1.46,5.44,4.71,17.56,5.31,20.85h.04c.81-4.54,4.1-15.95,5.39-20.85h3.65l-7.2,25h-3.95c-1.48-5.71-4.5-16.9-5.16-20.14h-.04c-.78,3.86-3.82,14.53-5.37,20.14h-3.93Z" fill="#b26700"/>
    <path d="M404.02,976.16v25h-3.71v-25h3.71Z" fill="#b26700"/>
    <path d="M410.68,1001.16v-25h4.83c3.5,5.8,10.91,17.8,12.27,20.52h.05c-.25-3.1-.23-7.11-.23-11.2v-9.32h3.47v25h-4.54c-3.19-5.32-10.99-18.37-12.5-21.19h-.05c.18,2.72,.19,7.13,.19,11.64v9.56h-3.48Z" fill="#b26700"/>
    <path d="M437.71,1001.16v-25h4.83c3.5,5.8,10.91,17.8,12.27,20.52h.05c-.25-3.1-.23-7.11-.23-11.2v-9.32h3.47v25h-4.54c-3.19-5.32-10.99-18.37-12.5-21.19h-.05c.18,2.72,.19,7.13,.19,11.64v9.56h-3.48Z" fill="#b26700"/>
    <path d="M480.72,989.64h-12.34v8.37h13.57l-.47,3.14h-16.73v-25h16.55v3.14h-12.93v7.2h12.34v3.14Z" fill="#b26700"/>
    <path d="M490.01,990.34v10.82h-3.66v-25h10c5.2,0,7.97,2.83,7.97,6.72,0,3.27-1.86,5.21-4.14,5.89,1.89,.53,3.68,2.01,3.68,6.38v1.1c0,1.71-.06,3.84,.34,4.92h-3.58c-.45-1.08-.44-3.01-.44-5.42v-.5c0-3.4-.95-4.9-5.34-4.9h-4.82Zm0-3.08h5.27c3.66,0,5.24-1.38,5.24-4.05s-1.66-3.98-4.91-3.98h-5.59v8.03Z" fill="#b26700"/>
    <path d="M511.75,994.13c.66,2.91,2.66,4.43,6.15,4.43,3.71,0,5.19-1.7,5.19-3.96,0-2.42-1.23-3.72-6.1-4.9-6.06-1.46-8.04-3.57-8.04-7.05,0-3.83,2.84-6.85,8.48-6.85,6.08,0,8.57,3.46,8.91,6.82h-3.77c-.41-2.09-1.7-3.89-5.27-3.89-2.88,0-4.52,1.28-4.52,3.55s1.34,3.12,5.66,4.15c7.16,1.73,8.48,4.49,8.48,7.76,0,4.13-3.08,7.29-9.28,7.29s-9.13-3.38-9.66-7.35h3.77Z" fill="#b26700"/>
  </g>
  <g>
    <line x1="362.11" y1="758.09" x2="362.11" y2="928.16" fill="none" stroke="#231f20" stroke-miterlimit="10" stroke-width="2"/>
    <polygon points="352.14 925.24 362.11 942.52 372.09 925.24 352.14 925.24" fill="#231f20"/>
  </g>
  <circle cx="362.11" cy="705.01" r="120.96" fill="#b26700"/>
  <text transform="translate(290.17 701.6)" fill="#fff" font-family="FuturaPT-Book, Futura PT, Futura,Trebuchet MS,Arial,sans-serif" font-size="14"><tspan x="10" y="0">Ballots are tabulated </tspan><tspan x="10" y="21.6">by Deloitte.</tspan></text>
  <g>
    <path d="M356.35,475.26c8.78,0,17.57,.07,26.35-.06,1.94-.03,2.31,.6,2.19,2.3-.14,1.84,0,3.7-.04,5.54-.02,1.25,.4,2.2,1.76,2.2,1.41,0,1.7-1.06,1.7-2.25,0-2.62-.04-5.24,.03-7.86,.04-1.44-.29-2.66-1.07-3.9-2.49-3.98-5.04-7.93-7.19-12.09-1.59-3.06-3.47-4.92-7.12-4.19-.5,.1-1.21,.28-1.49-.61-.68-2.12,.11-3.94,2.16-4.71,1.73-.64,3.5-1.23,5.37-1.3,6.76-.24,11.63-3.6,15.1-9.18,2.53-4.07,5.04-8.17,9.31-10.67,1.52-.89,1.9-2,1.72-3.62-1.02-8.83-5.39-15.38-13.18-19.67-1.45-.8-2.61-.72-3.99,.33-4.39,3.34-9.28,5.66-14.65,7.08-5.57,1.48-11.1,3.12-16.42,5.39-2.83,1.2-4.6,3.13-5.56,6.04-1.33,4.04-2.23,8.16-2.91,12.34-.19,1.15-.56,1.67-1.74,1.95-3.69,.88-5.47,3.13-5.57,6.9-.07,2.39-.16,4.79,.02,7.16,.17,2.12-.55,2.97-2.64,2.59-2.47-.45-3.9,.62-5.1,2.8-2.6,4.71-5.48,9.27-8.26,13.88-.44,.73-.86,1.41-.84,2.33,.04,3,.03,6.01,.01,9.01,0,1.22,.35,2.22,1.72,2.25,1.4,.03,1.77-1,1.78-2.2,0-1.93,.11-3.86-.03-5.78-.12-1.6,.37-2.08,2.02-2.06,8.86,.09,17.72,.04,26.58,.05Z" fill="#fefefe"/>
    <path d="M356.35,475.26c-8.86,0-17.72,.04-26.58-.04-1.65-.02-2.13,.46-2.02,2.06,.14,1.92,.04,3.85,.03,5.78,0,1.21-.38,2.23-1.78,2.2-1.37-.03-1.73-1.02-1.72-2.25,.02-3,.03-6.01-.01-9.01-.01-.92,.41-1.6,.84-2.33,2.78-4.61,5.67-9.17,8.26-13.88,1.2-2.18,2.63-3.25,5.1-2.8,2.09,.38,2.81-.47,2.64-2.59-.19-2.37-.09-4.77-.02-7.16,.1-3.76,1.88-6.01,5.57-6.9,1.18-.28,1.55-.8,1.74-1.95,.69-4.17,1.58-8.3,2.91-12.34,.96-2.91,2.73-4.84,5.56-6.04,5.33-2.27,10.85-3.91,16.42-5.39,5.37-1.43,10.26-3.75,14.65-7.08,1.38-1.05,2.54-1.13,3.99-.33,7.79,4.29,12.16,10.84,13.18,19.67,.19,1.62-.2,2.73-1.72,3.62-4.27,2.5-6.78,6.6-9.31,10.67-3.47,5.59-8.34,8.94-15.1,9.18-1.87,.07-3.63,.65-5.37,1.3-2.06,.76-2.84,2.59-2.16,4.71,.29,.89,.99,.71,1.49,.61,3.66-.73,5.54,1.13,7.12,4.19,2.15,4.16,4.7,8.11,7.19,12.09,.78,1.24,1.11,2.46,1.07,3.9-.07,2.62-.03,5.24-.03,7.86,0,1.2-.29,2.25-1.7,2.25-1.36,0-1.78-.95-1.76-2.2,.03-1.85-.1-3.71,.04-5.54,.13-1.71-.25-2.33-2.19-2.3-8.78,.13-17.56,.06-26.35,.05Zm-1.18-37.16c4.19-.12,2.94,.68,4.57-3.03,.53-1.2,1-2.41,1.45-3.64,.25-.68,.55-1.33,1.25-1.56,3.14-1.07,6.13-2.41,9.5-.14,3.22,2.16,3.7,3.71,1.04,6.55-2.9,3.1-6.61,4.98-10.43,6.64-3.1,1.35-5.72,3.31-7.76,5.99-1.8,2.37-.99,4.05,2.01,4.35,1.08,.11,2.13-.02,3.19-.34,2.17-.66,4.08-1.76,5.93-3.03,3.66-2.52,7.65-4.71,12.05-4.86,6.36-.23,10.52-3.15,13.46-8.5,2.13-3.88,4.76-7.42,8.53-9.85,1.52-.98,1.77-2.08,1.46-3.65-1.16-5.99-4.26-10.61-9.45-13.86-1.18-.74-2.03-.8-3.26,.07-4.29,3.04-8.99,5.24-14.12,6.61-5.34,1.42-10.66,2.95-15.81,5.02-2.41,.97-3.85,2.58-4.56,5.08-.8,2.81-1.44,5.66-2.01,8.52q-.72,3.64,2.96,3.64Zm12.9,14.59c-.92,.55-1.55,.96-2.2,1.32-3.01,1.66-6.14,2.85-9.67,2.54-5.11-.45-7.1-4.29-4.48-8.64,1.43-2.38,3.49-4.19,5.98-6.29-3.61,0-6.73-.05-9.85,.02-2.11,.04-3.28,1.32-3.3,3.59-.03,6.08,.04,12.16-.04,18.25-.02,1.4,.5,1.64,1.73,1.63,6.7-.05,13.4-.07,20.09,0,1.5,.02,1.78-.51,1.74-1.87-.09-3.38-.03-6.77-.03-10.56Zm15.41,19c-2.6-4.32-5.05-8.31-7.43-12.35-.98-1.66-2.48-.7-3.74-.91-.72-.12-.87,.43-.87,1.04,0,1.13-.19,2.15,1.38,2.7,1.44,.51,2.3,1.9,1.87,3.56-.45,1.75-1.69,2.76-3.52,2.77-9.94,.03-19.87,.02-29.81,0-1.86,0-3.06-1.11-3.51-2.81-.43-1.64,.5-2.98,1.93-3.53,1.43-.54,1.28-1.51,1.28-2.56,0-.54,.01-1.24-.75-1.16-1.22,.14-2.74-.73-3.61,.69-2.53,4.09-4.97,8.23-7.58,12.57h54.35Zm-20.98-33.61c3.75,.18,5.92-2.33,8.39-4.46-4.35-3.21-6.93-1.82-8.39,4.46Z" fill="#1a1b1c"/>
    <path d="M355.18,438.1q-3.68,0-2.96-3.64c.57-2.86,1.21-5.71,2.01-8.52,.71-2.5,2.15-4.11,4.56-5.08,5.15-2.08,10.47-3.6,15.81-5.02,5.13-1.36,9.83-3.56,14.12-6.61,1.23-.87,2.08-.81,3.26-.07,5.19,3.25,8.29,7.87,9.45,13.86,.3,1.57,.06,2.67-1.46,3.65-3.77,2.43-6.4,5.97-8.53,9.85-2.94,5.35-7.1,8.27-13.46,8.5-4.41,.16-8.4,2.34-12.05,4.86-1.84,1.27-3.76,2.38-5.93,3.03-1.06,.32-2.11,.45-3.19,.34-3-.29-3.81-1.98-2.01-4.35,2.04-2.68,4.66-4.64,7.76-5.99,3.82-1.67,7.53-3.55,10.43-6.64,2.67-2.84,2.18-4.39-1.04-6.55-3.37-2.27-6.37-.93-9.5,.14-.7,.24-1,.89-1.25,1.56-.45,1.22-.93,2.44-1.45,3.64-1.63,3.71-.38,2.91-4.57,3.03Z" fill="#fbfbfb"/>
    <path d="M368.08,452.68c0,3.78-.06,7.17,.03,10.56,.04,1.36-.24,1.89-1.74,1.87-6.7-.08-13.4-.06-20.09,0-1.23,0-1.75-.23-1.73-1.63,.07-6.08,0-12.16,.04-18.25,.01-2.27,1.19-3.55,3.3-3.59,3.12-.06,6.24-.02,9.85-.02-2.49,2.09-4.55,3.91-5.98,6.29-2.62,4.36-.63,8.2,4.48,8.64,3.53,.31,6.66-.88,9.67-2.54,.65-.36,1.28-.77,2.2-1.32Z" fill="#fbfbfb"/>
    <path d="M383.5,471.68h-54.35c2.6-4.33,5.05-8.48,7.58-12.57,.88-1.42,2.39-.55,3.61-.69,.76-.09,.75,.62,.75,1.16,0,1.05,.15,2.02-1.28,2.56-1.44,.55-2.36,1.89-1.93,3.53,.44,1.7,1.65,2.81,3.51,2.81,9.94,.03,19.87,.03,29.81,0,1.83,0,3.07-1.02,3.52-2.77,.42-1.66-.43-3.05-1.87-3.56-1.57-.55-1.37-1.57-1.38-2.7,0-.61,.14-1.16,.87-1.04,1.26,.21,2.76-.75,3.74,.91,2.37,4.04,4.82,8.03,7.43,12.35Z" fill="#fbfbfb"/>
    <path d="M362.52,438.08c1.46-6.28,4.04-7.67,8.39-4.46-2.47,2.13-4.65,4.64-8.39,4.46Z" fill="#fbfbfb"/>
  </g>
  <g>
    <path d="M363.74,785.54c-6.46,0-12.91,.01-19.36,0-2.05,0-4.08,.07-6.1,.39-5.25,.85-9.37,3.45-12.22,7.98-2.13,3.39-2.76,7.18-2.76,11.09-.02,13.66,0,27.33-.02,40.99,0,1.86,.09,3.71,.4,5.54,.86,5.18,3.47,9.23,7.91,12.06,3.41,2.17,7.24,2.8,11.18,2.81,13.32,.04,26.64,.01,39.96,.02,1.57,0,3.14-.02,4.71-.16,5.44-.49,9.97-2.69,13.25-7.15,2.67-3.63,3.46-7.82,3.46-12.2,.02-13.54,0-27.07,.01-40.61,0-1.51-.04-3.01-.2-4.52-.53-4.98-2.58-9.14-6.53-12.3-3.69-2.96-8.04-3.87-12.62-3.9-7.02-.05-14.04-.01-21.07-.01Z" fill="#f7f7f7"/>
    <path d="M363.74,785.54c7.02,0,14.04-.04,21.07,.01,4.58,.03,8.93,.94,12.62,3.9,3.95,3.17,6,7.33,6.53,12.3,.16,1.5,.2,3.01,.2,4.52,0,13.54,0,27.07-.01,40.61,0,4.38-.79,8.57-3.46,12.2-3.29,4.46-7.81,6.66-13.25,7.15-1.57,.14-3.14,.16-4.71,.16-13.32,0-26.64,.02-39.96-.02-3.94-.01-7.77-.63-11.18-2.81-4.44-2.83-7.05-6.88-7.91-12.06-.3-1.83-.4-3.68-.4-5.54,.01-13.66,0-27.33,.02-40.99,0-3.91,.63-7.7,2.76-11.09,2.85-4.53,6.97-7.13,12.22-7.98,2.02-.33,4.06-.4,6.1-.39,6.45,.02,12.91,0,19.36,0Zm-24.96,40.04c0,7.18,.01,14.35-.02,21.53,0,.73,.2,.88,.89,.87,4.41-.03,8.81-.01,13.22-.02,1.92,0,3.84-.11,5.73-.46,7.93-1.47,13.49-5.8,15.95-13.62,1.71-5.43,1.81-10.98,.44-16.5-1.61-6.45-5.68-10.72-12-12.82-2.77-.92-5.64-1.29-8.55-1.29-4.94,0-9.89,.01-14.83-.02-.74,0-.86,.22-.86,.9,.03,7.14,.02,14.29,.02,21.43Zm43.51,23.08c3.59,0,6.51-2.88,6.51-6.44,0-3.53-2.88-6.43-6.4-6.46-3.6-.02-6.54,2.84-6.56,6.39-.03,3.57,2.88,6.5,6.45,6.51Z" fill="#fff" stroke="#231f20" stroke-miterlimit="10" stroke-width=".75"/>
    <path d="M338.79,825.58c0-7.14,0-14.29-.02-21.43,0-.68,.12-.9,.86-.9,4.94,.04,9.88,.01,14.83,.02,2.91,0,5.77,.37,8.55,1.29,6.32,2.1,10.39,6.37,12,12.82,1.38,5.51,1.27,11.07-.44,16.5-2.46,7.82-8.02,12.14-15.95,13.62-1.89,.35-3.81,.46-5.73,.46-4.41,0-8.81-.01-13.22,.02-.68,0-.89-.14-.89-.87,.03-7.18,.02-14.35,.02-21.53Zm11.82,.01c0,3.87,.02,7.74-.02,11.61,0,.73,.2,.92,.89,.87,.88-.07,1.76,0,2.64-.04,4.6-.2,7.56-2.44,8.75-6.8,1.06-3.9,1.06-7.85,.06-11.76-.9-3.52-3.15-5.73-6.82-6.3-1.53-.24-3.08-.1-4.62-.17-.71-.03-.9,.17-.89,.89,.04,3.9,.02,7.81,.02,11.71Z" fill="#231f20"/>
    <path d="M382.3,848.66c-3.57,0-6.48-2.94-6.45-6.51,.03-3.55,2.96-6.41,6.56-6.39,3.53,.02,6.4,2.92,6.4,6.46,0,3.56-2.92,6.45-6.51,6.44Z" fill="#84ba22"/>
    <path d="M350.61,825.6c0-3.9,.02-7.81-.02-11.71,0-.72,.19-.91,.89-.89,1.54,.06,3.09-.07,4.62,.17,3.68,.57,5.92,2.78,6.82,6.3,1,3.91,1.01,7.86-.06,11.76-1.19,4.36-4.15,6.6-8.75,6.8-.88,.04-1.77-.03-2.64,.04-.69,.05-.9-.14-.89-.87,.04-3.87,.02-7.74,.02-11.61Z" fill="#fff"/>
  </g>
  <path d="M389.76,1105.64c-.99-1.21-2.04-2.12-3.19-2.93-3.47-2.43-7.36-3.95-11.4-5.1-8.6-2.45-17.37-3.37-26.29-2.75-3.48,.25-6.92,.81-10.16,2.21-.77,.33-1.5,.72-2.18,1.2-1.25,.88-2.22,1.98-2.6,3.54-.65-.47-.86-1.04-.66-1.79,.25-.99,.71-1.88,1.16-2.78,7.24-14.42,14.48-28.84,21.72-43.26,.23-.45,.47-.9,.88-1.21,.28-.21,.59-.34,.92-.16,.33,.18,.37,.52,.34,.86-.04,.49-.2,.95-.46,1.36-1.83,2.87-1.73,5.89-.72,8.98,1.09,3.36,3,6.27,5.16,9.02,4.63,5.89,10.15,10.85,16.03,15.43,3.08,2.4,6.27,4.62,9.7,6.52,3.92,2.17,7.19,5.08,9.44,9.02,.21,.36,.46,.72,.56,1.11,.24,.93,.8,1.26,1.71,1.11,.58-.1,.67,.19,.66,.7-.03,1.56-.03,3.12,0,4.67,0,.51-.06,.81-.66,.66-.3-.08-.42,.06-.46,.37-.45,3.42-2.12,6.23-4.38,8.73-3.01,3.33-6.69,5.77-10.59,7.91-.46,.25-.92,.51-1.4,.72-.38,.16-.45,.41-.49,.8-.08,.71,.15,.99,.86,1.17,1.13,.29,2,1.07,2.81,1.88,2.12,2.11,3.71,4.61,5.17,7.19,4.17,7.39,7.27,15.24,9.87,23.3,1.18,3.67,2.23,7.38,2.83,11.2,.11,.71,.2,1.43,.22,2.16,.01,.33-.05,.51-.42,.46-.13-.02-.26,0-.39,0-26.42,0-52.83,0-79.25,0-.93,0-.86,.17-.78-.85,.2-2.74,.84-5.41,1.57-8.05,2.74-9.82,6.34-19.29,11.31-28.22,1.2-2.15,2.52-4.22,4.14-6.08,1.23-1.41,2.52-2.77,4.48-3.16,.27-.05,.21-.24,.21-.4,0-3.23,0-6.45,0-9.68,0-.34-.09-.47-.44-.45-.7,.02-1.4,0-2.11,.01-.32,0-.49-.05-.46-.43,.2-2.85,.71-5.61,2.12-8.13,.71-1.28,1.69-1.96,3.29-1.92,3.97,.1,7.94,.02,11.91,.04,.5,0,.69-.11,.67-.65-.04-1.14-.03-2.28,.02-3.42,.04-1.17,.61-1.83,1.77-1.88,1.44-.06,2.89,.03,4.34,.08,5.48,.2,10.96,.41,16.44,.62,2.34,.09,4.69,.17,7.19,.27Zm-4.31,15.5c.96-.79,1.8-1.55,2.57-2.38,1.75-1.89,3.21-3.94,3.67-6.55,.15-.86,.16-.86-.67-.94-.33-.03-.65-.07-.98-.1-4.06-.37-8.12-.75-12.18-1.12-3.32-.3-6.64-.59-9.96-.89-.13-.01-.31-.09-.37,.03-.17,.39-.11,.82-.05,1.22,.05,.35,.39,.2,.6,.2,4.12,0,8.25,.03,12.37,0,1,0,1.73,.38,2.32,1.12,.38,.46,.67,.97,.92,1.51,1.14,2.46,1.61,5.08,1.75,7.91Zm-2.94,2.22c.99-.71,1.98-1.36,2.98-2.3-.47,0-.75-.01-1.02,0-.67,.04-1.61-.3-1.94,.14-.34,.46-.09,1.34-.1,2.04,0,.02,.02,.03,.08,.11Z" fill="#b26700"/>
</svg>